<?xml version="1.0" encoding="UTF-8" standalone="no"?>
<svg xmlnsDc="http://purl.org/dc/elements/1.1/" xmlnsCc="http://creativecommons.org/ns#"
  xmlnsRdf="http://www.w3.org/1999/02/22-rdf-syntax-ns#" xmlnsSvg="http://www.w3.org/2000/svg"
  xmlns="http://www.w3.org/2000/svg" viewBox="0 0 5333.3335 5333.3335" height="5333.3335" width="5333.3335"
  xmlSpace="preserve" id="svg2" version="1.1">
  <defs id="defs6">
    <clipPath id="clipPath32" clipPathUnits="userSpaceOnUse">
      <path id="path30"
        d="m 24825.8,29837 c 0,-4094.1 -3318.9,-7413.1 -7413,-7413.1 -4094.1,0 -7413.09,3319 -7413.09,7413.1 0,4094.1 3318.99,7413.1 7413.09,7413.1 4094.1,0 7413,-3319 7413,-7413.1" />
    </clipPath>
  </defs>
  <g transform="matrix(1.3333333,0,0,-1.3333333,0,5333.3333)" id="g10">
    <g transform="scale(0.1)" id="g12">
      <g transform="scale(1.60482)" id="g18">
        <path id="path20" style="fill:#371a45;fill-opacity:1;fill-rule:nonzero;stroke:none"
          d="m 10963.7,10417.4 c -51.6,0 -93.5,41.9 -93.5,93.5 v 5695.6 c 0,51.7 41.9,93.5 93.5,93.5 51.7,0 93.5,-41.8 93.5,-93.5 v -5695.6 c 0,-51.6 -41.8,-93.5 -93.5,-93.5" />
      </g>
      <g transform="scale(2.32305)" id="g22">
        <path id="path24" style="fill:#00bdff;fill-opacity:1;fill-rule:nonzero;stroke:none"
          d="m 10351,14268.6 c 14.3,-28.9 28.4,-57.9 41.8,-87 721.3,-1559.9 75.6,-3420.8 -1472.5,-4193.14 -1548.01,-772.35 -3423.22,-169.22 -4235.77,1345.14 -15.15,28.2 -29.92,56.9 -44.3,85.8 -180.15,361.1 -285.44,739.9 -321.73,1118.9 -121.06,1260.9 520.87,2523.4 1708.53,3138.7 14.42,7.6 29.19,15 43.95,22.3 14.77,7.4 29.7,14.8 44.64,21.9 1206,578.8 2600.46,332.2 3534.79,-522.6 281.01,-257 520.39,-568.9 700.59,-930" />
      </g>
      <g id="g26">
        <g clip-path="url(#clipPath32)" id="g28">
          <g transform="scale(2.28534)" id="g34">
            <path id="path36" style="fill:#5ce205;fill-opacity:1;fill-rule:nonzero;stroke:none"
              d="m 9327.86,11254.1 c -15.1,160.1 -104.45,310.1 -237.43,398.7 -170.7,113.6 -209.47,362.6 -233.14,541.2 -19.03,144 -109.7,256 -250.2,156.7 -322.8,-228.2 -790.87,119 -882.72,451.9 -80.16,356.2 4.42,667.8 185.32,970.7 125.58,210.3 389.7,273.6 601.79,169.8 249.94,-122.4 639.6,256.1 680.2,503.3 4.64,28.2 7.66,66.3 -2.27,88.8 -101.17,227.2 -447.64,241.8 -563.42,31 -75,-136.6 -230.03,-186.2 -368.52,-112.4 -254.49,135.7 -334.61,22.4 -421.21,-227.5 -27.92,-80.5 -28.27,-226.1 -128.08,-164.2 -98.1,60.8 -182.2,182.2 -131.22,297.7 124.31,281.7 239.96,580.9 314.26,884.5 4.86,19.8 24.64,46.7 38.33,48.1 316.02,33.1 282.89,440.5 344.81,667.6 21.83,80.1 5.16,116.7 -46.47,148.4 -52.73,32.3 -77.28,-4.4 -97.67,-60.7 -34.22,-94.4 -67.78,-189.2 -102.56,-283.3 -17.86,-48.2 -24.33,-121.6 -78.02,-113.7 -62.93,9.3 -95.26,85.9 -91.59,155.6 10.55,199.4 63.41,422 184.79,583.3 91.89,122.1 269.37,210.4 410.27,116.6 175.02,-116.4 311.42,-104.6 502.98,-6.2 80.43,41.3 166.98,86.1 252.13,111.7 143.79,43.4 246.53,159.1 282.85,305.3 38.59,145.8 155.95,250.9 302.28,278.7 92.24,17.5 151.79,68.5 178.7,179.7 47.95,198 204.15,347.4 392.55,410.9 280,94.6 511.3,79 714.3,-130.2 55.4,-57.1 113.1,-34.8 167.3,-23.2 141.6,30.5 292.8,53.7 427.2,87.3 101.9,25.4 248.2,-22.9 314,-104.5 44.4,-55.1 96,-61.2 146.9,-53.9 70,10 145.3,11.3 211.4,18.9 159.6,18.5 227.6,-14.3 311.6,-158.2 33.3,-141 -60.5,-329.5 -192.6,-363.7 -38.4,-10 -84.8,-16.5 -128.9,-17.2 -123.5,-2 -144,-79.8 -102.6,-235.9 88.8,-335 -22.3,-828.3 -379.7,-952.6 -86.7,-30.1 -134.7,-64.2 -94.2,-201.8 21.2,-72.1 33.2,-157.2 -2.3,-231.7 -81.4,-170.7 -125.2,-363.4 -72.6,-546.9 41.4,-144.3 -97.2,-253.2 -227.1,-177 -141.1,82.8 -278.8,177.2 -410,276.9 -101.4,77.1 -159.2,52.8 -202.2,-82.6 -37.1,-116.8 -98.4,-235.3 -126.7,-348.1 -36.1,-143.8 -156.7,-243.1 -288.7,-132.9 -150.8,96 -231.7,132.6 -387.2,93.3 -55.09,-13.9 -116.88,7.5 -170.13,47.9 -54.13,41.1 -116.92,86.7 -145.36,-24.6 -26.78,-104.9 59.95,-98.3 98.94,-130.2 70.71,-57.9 147.9,-103.7 221.95,-150.9 130.1,-82.8 144.7,-214.1 60.1,-337.2 -82.6,-120 -237.99,-218.9 -381.82,-119.6 -96.88,61.5 -192.09,126.1 -288.58,187.7 -45.77,29.2 -88.83,81.1 -130.61,-24.4 -44.33,-111.7 19.86,-120 62.26,-148.7 168.69,-114 338.16,-226.5 510.74,-334.4 148.51,-92.9 198.21,-281.4 119.45,-435.3 -162.51,-317.4 -132.23,-660.7 -16.49,-1017.3 47.35,-145.9 82.85,-290.1 114.75,-440.9 65,-299.1 -75.5,-745.5 -406.04,-826.1 -131.54,-29.4 -240.14,62.2 -277.99,183 -32.65,104.2 -58.77,215.4 -85.81,322.8" />
          </g>
          <g transform="scale(2.05608)" id="g38">
            <path id="path40" style="fill:#5ce205;fill-opacity:1;fill-rule:nonzero;stroke:none"
              d="m 3451.02,14786.4 c -153.21,315.3 -129.79,562.2 221.75,697.9 519.36,225.7 1032.05,466.7 1537,721.1 85.21,42.9 172.56,94.6 248.34,0.8 64.05,-79.4 59.67,-179.3 27.09,-285 -57.78,-187.6 81.46,-234.5 212.54,-298.1 110.35,-53.6 231.84,15.2 322.65,106.3 79.91,80.2 -1.7,179.6 -17.95,268.4 -11.33,62.2 -47.08,128.5 0.34,183.3 48.98,56.5 99.17,3 141.05,-26 84.04,-58.2 164.1,-67.3 257.38,-14.2 81.66,46.5 169.11,43.8 231.75,-50.3 61.97,-93.2 52.29,-207.5 14.84,-311.2 -152.38,-422.4 -323.78,-850.8 -472.8,-1261.8 -63.95,-176.4 -260.25,-236.8 -416.76,-302 -157.05,-65.5 -160.94,-240.1 -92.99,-371.9 28.01,-54.3 59.14,-93.7 108.99,-73.7 198.39,80.2 364.19,-64.6 510.54,-166.5 112.35,-78.2 266.57,-127.1 401.34,-56.6 161.28,84.3 293.67,75.1 452.71,-20.7 124.7,-75.1 300.42,-187.7 455.92,-143.6 202.81,57.4 308.54,-529.5 267.74,-680.9 -111.67,-414.2 -263.66,-857.1 -419.73,-1264.4 -84.83,-221.3 -98.73,-444.7 -26.17,-661.9 36.33,-108.7 65.17,-236.4 91.97,-356.7 16.59,-74.5 70.33,-165.3 30.35,-223.4 -49.8,-72.4 -124.22,3.4 -181.95,37.8 -195.22,117.2 -317.4,336.9 -374.69,549.7 -42.56,157.9 -92.17,320.1 -124.8,478.9 -64.93,316.1 -177.09,651.2 -468.81,834.6 -263.99,181.6 -360.34,738.2 -280.48,1017.6 20.91,73 115.36,151.2 42.75,233.1 -75.63,85.3 -176.79,196.4 -279.22,155.8 -209.87,-83.3 -440.4,47.8 -602.51,172.8 -157.97,121.9 -317.64,244.5 -493.63,341.7 -258.7,140.3 -331.02,444.5 -420.24,693.8 -75.74,211.6 -384.75,448 -611.11,419 -165.72,-21.2 -219.41,-210.2 -293.2,-343.7" />
          </g>
          <g transform="scale(2.28534)" id="g42">
            <path id="path44" style="fill:#5ce205;fill-opacity:1;fill-rule:nonzero;stroke:none"
              d="m 6264.72,16202.4 c 58.59,32.1 120.86,66.4 175.99,95.6 117.93,62.3 321.92,237.6 429.35,49.5 153.8,-269.3 186.75,-520.4 88.48,-796.6 -83.71,-235.1 -185.58,-487.7 -265.52,-736.4 -67.08,-208.5 -150.27,-234.6 -285.96,-116.8 -78.19,67.8 -168.38,130 -199.36,238.8 -50.8,178.6 -181.46,312.3 -340.47,398.7 -88.08,47.9 -182.51,119.1 -152.23,283.1 26.12,141.6 57.01,319.7 198.96,391.8 115.3,58.6 233.93,127 351.07,191.2 l -0.31,1.1" />
          </g>
          <g transform="scale(2.12989)" id="g46">
            <path id="path48" style="fill:#5ce205;fill-opacity:1;fill-rule:nonzero;stroke:none"
              d="m 5710.02,15959.7 c -107.8,-65.9 -200.53,-112.5 -300.4,-70.8 -42.2,17.6 -77.51,51.9 -85.82,103.5 -11.5,70.8 44.88,84.3 81.97,106.5 62.5,37.3 127.29,68.1 190.67,103.8 112.78,63.4 241.14,97.3 278.61,-72.3 34.41,-156.1 -125.03,-108.5 -165.03,-170.7" />
          </g>
          <g transform="scale(1.74151)" id="g50">
            <path id="path52" style="fill:#5ce205;fill-opacity:1;fill-rule:nonzero;stroke:none"
              d="m 13299.8,15749.2 c -30.9,161.5 -44,371.8 108.9,474.2 114.3,76.6 130.3,-91.6 153.1,-184.8 39,-160.2 55,-371.1 -104.3,-474.3 -127.7,-82.8 -113.2,101.5 -157.7,184.9" />
          </g>
          <g transform="scale(2.18368)" id="g54">
            <path id="path56" style="fill:#5ce205;fill-opacity:1;fill-rule:nonzero;stroke:none"
              d="m 7981.84,16083 c 28.16,-108.2 78.03,-269.6 -39.34,-342.3 -73.73,-45.6 -84.22,72 -95.85,133.6 -20.74,109.5 -81.19,274.7 26.01,355.8 92.37,69.9 66.41,-117.3 109.18,-147.1" />
          </g>
          <g transform="scale(2.1312)" id="g58">
            <path id="path60" style="fill:#5ce205;fill-opacity:1;fill-rule:nonzero;stroke:none"
              d="m 7976.36,16194.4 c 17.18,-73.4 8.5,-131.4 -52.5,-159.5 -41.53,-19.1 -73.29,-5.9 -88.31,51.1 -18.67,71 -4.88,133.7 44.15,172.5 52.56,41.5 78.55,-5.1 96.66,-64.1" />
          </g>
          <g transform="scale(2.28534)" id="g62">
            <path id="path64" style="fill:#54a520;fill-opacity:1;fill-rule:nonzero;stroke:none"
              d="m 9379.1,11263 13.78,-55.3 c 21.66,-87.1 44.06,-177.1 70.32,-260.8 27.65,-88.5 107.47,-172.5 217.17,-148 308.48,75.3 423.43,503.1 366.63,764.5 -36.4,171.8 -71.32,306.1 -113.41,435.8 -138.01,425.4 -131.8,761.2 19.69,1057 67.32,131.6 24.02,289.7 -100.77,367.7 -189.47,118.4 -373.34,241.5 -512.31,335.4 -5.74,3.9 -11.99,7.2 -18.21,10.7 -40.91,22.5 -117.09,64.4 -63.27,200.2 13.21,33.2 35.97,79 81.26,92.3 45.24,13.4 82.22,-12.9 109.22,-32.1 5.42,-3.9 10.85,-7.8 16.32,-11.3 46.07,-29.4 91.89,-59.5 137.7,-89.6 50.06,-32.9 100.21,-65.9 150.79,-98 40.96,-28.3 83.22,-38 127.2,-29.8 65.29,12 134.09,62.5 183.99,135 36.3,52.8 50.5,105.4 41,152.1 -8.9,43.6 -37.9,81.2 -86.1,112 -12.6,8 -25.25,15.9 -37.99,23.9 -62.87,39.6 -127.9,80.5 -189.03,130.5 -4.59,3.8 -15.84,8.4 -25.73,12.6 -39.38,16.3 -121.29,50.4 -90.57,170.6 5.29,20.8 21.48,84.2 77.05,103.6 57.19,20 110.75,-20.7 149.87,-50.4 44.5,-33.8 90.4,-48 126.1,-39 174.8,44.2 268.8,1.3 427.7,-99.8 l 5.5,-4 c 37.2,-31 72.3,-41.5 104.4,-31 43.9,14.2 83.4,67.9 100.7,136.7 16.8,67.3 44.7,136 71.6,202.5 19.9,49.1 40.5,99.9 55.9,148.7 18.1,56.9 50,135 118.2,156.6 48.1,15.3 102,-0.6 164.9,-48.4 137.5,-104.5 273.7,-196.5 404.9,-273.5 41.7,-24.5 86.3,-23.8 119.2,1.8 33.3,25.8 45.2,69.3 31.7,116.2 -50.5,176.1 -25,372.4 75.7,583.6 23.5,49.3 23.3,113 -0.6,194.6 -49,166.7 15.3,226.7 126.9,265.5 314.4,109.3 434.9,556.9 346.5,890.3 -20.9,78.7 -38.6,177.3 10,241.5 29.1,38.5 76.8,58.5 142,59.6 38.5,0.6 81,6.2 116.6,15.5 99.6,25.8 179.6,177.8 156.8,294.4 -71,119.4 -118.2,141.8 -256.7,125.8 -30,-3.5 -61.8,-5.7 -92.6,-7.8 -39.2,-2.8 -79.8,-5.6 -117.4,-11 -82.1,-11.7 -145.7,12.1 -194.6,72.7 -53.4,66.2 -177.8,107.5 -261.1,86.7 -81.9,-20.4 -170.7,-37.2 -256.6,-53.5 -57.1,-10.8 -116.1,-22 -172.3,-34.1 -5.7,-1.2 -11.3,-2.5 -17.1,-3.9 -51.2,-12 -128.6,-30.2 -198.3,41.7 -174.4,179.6 -371.9,214.6 -660.6,117.2 -182.8,-61.7 -316.9,-201.5 -358.6,-374 -30.19,-124.7 -102,-196.1 -219.48,-218.5 -128.61,-24.4 -228.9,-116.7 -261.8,-240.9 -41.27,-166.2 -160.24,-294.2 -318.03,-341.7 -79.24,-23.9 -160.72,-65.8 -239.48,-106.2 l -3.94,-2 c -183.43,-94.3 -348.09,-128.8 -555.37,9.2 -120.16,79.9 -271.21,-13.1 -340.12,-104.7 -135.78,-180.5 -167.55,-425.1 -174.42,-554.9 -2.49,-47.1 17.11,-92 42.75,-100.4 5.3,9.7 11.25,30.2 15.01,43.3 3.63,12.5 7.26,24.8 11.38,36 22.79,61.7 45.11,123.7 67.43,185.8 11.64,32.4 23.32,64.8 35,97.2 15.14,41.7 36.54,86.4 80.87,101.9 29.01,10.1 60.25,5.2 92.67,-14.7 75.49,-46.3 96.27,-108 69.45,-206.2 -13.53,-49.6 -22.5,-109.9 -31.99,-173.7 -32.73,-220.5 -73.38,-494.1 -345.24,-530.4 -2.45,-3.5 -4.91,-7.9 -5.56,-10.4 -65.33,-266.8 -166.1,-550.6 -317.2,-893.1 -41.65,-94.3 43.58,-190.8 111.1,-232.7 4.82,-2.9 8.4,-4.7 10.94,-5.7 8.97,14.6 18.03,54.2 23.15,76.6 5.12,22.4 10.41,45.6 17.63,66.3 55.49,160.2 109.75,267.2 208.42,305.9 75.92,29.8 166.89,14 286.21,-49.6 111.32,-59.4 236.91,-20.9 298.65,91.5 62.79,114.4 189.73,181.8 331.85,175.8 144.97,-6 269.24,-86.7 324.42,-210.6 12.38,-28 14.39,-67.8 6.08,-118.3 -29.54,-179.9 -217.12,-410.6 -418.1,-514.3 -124.84,-64.3 -241.01,-73.8 -336.14,-27.2 -196.25,96.1 -426.02,31.7 -534.41,-149.8 -192.62,-322.4 -249.68,-618.4 -179.49,-931.5 52.77,-189.4 242.5,-385.7 441.82,-456.9 94.38,-33.7 233.57,-55.1 360.6,34.7 86.07,61 153.67,52.1 195.2,33.9 71.8,-31.4 121.51,-113.8 136.39,-226.1 25.6,-193.5 65.11,-408.1 210.43,-504.8 145.32,-96.8 242.24,-258.4 259.92,-433 m 263.28,-572.1 c -136.91,0 -240.88,105.8 -278.2,225 -27.18,86.6 -49.97,178.2 -71.99,266.8 l -16.01,66.6 c -13.7,145.3 -93.86,280 -214.5,360.3 -181.5,120.8 -227.19,361.5 -255.8,577.6 -9.54,72.1 -38.99,128.9 -75.05,144.6 -24.81,10.9 -56.4,3 -93.77,-23.5 -127.55,-90.1 -289.23,-107.1 -455.42,-47.7 -232.4,83 -445.76,305.2 -507.28,528.2 l -0.57,2.4 c -76.79,341.1 -15.97,661.6 191.35,1008.7 136.3,228.2 423.92,309.8 669.14,189.7 81.43,-39.8 177.04,-7.7 242.94,26.3 169.47,87.5 339.25,292.6 363.31,438.9 6.04,36.9 2.98,55.7 1.45,59.4 -46.61,104.6 -151.4,145.6 -233.93,149.1 -102.3,4.5 -192.93,-42.5 -236.6,-122.1 -88.82,-161.8 -277.33,-219.1 -438.4,-133.2 -89.31,47.6 -154.64,62.3 -199.49,44.6 -61.43,-24.1 -103.7,-114.7 -148.29,-243.2 -5.34,-15.4 -9.8,-34.9 -14.48,-55.5 -13.79,-60.2 -29.37,-128.5 -84.72,-151.6 -31.72,-13.2 -67.12,-8 -105.23,15.7 -121.52,75.3 -212.53,224.1 -151.36,362.7 148.6,336.8 247.53,615.1 311.38,875.9 7.96,32.6 39.95,82.8 83.27,87.4 188.37,19.7 228.93,196.4 265.69,443.9 9.98,67 19.34,130.2 34.48,185.8 17.77,65.1 2.23,74.6 -23.54,90.4 -1.88,1.2 -3.5,2.1 -4.82,2.7 -3.36,-4.8 -9.14,-15.2 -16.93,-36.7 -11.73,-32.3 -23.32,-64.7 -34.96,-97 -22.41,-62.3 -44.81,-124.7 -67.74,-186.7 -3.32,-8.9 -6.12,-18.8 -9.01,-28.9 -12.34,-42.5 -37.85,-131 -125.28,-118.1 -94.64,14 -140.59,118.4 -135.78,209.6 7.49,141.6 42.8,409.3 195.16,611.8 109,144.8 314.4,239.1 480.46,128.6 148.86,-99 262.49,-99.8 450.52,-3.3 l 3.89,2 c 79.07,40.7 168.69,86.7 256.99,113.3 122.39,36.9 214.94,137.1 247.49,268.1 43.36,164 174.72,285.2 342.93,317.2 77.32,14.7 117.31,55.5 137.96,140.9 50.19,207.3 209.56,374.7 426.36,447.9 323.3,109.1 567.4,63.6 768.1,-143.2 27.7,-28.6 50.7,-24.6 100.2,-13 6.4,1.5 12.7,3 19,4.3 57.5,12.4 117.1,23.7 174.8,34.6 84.4,16 171.8,32.6 250.8,52.3 121.1,30.2 289.2,-25.8 366.9,-122.3 26,-32.2 52.9,-41.7 99.2,-35.1 41.4,5.9 83.8,8.9 124.8,11.8 31.1,2.1 60.4,4.2 88,7.4 180.9,20.8 268.9,-23.8 362.3,-183.6 l 3.9,-6.7 1.8,-7.6 c 41.1,-174.1 -72.9,-385.1 -230.1,-425.8 -43.9,-11.4 -93.9,-18.1 -141,-18.9 -21.8,-0.3 -49.9,-3.8 -61,-18.4 -11,-14.6 -18.7,-52.9 7.6,-152.3 88.7,-334.5 -5.4,-873.3 -412.8,-1014.9 -65.5,-22.8 -92.5,-32.2 -61.4,-138.2 31.5,-107.3 29.8,-195.1 -5.3,-268.6 -89.4,-187.6 -112.8,-359.3 -69.5,-510.3 25.2,-87.9 -0.8,-174.8 -67.9,-226.8 -66.7,-51.8 -156.9,-55.3 -235.4,-9.2 -134.6,79 -274.3,173.3 -415.1,280.3 -47,35.7 -66,33.6 -70.7,32.1 -5.9,-1.8 -26.8,-13.7 -50.7,-89.1 -16.7,-52.6 -38,-105.3 -58.7,-156.3 -26.7,-66 -52,-128.4 -67.1,-188.8 -26.6,-105.7 -89.8,-184.3 -169.2,-210.1 -65.4,-21.3 -136.5,-4.3 -200.3,47.9 -140.5,89.2 -207.3,119.5 -344,85 -67.4,-17 -143.45,3.2 -214.2,56.9 -12.08,9.2 -38.73,29.4 -52.34,33.7 -2.53,-3.9 -6.95,-12.6 -11.37,-29.9 -8.49,-33.2 -7.75,-33.5 29.93,-49.1 16.49,-6.9 35.18,-14.7 51.54,-28.1 56.19,-45.9 118.41,-85.1 178.64,-123 12.8,-8 25.7,-16.1 38.4,-24.2 71.9,-45.8 117.5,-107.6 132,-178.9 15.3,-74.9 -4.5,-155 -57.1,-231.5 -65.2,-94.7 -158.91,-161.4 -250.72,-178.3 -71.06,-13.1 -141.33,2.6 -203.29,45.4 -49.36,31.3 -99.9,64.6 -150.44,97.8 -45.46,29.9 -90.88,59.7 -136.61,88.9 -6.91,4.4 -13.74,9.3 -20.57,14.1 -5.99,4.3 -14.09,10.1 -20.21,13.6 -3.2,-4.7 -7.97,-13.1 -13.65,-27.5 -20.13,-50.7 -15.23,-53.4 16.8,-71 9.01,-5 17.98,-10 26.3,-15.6 138.27,-93.5 321.09,-215.8 509.2,-333.4 170.79,-106.8 230.19,-323 138.09,-502.9 -138.05,-269.7 -142.29,-580.4 -13.3,-977.7 42.7,-131.6 79.6,-273.3 116.1,-446.1 67.2,-308.7 -69.4,-795.8 -444.45,-887.3 -21.13,-4.7 -41.7,-7 -61.57,-7" />
          </g>
          <g transform="scale(2.06462)" id="g66">
            <path id="path68" style="fill:#54a520;fill-opacity:1;fill-rule:nonzero;stroke:none"
              d="m 5891.83,13513.1 c 114.16,0 213.36,-111.9 276.61,-183.2 78.32,-88.3 26.6,-179 -4.31,-233.1 -11.18,-19.6 -21.79,-38.2 -26,-53 -73,-255.3 12.97,-782.6 256.65,-950.3 317.83,-199.6 429.23,-568.2 490.55,-866.8 23.35,-113.7 56.23,-231.4 88.06,-345.3 12.01,-42.9 23.97,-85.8 35.45,-128.3 62.14,-230.9 188.75,-418 347.23,-513.1 11.53,-6.9 23.93,-15.4 36.62,-24.1 17.97,-12.5 51.1,-35.4 63.79,-35.5 0.09,0.4 1.69,2 3.97,5.2 12.4,18.2 -4.36,67.5 -17.87,107.1 -7.8,23 -15.89,46.8 -21.17,70.4 -23.78,107 -53.42,240.2 -89.94,349.5 -74.35,222.5 -65.34,457.3 26.88,697.9 172.62,450.5 316.57,884 416.2,1253.7 27.61,102.5 -30.9,478 -141.09,586.8 -28.63,28.3 -46.69,23.2 -54.44,21 -171.99,-48.7 -351.45,59.7 -482.46,138.9 l -16.86,10.2 c -144.09,86.7 -254.72,92 -394.65,18.8 -133.24,-69.6 -304.9,-47.2 -459.11,60.2 -15.45,10.8 -31.1,21.9 -46.99,33.4 -127.57,91.4 -259.46,186 -407.09,126.3 -71.1,-28.6 -131.99,5.1 -181.1,100.4 -50.52,97.9 -61.85,208 -30.27,294.6 25.77,70.7 78.27,124.3 151.84,155 17.34,7.2 35.17,14.4 53.23,21.6 138.62,55.8 281.94,113.5 329.94,245.7 72.12,199 151.02,406 227.31,606.2 81.37,213.4 165.55,434.2 243.48,650.3 26.2,72.6 46.01,176.5 -8.57,258.6 -24.9,37.4 -67.91,81.4 -154.61,32 -108.2,-61.5 -212.05,-56 -317.34,16.8 -6.64,4.6 -13.42,9.7 -20.4,15 -10.75,8.1 -30.27,22.8 -39.32,25.2 -0.97,-0.8 -2.57,-2.2 -4.7,-4.7 -15.16,-17.5 -11.38,-39.1 1.64,-87.8 4.02,-15 8.14,-30.5 11.14,-46.7 3.64,-20.1 12.35,-43.1 21.61,-67.4 26.78,-70.7 63.5,-167.4 -19.57,-250.8 -130.24,-130.6 -271.29,-173.2 -387.09,-117 -10.37,5 -20.78,10 -31.15,14.9 -117.26,55.4 -277.87,131.3 -210.3,350.6 31.96,103.7 26.64,177 -16.76,230.7 -37.1,46 -68.15,39.3 -163.42,-9.1 l -13.37,-6.8 c -508.33,-256.1 -1024.32,-498.2 -1533.62,-719.5 -138.01,-53.3 -221.1,-122.2 -256.2,-211.4 -30.92,-78.5 -25.51,-175.4 16.76,-294.2 56.24,114.4 129.75,243.2 280.41,262.5 256.57,32.7 588.38,-227 669.95,-454.9 11.48,-32.1 22.69,-65.1 34.04,-98.5 75.17,-221.3 152.9,-450.2 357.77,-561.4 181.79,-100.3 343.22,-224.8 499.33,-345.2 215.87,-166.4 398.81,-221.7 543.73,-164.2 22.28,8.9 44.17,12.8 65.58,12.8 m 1565.23,-3447.6 c -48.92,0 -93.24,30.7 -129.71,55.9 -10.41,7.2 -20.54,14.3 -30.18,20 -183.95,110.4 -329.4,322.5 -399.24,581.9 -11.34,42.1 -23.21,84.6 -35.12,127.2 -32.35,115.8 -65.82,235.5 -89.95,353.1 -56.71,276.2 -158.14,616.1 -441.19,794 -292.69,201.4 -385.59,792.3 -303.98,1077.8 8.04,28.1 22.62,53.6 36.72,78.3 35.16,61.6 38.07,77.5 18.11,100 -74.59,84.1 -152.62,164.4 -213.94,139.8 -185.21,-73.4 -406.03,-12.8 -656.19,180.1 -152.72,117.7 -310.57,239.5 -484.32,335.3 -244.03,132.5 -332.94,394.3 -411.39,625.2 -11.15,32.9 -22.15,65.3 -33.43,96.8 -65.78,183.8 -348.38,405.1 -547.23,379.7 -101.89,-13.1 -152.35,-117.3 -205.76,-227.7 -13.82,-28.5 -28.13,-58.1 -43.27,-85.4 l -53.54,-96.9 -48.35,99.6 c -98.07,201.8 -120.21,364.7 -67.7,498.1 46.87,119.1 154.36,211.8 319.49,275.5 505.12,219.6 1019.1,460.7 1525.51,715.9 l 13.03,6.6 c 81.22,41.3 203.96,103.7 304.8,-21.1 68.63,-85 80.79,-195.2 37.15,-336.8 -36.71,-119.1 19.33,-151.3 149.62,-212.9 10.75,-5.1 21.5,-10.2 32.21,-15.4 98.08,-47.6 211.41,50.5 255.64,94.8 26.49,26.6 21.89,54.1 -6.49,128.9 -10.66,28.1 -21.7,57.2 -27.22,87.5 -2.14,11.7 -5.53,24.4 -9.11,37.8 -14.34,53.7 -34,127.3 22.47,192.6 76.92,88.8 166.38,21.4 200.04,-4.1 5.67,-4.2 11.19,-8.4 16.56,-12.1 69.02,-47.8 125.6,-51.1 195.25,-11.5 118.81,67.6 233.6,42.1 306.98,-68.2 64.17,-96.5 71.44,-221.4 20.97,-361.2 -78.27,-217.1 -162.6,-438.3 -244.16,-652.2 -76.14,-199.8 -154.85,-406.3 -226.68,-604.4 -65.48,-180.5 -248.23,-254 -395.03,-313.1 -17.63,-7.1 -35.02,-14.1 -51.93,-21.1 -43.78,-18.3 -73.42,-48 -88.15,-88.4 -20.73,-56.9 -11.62,-132.7 24.46,-202.6 19.62,-38 30.42,-46.1 33.13,-47.6 0.25,0.2 1.31,0.5 2.91,1.2 206.19,83.2 378.52,-40.3 516.99,-139.6 15.45,-11.1 30.71,-22 45.73,-32.5 44.36,-30.8 199.99,-125.9 340.3,-52.6 176.35,92.2 327.95,85.5 507.02,-22.3 l 17.05,-10.2 c 113,-68.3 267.8,-161.8 391.74,-126.7 41.17,11.6 103.46,12.5 166.47,-49.7 146.66,-144.9 206.48,-567.9 171.27,-698.6 -100.65,-373.3 -245.81,-810.7 -419.84,-1264.8 -82.43,-215.1 -90.91,-423.8 -25.23,-620.4 38.41,-114.9 68.78,-251.3 93.19,-360.9 3.87,-17.5 10.61,-37.4 17.77,-58.4 21.75,-63.9 48.87,-143.6 3.73,-209.1 -25.33,-36.9 -56.08,-49.3 -77.4,-53.2 -6.97,-1.2 -13.85,-1.9 -20.58,-1.9" />
          </g>
          <g transform="scale(2.28534)" id="g70">
            <path id="path72" style="fill:#54a520;fill-opacity:1;fill-rule:nonzero;stroke:none"
              d="m 6325.54,16176.6 0.31,-1.1 -35.88,-19.6 c -34.57,-19 -69.27,-38.3 -104.01,-57.7 -81.83,-45.5 -166.45,-92.6 -248.5,-134.3 -116.96,-59.5 -145.32,-213.1 -170.3,-348.7 l -1.14,-6.3 c -22.32,-120.8 31.68,-176.9 125.98,-228.1 131.22,-71.3 301.18,-203.8 365.63,-430.1 22.27,-78.2 83.97,-130 149.3,-184.9 11.47,-9.6 22.93,-19.2 34.13,-29 49.75,-43.2 88.7,-62.5 112.68,-55.8 17.15,4.8 51.67,30.6 89.88,149.4 51.32,159.6 111.66,321 169.99,477 33.87,90.5 65.81,176 96.05,260.9 91.76,257.8 65.68,490.2 -84.63,753.4 -17.81,31.2 -38.42,49.5 -63.01,55.8 -63.4,16.2 -155.47,-40.4 -229.55,-85.8 -23.98,-14.7 -46.56,-28.5 -67.52,-39.6 -43.75,-23.1 -92.06,-49.5 -139.41,-75.5 m 218.05,-1600.7 c -66.6,0 -127.82,45.5 -170.53,82.6 -10.8,9.3 -21.79,18.6 -32.86,27.9 -70.97,59.5 -151.4,127.1 -182.38,235.9 -54.56,191.6 -201.59,305.5 -315.36,367.3 -59.86,32.6 -218.91,119 -178.48,338.1 l 1.13,6.3 c 26.48,143.3 62.62,339.7 225.35,422.4 80.3,40.8 164.05,87.4 245.04,132.5 22.93,12.8 45.86,25.5 68.75,38.2 l -0.05,0.1 56.32,32 c 52.55,28.9 107.07,58.8 155.95,84.6 18.03,9.6 39.25,22.6 61.74,36.4 90.8,55.6 203.78,124.9 309.59,97.8 52.46,-13.5 95.3,-48.8 127.33,-104.8 164.39,-287.9 193.71,-554.7 92.28,-839.7 -30.5,-85.6 -62.62,-171.5 -96.61,-262.5 -57.94,-154.8 -117.8,-315 -168.43,-472.3 -42.18,-131.2 -91.75,-198.4 -160.72,-217.6 -12.82,-3.6 -25.55,-5.2 -38.06,-5.2" />
          </g>
          <g transform="scale(2.13313)" id="g74">
            <path id="path76" style="fill:#54a520;fill-opacity:1;fill-rule:nonzero;stroke:none"
              d="m 5742.08,16174.1 c -24.52,0 -64.22,-9.3 -126.9,-44.5 -26.96,-15.1 -54.15,-29.4 -81.29,-43.7 -37.46,-19.7 -72.8,-38.3 -107.82,-59.2 -7.18,-4.3 -14.96,-8.3 -22.88,-12.4 -35.72,-18.3 -35.35,-20.5 -32.63,-37.3 5.63,-34.7 31.5,-52.3 52.23,-61 68.49,-28.6 135.57,-2 240.77,61.5 26.25,30.6 65.11,41.4 97.04,50.3 56.16,15.6 62.02,17.3 51.24,66.1 -9.1,41.1 -23.86,66.6 -43.93,75.5 -5.58,2.5 -13.92,4.7 -25.83,4.7 m -263.13,-380.9 c -32.21,0 -65.12,6.1 -98.97,20.3 -65.11,27.1 -108.57,80.3 -119.16,145.7 -15.99,98.7 56.63,136 91.55,154 5.82,2.9 11.49,5.8 16.74,8.9 37.55,22.5 75.94,42.7 113.07,62.2 26.21,13.8 52.51,27.6 78.52,42.2 104.92,59 187.57,73.5 252.64,44.4 53.96,-24.2 89.96,-75.7 107.03,-153.1 33.47,-151.6 -76.93,-182.3 -129.96,-197.1 -14.11,-3.9 -37.69,-10.5 -42.61,-15.7 l -6.89,-10.8 -10.6,-6.2 c -82.55,-50.4 -164.49,-94.8 -251.36,-94.8" />
          </g>
          <g transform="scale(1.7436)" id="g78">
            <path id="path80" style="fill:#54a520;fill-opacity:1;fill-rule:nonzero;stroke:none"
              d="m 13349,15752.2 c 13.6,-29.1 21.6,-61.9 29.4,-93.7 4.4,-17.9 11,-44.9 17.4,-60.9 2.5,1.3 5.3,3 8.6,5.1 99,64.2 124.3,199 75.1,400.6 -3.1,12.7 -6.1,26.9 -9.3,41.7 -6.1,29 -18.2,85.8 -31.3,107.6 -2.2,-1.2 -5,-2.8 -8.4,-5.1 -92.4,-61.9 -119.1,-191.2 -81.5,-395.3 m 36.8,-295.5 c -14.4,0 -28.2,2.7 -41.5,8 -64.7,25.7 -82.4,97.7 -98,161.4 -6.7,27.4 -13.6,55.8 -22.4,72.2 l -4.9,9.1 -1.9,10.2 c -18.9,98.8 -76.4,399.5 137.7,542.9 59,39.5 105.5,33.9 134.1,22.3 76.5,-31 97.5,-130 114.3,-209.6 2.9,-13.3 5.6,-26.1 8.4,-37.7 80.2,-328.7 -28.2,-478.9 -133.2,-546.9 -32.8,-21.2 -63.8,-31.9 -92.6,-31.9" />
          </g>
          <g transform="scale(2.18258)" id="g82">
            <path id="path84" style="fill:#54a520;fill-opacity:1;fill-rule:nonzero;stroke:none"
              d="m 7905.46,16208.9 c -1.23,-0.9 -2.66,-1.9 -4.21,-3.1 -64.65,-48.9 -49.3,-142.7 -22.59,-260.3 4.44,-19.5 8.7,-38.2 11.96,-55.6 1.28,-6.7 2.56,-14.1 3.85,-21.8 3.89,-22.7 12.69,-74.2 24.1,-88.2 1.46,0.6 3.62,1.6 6.5,3.4 79.4,49.2 58.65,156.2 25.8,280.6 l -1.51,5.8 c -18.84,22.1 -25.39,55.6 -32.26,90.6 -2.8,14.3 -7.01,36 -11.64,48.6 z m 10.82,-511.2 c -12.1,0 -22.27,2.8 -30.15,6.4 -50.13,22.6 -62.22,93.4 -71.98,150.3 -1.19,7.2 -2.38,14.1 -3.58,20.4 -3.11,16.4 -7.14,34.1 -11.36,52.6 -24.83,109.3 -58.87,258.9 52.83,343.4 29.92,22.6 57.91,29.2 83.29,19.5 42.57,-16.3 52.28,-66.1 61.72,-114.3 3.3,-16.8 8.71,-44.4 13.88,-52.7 l 10.54,-7.4 8.2,-31.1 c 30.06,-113.8 75.46,-285.8 -61.71,-370.7 -19.71,-12.3 -37.12,-16.4 -51.68,-16.4" />
          </g>
          <g transform="scale(2.13376)" id="g86">
            <path id="path88" style="fill:#54a520;fill-opacity:1;fill-rule:nonzero;stroke:none"
              d="m 7905.02,16212.2 c -1.87,-1 -4.82,-2.7 -8.9,-5.9 -43.54,-34.4 -40.17,-89.2 -29.67,-129 5.3,-20.2 11.63,-27 13.59,-27.9 0.8,-0.4 6.1,-0.9 16.87,4.1 17.44,8 49.78,22.9 29.62,110.6 -9.98,32.1 -17.9,44 -21.51,48.1 z m -23.29,-246.3 c -15.51,0 -27.98,3.7 -37.26,8.1 -28.07,13.3 -47.75,40.9 -58.58,82.1 -23.48,89 -2.11,167.6 58.54,215.5 35.85,28.4 65.84,27.3 84.68,21.5 44.05,-13.7 64.58,-63.8 77.52,-105.9 l 0.7,-2.7 c 24.13,-103 -1.27,-172.5 -75.6,-206.7 -19.07,-8.8 -35.8,-11.9 -50,-11.9" />
          </g>
        </g>
      </g>
      <g transform="scale(2.18901)" id="g90">
        <path id="path92" style="fill:#66d7ff;fill-opacity:1;fill-rule:nonzero;stroke:none"
          d="m 9512.27,14996.9 c -70.67,66.1 -138.37,135.1 -199.72,203.2 -28.92,32.1 -61.9,65.7 -98.04,100.3 22.71,5.5 46.65,8.4 71.36,8.4 4.71,0 9.41,-0.1 14.16,-0.3 86.16,-3.6 195.57,-46.4 244.22,-155.6 1.6,-3.9 4.8,-23.5 -1.51,-62 -4.88,-29.5 -15.39,-61.3 -30.47,-94 m 841.33,27.6 c -20.9,14.8 -41.3,30.1 -61,46.2 -17.1,14 -36.6,22.1 -53.8,29.3 -39.4,16.4 -40.1,16.7 -31.3,51.3 4.6,18 9.2,27.1 11.9,31.3 14.2,-4.5 42,-25.7 54.6,-35.2 16.9,-12.8 34.1,-23.8 51.3,-32.9 10.3,-29.5 19.7,-59.4 28.3,-90 m -1997.55,1016.8 c -120.01,122.4 -168.94,214 -72.78,246 2.7,-0.6 5.44,-1.1 8.23,-1.5 6.12,-0.9 11.97,-1.3 17.49,-1.3 20.01,0 36.46,5.6 50.03,14.6 3.33,0.1 6.67,0.2 10.14,0.3 15.71,0.4 31.7,0.6 47.64,0.6 32.94,0 66.24,-0.8 99.96,-2.5 -29.33,-123.9 -73.14,-215.1 -160.71,-256.2" />
      </g>
      <g transform="scale(2.18756)" id="g94">
        <path id="path96" style="fill:#9dee69;fill-opacity:1;fill-rule:nonzero;stroke:none"
          d="m 10250.2,14561.1 c -157.7,0 -411.93,163.3 -648.08,370.1 27.15,52.1 45.99,103.9 53.9,152.1 8.68,52.8 6.58,94.3 -6.36,123.6 -57.64,129.4 -187.47,213.8 -338.92,220.1 -6.08,0.2 -12.06,0.4 -18.1,0.4 -57.96,0 -113.14,-11.8 -162.42,-33.5 -215.95,192.6 -497.4,406.3 -685.97,578.8 109.44,68.7 158.95,194.9 188.16,327.3 616.53,-62.4 1320.69,-394.5 1627.19,-1004.3 -12.1,4 -24.4,6.3 -37.2,6.3 -10.7,0 -21.6,-1.7 -32.6,-5.5 -58,-20.3 -75,-86.5 -80.5,-108.3 -32.1,-125.5 53.5,-161.1 94.6,-178.2 10.4,-4.3 22.1,-9.2 26.9,-13.2 52.9,-43.3 108.7,-80 163.6,-114.9 37,-230.3 -26.9,-320.8 -144.2,-320.8" />
      </g>
      <g transform="scale(2.18889)" id="g98">
        <path id="path100" style="fill:#98c979;fill-opacity:1;fill-rule:nonzero;stroke:none"
          d="m 10388.1,14872.9 c -54.9,34.8 -110.6,71.6 -163.5,114.8 -4.8,4 -16.5,8.9 -26.9,13.2 -41.1,17.1 -126.6,52.6 -94.5,178.1 5.5,21.8 22.4,88 80.4,108.2 11,3.9 22,5.5 32.6,5.5 12.7,0 25.1,-2.3 37.1,-6.3 27.5,-54.8 51.8,-111.8 72.6,-171.1 -17.2,9.2 -34.4,20.1 -51.3,32.9 -12.6,9.6 -40.4,30.7 -54.6,35.3 -2.7,-4.2 -7.3,-13.3 -11.9,-31.3 -8.9,-34.7 -8.1,-35 31.3,-51.3 17.2,-7.2 36.7,-15.3 53.8,-29.3 19.7,-16.1 40.1,-31.5 61,-46.2 2.8,-10.4 5.6,-20.9 8.3,-31.5 11.2,-44 19.7,-84.3 25.6,-121 m -791.81,49.2 c -28.14,24.7 -56.01,49.9 -83.47,75.6 15.08,32.8 25.59,64.5 30.48,94 6.3,38.6 3.1,58.2 1.5,62 -48.65,109.3 -158.07,152.1 -244.23,155.7 -4.75,0.2 -9.46,0.3 -14.16,0.3 -24.72,0 -48.66,-2.9 -71.36,-8.4 -28.37,27.1 -58.71,55 -90.37,83.2 49.25,21.8 104.39,33.5 162.32,33.5 6.03,0 12.02,-0.1 18.09,-0.4 151.36,-6.3 281.11,-90.6 338.71,-219.9 12.93,-29.3 15.04,-70.8 6.36,-123.6 -7.91,-48.2 -26.73,-99.9 -53.87,-152 M 8439.13,15963 c -30.11,27.6 -57.88,54.1 -82.6,79.3 87.58,41 131.39,132.2 160.72,256.1 36.27,-1.8 72.92,-4.5 109.92,-8.3 -29.19,-132.3 -78.67,-258.5 -188.04,-327.1 m -129.66,322.4 c -5.52,0 -11.37,0.5 -17.49,1.4 -2.79,0.4 -5.53,0.9 -8.23,1.4 19.24,6.4 44.27,10.4 75.75,11.8 -13.57,-9 -30.02,-14.6 -50.03,-14.6" />
      </g>
      <g transform="scale(2.27301)" id="g102">
        <path id="path104" style="fill:#99e5ff;fill-opacity:1;fill-rule:nonzero;stroke:none"
          d="m 10792.7,13574.3 c -49.7,222.9 -123.7,443.6 -223.2,658.7 -13.8,29.8 -28.1,59.4 -42.8,88.9 -19.3,38.6 -39.2,76.6 -59.7,114.1 33.7,-25.1 69.2,-40.6 104.6,-46 108.4,-248.9 185.8,-514.3 227.3,-791.3 -2,-8.1 -4.1,-16.3 -6.2,-24.4 m -5858.54,1159 c -2.24,1.5 -4.53,3 -6.77,4.4 25.38,42.9 51.65,85 78.97,126.6 5.06,-3.8 10.34,-7.3 15.84,-10.6 -30.31,-39.5 -59.66,-79.6 -88.04,-120.4 m 392.17,540.9 c 112.19,121.8 233.7,234.8 363.44,338 3.56,-34.4 12.76,-64.3 25.39,-90.3 -105.33,-74.9 -205.2,-155.3 -299.3,-240.7 -8.67,1.4 -17.6,2 -26.84,2 -19.57,0 -40.43,-3 -62.69,-9 m 2942.44,785.6 c -20.54,4.3 -41.04,8.3 -61.68,12.2 5.42,15 10.83,30 16.28,45 7.83,21.7 13.64,32.1 17.03,37 1.32,-0.7 2.94,-1.6 4.84,-2.7 25.91,-15.9 41.53,-25.5 23.67,-91 -0.05,-0.2 -0.09,-0.3 -0.14,-0.5 m -1176.19,27.2 c -8.49,51.4 -21.51,102.9 -39.16,154.7 196.62,38.3 399.56,58.3 607.17,58.3 89.62,0 178.22,-3.7 265.95,-11 -21.73,-58.6 -37.66,-117.1 -49.23,-172.4 -90.06,7.5 -180.55,11.3 -271.36,11.3 -170.74,0 -342.32,-13.4 -513.37,-40.9" />
      </g>
      <g transform="scale(2.26996)" id="g106">
        <path id="path108" style="fill:#bef39b;fill-opacity:1;fill-rule:nonzero;stroke:none"
          d="m 10516.2,14558.4 c -52.5,33.1 -98,59.5 -142.1,78.1 -156.7,246.7 -342.3,466.3 -550.19,656.4 -411.24,376.2 -909.4,637.3 -1442.01,765.6 24.01,91.6 5.99,151.2 -59.91,196.3 962.39,-201.2 1766.41,-839.2 2194.21,-1696.4 m -2402.67,1553 c -40.27,6.2 -80.66,11.7 -121.19,16.4 12.16,55.7 29.07,114.4 52.55,172.2 56.83,-6.7 113.26,-14.9 169.12,-24.6 -42.2,-16.7 -63.03,-60.4 -77.84,-101.2 -7.53,-20.9 -15.11,-41.8 -22.64,-62.8" />
      </g>
      <g transform="scale(2.04246)" id="g110">
        <path id="path112" style="fill:#bef39b;fill-opacity:1;fill-rule:nonzero;stroke:none"
          d="m 5424.33,16297.1 c 0.54,0.9 1.07,1.9 1.61,2.9 0.05,0 0.15,-0.1 0.2,-0.1 -0.59,-1 -1.22,-1.9 -1.81,-2.8" />
      </g>
      <g transform="scale(2.26185)" id="g114">
        <path id="path116" style="fill:#bef39b;fill-opacity:1;fill-rule:nonzero;stroke:none"
          d="m 5830.88,15658.6 c -11.09,30.5 -13.39,66.9 -4.99,112.3 l 0.09,0.5 c 341.62,248.6 734.44,431.2 1159.22,528.6 18.22,-51.1 31.44,-101.6 39.66,-151.8 -269.73,-52.2 -537.26,-139.5 -796.2,-263.7 -15.35,-7.2 -30.69,-14.9 -45.85,-22.5 -15.17,-7.5 -30.33,-15.1 -45.14,-22.9 -106.55,-55.2 -208.9,-115.5 -306.79,-180.5" />
      </g>
      <g transform="scale(2.11035)" id="g118">
        <path id="path120" style="fill:#bef39b;fill-opacity:1;fill-rule:nonzero;stroke:none"
          d="m 5480.43,16088.2 c -8.06,3.5 -16.82,8.2 -24.88,14.8 32.93,46.7 67.1,92.7 102.21,137.6 11.8,6.3 23.74,12.6 35.87,18.9 25.21,13.3 50.42,26.6 75.49,40.5 -66.01,-68.3 -128.89,-138.9 -188.69,-211.8" />
      </g>
      <g transform="scale(2.27147)" id="g122">
        <path id="path124" style="fill:#bbdba6;fill-opacity:1;fill-rule:nonzero;stroke:none"
          d="m 10578.7,14399.7 c -35.4,5.5 -70.9,21 -104.6,46.1 -33.9,61.8 -69.6,122.2 -106.9,181 44.1,-18.6 89.6,-45 142,-78 24.4,-49 47.6,-98.7 69.5,-149.1 m -2202.36,1648.1 c -33.86,8.2 -67.84,15.8 -101.96,22.9 0.04,0.2 0.08,0.3 0.13,0.5 17.87,65.5 2.25,75.1 -23.69,91 -1.89,1.2 -3.52,2 -4.84,2.7 -3.39,-4.9 -9.2,-15.3 -17.04,-37 -5.46,-15 -10.87,-30 -16.28,-45 -34.7,6.5 -69.56,12.5 -104.52,17.8 7.53,21 15.1,41.9 22.63,62.8 14.79,40.8 35.62,84.4 77.79,101.1 36.19,-6.2 72.16,-13.1 107.91,-20.6 65.85,-45 83.86,-104.6 59.87,-196.2 m -389.31,69.3 c -34.69,4 -69.51,7.5 -104.38,10.4 11.58,55.3 27.51,113.9 49.26,172.5 36.01,-3 71.98,-6.6 107.64,-10.8 -23.46,-57.7 -40.37,-116.5 -52.52,-172.1" />
      </g>
      <g transform="scale(2.05514)" id="g126">
        <path id="path128" style="fill:#bbdba6;fill-opacity:1;fill-rule:nonzero;stroke:none"
          d="m 5392.66,16199.3 c -0.05,0 -0.14,0.1 -0.19,0.1 18.54,33.9 37.66,67.5 57.27,100.6 2.48,-1.5 5.01,-3.1 7.49,-4.8 -22.04,-31.6 -43.6,-63.6 -64.57,-95.9" />
      </g>
      <g transform="scale(2.26488)" id="g130">
        <path id="path132" style="fill:#bbdba6;fill-opacity:1;fill-rule:nonzero;stroke:none"
          d="m 5735.66,15577.6 c -12.67,26.1 -21.9,56.1 -25.47,90.6 35.45,28.1 71.35,55.5 107.99,82.1 l -0.08,-0.5 c -8.39,-45.4 -6.1,-81.7 4.99,-112.1 -29.59,-19.6 -58.68,-39.6 -87.43,-60.1 m 1279.8,549 c -8.21,50.2 -21.41,100.5 -39.6,151.6 34.09,7.8 68.39,15.1 102.87,21.8 17.71,-52 30.78,-103.7 39.3,-155.2 -34.17,-5.5 -68.39,-11.6 -102.57,-18.2" />
      </g>
      <g transform="scale(2.13122)" id="g134">
        <path id="path136" style="fill:#bbdba6;fill-opacity:1;fill-rule:nonzero;stroke:none"
          d="m 5356.32,15841.9 c -5.87,3.5 -11.5,7.3 -16.9,11.3 20.42,31 41.3,61.7 62.69,92.1 7.98,-6.5 16.66,-11.3 24.64,-14.7 -23.98,-29.2 -47.44,-58.8 -70.43,-88.7 m 147,239.6 c 56.35,72 115.52,141.7 177.36,208.9 23.75,6.4 45.99,9.6 66.87,9.6 9.85,0 19.38,-0.7 28.62,-2.1 -56.07,-50.9 -110.36,-103.5 -162.58,-157.6 -24.83,-13.8 -49.79,-26.9 -74.75,-40 -12.01,-6.3 -23.84,-12.6 -35.52,-18.8" />
      </g>
      <g transform="scale(2.29755)" id="g138">
        <path id="path140" style="fill:#371a45;fill-opacity:1;fill-rule:nonzero;stroke:none"
          d="m 7578.77,16125.9 c -1731.06,0 -3139.43,-1408.4 -3139.43,-3139.5 0,-1731.1 1408.37,-3139.38 3139.43,-3139.38 236.86,0 472.72,26.41 701.05,78.56 251.14,63.15 398.73,108.02 608.22,206.62 1112.06,511.3 1830.16,1631.5 1830.16,2854.2 0,1731.1 -1408.32,3139.5 -3139.43,3139.5 m 721.38,-6284.98 h 0.22 -0.22 m -721.38,-168 c -1827.08,0 -3313.54,1486.48 -3313.54,3313.48 0,1827.2 1486.46,3313.6 3313.54,3313.6 1827.12,0 3313.53,-1486.4 3313.53,-3313.6 0,-1290.5 -757.9,-2472.8 -1930.84,-3012.03 -220.75,-103.89 -382.36,-153.08 -640.11,-217.89 l -1.79,-0.43 c -241.34,-55.19 -490.56,-83.13 -740.79,-83.13" />
      </g>
      <g transform="scale(1.89291)" id="g142">
        <path id="path144" style="fill:#1384be;fill-opacity:1;fill-rule:nonzero;stroke:none"
          d="m 9170.79,12127.3 c -363.09,0 -722.59,50.7 -1068.46,148.5 10.93,41.4 24.41,83.1 40.47,125 136.03,354.9 255.9,700.6 353.32,1017.8 221.82,-38.7 447.56,-58.6 674.62,-58.6 587.56,0 1183.76,132.7 1745.16,412.9 60.2,30 119.3,61.3 177.3,94 58.9,-83.6 96.3,-182.3 106.1,-285.5 l 19.3,-80.4 c 26.6,-106.9 54.1,-217.5 86.9,-322.2 35,-111.7 118.5,-213.6 231.4,-253.6 -191.2,-144.8 -398.5,-274.2 -621,-385.2 -561.3,-280 -1157.71,-412.7 -1745.11,-412.7 m -1897.76,489.2 c -601.41,331.6 -1121.24,824.2 -1487.87,1453.5 -139.79,280.9 -246.02,581.6 -313.17,896.3 72.64,-53 143.43,-107.6 213.22,-161.4 197.95,-152.7 379.04,-229.4 540.7,-229.4 32.86,0 64.87,3.2 96.09,9.5 88.39,-93.5 181,-182.1 277.2,-265.5 -9.88,-18.5 -18.86,-37.6 -24.73,-58 -89.01,-311.4 12.31,-955.9 331.55,-1175.6 179.52,-112.8 292.1,-285.4 367.01,-469.4 m 4989.17,1026.2 c 16.1,121.4 12.5,241.1 -9.9,344.2 -44.1,208.6 -88.7,379.8 -140.2,538.6 -13.8,42.7 -26.4,84.5 -37.7,125.5 30.1,33.4 59.6,67.2 88.4,101.5 -19.6,-111.2 1.8,-223 11.7,-274.8 l 1.8,-9.3 4.5,-8.4 c 8,-15.1 14.4,-41.3 20.6,-66.5 14.4,-58.7 30.7,-125.1 90.2,-148.7 12.3,-4.9 25,-7.3 38.3,-7.3 26.6,0 55.1,9.8 85.3,29.3 96.7,62.7 196.6,201 122.7,503.8 -2.6,10.6 -5.1,22.4 -7.7,34.7 -15.6,73.3 -34.9,164.5 -105.3,193.1 -10.9,4.4 -24.6,7.8 -40.7,7.8 -8.4,0 -17.5,-0.9 -27.2,-3.1 279.7,393.1 483.4,833.5 602.9,1296.9 10.7,-48.2 20.6,-96.5 29.4,-144.9 13.3,-129.1 20.1,-260 20.1,-392.6 0,-308.8 -37.7,-612.3 -109.6,-904.8 -138.9,-436.6 -353.8,-848.7 -637.6,-1215" />
      </g>
      <g transform="scale(1.68908)" id="g146">
        <path id="path148" style="fill:#4f9c1b;fill-opacity:1;fill-rule:nonzero;stroke:none"
          d="m 13046,14605.2 c -121.7,0 -209.2,100.7 -242.2,206 -35.5,113.3 -65.9,235.1 -95.2,352.9 l -18.6,74.8 c -13.6,134.1 -61.7,262.4 -136.7,372.4 323.1,195.8 612.7,428 866.6,688.7 6.5,-21.5 13.3,-43.1 20.3,-64.9 57,-175.6 104.3,-357.3 153.5,-589.8 38,-175 19.1,-405.3 -60.4,-605.6 -138,-153.1 -287.6,-297.2 -448.6,-431.2 -13.3,-2.3 -26.2,-3.3 -38.7,-3.3" />
      </g>
      <g transform="scale(1.87798)" id="g150">
        <path id="path152" style="fill:#4f9c1b;fill-opacity:1;fill-rule:nonzero;stroke:none"
          d="m 8045.71,12409.8 c -188.18,59.8 -371.99,133.6 -549.47,220.8 -80.46,252.5 -214.38,506.8 -465.92,664.8 -267.9,184.4 -362.41,764.1 -282.17,1044.8 0.85,3 1.97,6.2 3.25,9.4 492.82,-399.7 1073.49,-672.6 1687.56,-800.4 -96.65,-313.3 -215.07,-654.3 -349.31,-1004.7 -17.31,-45.1 -31.95,-90 -43.94,-134.7 m -1779.62,2408.1 c -132.21,3 -285.84,71.4 -458.58,204.7 -105.11,81 -212.41,163.8 -325.66,241 -33.39,203.3 -50.7,411.7 -50.7,624.2 0,139.2 7.46,276.8 21.94,412.2 64.8,-219.2 149.63,-435.9 255.33,-647.7 17.78,-35.6 35.89,-71 54.63,-106 142.76,-266.1 312.15,-509.5 503.04,-728.4" />
      </g>
      <g transform="scale(1.72783)" id="g154">
        <path id="path156" style="fill:#4f9c1b;fill-opacity:1;fill-rule:nonzero;stroke:none"
          d="m 13518.1,15739.9 c -6.5,16.2 -13.2,43.4 -17.6,61.4 -7.9,32.2 -16,65.3 -29.7,94.6 -37.9,206 -11,336.5 82.2,398.9 3.4,2.4 6.3,4 8.5,5.2 13.2,-22 25.4,-79.3 31.6,-108.6 3.2,-14.9 6.2,-29.2 9.4,-42.1 49.7,-203.4 24.1,-339.5 -75.8,-404.2 -3.3,-2.2 -6.1,-3.8 -8.6,-5.2" />
      </g>
      <g transform="scale(1.70142)" id="g158">
        <path id="path160" style="fill:#4a742d;fill-opacity:1;fill-rule:nonzero;stroke:none"
          d="m 12835.4,14380 c -125.6,44.4 -218.5,157.8 -257.5,282.1 -36.5,116.5 -67.1,239.5 -96.7,358.4 l -21.5,89.5 c -10.8,114.8 -52.5,224.6 -118,317.6 40.7,22.9 80.9,46.4 120.6,70.5 74.4,-109.2 122.2,-236.6 135.7,-369.7 l 18.5,-74.2 c 29.1,-117 59.2,-238 94.4,-350.4 32.8,-104.6 119.6,-204.5 240.5,-204.5 12.4,0 25.3,1 38.4,3.3 -50.4,-41.9 -101.8,-82.8 -154.4,-122.6 m 599.8,550.6 c 78.9,198.8 97.7,427.5 59.9,601.3 -48.8,230.7 -95.8,411.2 -152.3,585.4 -7,21.7 -13.8,43.2 -20.3,64.5 37.8,38.8 74.7,78.2 110.9,118.2 12.6,-45.7 26.6,-92.2 42,-139.6 57.3,-176.7 106.9,-367.2 155.9,-599.3 25,-114.7 29,-247.8 11,-382.9 -65.7,-84.8 -134.8,-167.4 -207.1,-247.6" />
      </g>
      <g transform="scale(1.75858)" id="g162">
        <path id="path164" style="fill:#4a742d;fill-opacity:1;fill-rule:nonzero;stroke:none"
          d="m 8721.26,13213.5 c -43.28,12.3 -86.32,25.2 -129.26,38.9 12.8,47.7 28.44,95.7 46.92,143.9 143.35,374.1 269.82,738.3 373.03,1072.9 44.18,-9.2 88.65,-17.7 133.17,-25.5 -104.85,-341.5 -233.88,-713.6 -380.3,-1095.6 -17.29,-45.1 -31.79,-90 -43.56,-134.6 m -716.04,274.7 c -59.48,29.3 -118.5,60 -176.62,92.1 -80.63,198 -201.81,383.8 -395.03,505.2 -343.63,236.5 -452.7,930.2 -356.88,1265.4 6.31,22 15.98,42.6 26.61,62.4 35.09,-30.5 70.51,-60.1 106.51,-89.4 -1.37,-3.4 -2.56,-6.8 -3.47,-10 -85.7,-299.8 15.24,-918.8 301.32,-1115.8 268.63,-168.7 411.64,-440.2 497.56,-709.9 M 6701.5,15688.9 c -174,0 -368.94,82.5 -582.01,246.9 -75.11,57.9 -151.31,116.7 -229.5,173.7 -13.48,63 -25.42,126.5 -35.94,190.5 120.95,-82.5 235.53,-170.9 347.78,-257.4 184.47,-142.3 348.52,-215.4 489.72,-218.6 37.02,-42.5 74.83,-84.1 113.38,-124.8 -33.6,-6.9 -68.06,-10.3 -103.43,-10.3" />
      </g>
      <g transform="scale(1.74267)" id="g166">
        <path id="path168" style="fill:#4a742d;fill-opacity:1;fill-rule:nonzero;stroke:none"
          d="m 13392.9,15465 c -14.4,0 -28.2,2.6 -41.5,7.9 -64.8,25.7 -82.4,97.8 -98,161.5 -6.8,27.4 -13.7,55.8 -22.5,72.3 l -4.9,9.1 -1.9,10.1 c -10.7,56.2 -33.9,177.7 -12.6,298.4 74.1,88.1 144.5,179 210.8,272.3 10.6,2.4 20.5,3.4 29.6,3.4 17.5,0 32.4,-3.7 44.2,-8.5 76.5,-31.1 97.5,-130.1 114.3,-209.7 2.9,-13.4 5.6,-26.2 8.4,-37.8 80.3,-328.8 -28.2,-479.1 -133.3,-547.2 -32.7,-21.2 -63.7,-31.8 -92.6,-31.8 m 53.1,696.2 c -2.2,-1.2 -5,-2.8 -8.4,-5.1 -92.4,-61.9 -119.1,-191.3 -81.5,-395.6 13.6,-29.1 21.6,-61.9 29.4,-93.7 4.4,-17.9 11,-44.9 17.4,-60.9 2.5,1.3 5.3,3 8.6,5.1 99.1,64.2 124.4,199.1 75.2,400.8 -3.2,12.8 -6.2,26.9 -9.3,41.7 -6.2,29 -18.3,85.9 -31.4,107.7" />
      </g>
      <g transform="scale(1.89632)" id="g170">
        <path id="path172" style="fill:#779ebe;fill-opacity:1;fill-rule:nonzero;stroke:none"
          d="m 12966,16126.1 c -8.9,48.2 -18.7,96.5 -29.4,144.6 2.5,9.7 5,19.6 7.4,29.3 8.6,-57.5 16,-115.6 22,-173.9" />
      </g>
      <g transform="scale(1.9351)" id="g174">
        <path id="path176" style="fill:#371a45;fill-opacity:1;fill-rule:nonzero;stroke:none"
          d="m 5659.04,13763.3 c -22.63,38.9 -44.65,78.2 -66.09,118.2 -18.19,33.9 -35.76,68.3 -53.02,102.9 -216.32,433.5 -342.67,888.3 -386.37,1343.3 -31.2,324.8 -20.27,649.9 30.73,967.1 25.47,-159.5 61.34,-318.4 107.85,-475.9 -14.06,-131.4 -21.29,-264.9 -21.29,-400 0,-206.3 16.79,-408.5 49.19,-605.8 9.56,-58.2 20.41,-115.9 32.66,-173.1 65.68,-307.9 169.61,-601.9 306.34,-876.7 m 6959.46,770.5 c 70.4,286.1 107.3,583 107.3,885.1 0,129.7 -6.6,257.7 -19.6,384.1 -5.9,57.1 -13.1,114 -21.6,170.4 27,107.8 49.2,216.7 66.7,326.6 96,-598.1 46.3,-1202.9 -132.8,-1766.2" />
      </g>
      <g transform="scale(1.60685)" id="g178">
        <path id="path180" style="fill:#ffffff;fill-opacity:1;fill-rule:nonzero;stroke:none"
          d="m 14287.7,8100.9 c 0,0 1886.3,-491.59 1953.6,-1231.61 58.7,-645.24 -648.6,-2820.99 -1064.1,-3060.03 -303,-174.31 -1216.6,145.38 -1216.6,145.38 l 327.1,4146.26" />
      </g>
      <g transform="scale(1.46457)" id="g182">
        <path id="path184" style="fill:#b9afbe;fill-opacity:1;fill-rule:nonzero;stroke:none"
          d="m 16239.9,4248.48 c -164.9,0 -332.7,32.16 -478.1,72.38 -2,94.16 1.2,173.84 3.6,237.27 0.2,2.86 0.3,5.67 0.4,8.4 3.3,-7.72 6.7,-15.16 10.4,-22.33 15.6,-29.57 35.6,-59.81 62.6,-84.33 26.6,-24.58 57.6,-43.97 89.1,-57.14 53.1,-21.31 104.6,-27.52 152.4,-27.52 9.5,0 18.8,0.2 28,0.68 55.6,3.14 107.2,13.04 156.5,26.15 11.8,3.21 23.6,6.56 35.2,10.11 -7.9,-53.13 -15.1,-106.86 -20.6,-161.69 0,-0.48 0,-0.89 -0.1,-1.3 -13.1,-0.47 -26.2,-0.68 -39.4,-0.68" />
      </g>
      <g transform="scale(1.61403)" id="g186">
        <path id="path188" style="fill:#371a45;fill-opacity:1;fill-rule:nonzero;stroke:none"
          d="m 14734.6,3669.38 c -440.5,0 -874.3,214.75 -900.3,227.82 -45.8,23.05 -64.2,78.93 -41.2,124.72 23.1,45.85 78.9,64.37 124.7,41.32 8.2,-4.09 821.8,-406 1260.5,-81.96 361.5,267.03 934.5,2224.98 898,2852.05 -24.3,415.29 -806.5,762.87 -1105.8,861.69 -48.7,16.11 -75.2,68.65 -59.1,117.41 16.1,48.76 68.7,75.28 117.4,59.17 48.8,-16.11 1196.5,-401.42 1233,-1027.43 38.2,-654.76 -523.3,-2680.18 -973,-3012.4 -162.8,-120.25 -359.2,-162.39 -554.2,-162.39" />
      </g>
      <g transform="scale(1.30426)" id="g190">
        <path id="path192" style="fill:#ffffff;fill-opacity:1;fill-rule:nonzero;stroke:none"
          d="m 14927.1,9684.47 c 0,0 101.5,-822.3 -255,-258.39 -325.3,515.09 -730.2,1373.92 -1087.7,2774.12 -3,11.4 -6,23.1 -9,34.5 0,0 -161,14 -358.4,112.8 -465.6,232.6 -365.8,1139.2 -275.8,1447.5 105.7,363.1 355.7,265 355.7,265 87.7,143.6 260.8,219.9 552.3,215.6 547.1,-8.1 658.6,-450.5 658.6,-450.5 501.7,-1509.7 1112.8,-2440.1 1476.6,-2903.7 192.5,-246 315.6,-360.4 315.6,-360.4 l -1372.9,-876.53" />
      </g>
      <g transform="scale(1.25753)" id="g194">
        <path id="path196" style="fill:#b9afbe;fill-opacity:1;fill-rule:nonzero;stroke:none"
          d="m 15262.2,9891 c -3.4,2.86 -7,5.64 -10.8,8.19 -20.5,13.75 -43.6,20.27 -66.5,20.27 -16.7,0 -33.3,-3.49 -48.6,-10.25 -322.1,544.99 -705.4,1406.39 -1047,2744.39 124.2,30.3 307.2,87.2 403.7,173.2 241.5,215.9 285.3,713.4 285.3,713.4 100,-479.7 0,-760.5 -116.6,-918.8 -125.6,-170.1 -164.2,-389.9 -91,-588.3 106.6,-288.5 240.9,-602.3 453.7,-805 201,-191.5 434.7,-268.9 666.8,-268.9 135.4,0 270.3,26.3 397.9,71.7 63.6,-122.7 133.9,-242.1 210.9,-357.8 l -22.7,5.3 -164.7,38.2 -101.2,85.7 c -73.9,-78.6 -160.7,-167.9 -249.7,-264.4 -50.1,-54.8 -101.2,-112 -150.6,-170.8 -38.9,-46.5 -77,-93.7 -113.5,-142 -79.1,-104.9 -158,-216.3 -235.4,-334.1" />
      </g>
      <g transform="scale(1.07455)" id="g198">
        <path id="path200" style="fill:#56a38d;fill-opacity:1;fill-rule:nonzero;stroke:none"
          d="m 16300,14886.9 c -10.7,2.8 -17.3,5 -19.2,5.7 6.5,-2 12.9,-3.9 19.2,-5.7 m -20.3,6 c -68.2,16.6 -129.2,40 -183.7,68.9 67.1,-30.4 129.6,-52.6 183.7,-68.9" />
      </g>
      <g transform="scale(1.12988)" id="g202">
        <path id="path204" style="fill:#b9afbe;fill-opacity:1;fill-rule:nonzero;stroke:none"
          d="m 15616.5,14144.4 c -52.5,0 -92.8,7.9 -114.8,13.4 -6,1.7 -12.1,3.5 -18.2,5.4 -0.4,0.1 -0.6,0.2 -0.6,0.2 -0.2,0 -0.3,0.1 -0.5,0.1 -51.5,15.5 -110.9,36.6 -174.7,65.5 -462.5,243.9 -436.5,889.6 -436.5,889.6 0,0 313.3,-439.6 775.1,-463.3 52.4,-2.6 101.2,-3.8 146.6,-3.8 358.5,0 507.1,74.1 507.1,74.1 -220.2,-499.8 -514.8,-581.3 -683.5,-581.2" />
      </g>
      <g transform="scale(1.31019)" id="g206">
        <path id="path208" style="fill:#371a45;fill-opacity:1;fill-rule:nonzero;stroke:none"
          d="m 16168.3,10500.9 c -27.6,0 -55.2,9.6 -77.6,29.2 -40.3,35.3 -994.6,890.8 -1760.4,3195.1 l -2.5,8.4 c -3.6,13.6 -99.9,352.8 -543.1,359.5 -205.4,2.6 -347,-38 -420.6,-121.9 -78.6,-89.6 -100.2,-246.9 -66.1,-480.9 28.5,-195.4 139.5,-307.6 227.4,-299.4 103.4,9.7 207.3,198.1 190.8,588.9 -2.8,65.1 47.8,120 112.9,122.8 64.5,2.7 120,-47.8 122.8,-112.9 24.7,-584.4 -192.8,-813.9 -404.6,-833.7 -230.3,-21.9 -438.1,193.5 -482.8,500.3 -45.3,310.9 -6.5,524 122.2,670.6 123.1,140.2 319.5,206.7 601.5,202.1 498.4,-7.5 718.8,-349.3 767.3,-533.1 742.8,-2233.2 1681.5,-3080.1 1690.9,-3088.4 48.8,-43.2 53.6,-117.7 10.6,-166.5 -23.4,-26.5 -55.9,-40.1 -88.7,-40.1" />
      </g>
      <g transform="scale(1.23423)" id="g210">
        <path id="path212" style="fill:#371a45;fill-opacity:1;fill-rule:nonzero;stroke:none"
          d="m 16157.2,9079.2 c -21.2,0 -42.7,5.43 -62.4,16.94 -43.1,25.03 -1055.8,643.96 -1850,3722.66 -78,16.4 -199.2,50 -333.8,117.3 -551.6,275.8 -475.3,1266.9 -355.9,1676.6 49.9,171.3 134.9,287.4 252.4,345.2 143.3,70.4 275.2,22.2 289.8,16.5 64.4,-25.2 96.2,-97.9 70.9,-162.3 -24.9,-63.7 -96.2,-95.4 -160.1,-71.7 -4.5,1.5 -48.2,14.5 -92.7,-8.7 -49.9,-26 -91.3,-91.4 -119.7,-189.1 -95.1,-325.9 -164.6,-1186.5 227.3,-1382.4 182.2,-91.1 332.8,-106.4 334.3,-106.5 l 87.9,-8.4 22.1,-85.6 c 764.9,-3020.2 1744.5,-3641.64 1754.3,-3647.56 58.8,-35.57 78.4,-112.13 43.4,-171.28 -23.4,-39.54 -65,-61.66 -107.8,-61.66" />
      </g>
      <g transform="scale(1.14302)" id="g214">
        <path id="path216" style="fill:#371a45;fill-opacity:1;fill-rule:nonzero;stroke:none"
          d="m 15584.6,13823.1 c -35.6,0 -72.5,2.5 -110.6,7.3 -71.9,9.1 -122.8,74.7 -113.6,146.6 9.1,72 74.8,122.6 146.7,113.8 137.9,-17.5 241.3,9.7 316.5,83.1 149.5,146.1 205.3,485.8 156.9,956.7 -36,349.8 -154.5,425.8 -155.6,426 -70.5,17 -113.9,87.9 -96.8,158.4 17,70.5 87.8,113.8 158.3,96.7 49.3,-11.9 298.1,-99.4 355.2,-654.3 58.4,-568.1 -20.5,-962.2 -234.6,-1171.3 -111,-108.4 -252.7,-163 -422.4,-163" />
      </g>
      <g transform="scale(1.48086)" id="g218">
        <path id="path220" style="fill:#ffffff;fill-opacity:1;fill-rule:nonzero;stroke:none"
          d="m 16300,6396.76 c -49.2,-102.17 -86.6,-207.72 -117.8,-315.76 -98.2,-337.1 -137.1,-696.29 -291.2,-1037.1 -38.3,-84.48 -84.8,-157.61 -132.8,-219.07 -15,-19.31 -30,-37.34 -45,-54.49 -113.5,-128.78 -220,-193.06 -220,-193.06 -0.6,-33.63 -3,-76.45 -4.6,-127.57 -6.7,-209.87 -4.3,-561.43 147.2,-999.82 11,-32.41 22.6,-65.16 35.8,-98.18 101.5,-263.43 40.1,-1116.11 -71,-1310.66 -319.1,-561.1 -1118.8,-475.74 -1346.4,-92.72 -205.9,347.57 -119.7,1021.84 -80.8,1258.93 8.8,54.16 15.3,85.36 15.3,85.36 -211.1,441.83 -392.5,1035 -392.5,1479.54 0,0 -56.9,-9.45 -134.1,-10.4 l 0.4,-14.65 c -30.3,-275.04 20.8,-744.7 120.8,-1173.91 11,-47.41 22.7,-94.54 34.9,-140.73 59,-222.71 -50.5,-927.03 -344.8,-1277.03 -341.2,-406.25 -1088.6,-264.31 -1238.5,38.83 -180.5,364.11 55.4,975.37 145.6,1183.7 20.2,46.26 33.1,72.26 33.1,72.26 -376.3,890.56 -398.3,1652.35 -331.6,2422.11 105.2,1206.66 585.2,2156.65 1078.4,2810.73 30.9,40.99 63.3,81.1 96.4,120.54 41.9,49.9 85.3,98.52 127.9,145.05 75.5,81.98 149.3,157.81 212,224.53 l 86,-72.8 139.8,-32.41 2319.6,-540.36 20.2,-272.28 8.9,-122.02 19.3,-262.21 48.9,-658.74 29.1,-394.03 24.1,-323.66 7.4,-97.92" />
      </g>
      <g transform="scale(1.25087)" id="g222">
        <path id="path224" style="fill:#b9afbe;fill-opacity:1;fill-rule:nonzero;stroke:none"
          d="m 15244.2,2374.36 c -43.3,0 -87.5,2.64 -132.3,8.07 -242.5,29.1 -456.4,139.42 -520.2,268.29 -65.1,131.51 -75.8,303.79 -56.7,483.91 29.2,-106.17 84.6,-207.14 178.3,-292.36 138,-125.91 309.9,-185.79 481.2,-185.79 259,0 516.8,136.86 655,389.57 227.1,415.64 293.8,1099.8 310.9,1343.15 24.3,-120.39 52,-240.31 82.8,-356.63 56.8,-214.57 -52.2,-1008.5 -384.3,-1403.83 -137.1,-163.33 -360.8,-254.38 -614.7,-254.38" />
      </g>
      <g transform="scale(1.42246)" id="g226">
        <path id="path228" style="fill:#b9afbe;fill-opacity:1;fill-rule:nonzero;stroke:none"
          d="m 15501.2,1813.34 c -246.4,0 -475.3,107.42 -571,268.68 -194.3,327.33 -111.2,989.56 -72,1232.52 l 172.9,-41.13 c 54,-28.61 113.9,-54.41 179.7,-75.29 -101.3,-24.46 -217.9,-115.71 -228.4,-403.24 -10.7,-286.27 35.3,-605.15 418,-655.77 56.3,-7.38 109.3,-10.97 158.6,-10.97 711,0 713.4,735.56 678.4,1248.05 62.6,-310.09 3.3,-1039.32 -87.8,-1199.26 -130,-228.55 -363.6,-361.06 -640.6,-363.59 -2.6,0 -5.2,0 -7.8,0" />
      </g>
      <g transform="scale(1.34876)" id="g230">
        <path id="path232" style="fill:#b9afbe;fill-opacity:1;fill-rule:nonzero;stroke:none"
          d="m 16228.4,3330.17 c -3,0 -6.1,0.29 -9.2,0.74 -63.3,10.15 -122.3,24.47 -177.3,41.96 25.3,6.08 49.7,8.23 71.5,8.23 25.7,0 47.8,-2.96 63.5,-5.93 l -324.5,77.11 c -64.4,34.11 -121.1,72.07 -170.7,111.07 3.3,18.09 5.4,28.32 5.5,29.28 l 7.5,36.55 -16.1,33.66 c -256,535.31 -402.9,1086.41 -402.9,1511.99 0,61.38 -49.7,111.21 -111.2,111.21 -24.7,0 -47.7,-8.16 -66.2,-21.87 -16.8,31.21 -48.1,53.9 -86,58.05 -3.9,0.44 -7.9,0.59 -11.7,0.59 -53,0 -99.6,-37.74 -109.6,-90.38 -7.8,1.63 -15.9,3.34 -24.2,5.12 -90.4,21.43 -181.4,44.26 -270.9,68.06 -291.1,83.86 -673.5,229.92 -913.6,461.69 0,0 4.6,-56.73 37.4,-147.77 -42.1,24.99 -75,49.53 -97,73.25 -42.1,45.67 -49.3,136.35 -43.8,224.58 3.9,62.05 55.1,102.39 109,102.39 24.5,0 49.7,-8.38 71.2,-26.91 168.6,-145.77 366.3,-225.4 557.7,-283.53 285.3,-86.59 719.2,-120.92 1018.4,-134.56 166.4,-7.57 286.9,-160.22 256.9,-324.15 -44.6,-243.41 -77.5,-599.29 1.2,-963.63 91.7,-424.98 427.9,-736.3 658.1,-859.45 48.6,-25.95 27.9,-97.35 -23,-97.35 m -26.6,39.14 v 0 0 0 0 l -4,0.97 c 2.5,-0.6 3.8,-0.97 4,-0.97 v 0 0 0 m -4,0.97 v 0 c -3.5,1.33 -10.3,2.89 -19.4,4.52 l 19.4,-4.52" />
      </g>
      <g transform="scale(1.34031)" id="g234">
        <path id="path236" style="fill:#8f889d;fill-opacity:1;fill-rule:nonzero;stroke:none"
          d="m 16300,3391.54 -19.5,4.55 c 9.1,-1.64 15.9,-3.21 19.5,-4.55" />
      </g>
      <g transform="scale(1.34063)" id="g238">
        <path id="path240" style="fill:#8f889d;fill-opacity:1;fill-rule:nonzero;stroke:none"
          d="m 16300,3389.74 v 0 0 m 0,0 v 0 0 m 0,0 v 0 0 m 0,0 c -0.1,0 -1.5,0.38 -4,0.97 l 4,-0.97" />
      </g>
      <g transform="scale(1.33857)" id="g242">
        <path id="path244" style="fill:#8c7b94;fill-opacity:1;fill-rule:nonzero;stroke:none"
          d="m 16164,3398.55 c -69.9,22.19 -133.5,49.61 -190.9,80.01 l 326.9,-77.69 c -15.8,2.98 -38,5.97 -63.9,5.97 -22,0 -46.6,-2.16 -72.1,-8.29" />
      </g>
      <g transform="scale(1.23502)" id="g246">
        <path id="path248" style="fill:#b9afbe;fill-opacity:1;fill-rule:nonzero;stroke:none"
          d="m 16300,4841.6 c -107.9,163.64 -256,300.65 -474.2,419.59 -563.7,307.28 -768.8,671 -842.6,875.85 192.7,-114.32 561.5,-237.56 956.9,-342.82 115.9,-33.36 218.6,-57.74 295.8,-74.33 8.8,-2.03 17.5,-4.14 26.3,-6.16 -0.5,-3 -1,-5.91 -1.3,-8.99 -23.5,-215.62 -7.6,-527.27 39.1,-863.14" />
      </g>
      <g transform="scale(1.23217)" id="g250">
        <path id="path252" style="fill:#8c7b94;fill-opacity:1;fill-rule:nonzero;stroke:none"
          d="m 16299.8,5726.96 c -8.7,2.03 -17.5,4.14 -26.3,6.17 9.1,-1.95 18,-3.81 26.5,-5.6 -0.1,-0.16 -0.1,-0.41 -0.2,-0.57 m -322.8,80.67 c -396.3,105.51 -766,229.03 -959.1,343.62 -36,99.66 -40.9,161.75 -40.9,161.75 262.8,-253.7 681.3,-413.58 1000,-505.37" />
      </g>
      <g transform="scale(1.27014)" id="g254">
        <path id="path256" style="fill:#371a45;fill-opacity:1;fill-rule:nonzero;stroke:none"
          d="m 15012,2102.21 c -51.8,0 -104.4,3.14 -157.6,9.52 -328.5,39.45 -595,190.45 -695.8,394.05 -246.8,498.37 90.1,1309.94 185.3,1519.52 -450.4,1092.24 -446.9,2006.08 -375.1,2831.5 100.6,1155.22 407.9,2080.55 967.2,2911.96 36.4,54.16 109.7,68.57 163.9,32.12 54.2,-36.45 68.5,-109.83 32,-163.92 -536,-796.92 -830.8,-1686.82 -927.7,-2800.71 -70.3,-807.31 -73.2,-1701.39 377.6,-2767.72 l 21,-49.61 -23.7,-48.42 c -122.1,-248.95 -397.6,-978.63 -208.9,-1360 62.9,-126.92 273.5,-235.57 512.4,-264.22 302.6,-36.53 577.6,54.32 735.6,242.57 327,389.32 434.4,1171.21 378.5,1382.52 -148.9,562.69 -225.2,1210.57 -185.4,1575.65 7.1,64.87 65.8,111.41 130.2,104.64 64.8,-7.09 111.7,-65.35 104.7,-130.23 -36.5,-333.98 38.7,-960.44 178.8,-1489.59 75,-283.12 -53.3,-1151.29 -425.9,-1594.95 -180.4,-214.7 -467.1,-334.68 -787.1,-334.68" />
      </g>
      <g transform="scale(1.20821)" id="g258">
        <path id="path260" style="fill:#371a45;fill-opacity:1;fill-rule:nonzero;stroke:none"
          d="m 16298,10819.5 c -26.4,-68.2 -57.8,-132 -89.8,-195.2 -32.6,-62.5 -66.2,-123.9 -101.2,-183.7 -35.1,-59.8 -69.5,-119.5 -108.6,-174.9 -39,-55.5 -79.7,-108.9 -128,-156.1 l -1.5,-1.5 c -49.9,-48.7 -129.6,-47.7 -178.2,2.2 -37.5,38.4 -45.4,94.8 -24.3,140.8 30.7,66.6 72.7,124.3 117.8,178.7 45.1,54.5 96.7,103.2 148.5,151.2 51.8,48 105.9,93.7 161.7,137.8 56.5,43.4 113.8,85.6 176.4,123.5 8.8,5.3 20.4,2.5 25.7,-6.3 3.2,-5.2 3.5,-11.3 1.5,-16.5" />
      </g>
      <g transform="scale(1.4616)" id="g262">
        <path id="path264" style="fill:#ffffff;fill-opacity:1;fill-rule:nonzero;stroke:none"
          d="m 16300,6648.22 -79.2,-220.11 6,100.92 c 19.7,40.64 43.6,80.67 73.2,119.19" />
      </g>
      <g transform="scale(1.49132)" id="g266">
        <path id="path268" style="fill:#371a45;fill-opacity:1;fill-rule:nonzero;stroke:none"
          d="m 14785.3,1528.44 c -308.2,0 -589.1,138.61 -717.4,354.73 -242.8,408.76 -115.8,1198.13 -83.8,1372.74 -235.2,501.03 -369.8,1018.49 -369.8,1424.24 0,55.52 45.1,100.59 100.6,100.59 55.6,0 100.6,-45.07 100.6,-100.59 0,-384.89 132.8,-883.31 364.4,-1367.44 l 14.5,-30.45 -6.8,-33.05 c -1.7,-8.72 -175.2,-878.56 53.2,-1263.32 91.3,-153.82 309.6,-256.28 544.6,-256.28 2.5,0 5,0 7.5,0 264.2,2.41 487,128.81 611,346.81 94.9,166.76 153.8,982.48 63.9,1215.36 -211.6,548.04 -194.4,983.36 -186.1,1192.57 0.9,23.61 1.7,44.46 2.2,62.57 l 1.1,55.38 47.3,28.64 c 2.1,1.2 231.4,144.1 355.6,418.82 97.5,215.91 137.5,478.43 176.2,732.37 47.5,311.87 92.4,606.51 237.3,827.12 30.5,46.47 92.8,59.34 139.3,28.83 46.4,-30.51 59.3,-92.87 28.9,-139.27 -120.9,-183.86 -162.5,-457.45 -206.6,-746.99 -40.7,-267.35 -82.9,-543.81 -191.8,-784.87 -115.1,-254.81 -301.3,-412.73 -387.9,-476.29 -0.2,-4.63 -0.4,-9.39 -0.6,-14.29 -8.3,-210.68 -23.8,-602.89 172.8,-1112.1 113,-292.83 45.7,-1172.25 -76.7,-1387.43 -160.5,-281.83 -446.3,-445.24 -784.1,-448.4 -3.1,0 -6.3,0 -9.4,0" />
      </g>
      <g transform="scale(1.26435)" id="g270">
        <path id="path272" style="fill:#371a45;fill-opacity:1;fill-rule:nonzero;stroke:none"
          d="m 16175,5459.49 c -70.9,10.28 -141.3,23.72 -211.4,38.43 -69.7,16.46 -139.2,34.09 -208.1,53.71 -137.7,40.73 -273.3,88.9 -405.9,145.13 -132.8,55.29 -262.9,117.69 -387.8,189.9 -62.1,36.62 -123.7,74.19 -182.1,116.66 -58.6,42.32 -116,85.42 -167.4,138.26 -5.4,5.53 -5.3,14.55 0.3,20.01 4.6,4.51 11.5,5.22 16.9,2.13 l 1,-0.63 c 120.5,-69.05 251.5,-121.48 381.6,-169.89 130.3,-48.72 263.2,-90.08 396.8,-128.37 133.1,-39.38 268.7,-70.47 402.8,-106.22 67.5,-16.45 135.1,-32.74 202.1,-51.25 67.7,-16.29 135,-33.77 201.9,-54.41 l 2.8,-0.87 c 52.2,-16.06 81.5,-71.5 65.4,-123.78 -14.6,-47.3 -61.4,-75.77 -108.9,-68.81" />
      </g>
      <g transform="scale(1.08784)" id="g274">
        <path id="path276" style="fill:#371a45;fill-opacity:1;fill-rule:nonzero;stroke:none"
          d="m 16032.6,11055.8 c -279.7,0 -835,110.8 -1085.3,937.4 -198.5,655.3 233,1226.4 613.7,1730.2 256.2,339.1 498.2,659.4 498.2,939.5 0,63.4 51.4,114.9 115,114.9 63.4,0 114.9,-51.5 114.9,-114.9 0,-357.1 -264.6,-707.4 -544.8,-1078.1 -364.7,-482.6 -741.6,-981.6 -577.1,-1525 276.3,-912.2 952.4,-771.7 981.2,-765.3 61.8,13.7 123.3,-24.6 137.4,-86.3 14.2,-61.6 -23.8,-123 -85.3,-137.6 -2.4,-0.5 -67.3,-14.8 -167.9,-14.8" />
      </g>
      <g transform="scale(1.17353)" id="g278">
        <path id="path280" style="fill:#ffffff;fill-opacity:1;fill-rule:nonzero;stroke:none"
          d="m 15829.8,7711.96 c 140.1,-73.7 298.4,-153.64 470.2,-235.44 -105.8,41.24 -202.7,80.7 -288.8,116.57 -68.7,28.97 -130.1,69.45 -181.4,118.87" />
      </g>
      <g transform="scale(1.34475)" id="g282">
        <path id="path284" style="fill:#371a45;fill-opacity:1;fill-rule:nonzero;stroke:none"
          d="m 16287.5,3365.97 c -79.9,-14.8 -160.8,-12.05 -241.4,0.52 -80.4,13.09 -160.4,37.4 -235.5,74.14 -74.9,36.44 -148.2,81.72 -208.3,141.36 -62.6,57.41 -112.6,127.16 -150,201.9 -22.9,45.95 -4.3,101.73 41.5,124.63 37.1,18.59 80.8,9.96 108.2,-18.29 l 8.7,-9 c 24.6,-25.36 43.8,-54.06 66.4,-79.87 11.4,-12.79 22.6,-25.65 33.2,-39.04 10.2,-13.9 23.5,-24.68 34.5,-37.7 45.9,-50.49 96.2,-97.56 151.8,-140.1 55.4,-42.83 116.5,-80.46 182.2,-112.21 65.3,-32.5 135.8,-59.34 208.6,-79.79 l 1.3,-0.3 c 7.1,-2.01 11.3,-9.45 9.3,-16.59 -1.4,-5.13 -5.6,-8.7 -10.5,-9.66" />
      </g>
      <g transform="scale(1.17695)" id="g286">
        <path id="path288" style="fill:#371a45;fill-opacity:1;fill-rule:nonzero;stroke:none"
          d="m 16282.9,3991.08 c -90.5,-3.15 -179.2,12.57 -266.2,38.31 -86.7,26.35 -171.1,64.75 -249.3,115.05 -78,49.96 -152.8,109.69 -212.3,183.19 -62,71.36 -108.8,155.06 -140.8,242.99 -20,55.23 8.5,116.24 63.7,136.29 46,16.74 96,-0.26 123,-38.15 l 5.8,-8.07 c 45.3,-63.73 81.6,-129.83 128.8,-189.73 44.5,-61.43 93.4,-120.74 149.5,-175.45 111,-110.2 248.6,-202.73 402.5,-274.44 l 1.4,-0.6 c 7.6,-3.65 11,-12.74 7.3,-20.47 -2.4,-5.44 -7.8,-8.75 -13.4,-8.92" />
      </g>
      <g transform="scale(1.59696)" id="g290">
        <path id="path292" style="fill:#ffffff;fill-opacity:1;fill-rule:nonzero;stroke:none"
          d="m 15930.6,3296.71 c -174.7,-50.54 -930.8,-203.14 -910.1,508.09 4.3,150.1 53.1,392.06 49.7,392.37 -1.2,0.06 -44.7,-21.92 -106.6,-43.9 -127.1,-45.14 -331.8,-90.29 -407.5,55.23 -40.9,78.59 -28.3,150.92 14.7,215.04 11.7,17.28 25.9,34.31 41.7,50.53 137.1,139.58 410.9,230.06 527.2,245.09 0,0 -0.9,9.64 -2.6,27.56 -10.2,109.77 -52.7,529.06 -131.3,892.19 -42.6,196.06 -95.6,375.91 -159.8,481.73 l 55.7,390.93 25.8,182.72 85.9,604.59 43.4,304.39 c 10,0 675.8,-2.81 932,-767.14 0.5,-1.38 0.9,-2.82 1.4,-4.26 153.2,-461.57 183.6,-1313.81 110.4,-2472.71 -20.7,-327.68 199.4,-955.25 -170,-1062.45" />
      </g>
      <g transform="scale(1.44686)" id="g294">
        <path id="path296" style="fill:#b9afbe;fill-opacity:1;fill-rule:nonzero;stroke:none"
          d="m 15749.2,4566.24 -15.9,1.79 c 0,0 -9.7,228.43 20.6,495.56 15.9,139.96 -79.3,267.2 -218,291.8 -190.1,33.73 -418.9,98.43 -684.7,214.4 56.2,48.73 100.2,110.45 128.3,181.36 l 39.3,99.04 c 422,-179.08 781.6,-219.72 1021.3,-219.72 118.1,0 207.1,9.89 259.9,17.97 -30.2,-157.03 -69.3,-309.08 -130.1,-443.51 -30.9,-68.63 -68.3,-129.24 -107.2,-181.77 -15.9,-15.35 -31.2,-32 -45.9,-50.32 -9.7,-12.16 -19.2,-25.23 -28.1,-39.19 -96.9,-105.4 -183.9,-159.65 -185.2,-160.41 l -48.8,-29.52 -1.2,-57.08 c -0.4,-18.67 -1.2,-40.16 -2.2,-64.49 -0.7,-17.21 -1.5,-35.87 -2.1,-55.91" />
      </g>
      <g transform="scale(1.45922)" id="g298">
        <path id="path300" style="fill:#371a45;fill-opacity:1;fill-rule:nonzero;stroke:none"
          d="m 15718.3,4515.7 -102.5,11.85 c 0.6,19.88 1.4,38.38 2.1,55.44 0.9,24.13 1.7,45.44 2.1,63.94 l 1.2,56.61 48.4,29.26 c 1.3,0.75 87.6,54.55 183.7,159.06 -24.4,-38.11 -44.5,-82.72 -52.6,-133.64 -3.2,-19.66 -4.2,-39.61 -3.3,-59.34 -44.8,-35.84 -74.4,-53.73 -74.4,-53.73 -0.6,-34.13 -3.1,-77.57 -4.7,-129.45 m 208.3,464.9 c 38.6,52.09 75.6,112.19 106.3,180.24 60.3,133.29 99.1,284.05 129,439.75 35.9,5.42 55,10.07 55,10.07 0,0 38.1,13.5 83.1,54.01 -42.6,-181.95 -91.8,-364.51 -171.7,-542.21 -43.2,-23.09 -85.6,-49.14 -127.1,-79.29 -25.4,-18.91 -50.6,-39.27 -74.6,-62.57" />
      </g>
      <g transform="scale(1.45996)" id="g302">
        <path id="path304" style="fill:#b9afbe;fill-opacity:1;fill-rule:nonzero;stroke:none"
          d="m 16013.6,6195.04 c 40.8,186.93 58.7,413.17 28.5,693.93 -25.9,240.49 19.7,319.53 90.9,319.53 32.9,0 71.2,-16.85 110.5,-42.4 20.5,-13.7 39.4,-27.95 56.5,-43.49 l -56.6,-397.48 c -0.3,0 -0.6,0 -0.9,0 -2.9,0 -5.9,-0.34 -8.7,-1.1 -19.2,-4.79 -30.8,-24.25 -26,-43.35 l 1,-4.18 c 13.4,-53.15 24.8,-106.37 35,-159.94 l -4.8,-81.23 13.2,36.57 c 9.1,-50.14 17.6,-100.55 26.2,-151.3 -7.7,-33.29 -14.8,-67.13 -21.6,-101.45 -76.6,-16.29 -158.7,-23.63 -243.2,-24.11" />
      </g>
      <g transform="scale(1.45567)" id="g306">
        <path id="path308" style="fill:#b9afbe;fill-opacity:1;fill-rule:nonzero;stroke:none"
          d="m 16286.8,6454.26 4.8,81.47 c 2.9,-14.91 5.7,-29.81 8.4,-44.79 l -13.2,-36.68" />
      </g>
      <g transform="scale(1.45946)" id="g310">
        <path id="path312" style="fill:#371a45;fill-opacity:1;fill-rule:nonzero;stroke:none"
          d="m 16262.4,6221.27 c 6.7,34.33 13.8,68.18 21.5,101.48 1,-6.1 2.1,-12.2 3.1,-18.29 l 13,-74.35 c -12.4,-3.22 -24.9,-6.16 -37.6,-8.84" />
      </g>
      <g transform="scale(1.50607)" id="g314">
        <path id="path316" style="fill:#b9afbe;fill-opacity:1;fill-rule:nonzero;stroke:none"
          d="m 16187.7,4903.17 c -17.1,0 -30,6.9 -30,6.9 -5,-3.52 -10,-5.18 -15.2,-5.18 -4.7,0 -9.5,1.4 -14.3,4.06 l 36.4,4.44 -8.3,99.33 c -10.7,129.48 -24.2,256.24 -38.2,384.25 -14,127.82 -32.4,255.3 -56.4,382.25 l -19.2,95.09 -22.6,94.68 c -7.2,31.54 -15.6,63.14 -24.9,94.42 -9.3,31.4 -18,62.61 -29.6,93.62 -11.2,31.07 -22.5,61.88 -35,92.43 -14.2,30.34 -27.7,60.82 -42.5,90.5 -16,29.68 -33.8,59.02 -51.9,87.31 -18.8,28.42 -42.6,55.18 -64.9,80.27 -6.3,7.11 -15.3,11.42 -25,11.69 l 54.9,385.31 v 0 c 116.1,-103.18 157.9,-250.26 198.2,-431.99 5.7,-26.16 12.9,-55.04 20.7,-86.58 64.1,-255.1 190.2,-675.4 244.9,-1140.45 35.2,-299.46 -34.3,-342.35 -77.1,-342.35" />
      </g>
      <g transform="scale(1.59183)" id="g318">
        <path id="path320" style="fill:#371a45;fill-opacity:1;fill-rule:nonzero;stroke:none"
          d="m 14921.4,6156.92 c 21,-23.74 43.6,-49.06 61.4,-75.95 17.1,-26.76 34,-54.53 49,-82.61 14.1,-28.08 26.8,-56.91 40.3,-85.62 11.8,-28.9 22.5,-58.05 33.1,-87.45 11,-29.33 19.2,-58.86 28,-88.58 8.8,-29.58 16.7,-59.49 23.6,-89.33 l 21.4,-89.58 18.1,-89.96 c 22.7,-120.11 40.1,-240.72 53.4,-361.65 13.2,-121.12 25.9,-241.05 36.1,-363.55 l 7.8,-93.98 -92.5,-11.31 c -32.3,-3.89 -70.8,-13.19 -107.5,-24.37 -37.1,-11.06 -74.1,-24.12 -110.2,-38.7 -72.1,-29.33 -141.7,-64.95 -200,-107.67 -58.8,-41.71 -102,-95.43 -107.2,-135 -2.5,-19.73 0.3,-39.27 12.2,-63.2 10.4,-19.85 21.1,-29.34 40.4,-38.2 19.8,-8.1 49,-11.93 81.6,-10.24 32.9,1.89 68.3,8.23 104.1,17.85 35.8,9.55 72,22.05 107.7,36.56 l 26.6,11.24 28.5,12.82 c -5.6,-2.77 8.9,6.03 34.5,8.79 3,24.25 44.9,-13.19 78.2,-50.63 33.6,-37.88 58.6,-75.76 26,-49.63 -0.4,-10.43 -0.8,-10.36 -1,-13.44 l -1.5,-10.62 -2.7,-16.77 -5.2,-31.41 c -13.7,-82.11 -26.4,-163.46 -34.4,-242.99 -4,-40.02 -6.1,-77.34 -5,-114.84 0,-37.63 3.7,-74.13 9.9,-109.24 11.8,-70.68 39.6,-132.37 80.6,-180.74 41.7,-47.81 98.7,-82.86 166.2,-103.34 135.3,-41.77 297.7,-33.55 450.2,-2.95 19.1,4.02 38.2,8.23 56.8,13.06 9.1,2.33 18.8,4.9 26.7,7.42 l 20.4,7.16 c 25.9,10.93 46.3,25.63 63.1,45.8 34,39.89 52.5,107.61 58.4,181.42 6.5,74 2.4,153.97 -4.4,234.76 -7.2,81.17 -17.6,163.84 -26.7,248.83 -8.6,84.81 -17.4,173.33 -11.5,267.81 l 14.2,250.53 c 8.5,166.97 15.5,334.02 19.2,500.93 3.8,166.91 5.5,333.77 2.3,500.11 -2.8,166.35 -8.8,332.58 -22.6,497.23 -28.8,327.8 -72.7,660.43 -227.8,928.99 -21.6,31.85 -41.6,64.83 -63.9,95.99 -25.2,28.71 -48,59.68 -75.5,85.94 -28.6,25 -54.1,53.33 -85.7,74.38 l -44.8,34.42 c -16,9.87 -31.5,20.49 -47.3,30.79 l -23.4,15.83 -24.6,14.07 c -16.5,8.92 -32.3,19.6 -49,28.65 -16.8,8.66 -34,16.77 -50.7,26.19 -17,8.86 -34.6,16.27 -51.9,25.07 -69.4,33.17 -143.2,65.83 -218.9,99.32 l -3.6,1.57 c -17.1,7.53 -24.8,27.51 -17.3,44.6 4.1,9.17 11.8,15.64 20.6,18.53 47.1,15.27 91.7,19.41 138,20.29 46,0.57 91.8,-4.39 136.7,-13.88 90.2,-18.22 176.2,-55.78 255.1,-104.03 19.5,-12.69 39.2,-24.94 58.2,-38.13 l 53.6,-44.29 c 36.8,-28.4 66.5,-64.21 99.1,-96.68 16.8,-15.83 29.6,-35.06 44.2,-52.71 l 43.1,-53.59 c 26.1,-37.37 50.4,-75.88 75.4,-113.95 21.7,-39.71 41.7,-80.23 62.4,-120.43 18.9,-40.83 33.3,-83.24 50,-124.89 l 12.1,-31.34 9.7,-31.85 19.1,-63.83 c 10.5,-42.66 21.9,-85.25 30.6,-127.9 35.6,-170.62 55.9,-341.18 70.1,-511.43 14.2,-170.18 20.3,-340.04 23.3,-509.66 3.2,-169.61 1.4,-338.85 -2.4,-507.9 -3.8,-169.12 -10.8,-337.85 -19.4,-506.46 l -14.4,-252.73 c -4.7,-73.44 2.4,-152.97 10.9,-235.14 8.7,-82.04 19.4,-166.16 27,-252.35 7.1,-86.5 12.4,-175.02 4.4,-268.62 -4.1,-46.74 -11.5,-94.8 -26.6,-143.98 -15.2,-48.88 -38.6,-99.7 -75.7,-144.3 -36.6,-44.8 -86.6,-80.29 -138.4,-101.46 l -39,-13.76 c -12.1,-3.77 -22.8,-6.53 -33.9,-9.42 -22.2,-5.78 -44.1,-10.62 -66.2,-15.27 -87.9,-18.02 -177.3,-28.39 -268.7,-29.52 -91.4,-0.44 -185.4,7.85 -278.8,37.44 -93,28.08 -186.2,82.04 -254.8,161.58 -68.3,79.4 -108.9,177.96 -124.9,272.7 -8.4,47.56 -12.8,94.98 -13.1,141.34 -1.1,46.49 1.6,93.23 6,136.77 8.8,87.69 22.2,172.44 36.1,255.99 l 5.2,30.78 2.2,14.32 0.7,5.03 -0.3,-5.59 c -32.8,26.57 -7.4,-10.74 26.5,-48.06 33.2,-36.62 74.3,-73.18 76.6,-49.69 24.3,2.32 37.6,10.68 30.8,7.29 l -28.9,-13.01 -31.4,-13.25 c -42.3,-17.15 -85.5,-32.23 -130.9,-44.35 -45.4,-12.07 -92.9,-21.17 -144,-24.06 -51.1,-2.39 -107.4,1.19 -166,24.69 -29,12.12 -57.5,29.96 -81.9,52.58 -24.9,22.55 -43.3,50.38 -57.6,77.58 -26.3,50.76 -40.9,117.35 -30.6,180.92 10.1,63.58 40.5,116.47 73.7,158.12 33.6,42.09 71.5,74.45 110.1,103.09 77.5,56.48 159,97.12 242.3,131.23 41.8,16.9 84.1,31.86 127.5,44.86 43.8,12.75 87,24.31 138,31.97 l -84.8,-105.22 c -11.7,117.1 -26.4,236.33 -44.2,353.87 l -55.2,352.04 -28.8,174.83 -30.4,173.58 c -19.7,115.97 -38.1,229.92 -66.6,343.19 l -0.9,3.83 c -4.4,17.52 6.2,35.37 23.8,39.76 12.2,3.08 24.6,-1.19 32.5,-10.05" />
      </g>
      <g transform="scale(1.57279)" id="g322">
        <path id="path324" style="fill:#b9afbe;fill-opacity:1;fill-rule:nonzero;stroke:none"
          d="m 15822.5,3395.56 c -74.5,0 -146.9,8.58 -212.9,28.99 -68.3,20.73 -126,56.2 -168.1,104.59 -41.6,48.96 -69.7,111.39 -81.7,182.92 -6.2,35.54 -10,72.49 -10,110.57 -0.8,28.48 0.2,56.84 2.5,86.34 144.2,-181.2 396.5,-248.22 584.9,-248.22 104.5,0 189.4,20.6 225.5,53.73 63.9,58.68 100.3,147.95 122.5,242.24 1.3,-13.22 2.6,-26.45 3.7,-39.61 7,-81.76 11.1,-162.7 4.5,-237.6 -6,-74.71 -24.7,-143.25 -59.1,-183.62 -17,-20.41 -37.6,-35.29 -63.8,-46.36 l -20.7,-7.24 c -8,-2.55 -17.8,-5.15 -27.1,-7.51 -18.7,-4.89 -38,-9.15 -57.4,-13.22 -80,-16.09 -162.6,-26 -242.8,-26" />
      </g>
      <g transform="scale(1.5864)" id="g326">
        <path id="path328" style="fill:#371a45;fill-opacity:1;fill-rule:nonzero;stroke:none"
          d="m 15686,3268.91 c -269.6,0 -579,101.05 -565.6,561.02 2,64.68 8.3,135.66 16.3,200.33 19.7,-59 48.5,-110.38 83.9,-154.82 -2.3,-29.25 -3.2,-57.36 -2.5,-85.6 0.1,-37.76 3.8,-74.38 10,-109.62 11.9,-70.91 39.8,-132.81 80.9,-181.35 41.8,-47.97 99,-83.14 166.7,-103.7 65.5,-20.23 137.2,-28.74 211.1,-28.74 79.5,0 161.4,9.83 240.7,25.78 19.2,4.04 38.3,8.26 56.9,13.11 9.2,2.34 19,4.92 26.8,7.44 l 20.6,7.19 c 26,10.97 46.4,25.72 63.3,45.95 34.1,40.03 52.6,107.98 58.5,182.05 6.6,74.25 2.5,154.5 -4.4,235.56 -1.1,13.05 -2.4,26.16 -3.6,39.27 31.7,134.84 33.9,279.95 45.7,359.25 35.1,-308.75 108.7,-887.11 -154.9,-963.57 -62.7,-18.22 -200.5,-49.55 -350.4,-49.55" />
      </g>
      <g transform="scale(1.15611)" id="g330">
        <path id="path332" style="fill:#b9afbe;fill-opacity:1;fill-rule:nonzero;stroke:none"
          d="m 16269.6,9867.4 c 10.3,25.86 20.5,51.63 30.4,77.24 -6.7,-23.88 -13.7,-47.92 -20.8,-72.05 -3.2,-1.73 -6.4,-3.46 -9.6,-5.19" />
      </g>
      <g transform="scale(1.15768)" id="g334">
        <path id="path336" style="fill:#ffffff;fill-opacity:1;fill-rule:nonzero;stroke:none"
          d="m 15422.7,9050.77 c -73.1,-222.08 47.5,-461.36 269.6,-534.52 222,-73.17 461.4,47.51 534.5,269.59 73.2,222 -47.5,461.35 -269.6,534.52 -222,73.16 -461.3,-47.51 -534.5,-269.59" />
      </g>
      <g transform="scale(1.1167)" id="g338">
        <path id="path340" style="fill:#b9afbe;fill-opacity:1;fill-rule:nonzero;stroke:none"
          d="m 16216,9012.27 c -32.5,26.33 -59.3,59.55 -78.7,98.06 -36.2,71.64 -42.2,153.04 -17.1,229.25 v 0 c 5.4,16.66 12.3,32.5 20.3,47.64 37.2,-66.27 91.6,-123.13 159.5,-163.16 l -84,-211.79" />
      </g>
      <g transform="scale(1.16832)" id="g342">
        <path id="path344" style="fill:#371a45;fill-opacity:1;fill-rule:nonzero;stroke:none"
          d="m 15282.3,8968.36 h 0.4 -0.4 m 398.1,156.03 c -44.3,0 -88.3,-10.44 -129,-30.9 -68.5,-34.58 -119.5,-93.72 -143.5,-166.56 v 0 c -23.9,-72.84 -18.2,-150.65 16.4,-219.12 34.5,-68.48 93.6,-119.49 166.5,-143.45 150.4,-49.56 313.1,32.44 362.6,182.82 49.5,150.39 -32.5,313.1 -182.8,362.58 -29.6,9.75 -60,14.63 -90.2,14.63 m -0.2,-839.15 c -57.1,0 -115.1,8.98 -172.2,27.81 -140,46.05 -253.7,143.97 -320,275.53 -66.4,131.64 -77.5,281.17 -31.4,421.2 v 0 c 46.1,139.95 144,253.62 275.7,319.95 131.5,66.42 281.1,77.46 421.1,31.41 288.9,-95.18 446.6,-407.76 351.3,-696.73 -76.3,-231.87 -292.7,-379.17 -524.5,-379.17" />
      </g>
      <g transform="scale(1.3598)" id="g346">
        <path id="path348" style="fill:#ffffff;fill-opacity:1;fill-rule:nonzero;stroke:none"
          d="m 13549.7,6625.99 1770.9,-702.68 c 209.6,-83.25 449.3,20.15 532.6,230.03 l 373.9,942.42 c 72.9,183.78 2.6,390.28 -156.9,494.71 -22.5,14.93 -47,27.5 -73.1,37.95 l -1770.7,702.6 c -209.9,83.32 -449.6,-20.15 -532.7,-230.03 l -296.3,-746.36 -77.8,-195.99 c -83.4,-209.89 20.5,-449.4 230.1,-532.65" />
      </g>
      <g transform="scale(1.30436)" id="g350">
        <path id="path352" style="fill:#b9afbe;fill-opacity:1;fill-rule:nonzero;stroke:none"
          d="m 15658.8,6435.18 c -41.1,0 -82.1,7.82 -121.3,23.38 l -1440.3,571.62 c -126.2,85.33 -180.9,250.01 -122.4,397.28 l 65.2,164.45 c 143.1,-132.79 370.4,-274.46 727.5,-409.55 243,-91.84 449.1,-142.6 628.1,-155.63 13.9,-15.26 31.5,-27.52 52,-35.57 l 144,-56.2 c 32.9,-12.8 66.9,-18.86 101.2,-18.86 145.5,0 294,109.63 360.9,280.98 3.5,9.05 6.7,18.1 9.6,27.22 84.5,69.08 162.2,155.09 236.7,256.83 l -331.9,-836.5 c -32.5,-81.96 -95.4,-146.51 -177.1,-181.85 -42.5,-18.33 -87.4,-27.6 -132.2,-27.6" />
      </g>
      <g transform="scale(1.36496)" id="g354">
        <path id="path356" style="fill:#371a45;fill-opacity:1;fill-rule:nonzero;stroke:none"
          d="m 15296.3,5985.98 c 78.3,-31.07 164.5,-29.6 242.5,4.1 78.1,33.7 138.2,95.38 169.2,173.7 l 372.7,938.94 c 31,78.38 29.6,164.47 -4.2,242.57 -33.7,78.02 -95.3,138.17 -173.7,169.23 l -1764,700.02 c -162.6,64.4 -347.3,-15.31 -411.8,-177.8 l -372.6,-939.01 c -64.5,-162.56 15.3,-347.26 177.8,-411.73 l 1764.1,-700.02 m 116.1,-205.58 c -62.1,0 -124.2,11.8 -183.6,35.32 l -1764.1,700.02 c -256.4,101.76 -382.3,393.12 -280.5,649.54 l 372.6,939 c 101.7,256.35 393.1,382.22 649.5,280.45 l 1764.1,-700.02 c 123.8,-49.08 221.2,-143.89 274.4,-266.82 53.1,-123.01 55.2,-258.91 6.1,-382.72 l -372.6,-938.93 c -49.1,-123.82 -143.9,-221.26 -266.8,-274.3 -64.1,-27.69 -131.6,-41.54 -199.1,-41.54" />
      </g>
      <g transform="scale(1.36067)" id="g358">
        <path id="path360" style="fill:#ffffff;fill-opacity:1;fill-rule:nonzero;stroke:none"
          d="m 13472.7,6656.87 c 21,-13.89 43.7,-25.57 68.3,-35.13 l 1769.8,-702.22 c 153.5,-60.86 323.1,-21.83 435.6,86.35 40.9,39.25 74.4,87.61 96.4,143.61 l 166.2,418.39 54.8,138.02 152.9,385.33 c 83.3,209.75 -20.5,449.12 -229.9,532.31 l -382.4,151.62 c 163.1,-103.11 235.6,-311.76 162.1,-497.33 l -201.7,-508.79 -172,-433.25 c -83.2,-209.45 -322.9,-313.08 -532.3,-229.96 l -1387.8,551.05" />
      </g>
      <g transform="scale(1.31916)" id="g362">
        <path id="path364" style="fill:#b9afbe;fill-opacity:1;fill-rule:nonzero;stroke:none"
          d="m 15947.5,6170.67 c -40.6,0 -81.3,7.66 -120,23.12 l -101.4,40.26 c 109.3,57.53 193.4,150.85 239.1,266.23 l 144.7,364.7 c 23.2,-34.57 50.8,-61.25 83.6,-76.19 -2.4,-106.73 25.9,-203.84 39.4,-243.79 4.1,-12.28 6.8,-19.1 6.8,-19.1 v 0 c 0.1,-0.08 0.1,-0.15 0.1,-0.15 20.2,-10.39 40.3,-20.47 60.2,-30.25 l -46.7,-117.65 v -0.08 c -32.1,-81.03 -94.2,-144.86 -175,-179.81 -42.1,-18.19 -86.5,-27.29 -130.8,-27.29" />
      </g>
      <g transform="scale(1.36937)" id="g366">
        <path id="path368" style="fill:#371a45;fill-opacity:1;fill-rule:nonzero;stroke:none"
          d="m 15149.5,6005.47 97.7,-38.78 c 78,-31.03 163.8,-29.57 241.5,4.02 77.9,33.66 137.8,95.15 168.7,173.22 v 0.07 l 371.4,935.91 c 31,78.06 29.6,163.87 -4,241.71 -33.6,77.78 -95.2,137.73 -173.3,168.77 l -86.3,34.25 c 31.3,-104.5 28.6,-219.37 -14.1,-326.8 l -371.3,-935.9 c -44,-111.15 -125,-201.04 -230.3,-256.47 m 213.4,-243.69 c -62,0 -124,11.68 -183.1,35.2 l -1758.5,697.84 c -29.1,11.39 -57.5,25.92 -84,43.16 l 83.3,161.39 1379.3,-547.41 c 77.9,-30.96 163.6,-29.57 241.5,4.02 77.8,33.66 137.7,95.15 168.7,173.22 l 371.4,935.98 c 55.9,140.94 3.3,302.25 -125,383.6 l 82.6,161.98 379.8,-150.66 c 255.7,-101.65 381.1,-392.15 279.6,-647.6 l -371.4,-935.83 c -48.9,-123.41 -143.4,-220.61 -266,-273.56 -63.7,-27.53 -131.1,-41.33 -198.2,-41.33" />
      </g>
      <g transform="scale(1.28912)" id="g370">
        <path id="path372" style="fill:#22a7f0;fill-opacity:1;fill-rule:nonzero;stroke:none"
          d="m 15704.6,7468.8 c -14.4,-36.84 -78.6,-354.5 -78.6,-354.5 0,0 94.1,-36.77 209.9,-81.92 144.5,-56.39 320,47.55 392.1,232.17 72,184.63 13.3,379.95 -131.3,436.35 -97.5,38.08 -209.9,81.91 -209.9,81.91 0,0 -158.8,-254.05 -182.2,-314.01" />
      </g>
      <g transform="scale(1.28084)" id="g374">
        <path id="path376" style="fill:#2976b4;fill-opacity:1;fill-rule:nonzero;stroke:none"
          d="m 15982.8,7159.83 c -21.2,0 -42.2,3.75 -62.3,11.63 l -67.4,26.31 c 95.4,31.94 183.5,117.19 229.5,235.24 4.3,10.85 8.1,21.78 11.4,32.72 0.1,0.39 0.3,0.78 0.4,1.16 0,0 0,0 0,0.08 32.5,107.12 22.6,214.86 -21.4,294.58 l 67.5,-26.31 c 115.2,-44.98 159.5,-207.99 98.8,-363.44 -50,-128.27 -156.2,-211.97 -256.5,-211.97" />
      </g>
      <g transform="scale(1.29126)" id="g378">
        <path id="path380" style="fill:#371a45;fill-opacity:1;fill-rule:nonzero;stroke:none"
          d="m 15639.9,7495.18 h 0.4 -0.4 m 54.1,-21.07 c -1.8,-4.96 -13.2,-41.51 -62,-277.33 -2.3,-11.15 3.8,-22.22 14.5,-26.41 l 145.5,-56.76 c 114.4,-44.61 256.2,44.53 316.3,198.72 60.2,154.19 16.2,315.89 -98,360.5 l -146.4,57.08 c -10.4,4.18 -22.5,0.07 -28.4,-9.53 -78,-127.16 -130.9,-219.17 -141.5,-246.27 m 158.1,-487.82 c -34.7,0 -69,6.12 -102.3,19.05 l -145.5,56.77 c -63.6,24.86 -99.8,91.38 -86,158.22 54.1,261.68 63.8,286.54 67.5,295.91 13.6,35.08 64.4,124.14 150.6,264.86 35.4,57.62 106.8,81.54 169.7,57 l 146.4,-57.08 c 173.9,-67.84 247.5,-297.07 164.1,-510.9 -67.5,-173.08 -217.5,-283.83 -364.5,-283.83" />
      </g>
      <g transform="scale(1.26945)" id="g382">
        <path id="path384" style="fill:#22a7f0;fill-opacity:1;fill-rule:nonzero;stroke:none"
          d="m 15695.3,7707.02 c -73.2,-187.49 -13.4,-385.84 133.4,-443.11 146.8,-57.27 325,48.29 398.2,235.77 73.1,187.48 13.5,385.84 -133.4,443.1 -146.7,57.28 -325.1,-48.28 -398.2,-235.76" />
      </g>
      <g transform="scale(1.26466)" id="g386">
        <path id="path388" style="fill:#2e568d;fill-opacity:1;fill-rule:nonzero;stroke:none"
          d="m 16056,7289.89 v 0 c 96.6,32.34 185.8,118.68 232.5,238.24 4.2,10.99 8.1,22.07 11.5,33.14 -3.4,-11.07 -7.3,-22.15 -11.5,-33.14 -46.7,-119.56 -135.9,-205.9 -232.5,-238.24" />
      </g>
      <g transform="scale(1.24572)" id="g390">
        <path id="path392" style="fill:#371a45;fill-opacity:1;fill-rule:nonzero;stroke:none"
          d="m 16215.3,7386.39 v 0 c 28.3,0 56.8,4.89 84.7,14.29 v 0 c -27.9,-9.4 -56.4,-14.29 -84.7,-14.29 m -85.1,15.89 v 0 c -0.3,0.08 -0.5,0.16 -0.8,0.32 0.3,-0.16 0.5,-0.24 0.8,-0.32 v 0 m -1.1,0.4 c -0.2,0.08 -0.3,0.16 -0.5,0.24 0.2,-0.08 0.3,-0.16 0.5,-0.24 m -0.9,0.33 c -0.1,0.07 -0.2,0.16 -0.4,0.16 0.2,0 0.3,-0.09 0.4,-0.16 m -0.8,0.32 c -0.1,0.08 -0.2,0.16 -0.3,0.16 0.1,0 0.2,-0.08 0.3,-0.16 m -2.1,0.88 c -0.1,0 -0.1,0.08 -0.1,0.08 0,0 0,-0.08 0.1,-0.08 m -0.7,0.32 c -0.1,0 -0.2,0.08 -0.2,0.08 0,0 0.1,-0.08 0.2,-0.08 m -0.8,0.32 c 0,0 -0.1,0.08 -0.2,0.08 0.1,0 0.2,-0.08 0.2,-0.08" />
      </g>
      <g transform="scale(1.26663)" id="g394">
        <path id="path396" style="fill:#2976b4;fill-opacity:1;fill-rule:nonzero;stroke:none"
          d="m 15947.7,7264.5 c -28.4,0 -56.6,5.05 -83.7,15.63 v 0 c -0.3,0.08 -0.5,0.16 -0.8,0.32 -0.1,0 -0.2,0.07 -0.3,0.07 -0.1,0.08 -0.3,0.16 -0.4,0.24 -0.2,0 -0.3,0.08 -0.4,0.08 -0.2,0.08 -0.3,0.16 -0.4,0.16 -0.2,0.08 -0.3,0.16 -0.4,0.16 -0.1,0.08 -0.3,0.15 -0.3,0.15 -0.7,0.24 -1.2,0.48 -1.8,0.72 -0.1,0 -0.1,0.08 -0.1,0.08 -0.3,0.07 -0.4,0.15 -0.6,0.23 -0.1,0 -0.1,0.08 -0.2,0.08 -0.2,0.08 -0.4,0.16 -0.6,0.23 0,0 -0.1,0.09 -0.1,0.09 -91.4,38.84 -147.5,133.42 -156.9,245.21 4.4,-51.55 18.8,-99.39 42,-139.89 -7.7,54.15 -4.3,113.13 12,172.18 20.4,-18.31 43.7,-33.07 69.8,-43.26 27.1,-10.58 55.3,-15.63 83.8,-15.63 125.6,0 255.5,98.61 315.4,251.93 5.9,15.15 10.9,30.39 15,45.55 20.2,-18.24 37.5,-40.1 51.6,-64.66 v 0 0 c -2.4,16.74 -5.9,33 -10.4,48.71 20.1,-69.55 19.7,-150.95 -4.8,-232.11 -0.1,-0.08 -0.1,-0.08 -0.1,-0.08 -0.1,-0.39 -0.3,-0.79 -0.3,-1.18 -3.4,-11.05 -7.3,-22.11 -11.6,-33.08 -46.5,-119.37 -135.6,-205.59 -232.1,-237.88 -27.5,-9.24 -55.5,-14.05 -83.3,-14.05" />
      </g>
      <g transform="scale(1.24914)" id="g398">
        <path id="path400" style="fill:#ffffff;fill-opacity:1;fill-rule:nonzero;stroke:none"
          d="m 15942.7,7810.73 c 0,0 0,0 0,0.08 0,-0.08 0,-0.08 0,-0.08 m 0.4,1.2 c 2.3,6.8 4.8,13.69 7.5,20.41 60.6,155.47 192.3,255.46 319.8,255.46 7.8,0 15.7,-0.4 23.5,-1.12 -7.8,0.72 -15.7,1.12 -23.5,1.12 -127.5,0 -259.2,-99.99 -319.8,-255.46 -2.7,-6.72 -5.2,-13.61 -7.5,-20.41 m 356.9,274.03 c -0.6,0.08 -1,0.16 -1.5,0.24 0.5,-0.08 0.9,-0.16 1.5,-0.24" />
      </g>
      <g transform="scale(1.25441)" id="g402">
        <path id="path404" style="fill:#afa3b5;fill-opacity:1;fill-rule:nonzero;stroke:none"
          d="m 16300,8032.3 c 0,0 0,0 -0.1,0 0.1,0 0.1,0 0.1,0 m -0.9,0.47 c -0.1,0 -0.1,0 -0.2,0.08 0.1,-0.08 0.1,-0.08 0.2,-0.08 m -0.9,0.4 c -0.1,0 -0.3,0.08 -0.3,0.16 0,-0.08 0.2,-0.16 0.3,-0.16 m -1,0.4 c -0.1,0.08 -0.2,0.16 -0.3,0.16 0.1,-0.08 0.2,-0.08 0.3,-0.16 m -1.2,0.56 c -0.1,0.08 -0.4,0.16 -0.5,0.24 0.2,-0.08 0.4,-0.16 0.5,-0.24 m -0.9,0.4 c -0.2,0.08 -0.4,0.16 -0.6,0.24 0.2,-0.08 0.4,-0.16 0.6,-0.24 m -0.9,0.4 c -0.3,0.08 -0.4,0.16 -0.7,0.23 0.3,-0.07 0.4,-0.15 0.7,-0.23 m -1,0.4 c -0.1,0.07 -0.4,0.16 -0.5,0.24 0.1,-0.08 0.4,-0.17 0.5,-0.24 m -0.9,0.39 c -0.4,0.16 -0.8,0.4 -1.3,0.56 0.5,-0.16 0.9,-0.4 1.3,-0.56 m -1.5,0.64 c -0.1,0.08 -0.4,0.16 -0.5,0.24 0.1,-0.08 0.4,-0.16 0.5,-0.24 m -0.8,0.32 c -0.3,0.08 -0.4,0.16 -0.7,0.24 0.3,-0.08 0.4,-0.16 0.7,-0.24 m -1.1,0.4 c -0.1,0.08 -0.3,0.16 -0.5,0.24 0.2,-0.08 0.4,-0.16 0.5,-0.24 m -0.9,0.48 c -0.2,0 -0.4,0.08 -0.5,0.16 0.1,-0.08 0.3,-0.16 0.5,-0.16" />
      </g>
      <g transform="scale(1.26507)" id="g406">
        <path id="path408" style="fill:#a7dcf9;fill-opacity:1;fill-rule:nonzero;stroke:none"
          d="m 15720,7537.23 c -4.8,55.65 2,115.64 22,175.16 0,0 0,0 0,0.08 0.2,0.32 0.2,0.71 0.4,1.11 2.3,6.72 4.7,13.52 7.4,20.16 59.8,153.51 189.9,252.24 315.7,252.24 7.8,0 15.5,-0.4 23.3,-1.11 1.5,-0.16 3,-0.32 4.5,-0.47 0.5,-0.08 0.9,-0.16 1.5,-0.24 18.4,-2.29 36.7,-6.88 54.5,-13.83 0.4,-0.08 0.7,-0.24 1,-0.32 0.1,-0.08 0.3,-0.16 0.5,-0.16 0.1,-0.08 0.3,-0.16 0.4,-0.23 0.2,-0.09 0.3,-0.17 0.5,-0.24 0.2,0 0.3,-0.08 0.4,-0.16 0.2,-0.08 0.4,-0.16 0.6,-0.24 0.1,0 0.3,-0.08 0.3,-0.08 0.2,-0.08 0.4,-0.16 0.6,-0.23 0.1,-0.08 0.1,-0.08 0.2,-0.08 0.4,-0.16 0.8,-0.4 1.3,-0.56 0.1,-0.08 0.2,-0.08 0.3,-0.15 0.2,-0.08 0.4,-0.16 0.6,-0.24 0.1,-0.08 0.2,-0.08 0.3,-0.16 0.2,-0.08 0.4,-0.16 0.6,-0.24 0.1,-0.08 0.3,-0.08 0.3,-0.16 0.3,-0.07 0.4,-0.15 0.6,-0.23 0.2,-0.08 0.3,-0.08 0.4,-0.16 0.1,-0.08 0.4,-0.16 0.5,-0.24 0.3,-0.15 0.6,-0.23 0.9,-0.39 0.1,0 0.2,-0.08 0.3,-0.16 0.3,-0.08 0.4,-0.16 0.7,-0.24 0,-0.08 0.2,-0.16 0.3,-0.16 0.2,-0.08 0.4,-0.23 0.7,-0.31 0.1,-0.08 0.1,-0.08 0.2,-0.08 0.3,-0.16 0.6,-0.32 0.8,-0.48 0.1,0 0.1,0 0.1,0 67.8,-31.61 115.2,-94.61 137.3,-172.16 -7.3,25.37 -17.2,49.17 -29.8,70.83 -2.7,-18.18 -6.5,-36.53 -11.5,-54.86 -20.3,18.41 -43.7,33.12 -69.8,43.31 -27.2,10.6 -55.4,15.66 -83.8,15.66 -125.9,0 -256,-98.73 -315.8,-252.24 -6,-15.1 -11,-30.36 -15.2,-45.61 -19.9,18.02 -37,39.6 -50.9,63.71 -4.8,-32.81 -5.8,-65.14 -3.2,-96.04" />
      </g>
      <g transform="scale(1.26587)" id="g410">
        <path id="path412" style="fill:#a9c8e1;fill-opacity:1;fill-rule:nonzero;stroke:none"
          d="m 15752.1,7392.46 c -23.3,40.52 -37.6,88.4 -42.1,139.98 -2.6,30.89 -1.6,63.2 3.2,95.98 13.9,-24.09 31,-45.66 50.9,-63.67 -16.3,-59.09 -19.7,-118.1 -12,-172.29 m 547.9,346.32 c -14.1,24.57 -31.4,46.45 -51.6,64.7 5,18.32 8.8,36.65 11.5,54.82 12.5,-21.64 22.5,-45.42 29.7,-70.78 4.6,-15.72 8,-31.99 10.4,-48.74" />
      </g>
      <g transform="scale(1.27466)" id="g414">
        <path id="path416" style="fill:#371a45;fill-opacity:1;fill-rule:nonzero;stroke:none"
          d="m 15686.1,7654.22 c -60.9,-156.2 -16.4,-320.01 99.3,-365.2 115.7,-45.18 259.5,45.19 320.4,201.39 61,156.2 16.4,320.01 -99.3,365.2 -115.7,45.11 -259.5,-45.19 -320.4,-201.39 z m 160.1,-494.17 c -35,0 -69.9,6.28 -103.5,19.38 -176.2,68.72 -250.8,300.94 -166.3,517.55 84.6,216.68 296.7,336.95 472.9,268.23 176.2,-68.73 250.7,-300.95 166.2,-517.55 -68.4,-175.35 -220.4,-287.61 -369.3,-287.61" />
      </g>
      <g transform="scale(1.21455)" id="g418">
        <path id="path420" style="fill:#371a45;fill-opacity:1;fill-rule:nonzero;stroke:none"
          d="m 15789.4,7078.49 c -11.9,0 -23.9,2.06 -35.7,6.43 -53.3,19.67 -80.6,78.87 -60.8,132.14 l 250.6,678.03 c 2.1,5.52 1.1,11.61 -2.3,16.39 l -177.5,242.56 c -45.5,62.07 -55.8,141.94 -27.6,213.57 l 351.6,895.06 c 20.7,52.95 80.5,78.97 133.3,58.22 53,-20.75 79,-80.53 58.3,-133.47 l -351.6,-895.06 c -2.2,-5.68 -1.4,-11.86 2.1,-16.8 l 177.5,-242.47 c 44.3,-60.6 55.3,-138.9 29.3,-209.3 l -250.7,-678.03 c -15.4,-41.58 -54.7,-67.27 -96.5,-67.27" />
      </g>
      <g transform="scale(1.4747)" id="g422">
        <path id="path424" style="fill:#ffffff;fill-opacity:1;fill-rule:nonzero;stroke:none"
          d="m 16186.3,6182.01 c 0,0 113.7,-161.73 68.2,-353.5 -52.6,-221.74 -207.8,-276.74 -207.8,-276.74 0,0 -656.9,-158.74 -1519.7,285.69 0,0 -172.3,429.78 184.4,553.88 0,0 931.4,-392.96 1474.9,-209.33" />
      </g>
      <g transform="scale(1.31428)" id="g426">
        <path id="path428" style="fill:#8c7b94;fill-opacity:1;fill-rule:nonzero;stroke:none"
          d="m 16300,6550.12 v 0 c 0,0 -2.7,6.84 -6.8,19.17 3.8,-11.49 6.5,-18.26 6.8,-19.17" />
      </g>
      <g transform="scale(1.47305)" id="g430">
        <path id="path432" style="fill:#b9afbe;fill-opacity:1;fill-rule:nonzero;stroke:none"
          d="m 15754.7,5530.5 c -274,0 -707.6,54.04 -1211.5,313.64 -0.3,0.81 -2.7,6.85 -6.1,17.1 -14.2,41.96 -46.5,154.58 -31.5,268.63 2.5,-8.01 4.4,-12.29 4.4,-12.29 503.6,-259.59 937.3,-313.7 1211.2,-313.7 69.4,0 128.6,3.53 176,8.01 163.1,15.41 300.8,130.95 340.6,289.81 0.6,2.24 1.1,4.41 1.6,6.65 0.9,3.67 1.9,7.33 2.1,11.06 28.4,-65.23 58.5,-169.44 31.1,-284.51 -52.6,-221.71 -207.9,-276.77 -207.9,-276.77 0,0 -114.2,-27.63 -310,-27.63" />
      </g>
      <g transform="scale(1.48485)" id="g434">
        <path id="path436" style="fill:#371a45;fill-opacity:1;fill-rule:nonzero;stroke:none"
          d="m 14513,5871.09 c 743.8,-370.07 1322.9,-271.41 1392.8,-257.54 18.4,9.09 102.7,57.45 136.3,199.15 18.8,79.2 0.1,153.82 -19.8,203.99 -509.8,-116.64 -1231.4,147.49 -1411.4,218.54 -46.6,-22.56 -78.7,-54.41 -97.9,-96.51 -41.6,-91.32 -16.7,-209.85 0,-267.63 z m 1114.9,-489.34 c -285.1,0 -730.4,56.7 -1248,323.26 l -34.5,17.78 -14.4,36.03 c -10.5,26.26 -100.2,262.59 -7.5,466.18 47.1,103.3 134.6,179.74 253,220.96 l 37.8,13.13 36.9,-15.49 c 8.9,-3.77 895.3,-372.83 1391.1,-205.27 l 73.8,24.92 44.8,-63.65 c 5.6,-8.14 139.1,-201.56 83.7,-434.99 -51.5,-217.39 -195.8,-321.65 -272.9,-348.99 l -10.3,-3.03 c -11.6,-2.83 -133,-30.84 -333.5,-30.84" />
      </g>
      <g transform="scale(1.25345)" id="g438">
        <path id="path440" style="fill:#371a45;fill-opacity:1;fill-rule:nonzero;stroke:none"
          d="m 15405.5,4267.43 c -572.8,0 -992.9,324.15 -999,329.01 -34.6,27.29 -40.5,77.39 -13.2,112.01 27.2,34.63 77.4,40.53 112.1,13.17 33.6,-26.41 804,-615.5 1660.3,-61.51 37,24.01 86.4,13.4 110.4,-23.62 23.9,-37.02 13.3,-86.4 -23.6,-110.33 -297.4,-192.35 -587.9,-258.73 -847,-258.73" />
      </g>
      <g transform="scale(1.41696)" id="g442">
        <path id="path444" style="fill:#371a45;fill-opacity:1;fill-rule:nonzero;stroke:none"
          d="m 15464.8,3793.04 c -525.5,0 -934.8,265.57 -940.8,269.52 -32.4,21.53 -41.3,65.35 -19.7,97.82 21.5,32.46 65.2,41.35 97.7,19.83 8.1,-5.3 817,-527.61 1579.2,-34.58 32.8,21.24 76.5,11.85 97.6,-20.89 21.2,-32.75 11.8,-76.44 -20.9,-97.61 -270,-174.67 -544.6,-234.09 -793.1,-234.09" />
      </g>
      <g transform="scale(1.58775)" id="g446">
        <path id="path448" style="fill:#371a45;fill-opacity:1;fill-rule:nonzero;stroke:none"
          d="m 15177.4,5116.6 c -25.9,0 -50.2,16.12 -59.3,41.94 -11.6,32.75 5.5,68.78 38.3,80.37 30.6,10.89 754.1,262.95 1110.7,-9.26 27.6,-21.16 32.9,-60.65 11.8,-88.3 -21.1,-27.65 -60.6,-32.94 -88.2,-11.84 -302.6,230.89 -985.4,-6.87 -992.3,-9.32 -6.9,-2.46 -14,-3.59 -21,-3.59" />
      </g>
      <g transform="scale(1.21356)" id="g450">
        <path id="path452" style="fill:#371a45;fill-opacity:1;fill-rule:nonzero;stroke:none"
          d="m 14914.7,12212 c -29.2,0 -58.8,0.7 -89.2,2 -45.4,2.1 -80.6,40.6 -78.5,86.1 1.9,45.4 40.3,80.6 86,78.6 1106,-50 1289.7,918.4 1296.9,959.7 7.9,44.7 50.6,74.7 95.3,66.9 44.8,-7.7 74.8,-50.3 67.1,-95.1 -1.9,-11.2 -203.3,-1098.2 -1377.6,-1098.2" />
      </g>
      <g transform="scale(1.46791)" id="g454">
        <path id="path456" style="fill:#b9afbe;fill-opacity:1;fill-rule:nonzero;stroke:none"
          d="m 16239.8,7282.81 c -416.3,29.3 -885.8,141.7 -1374.7,405.28 -693.2,374.34 -1111.1,883.02 -1362.3,1339.52 76.2,82.7 150.6,159.21 213.9,226.51 l 86.7,-73.44 141,-32.69 19.5,-4.57 c 270.5,-406.84 636.3,-759.04 1087.3,-1019.41 390.4,-225.49 814.2,-365.76 1248.8,-417.8 l -60.2,-423.4" />
      </g>
      <g transform="scale(1.55745)" id="g458">
        <path id="path460" style="fill:#b9afbe;fill-opacity:1;fill-rule:nonzero;stroke:none"
          d="m 15525.9,6856.54 c -28,0 -56.4,0.38 -85.1,1.15 -44.2,1.23 -89,3.21 -134.7,6.42 v 0 l 56.8,399.05 c 120.3,-14.38 241.5,-21.63 363.1,-21.63 143.6,0 287.6,10.08 431.3,30.37 11.1,-17.08 22.2,-34.29 33.6,-51.24 44.7,-77.31 80.3,-159.75 109.1,-245.85 -163.1,-55.86 -333.4,-92.27 -507.5,-106.91 -85.1,-7.12 -174.1,-11.36 -266.6,-11.36" />
      </g>
      <g transform="scale(1.56647)" id="g462">
        <path id="path464" style="fill:#371a45;fill-opacity:1;fill-rule:nonzero;stroke:none"
          d="m 16206.2,6934.65 c -28.7,85.61 -64.1,167.58 -108.5,244.44 -11.4,16.85 -22.3,33.96 -33.5,50.94 36.1,5.11 72.1,10.85 108.1,17.24 48.5,-79.48 92,-171.54 127.7,-278.08 -31,-12.19 -62.3,-23.75 -93.8,-34.54" />
      </g>
      <g transform="scale(1.83443)" id="g466">
        <path id="path468" style="fill:#ffffff;fill-opacity:1;fill-rule:nonzero;stroke:none"
          d="m 15220.3,6978.96 c -25.8,12.48 -36.5,43.49 -24,69.17 l 652.4,1341.23 c 12.5,25.73 43.4,36.48 69.2,23.94 269.7,-131.21 382.1,-456.28 250.9,-726.11 l -222.5,-457.37 c -131.2,-269.78 -456.3,-382.08 -726,-250.86" />
      </g>
      <g transform="scale(1.83286)" id="g470">
        <path id="path472" style="fill:#371a45;fill-opacity:1;fill-rule:nonzero;stroke:none"
          d="m 15238.5,6995.74 c 127.8,-62.09 272,-70.77 406.2,-24.39 134.3,46.37 242.3,142.24 304.5,269.96 l 222.6,457.75 c 128.2,263.64 18,582.43 -245.5,710.59 -9.6,4.69 -20.4,5.35 -30.4,1.85 -10.1,-3.49 -18.2,-10.63 -22.8,-20.18 l -652.9,-1342.39 c -4.7,-9.6 -5.3,-20.35 -1.8,-30.39 3.4,-10.04 10.6,-18.16 20.1,-22.8 v 0 m 232.1,-77.91 c -83.1,0 -165.7,18.87 -242.6,56.25 v 0 c -15.3,7.47 -26.8,20.46 -32.4,36.61 -5.6,16.09 -4.5,33.44 2.9,48.77 l 652.9,1342.39 c 7.5,15.33 20.5,26.84 36.6,32.41 16.1,5.62 33.5,4.52 48.8,-2.95 133.4,-64.93 233.7,-177.92 282.2,-318.19 48.4,-140.33 39.4,-291.13 -25.6,-424.59 l -222.6,-457.75 c -64.9,-133.51 -177.9,-233.73 -318.2,-282.18 -59.5,-20.57 -120.9,-30.77 -182,-30.77" />
      </g>
      <g transform="scale(1.79064)" id="g474">
        <path id="path476" style="fill:#b9afbe;fill-opacity:1;fill-rule:nonzero;stroke:none"
          d="m 15835.5,7177.05 c -48.9,0 -97.6,7.71 -144.7,23.01 78.6,88.74 151.8,183.12 218.8,282.75 46.7,-12.35 94.1,-18.26 141,-18.32 86.9,0 172.4,20.5 249.4,58.97 l -39,-80.19 c -55.3,-113.54 -151.4,-198.76 -270.7,-240.03 -50.6,-17.48 -102.8,-26.19 -154.8,-26.19" />
      </g>
      <g transform="scale(1.8449)" id="g478">
        <path id="path480" style="fill:#371a45;fill-opacity:1;fill-rule:nonzero;stroke:none"
          d="m 15169.4,7012.46 0.1,-0.05 -0.1,0.05 v 0 m 27.2,-12.2 c 103.3,-42.38 217,-45.63 323.4,-8.88 115.8,40.05 209.1,122.77 262.7,232.96 l 221.2,454.77 c 106.3,218.55 22.8,480.94 -185.6,599.38 l -621.7,-1278.23 m 173,-196.97 c -92.9,0 -185.3,21.08 -271.3,62.93 v 0 c -31.9,15.5 -55.9,42.5 -67.4,76.05 -11.6,33.5 -9.4,69.54 6.1,101.41 l 648.6,1333.62 c 15.5,31.93 42.5,55.89 76.1,67.43 33.4,11.66 69.5,9.43 101.4,-6.07 308.1,-149.87 436.9,-522.52 287,-830.67 l -221.2,-454.76 c -72.6,-149.28 -199,-261.32 -355.8,-315.52 -66.5,-22.98 -135.2,-34.42 -203.5,-34.42" />
      </g>
      <g transform="scale(1.29729)" id="g482">
        <path id="path484" style="fill:#ffffff;fill-opacity:1;fill-rule:nonzero;stroke:none"
          d="m 16248.5,14941.6 c 36.4,-17.7 51.5,-61.5 33.8,-97.9 l -922.4,-1896.5 c -17.7,-36.4 -61.5,-51.5 -97.9,-33.9 -381.5,185.6 -540.3,645.3 -354.8,1026.8 l 314.6,646.7 c 185.5,381.5 645.2,540.4 1026.7,354.8" />
      </g>
      <g transform="scale(1.29883)" id="g486">
        <path id="path488" style="fill:#371a45;fill-opacity:1;fill-rule:nonzero;stroke:none"
          d="m 15894.9,14984.1 c -278.4,0 -546.2,-155.4 -675.9,-422 l -314.2,-646 c -87.6,-180.2 -99.8,-383.7 -34.4,-573.2 65.4,-189.4 200.7,-342 381,-429.6 13.4,-6.5 28.6,-7.4 42.8,-2.6 14.2,4.9 25.6,15 32.2,28.6 l 921.3,1894.2 c 13.6,27.9 1.9,61.5 -25.9,75.1 -105.4,51.3 -217,75.5 -326.9,75.5 m -619.1,-2110.5 c -13.4,0 -26.8,3.1 -39.3,9.2 -188.4,91.6 -329.8,251 -398.2,449.1 -68.5,197.9 -55.7,410.7 36,599.1 l 314.2,645.9 c 91.6,188.4 251,329.8 449.1,398.2 197.9,68.5 410.7,55.7 599,-35.9 h 0.1 c 44.7,-21.8 63.3,-75.8 41.6,-120.5 l -921.4,-1894.4 c -10.5,-21.6 -28.8,-37.8 -51.6,-45.7 -9.6,-3.3 -19.5,-5 -29.5,-5" />
      </g>
      <g transform="scale(1.22264)" id="g490">
        <path id="path492" style="fill:#b9afbe;fill-opacity:1;fill-rule:nonzero;stroke:none"
          d="m 16164.8,13859.5 c -125,83.4 -219,204.7 -268.8,349.1 -60.5,174.8 -49.2,362.7 31.7,529 l 56.3,115.6 c 47.2,-181.4 156.5,-345.9 316,-459.2 -58.1,-176.3 -103.1,-354.8 -135.2,-534.5" />
      </g>
      <g transform="scale(1.30778)" id="g494">
        <path id="path496" style="fill:#371a45;fill-opacity:1;fill-rule:nonzero;stroke:none"
          d="m 15785.9,14783.8 c -240.1,0 -471.2,-134.2 -583.1,-364.2 l -312.1,-641.5 c -75.6,-155.5 -86.1,-331.1 -29.6,-494.5 51.8,-150.1 154.5,-273.4 291.4,-351.1 l 877.1,1803.2 c -79.4,32.5 -162.1,48.1 -243.7,48.1 m -614.7,-2096.2 c -28,0 -55.9,6.4 -81.8,19 -210.6,102.4 -368.6,280.7 -445.1,502.1 -76.5,221.2 -62.3,459.1 40.2,669.7 l 312.1,641.6 c 211.4,434.7 737,616.3 1171.7,404.9 v 0 c 92.9,-45.2 131.7,-157.5 86.6,-250.4 l -915.1,-1881.4 c -21.9,-45 -60,-78.7 -107.3,-95.1 -20,-6.9 -40.7,-10.4 -61.3,-10.4" />
      </g>
      <g transform="scale(1.82978)" id="g498">
        <path id="path500" style="fill:#ffffff;fill-opacity:1;fill-rule:nonzero;stroke:none"
          d="m 15596.3,7520.69 c -703.7,-1218.62 -2262.1,-1636.1 -3480.8,-932.35 -1218.6,703.69 -1636,2262.07 -932.3,3480.76 703.7,1218.7 2262.1,1636.1 3480.7,932.3 1218.7,-703.7 1636.1,-2262.04 932.4,-3480.71" />
      </g>
      <g transform="scale(1.80055)" id="g502">
        <path id="path504" style="fill:#371a45;fill-opacity:1;fill-rule:nonzero;stroke:none"
          d="m 13611.3,11516 c -223.8,0 -449,-29.5 -671,-88.9 -665,-178.1 -1220.7,-604.5 -1565,-1200.6 -710.6,-1230.67 -287.6,-2809.97 943.1,-3520.59 596.1,-344.23 1290.6,-435.7 1955.5,-257.64 665,178.11 1220.7,604.53 1565,1200.69 344.2,596.1 435.7,1290.61 257.6,1955.57 -178.1,664.87 -604.5,1220.67 -1200.6,1564.87 -397.1,229.4 -838,346.6 -1284.6,346.6 m -8.4,-5181.09 c -450.9,0 -895.9,118.24 -1296.8,349.79 -601.8,347.5 -1032.2,908.55 -1212.1,1579.79 -179.8,671.3 -87.4,1372.42 260.1,1974.21 347.5,601.8 908.6,1032.3 1579.9,1212.1 671.2,179.8 1372.3,87.4 1974.1,-260.1 601.8,-347.5 1032.3,-908.6 1212.1,-1579.84 179.8,-671.29 87.4,-1372.36 -260.1,-1974.18 l -10.6,6.11 10.6,-6.11 c -347.5,-601.81 -908.6,-1032.24 -1579.8,-1212.07 -224.1,-60.04 -451.5,-89.7 -677.4,-89.7" />
      </g>
      <g transform="scale(1.54076)" id="g506">
        <path id="path508" style="fill:#b9afbe;fill-opacity:1;fill-rule:nonzero;stroke:none"
          d="m 15896.6,7514.73 c -507.5,0.06 -1008.5,133.18 -1459.8,393.77 -551.3,318.35 -974.8,795.9 -1222.5,1370.03 295.3,-433.09 748,-906.82 1334.6,-1226.99 619.3,-337.95 1244.6,-478.01 1751.1,-508.77 -134.4,-18.69 -269.1,-28.04 -403.4,-28.04" />
      </g>
      <g transform="scale(1.80867)" id="g510">
        <path id="path512" style="fill:#371a45;fill-opacity:1;fill-rule:nonzero;stroke:none"
          d="m 13550.1,11393.5 c -216.7,0 -434.7,-28.5 -649.6,-86.1 -643.7,-172.4 -1181.8,-585.1 -1515,-1162.3 -333.2,-577.07 -421.8,-1249.39 -249.4,-1893.06 172.4,-643.74 585.2,-1181.76 1162.3,-1514.98 577.1,-333.29 1249.4,-421.81 1893.1,-249.42 643.7,172.45 1181.7,585.24 1515,1162.3 333.3,577.11 421.8,1249.42 249.4,1893.16 -172.4,643.7 -585.2,1181.7 -1162.3,1514.9 -384.4,222.1 -811.2,335.5 -1243.5,335.5 m -8.4,-5157.81 c -461.1,0 -916.2,120.98 -1326.2,357.72 -1270.5,733.64 -1707.3,2364.17 -973.6,3634.69 355.4,615.5 929.2,1055.7 1615.7,1239.6 686.4,183.8 1403.5,89.4 2018.9,-266 615.5,-355.4 1055.7,-929.2 1239.6,-1615.7 183.9,-686.52 89.5,-1403.52 -265.9,-2019 -355.4,-615.42 -929.2,-1055.69 -1615.8,-1239.58 -229.1,-61.37 -461.7,-91.73 -692.7,-91.73" />
      </g>
      <g transform="scale(1.81844)" id="g514">
        <path id="path516" style="fill:#371a45;fill-opacity:1;fill-rule:nonzero;stroke:none"
          d="m 15653.5,7514.68 c -244.3,-438.24 -613.4,-765.77 -1044.3,-966.77 -323.1,-150.67 -1319.1,-174.38 -2249.6,333.48 -862.8,470.84 -1388.7,1363.97 -1430.4,1718.01 -55.6,472.27 29,958.4 273.2,1396.63 646.6,1159.67 1910.9,1084.97 3140.1,399.77 1229.2,-685.29 1957.5,-1721.45 1311,-2881.12" />
      </g>
      <g transform="scale(1.79013)" id="g518">
        <path id="path520" style="fill:#371a45;fill-opacity:1;fill-rule:nonzero;stroke:none"
          d="m 12894.2,10997.6 c -542.4,0 -1084.3,-212.6 -1454.6,-876.9 -233.1,-418.1 -326.2,-894.33 -269.3,-1377.25 40.3,-342.82 562.8,-1226.45 1417.7,-1693.01 947.3,-517.06 1930.7,-473.2 2223.2,-336.79 440.7,205.57 796.8,535.16 1029.9,953.28 298.4,535.33 314.5,1066.52 47.7,1578.94 -240,460.97 -707.8,894.73 -1352.9,1254.33 -358.5,199.9 -1000.4,497.4 -1641.7,497.4 m 1323.3,-4511.31 c -463.2,0 -1082.7,109.32 -1695.3,443.66 -908.4,495.77 -1443.8,1419.56 -1488.3,1797.47 -60.3,511.75 38.5,1016.68 285.8,1460.18 322.3,578.1 802.7,894.7 1427.8,940.8 545.1,40.2 1186.6,-135.5 1855.2,-508.3 668.7,-372.7 1155.5,-826 1407.9,-1310.83 289.4,-555.93 272.8,-1130.98 -49.6,-1709.15 -247.2,-443.54 -624.7,-793.07 -1091.7,-1010.87 -125.9,-58.71 -357.3,-102.96 -651.8,-102.96" />
      </g>
      <g transform="scale(1.72152)" id="g522">
        <path id="path524" style="fill:#afa3b5;fill-opacity:1;fill-rule:nonzero;stroke:none"
          d="m 15739,8099.06 c -67.2,0 -129.7,19.57 -179.7,60.7 -148.2,121.81 -132.1,386.28 35.9,590.81 111.3,135.41 261.2,210.57 392.9,210.57 67.2,0 129.6,-19.63 179.7,-60.76 119.8,-98.4 132.2,-290.03 43.9,-467.9 -74.9,-92.47 -154.6,-179.84 -238.6,-261.92 -76.9,-46.76 -158.5,-71.5 -234.1,-71.5" />
      </g>
      <g transform="scale(1.6119)" id="g526">
        <path id="path528" style="fill:#afa3b5;fill-opacity:1;fill-rule:nonzero;stroke:none"
          d="m 16018.3,8228.23 c -53.1,0 -103.4,19.29 -139.4,58.38 -75.4,81.89 -59.2,219.55 36.3,307.46 49.9,45.97 111.6,69.24 169.9,69.24 53.2,0 103.5,-19.3 139.5,-58.38 75.4,-81.89 59.1,-219.56 -36.3,-307.47 -49.9,-45.96 -111.6,-69.23 -170,-69.23" />
      </g>
      <g transform="scale(1.77155)" id="g530">
        <path id="path532" style="fill:#2a1a3b;fill-opacity:1;fill-rule:nonzero;stroke:none"
          d="m 14373.7,6693.42 c -447,0 -1057.4,105.56 -1653.7,430.98 -271.2,148.01 -509.3,337.56 -709.6,538.74 678.5,-314.64 1362,-426.64 1885.1,-426.64 350.2,0 628.4,50.13 785.1,123.29 309.6,144.39 594.6,338.85 841.4,580.05 55.5,33.7 108.3,79.09 154.3,135.08 31.3,38.16 57.2,78.41 77.6,119.45 106.2,131.18 202.4,272.92 287.1,424.88 63.9,114.36 117.3,227.88 161,340.32 98,-397.44 33,-803.64 -194.7,-1212.21 -235.5,-422.52 -595.4,-755.56 -1040.7,-963.29 -111.5,-51.98 -322.2,-90.65 -592.9,-90.65" />
      </g>
      <g transform="scale(1.77952)" id="g534">
        <path id="path536" style="fill:#2a1a3b;fill-opacity:1;fill-rule:nonzero;stroke:none"
          d="m 14312.9,6594.41 c -463.1,0 -1086.2,111.77 -1683,437.42 -335.9,183.14 -621.6,428.88 -849.1,683.22 58.5,-30.34 117.1,-59.06 175.8,-86.26 199.4,-200.28 436.4,-388.98 706.4,-536.32 593.6,-323.97 1201.3,-429.05 1646.3,-429.05 269.5,0 479.2,38.49 590.2,90.25 443.3,206.8 801.6,538.35 1036,958.96 226.8,406.74 291.4,811.12 193.9,1206.79 14.5,37.37 28,74.63 40.5,111.72 130.1,-420.29 91.2,-876.03 -174,-1352.05 -249.7,-447.88 -626.9,-782.52 -1067.2,-988.02 -122.9,-57.32 -341.2,-96.66 -615.8,-96.66" />
      </g>
      <g transform="scale(1.7122)" id="g538">
        <path id="path540" style="fill:#787384;fill-opacity:1;fill-rule:nonzero;stroke:none"
          d="m 16060.1,8215.06 c 84.5,82.53 164.6,170.37 239.9,263.35 -21.1,-42.46 -47.9,-84.1 -80.3,-123.58 -47.6,-57.94 -102.3,-104.9 -159.6,-139.77" />
      </g>
      <g transform="scale(1.7964)" id="g542">
        <path id="path544" style="fill:#371a45;fill-opacity:1;fill-rule:nonzero;stroke:none"
          d="m 16225.7,8674.74 c -27.3,0 -53.2,16.26 -64.3,42.87 l -3.8,8.9 -1.2,10.52 c -83.2,747.22 -649.3,1464.67 -1553,1968.47 -908.7,506.5 -1821.4,600.5 -2504,257.6 l -6,-2.7 c -34.7,-13.8 -74.4,2.4 -89.4,36.8 -15.2,34.8 0.2,75.3 34.5,91.1 724.4,362.9 1683.8,267.8 2632.7,-261.2 941.9,-525.1 1533.2,-1279.67 1623.1,-2070.64 5.7,-32.4 -12.2,-65.29 -44.1,-77.26 -8.1,-3.01 -16.3,-4.46 -24.5,-4.46" />
      </g>
      <g transform="scale(1.58621)" id="g546">
        <path id="path548" style="fill:#afa3b5;fill-opacity:1;fill-rule:nonzero;stroke:none"
          d="m 12974.6,10349.2 c 0,0 319.4,1541.1 1317.6,1669.7 100.8,13 202,18.8 302,18.8 890.5,0 1705.8,-464.6 1651.8,-511.3 0,0 -351.2,97.6 -820.3,97.6 -425.7,0 -948.5,-80.3 -1394.1,-386.9 -722.3,-496.9 -1057,-887.9 -1057,-887.9" />
      </g>
    </g>
  </g>
</svg>