<?xml version="1.0" encoding="UTF-8" standalone="no"?>
<svg xmlnsDc="http://purl.org/dc/elements/1.1/" xmlnsCc="http://creativecommons.org/ns#"
  xmlnsRdf="http://www.w3.org/1999/02/22-rdf-syntax-ns#" xmlnsSvg="http://www.w3.org/2000/svg"
  xmlns="http://www.w3.org/2000/svg" viewBox="0 0 5333.3335 5333.3335" height="5333.3335" width="5333.3335"
  xmlSpace="preserve" id="svg2" version="1.1">
  <defs id="defs6" />
  <g transform="matrix(1.3333333,0,0,-1.3333333,0,5333.3333)" id="g10">
    <g transform="scale(0.1)" id="g12">
      <g transform="scale(1.65199)" id="g18">
        <path id="path20" style="fill:#371a45;fill-opacity:1;fill-rule:nonzero;stroke:none"
          d="m 13314.9,10617.9 c -41.2,0 -74.6,33.4 -74.6,74.6 v 5533 c 0,41.1 33.4,74.5 74.6,74.5 41.1,0 74.5,-33.4 74.5,-74.5 v -5533 c 0,-41.2 -33.4,-74.6 -74.5,-74.6" />
      </g>
      <g transform="scale(1.05265)" id="g22">
        <path id="path24" style="fill:#ffffff;fill-opacity:1;fill-rule:nonzero;stroke:none"
          d="m 15800.8,13121.6 c 0,0 -2879.4,-750.3 -2982.2,-1879.9 -89.5,-985 990.2,-4306.25 1624.3,-4671.05 462.6,-266.09 1857.1,221.92 1857.1,221.92 l -499.2,6329.03" />
      </g>
      <g transform="scale(1.01285)" id="g26">
        <path id="path28" style="fill:#b9afbe;fill-opacity:1;fill-rule:nonzero;stroke:none"
          d="m 15606.7,6928.25 c -19.3,0 -38.6,0.4 -57.8,0.99 -0.1,0.79 -0.2,1.58 -0.3,2.37 -7.9,79.38 -18.2,157.08 -29.8,233.79 16.8,-5.03 33.8,-9.87 51,-14.51 71.3,-18.95 145.9,-33.27 226.3,-37.91 13.3,-0.6 26.8,-0.89 40.6,-0.89 69.1,0 143.5,8.99 220.1,39.79 45.7,18.95 90.6,47.09 128.9,82.64 39.1,35.34 68.1,79.18 90.5,121.93 5.3,10.37 10.5,21.13 15.1,32.29 0.2,-3.96 0.4,-8 0.5,-12.05 3.7,-91.92 8.2,-207.34 5.3,-343.78 -210,-58.16 -452.2,-104.66 -690.4,-104.66" />
      </g>
      <g transform="scale(1.06537)" id="g30">
        <path id="path32" style="fill:#371a45;fill-opacity:1;fill-rule:nonzero;stroke:none"
          d="m 14838.6,6305.95 c -295.4,0 -592.8,63.74 -839.5,246.02 -681.3,503.3 -1532,3571.83 -1474.1,4563.63 55.4,948.4 1794.1,1532.3 1868.1,1556.7 74.1,24.4 153.4,-15.9 177.7,-89.7 24.4,-73.8 -15.7,-153.4 -89.5,-177.8 -453.6,-149.8 -1638.5,-676.3 -1675.2,-1305.5 -55.5,-950 812.7,-3916.28 1360.3,-4320.84 666.1,-492.12 1897.2,117.89 1909.5,124.18 69.3,34.83 154.1,7.04 189.1,-62.51 35,-69.46 7,-154.12 -62.4,-189.04 -39.4,-19.81 -696.6,-345.14 -1364,-345.14" />
      </g>
      <g transform="scale(1.40856)" id="g34">
        <path id="path36" style="fill:#ffffff;fill-opacity:1;fill-rule:nonzero;stroke:none"
          d="m 14285.4,9532.26 c 0,0 -93.9,-761.42 236.1,-239.25 301.3,476.94 676.2,1272.19 1007.2,2568.69 2.8,10.5 5.6,21.4 8.4,32 0,0 149,13 331.8,104.4 431.1,215.3 338.8,1054.8 255.4,1340.2 -97.9,336.3 -329.4,245.5 -329.4,245.5 -81.2,132.9 -241.4,203.6 -511.3,199.6 -506.7,-7.5 -609.9,-417.2 -609.9,-417.2 -464.6,-1397.8 -1030.4,-2259.4 -1367.2,-2688.6 -178.2,-227.7 -292.3,-333.7 -292.3,-333.7 l 1271.2,-811.64" />
      </g>
      <g transform="scale(1.34191)" id="g38">
        <path id="path40" style="fill:#b9afbe;fill-opacity:1;fill-rule:nonzero;stroke:none"
          d="m 15200.8,9861.96 c -72.6,110.29 -146.5,214.74 -220.6,313.14 -34.1,45.2 -69.9,89.4 -106.4,133 -46.2,55 -94.2,108.7 -141,160 -83.5,90.5 -164.8,174.2 -234,247.9 l -59.6,-50.5 c 3.7,5.5 7.4,11 11.1,16.6 40,61.2 74.2,116.1 104.5,167.8 7.3,12.3 14.5,24.8 21.8,37.3 73,-15.7 147.5,-24.3 222.2,-24.3 217.5,0 436.4,72.6 624.8,252 147.8,140.8 255.2,338.7 341.6,541.8 77.3,-12.8 160.6,-19.7 250,-19.7 17.5,0 35.4,0.2 53.5,0.7 -254.7,-804.3 -519.1,-1368.2 -749.9,-1758.68 -14.3,6.34 -29.9,9.61 -45.5,9.61 -21.5,0 -43.2,-6.18 -62.3,-19.07 -3.6,-2.39 -7,-4.92 -10.2,-7.6 m 913.4,1922.44 c -6.8,2.2 -14.2,3.3 -21.7,3.3 -1.2,0 -2.4,0 -3.5,-0.1 -24.9,-1.1 -49.2,-1.6 -73,-1.6 -68.6,0 -133.2,4.5 -193.7,12.8 9,23.6 17.9,47.1 26.5,70.4 68.6,186.1 32.5,392 -85.2,551.4 -109.3,148.3 -203,411.5 -109.3,861 0,0 41,-466.1 267.4,-668.4 90.4,-80.7 261.8,-134 378.3,-162.3 -60.7,-238 -122.9,-459.7 -185.8,-666.5" />
      </g>
      <g transform="scale(1.36779)" id="g42">
        <path id="path44" style="fill:#677cbe;fill-opacity:1;fill-rule:nonzero;stroke:none"
          d="m 16139.7,12277 c 4.9,1.4 10,2.9 15.1,4.4 -1.5,-0.5 -6.7,-2.3 -15.1,-4.4 m 15.9,4.7 c 42.6,12.8 91.7,30.3 144.4,54 -42.8,-22.6 -90.8,-41 -144.4,-54" />
      </g>
      <g transform="scale(1.39984)" id="g46">
        <path id="path48" style="fill:#b9afbe;fill-opacity:1;fill-rule:nonzero;stroke:none"
          d="m 15677.5,11985 c -136.2,0 -374,65.7 -551.7,469.2 0,0 119.9,-59.9 409.3,-59.9 36.7,0 76.1,1 118.3,3.2 372.8,19.1 625.7,374 625.7,374 0,0 20.9,-521.2 -352.3,-718.2 -51.5,-23.2 -99.5,-40.3 -141.1,-52.8 0,-0.1 -0.2,-0.1 -0.3,-0.1 0,0 -0.2,0 -0.5,-0.2 -5,-1.5 -9.9,-2.9 -14.7,-4.3 -17.8,-4.5 -50.3,-10.9 -92.7,-10.9" />
      </g>
      <g transform="scale(1.38241)" id="g50">
        <path id="path52" style="fill:#371a45;fill-opacity:1;fill-rule:nonzero;stroke:none"
          d="m 13315.3,10527.9 c -31.1,0 -62,12.9 -84.2,38.1 -40.6,46.4 -36,117 10.4,157.8 13,11.5 900.1,815.6 1602.5,2927 46,174.2 254.8,498.2 727.1,505.3 266.9,3.7 453.4,-58.8 570.1,-191.7 122,-138.9 158.8,-340.8 115.9,-635.5 -42.4,-290.8 -239.4,-494.5 -457.7,-474.1 -200.6,18.8 -406.8,236.2 -383.4,790.1 2.6,61.6 54,109.2 116.5,107 61.7,-2.6 109.6,-54.8 107,-116.5 -15.7,-370.3 82.7,-548.8 180.8,-558 82.9,-7 188.5,98.6 215.5,283.7 32.3,221.9 11.8,371 -62.7,455.8 -69.7,79.5 -204.1,118.5 -398.6,115.5 -425.6,-6.3 -513.9,-337.3 -514.7,-340.7 l -2.4,-7.9 c -725.8,-2184 -1630.3,-2994.7 -1668.4,-3028.2 -21.3,-18.5 -47.5,-27.7 -73.7,-27.7" />
      </g>
      <g transform="scale(1.41732)" id="g54">
        <path id="path56" style="fill:#371a45;fill-opacity:1;fill-rule:nonzero;stroke:none"
          d="m 13863.3,8467.68 c -37.5,0 -74.2,19.47 -94.4,54.25 -30.3,52.08 -12.6,118.89 39.5,149.09 7.8,4.73 860.7,545.82 1526.8,3175.88 l 19.1,75.2 77.2,6.7 c 0.8,0.1 132,13.4 290.6,92.7 341.3,170.6 280.8,920 198,1203.8 -24.8,85.2 -60.9,142.1 -104.3,164.8 -40,20.9 -79.3,7.9 -81,7.4 -56,-22 -118.2,6 -140.2,62.1 -22,56.1 6.7,119.8 62.8,141.8 12.7,5 127.6,46.8 252.4,-14.4 102.3,-50.3 176.3,-151.4 219.7,-300.6 104.1,-356.8 170.5,-1219.9 -309.8,-1460 -117.2,-58.6 -222.7,-87.9 -290.7,-102.2 -691.6,-2681 -1573.5,-3219.97 -1611,-3241.7 -17.2,-10.02 -36.1,-14.82 -54.7,-14.82" />
      </g>
      <g transform="scale(1.35239)" id="g58">
        <path id="path60" style="fill:#371a45;fill-opacity:1;fill-rule:nonzero;stroke:none"
          d="m 16102.7,12271.4 c -143.4,0 -263.1,46.3 -356.9,137.9 -180.9,176.7 -247.6,509.7 -198.3,989.8 48.3,469.1 258.5,543.1 300.1,553.1 l 52.1,-215.6 c 0,0 3.1,0.2 8.3,2.5 -1.1,-0.5 -107.7,-50.3 -139.8,-362.7 -41,-397.8 6.1,-685 132.6,-808.5 63.5,-62.1 151,-85 267.5,-70.2 60.6,7.2 116.2,-35.3 124,-96.1 7.7,-60.8 -35.3,-116.3 -96.1,-124 -32.2,-4.1 -63.3,-6.2 -93.5,-6.2" />
      </g>
      <g transform="scale(1.33729)" id="g62">
        <path id="path64" style="fill:#ffffff;fill-opacity:1;fill-rule:nonzero;stroke:none"
          d="m 11555.3,7678.49 c 54.6,-113.22 95.9,-230.09 130.5,-349.66 108.7,-373.37 151.7,-771.11 322.5,-1148.51 42.3,-93.48 93.8,-174.46 147,-242.59 16.6,-21.31 33.2,-41.27 49.8,-60.26 125.7,-142.61 243.6,-213.8 243.6,-213.8 0.7,-37.24 3.4,-84.72 5.1,-141.25 7.4,-232.41 4.7,-621.7 -163,-1107.16 -12.2,-35.9 -25.1,-72.16 -39.6,-108.73 -112.5,-291.71 -44.4,-1235.93 78.5,-1451.44 353.4,-621.33 1239,-526.81 1491.1,-102.59 228,384.8 132.4,1131.53 89.4,1394.08 -9.8,59.97 -16.9,94.52 -16.9,94.52 233.7,489.2 434.7,1146.12 434.7,1638.38 0,0 63,-10.47 148.3,-11.51 l -0.3,-16.23 c 33.5,-304.57 -23,-824.65 -133.8,-1299.94 -12.2,-52.57 -25.1,-104.69 -38.6,-155.83 -65.4,-246.7 55.8,-1026.55 381.8,-1414.13 377.7,-449.94 1205.4,-292.75 1371.4,43 199.9,403.2 -61.3,1080.09 -161.3,1310.78 -22.3,51.15 -36.5,79.94 -36.5,79.94 416.6,986.24 441,1829.81 367.2,2682.2 -116.6,1336.21 -648.1,2388.11 -1194.3,3112.44 -34.2,45.4 -70,89.8 -106.7,133.5 -46.4,55.2 -94.5,109.1 -141.5,160.6 -83.8,90.8 -165.4,174.8 -234.8,248.7 l -95.2,-80.7 -154.9,-35.9 -2568.7,-598.3 -22.4,-301.5 -9.8,-135.2 -21.3,-290.36 -54.2,-729.38 -32.2,-436.33 -26.8,-358.49 -8.1,-108.35" />
      </g>
      <g transform="scale(1.31493)" id="g66">
        <path id="path68" style="fill:#b9afbe;fill-opacity:1;fill-rule:nonzero;stroke:none"
          d="m 15607.6,2863.8 c -241.6,0 -454.6,86.54 -585.2,241.91 -315.9,376.14 -419.6,1131.39 -365.5,1335.5 29.3,110.66 55.6,224.73 78.8,339.19 16.2,-231.5 79.7,-882.33 295.7,-1277.63 131.5,-240.4 376.7,-370.59 623.1,-370.59 162.9,0 326.4,56.96 457.7,176.66 89.2,81.14 141.9,177.19 169.7,278.19 18.1,-171.34 7.9,-335.23 -54,-460.33 -60.7,-122.59 -264.2,-227.62 -495,-255.3 -42.4,-5.09 -84.3,-7.6 -125.3,-7.6" />
      </g>
      <g transform="scale(1.14293)" id="g70">
        <path id="path72" style="fill:#b9afbe;fill-opacity:1;fill-rule:nonzero;stroke:none"
          d="m 15350.8,2952.95 c -4.3,0 -8.7,0 -13,0.09 -344.9,3.15 -635.5,168.07 -797.4,452.43 -113.2,199.05 -187.2,1106.72 -109.1,1492.66 -43.8,-637.84 -40.7,-1553.47 844.2,-1553.3 61.4,0 127.2,4.38 197.5,13.65 476.2,63 533.5,459.79 520.2,816.15 -13.2,357.86 -158.2,471.43 -284.2,501.79 81.9,26.07 156.2,58.1 223.5,93.79 l 215.2,51.1 c 48.8,-302.38 152.3,-1126.5 -89.6,-1533.96 -118.8,-199.92 -400.4,-334.4 -707.3,-334.4" />
      </g>
      <g transform="scale(1.30574)" id="g74">
        <path id="path76" style="fill:#b9afbe;fill-opacity:1;fill-rule:nonzero;stroke:none"
          d="m 13557.6,4049.29 c -52.6,0 -74,73.75 -23.9,100.55 237.9,127.21 585.2,448.79 680,887.7 81.2,376.42 47.1,743.95 1.1,995.46 -30.9,169.33 93.5,327.01 265.5,334.82 309,14.02 757.2,49.48 1051.8,138.93 197.7,60.04 402.1,142.37 576.2,292.86 22.1,19.23 48.1,27.88 73.5,27.88 55.7,0 108.6,-41.66 112.6,-105.76 5.6,-91.14 -1.8,-184.88 -45.3,-231.98 -22.6,-24.51 -56.6,-49.86 -100.1,-75.67 33.8,93.97 38.5,152.64 38.5,152.64 -248,-239.41 -642.9,-390.28 -943.6,-476.9 -92.5,-24.58 -186.4,-48.17 -279.8,-70.3 -8.7,-1.84 -17.1,-3.6 -25,-5.29 -10.3,54.22 -57.8,93.44 -112.8,93.44 -4.1,0 -8.3,-0.23 -12.5,-0.69 -39.1,-4.29 -71.5,-27.73 -88.9,-59.97 -19.1,14.17 -42.8,22.52 -68.4,22.52 -63.4,0 -114.8,-51.39 -114.8,-114.88 0,-439.53 -151.7,-1008.78 -416.2,-1561.8 l -16.6,-34.69 7.7,-37.76 c 0.2,-1 2.3,-11.56 5.7,-30.25 -51.2,-40.29 -109.8,-79.5 -176.4,-114.73 l -335,-79.72 c 16.1,3.06 38.9,6.2 65.4,6.2 22.6,0 47.8,-2.22 74,-8.58 -57,-18.07 -117.9,-32.85 -183.2,-43.27 -3.3,-0.53 -6.4,-0.76 -9.5,-0.76 m 27.5,40.43 v 0 0 0 0 c 0.3,0 1.6,0.39 4,1 l -4,-1 v 0 0 m 24.1,5.67 c -9.4,-1.68 -16.4,-3.37 -20.1,-4.67 l 20.1,4.67" />
      </g>
      <g transform="scale(1.09018)" id="g78">
        <path id="path80" style="fill:#8f889d;fill-opacity:1;fill-rule:nonzero;stroke:none"
          d="m 16276,4899.54 c 4.4,1.56 12.8,3.58 24,5.59 l -24,-5.59" />
      </g>
      <g transform="scale(1.08858)" id="g82">
        <path id="path84" style="fill:#8f889d;fill-opacity:1;fill-rule:nonzero;stroke:none"
          d="m 16295.2,4905.58 v 0 0 m 0,0 v 0 0 m 0,0 v 0 0 m 0,0 4.8,1.19 c -2.9,-0.73 -4.5,-1.19 -4.8,-1.19" />
      </g>
      <g transform="scale(1.11716)" id="g86">
        <path id="path88" style="fill:#8c7b94;fill-opacity:1;fill-rule:nonzero;stroke:none"
          d="m 16071.3,4784.28 c -30.6,7.43 -60.1,10.02 -86.4,10.02 -31,0 -57.6,-3.67 -76.5,-7.25 l 391.6,93.18 c -68.8,-36.51 -144.9,-69.28 -228.7,-95.95" />
      </g>
      <g transform="scale(1.29364)" id="g90">
        <path id="path92" style="fill:#b9afbe;fill-opacity:1;fill-rule:nonzero;stroke:none"
          d="m 15042.8,5237.32 c 44.6,320.65 59.8,618.18 37.3,824.04 -0.3,2.86 -0.7,5.72 -1.2,8.5 8.3,2.01 16.7,3.94 25.2,5.95 73.6,15.85 171.6,39.04 282.4,70.96 377.3,100.42 729.4,218.15 913.5,327.3 -70.5,-195.57 -266.4,-542.81 -804.5,-836.17 -208.3,-113.56 -349.7,-244.35 -452.7,-400.58" />
      </g>
      <g transform="scale(1.29672)" id="g94">
        <path id="path96" style="fill:#8c7b94;fill-opacity:1;fill-rule:nonzero;stroke:none"
          d="m 15043,6055.41 c 0,0.23 -0.1,0.47 -0.1,0.62 8,1.7 16.4,3.47 25.2,5.32 -8.4,-2 -16.8,-3.93 -25.1,-5.94 m 306.8,76.73 c 302.9,87.23 700.5,239.15 950.2,480.21 0,0 -4.7,-59.07 -38.8,-153.69 -183.6,-108.89 -534.9,-226.34 -911.4,-326.52" />
      </g>
      <g transform="scale(1.34626)" id="g98">
        <path id="path100" style="fill:#371a45;fill-opacity:1;fill-rule:nonzero;stroke:none"
          d="m 15244.7,2574.38 c -301.9,-0.07 -572.3,113.13 -742.5,315.77 -351.5,418.56 -472.6,1237.65 -401.8,1504.75 132.1,499.17 203.1,1090.2 168.7,1405.38 -6.7,61.2 37.5,116.17 98.7,122.85 61.3,6.69 116.1,-37.58 122.8,-98.71 37.6,-344.44 -34.3,-955.76 -174.8,-1486.56 -52.8,-199.37 48.5,-937.04 357,-1304.43 149.2,-177.53 408.6,-263.02 693.9,-228.85 225.5,27.04 424.3,129.61 483.5,249.35 178.1,359.81 -81.8,1048.24 -197,1283.11 l -22.3,45.61 19.7,46.87 c 425.4,1006.04 422.6,1849.56 356.4,2611.23 -91.5,1050.9 -369.6,1890.49 -875.4,2642.27 -34.3,51.1 -20.8,120.33 30.2,154.65 51.1,34.47 120.3,20.8 154.7,-30.23 527.6,-784.39 817.6,-1657.33 912.4,-2747.38 67.8,-778.75 71.1,-1640.91 -353.8,-2671.32 89.8,-197.81 407.6,-963.41 174.9,-1433.67 -95.2,-192.09 -346.8,-334.56 -656.7,-371.77 -50.1,-6.02 -99.8,-8.92 -148.6,-8.92" />
      </g>
      <g transform="scale(1.2698)" id="g102">
        <path id="path104" style="fill:#371a45;fill-opacity:1;fill-rule:nonzero;stroke:none"
          d="m 15697.2,10943 c 59.5,-36 114.1,-76.3 167.8,-117.6 53.1,-41.9 104.6,-85.4 153.9,-131 49.3,-45.7 98.3,-92.1 141.2,-144 43,-51.7 83,-106.6 112.2,-170 27.7,-60.1 1.5,-131.3 -58.7,-159.1 -46.3,-21.4 -99.3,-10.7 -133.8,22.9 l -1.7,1.6 c -45.9,44.8 -84.6,95.6 -121.7,148.5 -37.2,52.7 -70,109.6 -103.3,166.5 -33.3,56.9 -65.4,115.3 -96.4,174.8 -30.3,60 -60.3,120.7 -85.4,185.7 -3.6,9.2 1,19.5 10.2,23.1 5.3,2 11.1,1.3 15.7,-1.4" />
      </g>
      <path id="path106" style="fill:#ffffff;fill-opacity:1;fill-rule:nonzero;stroke:none"
        d="m 15766.9,10512.7 115.7,-321.7 -8.8,147.5 c -28.8,59.4 -63.7,117.9 -106.9,174.2" />
      <g transform="scale(1.18329)" id="g108">
        <path id="path110" style="fill:#371a45;fill-opacity:1;fill-rule:nonzero;stroke:none"
          d="m 14824.2,2598.69 c -4,0 -7.9,0 -11.9,0.09 -425.8,3.88 -786,209.84 -988.2,565.11 -154.3,271.2 -239.1,1379.55 -96.6,1748.52 247.8,641.94 228.2,1136.24 217.7,1401.77 -0.2,6.17 -0.5,12.09 -0.7,17.92 -109.2,80.03 -343.8,279.05 -488.9,600.19 -137.4,303.9 -190.4,652.25 -241.7,989.2 -55.7,364.99 -108.1,709.71 -260.4,941.52 -38.4,58.48 -22.2,137.08 36.3,175.53 58.6,38.37 137.2,22.14 175.6,-36.34 182.7,-278.12 239.2,-649.38 299.1,-1042.52 48.8,-320.04 99.1,-650.89 222.1,-922.93 156.4,-346.24 445.5,-526.33 448.4,-528.11 l 59,-36.17 1.9,-69.47 c 0.4,-22.73 1.5,-49.1 2.7,-78.76 10.4,-263.67 32.1,-812.31 -234.6,-1503.1 -113.3,-293.42 -39.2,-1321.65 80.4,-1531.83 156.4,-274.66 437.1,-433.96 770.2,-437 301.3,-3.72 579.4,127.01 695.7,322.91 288,485 69.3,1581.19 67.1,1592.25 l -8.5,41.67 18.3,38.29 c 291.9,610.24 459.3,1238.4 459.3,1723.41 0,70.06 56.7,126.77 126.6,126.77 70.1,0 126.9,-56.71 126.9,-126.77 0,-511.37 -169.6,-1163.45 -466.2,-1794.92 40.5,-220.06 200.4,-1214.91 -105.5,-1730.09 -161.7,-272.37 -515.7,-447.14 -904.1,-447.14" />
      </g>
      <g transform="scale(1.29586)" id="g112">
        <path id="path114" style="fill:#371a45;fill-opacity:1;fill-rule:nonzero;stroke:none"
          d="m 14730.5,6129.53 c 65.2,20.14 130.9,37.19 196.9,53.01 65.4,18.13 131.3,33.96 197.2,50.08 130.8,34.81 263.1,65.13 393.1,103.64 130.2,37.27 259.9,77.63 387.1,125.17 126.9,47.3 254.8,98.47 372.2,165.83 l 1,0.62 c 6.6,3.79 15.1,1.47 18.9,-5.09 3.1,-5.56 2.1,-12.27 -2.1,-16.59 -50.2,-51.47 -106.2,-93.53 -163.3,-134.82 -57,-41.44 -117.1,-78.09 -177.7,-113.82 -121.8,-70.46 -248.8,-131.34 -378.3,-185.28 -129.4,-54.87 -261.6,-101.87 -396,-141.61 -67.3,-19.13 -135.1,-36.42 -203.2,-52.4 -68.3,-14.35 -137,-27.47 -206.2,-37.58 -52.8,-7.63 -101.8,28.94 -109.5,81.72 -6.9,47.77 22.3,92.53 67.1,106.27 l 2.8,0.85" />
      </g>
      <g transform="scale(1.44457)" id="g116">
        <path id="path118" style="fill:#371a45;fill-opacity:1;fill-rule:nonzero;stroke:none"
          d="m 15333.2,8876.48 c -75.7,0 -124.6,10.73 -126.4,11.14 -46.5,10.94 -75.4,57.6 -64.4,104.12 11,46.45 57.1,75.25 104.1,64.38 21.2,-4.85 530.3,-110.76 738.5,576.36 123.9,409.22 -160.1,785.02 -434.7,1148.42 -210.9,279.2 -410.2,543 -410.2,811.8 0,47.9 38.7,86.5 86.5,86.5 47.8,0 86.5,-38.6 86.5,-86.5 0,-210.8 182.3,-452 375.3,-707.5 286.7,-379.3 611.6,-809.4 462.1,-1302.91 -188.5,-622.33 -606.6,-705.81 -817.3,-705.81" />
      </g>
      <g transform="scale(1.28921)" id="g120">
        <path id="path122" style="fill:#ffffff;fill-opacity:1;fill-rule:nonzero;stroke:none"
          d="m 16300,7637.13 c -127.6,-67.1 -271.6,-139.85 -428,-214.39 96.2,37.62 184.4,73.45 262.8,106.18 62.6,26.3 118.4,63.22 165.2,108.21" />
      </g>
      <g transform="scale(1.15552)" id="g124">
        <path id="path126" style="fill:#371a45;fill-opacity:1;fill-rule:nonzero;stroke:none"
          d="m 15307.6,4636.72 c 84.9,23.8 166.9,54.95 242.9,92.77 76.5,36.95 147.6,80.75 212.1,130.68 64.7,49.5 123.1,104.28 176.5,162.96 12.9,15.23 28.3,27.77 40.2,43.87 12.4,15.58 25.3,30.64 38.7,45.44 26.2,30.03 48.6,63.43 77.2,93.03 l 10.1,10.3 c 41.5,42.92 110,43.96 152.8,2.42 34.7,-33.66 41.9,-84.98 21.5,-126.01 -43.6,-87.05 -101.8,-168.14 -174.5,-234.95 -70.1,-69.5 -155.4,-122.11 -242.6,-164.52 -87.4,-42.75 -180.4,-71.14 -274,-86.28 -93.8,-14.62 -188,-17.91 -281,-0.61 -8.4,1.56 -14.1,9.78 -12.5,18.26 1.1,6.06 5.6,10.65 11.2,12.21 l 1.4,0.43" />
      </g>
      <g transform="scale(1.31703)" id="g128">
        <path id="path130" style="fill:#371a45;fill-opacity:1;fill-rule:nonzero;stroke:none"
          d="m 15505.5,4197.55 c 137.4,64.01 260.5,146.69 359.7,245.24 50,48.9 93.8,101.9 133.6,156.8 42.1,53.53 74.6,112.6 115.1,169.47 l 5.1,7.14 c 30.4,42.82 89.8,52.77 132.6,22.32 35.6,-25.36 48.4,-70.77 34.2,-109.94 -28.5,-78.51 -70.3,-153.38 -125.8,-217.08 -53.1,-65.68 -120,-119.06 -189.8,-163.7 -69.7,-45.03 -145.2,-79.35 -222.7,-102.81 -77.8,-23.01 -157.1,-37.05 -237.9,-34.24 -7.6,0.22 -13.5,6.6 -13.3,14.19 0.2,5.39 3.4,9.87 8,12 l 1.2,0.61" />
      </g>
      <g transform="scale(1.00679)" id="g132">
        <path id="path134" style="fill:#ffffff;fill-opacity:1;fill-rule:nonzero;stroke:none"
          d="m 14054.9,6019.46 c 277.2,-80.06 1476.5,-322.22 1443.6,806.03 -6.7,237.98 -84.1,621.88 -78.7,622.27 1.8,0.2 70.8,-34.66 169,-69.62 201.7,-71.52 526.4,-143.13 646.4,87.7 64.8,124.66 45,239.38 -23.4,341.09 -18.5,27.41 -40.9,54.43 -66.2,80.05 -217.3,221.4 -651.5,365.03 -836.1,388.87 0,0 1.4,15.29 4.1,43.6 16.2,174.22 83.7,839.31 208.4,1415.3 67.4,310.95 151.6,596.25 253.3,764.15 l -88.2,620.1 -41,289.8 -136.3,958.9 -68.9,482.9 c -15.7,0 -1071.9,-4.6 -1478.2,-1216.8 -0.9,-2.3 -1.3,-4.5 -2.2,-6.8 -243.1,-732.1 -291.3,-2083.95 -175.1,-3922.28 32.8,-519.67 -316.4,-1515.12 269.5,-1685.26" />
      </g>
      <g transform="scale(1.11063)" id="g136">
        <path id="path138" style="fill:#b9afbe;fill-opacity:1;fill-rule:nonzero;stroke:none"
          d="m 15130.2,6665.07 c -0.9,26.2 -1.8,50.51 -2.7,72.94 -1.3,31.6 -2.4,59.69 -2.9,83.91 l -2,74.01 -62.8,38.54 c -1.9,1.17 -115.3,71.85 -241.6,209.16 -11.6,18.19 -24,35.21 -36.6,51.15 -19.2,23.85 -39.3,45.64 -60,65.63 -50.6,68.43 -99.2,147.4 -139.6,236.71 -79.1,175.13 -130.1,373.22 -169.4,577.7 68.8,-10.45 184.8,-23.32 338.7,-23.32 312.2,0 780.7,52.85 1330.4,286.14 l 51.2,-128.93 c 20.7,-52.14 47.7,-99.86 79.9,-142.72 16,-21.16 33.3,-41.23 51.7,-60.14 0.3,-0.27 0.5,-0.45 0.7,-0.72 0.1,-0.09 0.2,-0.18 0.3,-0.27 11.1,-11.26 22.6,-22.15 34.5,-32.51 -346.3,-150.99 -644.2,-235.27 -891.9,-279.21 -180.7,-32.14 -304.7,-197.82 -284.1,-380.24 39.5,-347.91 26.9,-645.49 26.9,-645.49 l -20.7,-2.34 m -533.3,2194.98 c -111.2,0.63 -219.1,10.27 -319.8,31.6 -8.7,45.2 -18.1,89.59 -28.3,133.35 11.4,66.72 22.4,132.99 34.5,198.99 l 17.3,-48.08 -6.4,106.79 c 13.6,70.31 28.4,140.37 46,210.24 l 1.4,5.49 c 4.1,16.48 -0.9,34.48 -14.4,46.55 -9,7.92 -20,11.89 -31.2,11.89 -0.4,0 -0.8,0 -1.3,-0.1 l -74.3,522.63 c 22.5,20.4 47.3,39.1 74.2,57 51.7,33.7 102.1,55.9 145.4,55.9 93.5,0 153.4,-103.9 119.4,-420.06 -39.7,-369.07 -16.2,-666.47 37.5,-912.19" />
      </g>
      <path id="path140" style="fill:#b9afbe;fill-opacity:1;fill-rule:nonzero;stroke:none"
        d="m 15882.6,10191 -19.2,53.4 c 3.9,21.7 8,43.5 12.1,65.2 l 7.1,-118.6" />
      <g transform="scale(1.03092)" id="g142">
        <path id="path144" style="fill:#371a45;fill-opacity:1;fill-rule:nonzero;stroke:none"
          d="m 16154.9,7163.6 c -2.2,73.34 -5.7,134.93 -6.6,183.23 0,0 -42,25.32 -105.4,76.05 1.2,27.94 -0.1,56.17 -4.6,84.01 -11.6,71.97 -39.9,135.12 -74.4,189.05 136,-147.93 258.2,-224.07 260.2,-225.33 l 67.8,-41.52 2.1,-79.73 c 0.5,-26.1 1.7,-56.36 3.1,-90.41 1,-24.15 1.9,-50.34 2.9,-78.57 l -145.1,-16.78 m -295.1,658.15 c -33.9,32.98 -69.4,61.69 -105.4,88.37 -58.6,42.78 -118.8,79.64 -179.9,112.32 -113.2,251.53 -182.8,509.94 -243.1,767.38 63.8,-57.33 117.7,-76.44 117.7,-76.44 0,0 27,-6.5 77.8,-14.26 42.4,-220.29 97.3,-433.69 182.6,-622.36 43.4,-96.22 95.8,-181.29 150.3,-255.01 m -478.9,1757.36 c -17.9,3.88 -35.7,8.05 -53.2,12.61 l 18.4,105.25 c 1.5,8.63 2.9,17.17 4.4,25.8 10.9,-47.14 21,-94.96 30.4,-143.66" />
      </g>
      <path id="path146" style="fill:#b9afbe;fill-opacity:1;fill-rule:nonzero;stroke:none"
        d="m 15211,8180.2 c -64.3,0 -169.1,64.6 -116.1,515.6 82.5,700.4 272.3,1333.3 368.8,1717.5 11.8,47.6 22.7,91.1 31.3,130.5 60.7,273.7 123.7,495.2 298.5,650.6 v 0 l 82.6,-580.4 c -13.9,-0.3 -27.7,-6.3 -37.6,-17.5 -33.6,-37.9 -69.4,-78.2 -97.8,-121 -27.2,-42.5 -54.1,-86.7 -78,-131.4 -22.4,-44.8 -42.7,-90.6 -64.1,-136.3 -18.9,-46 -35.9,-92.5 -52.8,-139.2 -17.5,-46.8 -30.5,-93.7 -44.4,-141 -14.2,-47.2 -26.7,-94.7 -37.7,-142.2 l -34,-142.7 -28.8,-143.2 c -36.2,-191.1 -63.8,-383.2 -85.1,-575.6 -21,-192.8 -41.2,-383.7 -57.5,-578.8 l -12.4,-149.5 54.8,-6.7 c -7.3,-4 -14.5,-6.1 -21.5,-6.1 -7.8,0 -15.5,2.5 -23,7.8 0,0 -19.3,-10.4 -45.2,-10.4" />
      <g transform="scale(1.01536)" id="g148">
        <path id="path150" style="fill:#371a45;fill-opacity:1;fill-rule:nonzero;stroke:none"
          d="m 15685.6,10383.6 c -44.6,-177.6 -73.5,-356.2 -104.4,-538.05 l -47.6,-272.12 -45.2,-274.18 -86.6,-551.93 c -27.8,-184.17 -50.9,-371.09 -69.1,-554.68 l -133,164.97 c 80,-12.02 147.6,-30.14 216.3,-50.23 68,-20.29 134.4,-43.73 199.9,-70.22 130.6,-53.48 258.3,-117.2 379.9,-205.84 60.4,-44.81 119.8,-95.63 172.6,-161.51 51.9,-65.4 99.7,-148.23 115.6,-247.9 16,-99.77 -6.8,-204.16 -48,-283.64 -22.4,-42.65 -51.3,-86.37 -90.3,-121.63 -38.2,-35.46 -83,-63.53 -128.6,-82.44 -91.6,-36.83 -180.1,-42.45 -260.1,-38.8 -80.1,4.63 -154.6,18.91 -225.7,37.82 -71.1,19.01 -139.1,42.64 -205.2,69.53 l -49.3,20.68 -45.2,20.49 c -10.8,5.32 10.1,-7.78 48.3,-11.43 3.4,-36.83 68,20.49 119.9,77.81 53.1,58.5 93.1,117.1 41.6,75.44 l -0.5,8.77 1.1,-7.88 3.6,-22.46 8,-48.26 c 21.8,-130.99 42.8,-263.85 56.5,-401.43 7,-68.25 11.4,-141.43 9.5,-214.31 -0.4,-72.78 -7.3,-147.04 -20.5,-221.69 -25.1,-148.42 -88.7,-302.95 -195.8,-427.54 -107.6,-124.58 -253.7,-209.18 -399.4,-253.2 -146.5,-46.39 -293.9,-59.39 -437.1,-58.8 -143.3,1.87 -283.5,18.12 -421.4,46.38 -34.5,7.29 -68.8,14.88 -103.6,23.94 -17.6,4.53 -34.2,8.86 -53.3,14.77 l -61.1,21.47 c -81.1,33.29 -159.6,88.84 -217,159.06 -58.1,70.02 -94.9,149.69 -118.7,226.32 -23.6,77.11 -35.1,152.46 -41.6,225.73 -12.5,146.75 -4.4,285.52 6.9,421.04 12,135.22 28.6,266.99 42.3,395.72 13.3,128.72 24.5,253.4 17.1,368.63 l -22.6,396.22 c -13.4,264.34 -24.4,528.87 -30.4,793.9 -5.9,265.03 -8.8,530.45 -3.7,796.36 4.6,265.82 14.2,532.12 36.5,799.02 22.1,266.8 54,534.3 110,801.8 13.6,66.9 31.5,133.6 47.7,200.4 l 30,100.2 15.3,49.9 19,49.2 c 26.1,65.2 48.7,131.7 78.4,195.7 32.4,63.1 63.8,126.6 97.7,188.8 39.3,59.7 77.4,120.1 118.2,178.7 l 67.6,83.9 c 22.9,27.7 43,57.8 69.4,82.7 51,51 97.7,107 155.2,151.6 l 84.2,69.3 c 29.8,20.8 60.7,40 91.1,59.9 123.9,75.6 258.7,134.5 400,163.1 70.4,14.9 142.2,22.7 214.3,21.8 72.6,-1.4 142.5,-7.9 216.4,-31.8 27.9,-9.1 43.2,-38.9 34.2,-66.9 -4.9,-14.9 -15.7,-26.2 -28.9,-32.1 l -5.7,-2.6 c -118.7,-52.4 -234.5,-103.7 -343.3,-155.6 -27.1,-13.8 -54.8,-25.4 -81.4,-39.3 -26.2,-14.7 -53.1,-27.4 -79.6,-41.1 -26.1,-14.1 -50.8,-30.9 -76.8,-44.9 l -38.5,-22 -36.6,-24.8 c -24.7,-16.2 -49.1,-32.9 -74.3,-48.3 l -70.2,-54 c -49.4,-33 -89.5,-77.5 -134.3,-116.6 -43.1,-41.1 -78.9,-89.7 -118.2,-134.7 -35.1,-48.8 -66.5,-100.6 -100.3,-150.5 -243.1,-421 -312,-942.5 -357.1,-1456.5 -21.7,-258.1 -31,-518.64 -35.5,-779.43 -5.1,-260.8 -2.3,-522.38 3.6,-784.06 5.9,-261.68 16.8,-523.56 30.1,-785.43 l 22.3,-392.77 c 9.2,-148.03 -4.5,-286.79 -18,-419.75 -14.3,-133.35 -30.7,-262.87 -41.9,-390.11 -10.6,-126.75 -17,-252.13 -6.9,-368.05 9.3,-115.82 38.3,-221.99 91.5,-284.53 26.5,-31.61 58.4,-54.65 99,-71.79 l 32.1,-11.13 c 12.3,-3.94 27.6,-7.98 41.9,-11.62 28.9,-7.68 58.9,-14.18 88.8,-20.49 239.2,-48.06 493.8,-60.86 705.8,4.53 105.9,32.21 195.2,87.16 260.6,162.11 64.3,75.84 107.9,172.55 126.5,283.25 9.6,55.06 15.4,112.37 15.6,171.27 1.5,58.9 -1.7,117.3 -8.1,180.13 -12.4,124.59 -32.4,252.13 -53.9,380.95 l -8.2,49.24 -4.1,26.3 -2.3,16.55 c -0.5,4.82 -0.9,4.82 -1.6,21.07 -51.2,-40.87 -12.1,18.52 40.8,77.91 52.2,58.7 117.7,117.39 122.6,79.38 39.9,-4.34 62.8,-18.22 53.9,-13.79 l 44.7,-20.19 41.8,-17.63 c 55.9,-22.65 112.7,-42.25 168.8,-57.22 56.1,-15.07 111.8,-25.01 163.2,-27.97 51.2,-2.66 97,3.35 128,16.05 30.3,13.89 47,28.76 63.4,59.78 18.5,37.63 22.9,68.15 19,99.08 -8,62.14 -76,146.35 -168,211.75 -91.3,66.97 -200.7,122.81 -313.6,168.71 -56.7,22.95 -114.7,43.43 -172.8,60.76 -57.5,17.43 -117.8,32.01 -168.4,38.22 l -145.2,17.72 12.2,147.24 c 16.1,192.15 36,380.16 56.7,570.04 21,189.49 48.1,378.69 83.8,566.9 l 28.4,141.03 33.4,140.54 c 10.9,46.78 23.2,93.56 37.2,140.05 13.7,46.58 26.5,92.77 43.7,138.87 16.6,45.99 33.4,91.83 52,137.13 21.1,45 41.1,90.1 63.1,134.2 23.6,44 50.1,87.6 76.8,129.4 28,42.2 63.3,81.9 96.4,119.2 18.8,21.3 51.3,23.1 72.6,4.3 14.7,-13.2 20.1,-32.9 15.7,-50.9 l -1.6,-6" />
      </g>
      <path id="path152" style="fill:#b9afbe;fill-opacity:1;fill-rule:nonzero;stroke:none"
        d="m 14705.4,6136.1 c -126.1,0 -256.2,15.7 -382,41 -30.4,6.4 -60.8,13 -90.2,20.8 -14.5,3.7 -30,7.8 -42.5,11.8 l -32.6,11.3 c -41.2,17.4 -73.6,40.8 -100.5,72.9 -54,63.5 -83.5,171.3 -92.9,288.9 -10.3,117.7 -3.8,245 7,373.7 1.9,20.7 3.8,41.5 5.9,62.3 34.9,-148.3 92.3,-288.8 192.7,-381 56.8,-52.1 190.3,-84.5 354.6,-84.5 296.5,0 693.1,105.4 920,390.4 3.6,-46.4 5.2,-91 4,-135.9 -0.2,-59.8 -6.1,-118 -15.8,-173.9 -18.9,-112.4 -63.2,-210.6 -128.4,-287.6 -66.4,-76.1 -157.1,-131.9 -264.6,-164.6 -103.8,-32 -217.5,-45.6 -334.7,-45.6" />
      <path id="path154" style="fill:#371a45;fill-opacity:1;fill-rule:nonzero;stroke:none"
        d="m 14706.7,5981.5 c -238,0 -456.4,49.7 -556,78.5 -418.2,121.4 -301.5,1038.9 -245.6,1528.7 18.5,-125.8 22.1,-356 72.5,-569.9 -2.1,-20.8 -4,-41.6 -5.9,-62.3 -10.8,-128.7 -17.3,-256 -7,-373.7 9.4,-117.6 38.9,-225.4 92.9,-288.9 26.9,-32.1 59.3,-55.5 100.5,-72.9 l 32.6,-11.3 c 12.5,-4 28,-8.1 42.5,-11.8 29.4,-7.8 59.8,-14.4 90.2,-20.8 125.8,-25.3 255.9,-41 382,-41 117.2,0 230.9,13.6 334.7,45.6 107.5,32.7 198.2,88.5 264.6,164.6 65.2,77 109.5,175.2 128.4,287.6 9.7,55.9 15.6,114.1 15.8,173.9 1.2,44.9 -0.4,89.5 -4,135.9 56.1,70.5 101.9,152 133.1,245.6 12.7,-102.6 22.7,-215.2 25.8,-317.8 21.3,-729.7 -469.5,-890.1 -897.1,-890" />
      <g transform="scale(1.27494)" id="g156">
        <path id="path158" style="fill:#b9afbe;fill-opacity:1;fill-rule:nonzero;stroke:none"
          d="m 16300,9571.47 c -2.9,1.57 -5.9,3.14 -8.8,4.71 -6.5,21.96 -12.8,43.84 -19,65.65 9.1,-23.38 18.3,-46.83 27.8,-70.36" />
      </g>
      <g transform="scale(1.33871)" id="g160">
        <path id="path162" style="fill:#ffffff;fill-opacity:1;fill-rule:nonzero;stroke:none"
          d="m 16236.7,8421.23 c 63.3,-192.05 -41.1,-398.96 -233.1,-462.31 -192.1,-63.27 -399,41.16 -462.2,233.14 -63.4,192.04 41,398.96 233,462.31 192.1,63.27 399.1,-41.16 462.3,-233.14" />
      </g>
      <g transform="scale(1.32725)" id="g164">
        <path id="path166" style="fill:#b9afbe;fill-opacity:1;fill-rule:nonzero;stroke:none"
          d="m 16185.7,8182.29 -70.7,178.03 c 57.1,33.68 102.9,81.52 134.2,137.28 6.8,-12.66 12.5,-26 17.2,-40.08 33.6,-102.25 -1.8,-210.97 -80.7,-275.23" />
      </g>
      <g transform="scale(1.34934)" id="g168">
        <path id="path170" style="fill:#371a45;fill-opacity:1;fill-rule:nonzero;stroke:none"
          d="m 15763.7,8489.83 c -25.8,0 -52,-4 -77.7,-12.52 -63.1,-20.75 -114.3,-64.85 -144.2,-124.21 -29.9,-59.22 -34.9,-126.66 -14.1,-189.72 20.7,-63.07 64.8,-114.28 124.1,-144.15 59.4,-29.94 126.8,-34.98 189.8,-14.15 130.2,42.91 201.2,183.72 158.4,313.93 -34.5,104.5 -131.9,170.82 -236.3,170.82 m -0.3,-726.65 c -73.8,0 -147,17.27 -214.7,51.44 -113.9,57.43 -198.7,155.85 -238.7,277.02 -39.9,121.24 -30.2,250.71 27.2,364.69 57.5,113.91 155.9,198.69 277.1,238.64 250.3,82.41 520.9,-54.1 603.3,-304.22 v -0.08 c 82.4,-250.19 -54.1,-520.84 -304.2,-603.25 -49.2,-16.23 -99.8,-24.24 -150,-24.24" />
      </g>
      <g transform="scale(1.32467)" id="g172">
        <path id="path174" style="fill:#ffffff;fill-opacity:1;fill-rule:nonzero;stroke:none"
          d="m 15978.3,7402.27 -1817.9,-721.23 c -215.2,-85.46 -461.2,20.68 -546.8,236.13 l -383.8,967.41 c -74.8,188.57 -2.6,400.62 161.1,507.74 23.2,15.4 48.3,28.31 75.1,39.03 l 1817.7,721.24 c 215.4,85.53 461.4,-20.69 546.8,-236.21 l 304.1,-766.15 79.9,-201.18 c 85.5,-215.38 -21,-461.33 -236.2,-546.78" />
      </g>
      <g transform="scale(1.3132)" id="g176">
        <path id="path178" style="fill:#b9afbe;fill-opacity:1;fill-rule:nonzero;stroke:none"
          d="m 14594.9,6997.81 c -44.4,0 -89,9.14 -131.3,27.41 -81.1,35.11 -143.6,99.23 -175.9,180.63 l -329.6,830.88 c 74,-101.05 151.1,-186.5 235.1,-255.11 2.8,-9.06 6.1,-18.04 9.6,-27.03 66.4,-170.19 213.9,-279.09 358.4,-279.09 34,0 67.9,6.02 100.5,18.73 l 143.2,55.82 c 20.3,7.92 37.7,20.18 51.6,35.34 177.7,12.94 382.5,63.27 623.9,154.58 354.6,134.1 580.4,274.9 722.4,406.79 l 64.9,-163.41 c 32.3,-81.33 30.8,-170.89 -4.3,-252.06 -25.4,-58.79 -66.1,-107.75 -117.5,-142.63 l -1430.4,-567.7 c -38.9,-15.46 -79.8,-23.15 -120.6,-23.15" />
      </g>
      <g transform="scale(1.32896)" id="g180">
        <path id="path182" style="fill:#371a45;fill-opacity:1;fill-rule:nonzero;stroke:none"
          d="m 15388.3,9058.64 c -40.3,0 -80.7,-7.67 -119.2,-22.87 l -1811.9,-719.06 c -80.5,-31.83 -143.8,-93.61 -178.4,-173.82 -34.6,-80.14 -36.1,-168.55 -4.2,-249.07 l 382.7,-964.43 c 66.2,-166.9 256,-248.84 422.8,-182.55 l 1812,718.9 c 80.4,31.98 143.8,93.69 178.4,173.82 34.6,80.22 36.1,168.71 4.2,249.07 l -382.7,964.44 c -31.9,80.44 -93.7,143.79 -173.8,178.41 -41.9,18.13 -85.9,27.16 -129.9,27.16 M 14114.8,6659.4 h 0.4 -0.4 m -154.1,-123.7 c -204.6,0 -398.4,122.95 -478.3,324.38 l -382.7,964.37 c -50.4,127.16 -48.2,266.75 6.4,393.01 54.5,126.34 154.6,223.71 281.7,274.12 l 1811.9,718.98 c 127.1,50.49 266.8,48.24 393.1,-6.32 126.3,-54.55 223.6,-154.63 274.1,-281.8 l 382.7,-964.43 c 50.4,-127.09 48.1,-266.68 -6.4,-393.01 -54.6,-126.34 -154.6,-223.64 -281.7,-274.05 l -1812,-719.06 c -62,-24.53 -125.9,-36.19 -188.8,-36.19" />
      </g>
      <g transform="scale(1.30423)" id="g184">
        <path id="path186" style="fill:#ffffff;fill-opacity:1;fill-rule:nonzero;stroke:none"
          d="m 16300,7555.01 c -21.9,-14.49 -45.6,-26.68 -71.2,-36.72 l -1846.5,-732.54 c -160.1,-63.48 -337,-22.77 -454.4,90.09 -42.7,40.95 -77.5,91.4 -100.6,149.82 l -173.4,436.43 -57.2,143.99 -159.5,402.07 c -86.9,218.83 21.4,468.56 239.9,555.35 l 399,158.18 c -170.1,-107.65 -245.9,-325.25 -169.2,-518.85 l 210.4,-530.81 179.5,-452.07 c 86.7,-218.52 336.8,-326.63 555.3,-239.83 l 1447.9,574.89" />
      </g>
      <g transform="scale(1.15618)" id="g188">
        <path id="path190" style="fill:#b9afbe;fill-opacity:1;fill-rule:nonzero;stroke:none"
          d="m 16047.3,7728.74 c -50.5,0 -101.2,10.38 -149.2,31.14 -92.1,39.87 -163.1,112.7 -199.7,205.16 l -53.3,134.23 c 22.8,11.25 45.7,22.75 68.7,34.6 v 0.09 c 0,0.08 0,0.08 0,0.08 0,0 3.2,7.87 8,22.14 15.5,45.76 47.6,156.3 44.9,277.82 37.4,16.95 68.8,47.48 95.3,86.92 l 165.1,-416.11 c 52.2,-131.64 148.2,-238.11 272.9,-303.85 l -115.8,-45.92 c -44.2,-17.56 -90.6,-26.3 -136.9,-26.3" />
      </g>
      <g transform="scale(1.30841)" id="g192">
        <path id="path194" style="fill:#371a45;fill-opacity:1;fill-rule:nonzero;stroke:none"
          d="m 13759.1,8483.34 -90.5,-35.92 c -81.7,-32.4 -146,-95.15 -181.2,-176.62 -35.2,-81.4 -36.7,-171.2 -4.3,-252.9 l 388.8,-979.59 c 32.3,-81.7 95,-146.06 176.4,-181.29 81.4,-35.16 171.2,-36.69 252.9,-4.28 l 102.3,40.58 c -110.2,58.09 -195,152.17 -241.1,268.5 l -388.7,979.5 c -44.6,112.43 -47.4,232.58 -14.6,342.02 m 421.1,-1845.06 c -70.4,0 -140.8,14.45 -207.6,43.34 -128.3,55.41 -227.2,157.13 -278.4,286.3 l -388.7,979.51 c -51.3,129.01 -49,270.86 6.4,399.11 55.5,128.32 157.1,227.22 286.2,278.5 l 397.7,157.75 86.3,-169.52 c -134.3,-85.14 -189.3,-253.97 -130.8,-401.48 l 388.7,-979.58 c 32.4,-81.7 95.1,-146.06 176.5,-181.29 81.4,-35.16 171.2,-36.69 252.9,-4.28 l 1443.4,572.91 87.2,-168.91 c -27.7,-18.04 -57.5,-33.25 -88.4,-45.32 l -1839.9,-730.13 c -61.9,-24.61 -126.7,-36.91 -191.5,-36.91" />
      </g>
      <g transform="scale(1.19307)" id="g196">
        <path id="path198" style="fill:#22a7f0;fill-opacity:1;fill-rule:nonzero;stroke:none"
          d="m 16215,8736.93 c 15.6,-39.81 85,-383.05 85,-383.05 0,0 -101.8,-39.64 -226.8,-88.42 -156.2,-60.94 -345.9,51.38 -423.7,250.78 -77.9,199.48 -14.3,410.62 141.8,471.55 105.5,41.16 226.8,88.52 226.8,88.52 0,0 171.6,-274.5 196.9,-339.38" />
      </g>
      <g transform="scale(1.18317)" id="g200">
        <path id="path202" style="fill:#2976b4;fill-opacity:1;fill-rule:nonzero;stroke:none"
          d="m 16159.7,8423.5 c -108.6,0 -223.6,90.44 -277.9,229.39 -32.8,84.18 -38.3,172.5 -15.3,248.82 21.3,70.75 64.7,122.05 122.4,144.53 l 72.9,28.48 c -46.8,-85.11 -58,-199.63 -24.5,-314.07 4.1,-13.86 8.8,-27.72 14.2,-41.58 49.8,-127.71 145.2,-220.01 248.5,-254.66 l -73,-28.4 c -21.7,-8.53 -44.4,-12.51 -67.3,-12.51" />
      </g>
      <g transform="scale(1.20064)" id="g204">
        <path id="path206" style="fill:#371a45;fill-opacity:1;fill-rule:nonzero;stroke:none"
          d="m 15922.6,8977.77 c -3.1,0 -6.1,-0.59 -9.1,-1.75 l -157.4,-61.47 c -56.8,-22.16 -99.6,-72.71 -120.6,-142.43 -22.6,-75.21 -17.2,-162.24 15.1,-245.2 64.7,-165.82 217.4,-261.6 340.2,-213.71 l 156.5,60.96 c 11.5,4.5 18,16.49 15.6,28.49 -52.5,253.7 -64.7,292.92 -66.7,298.25 -11.6,29.57 -68.5,128.44 -152.1,264.78 -4.7,7.66 -12.9,12.08 -21.5,12.08 m 3.6,-801.49 c -158,0 -319.3,119.1 -392,305.25 -42.4,108.77 -48.9,224.8 -18.3,326.58 32.3,107.27 101.5,186.39 194.8,222.88 l 157.4,61.38 c 67.6,26.32 144.5,0.67 182.5,-61.3 92.7,-151 147.2,-246.87 162,-284.85 v -0.08 c 4,-10 14.4,-36.73 72.6,-318.25 14.8,-71.87 -24.1,-143.42 -92.5,-170.07 l -156.6,-61.05 c -35.6,-13.91 -72.7,-20.49 -109.9,-20.49" />
      </g>
      <g transform="scale(1.21222)" id="g208">
        <path id="path210" style="fill:#22a7f0;fill-opacity:1;fill-rule:nonzero;stroke:none"
          d="m 16223.4,8727.29 c 76.6,-196.34 14.1,-404.14 -139.6,-464.11 -153.7,-59.97 -340.5,50.57 -417,246.9 -76.7,196.34 -14.1,404.14 139.6,464.11 153.7,59.97 340.4,-50.57 417,-246.9" />
      </g>
      <g transform="scale(1.18317)" id="g212">
        <path id="path214" style="fill:#2e568d;fill-opacity:1;fill-rule:nonzero;stroke:none"
          d="m 16300,8464.41 c -103.3,34.65 -198.7,126.95 -248.5,254.66 -5.4,13.86 -10.1,27.72 -14.2,41.58 4.1,-13.86 8.8,-27.72 14.2,-41.58 49.8,-127.71 145.2,-220.01 248.5,-254.66 v 0" />
      </g>
      <g transform="scale(1.19664)" id="g216">
        <path id="path218" style="fill:#371a45;fill-opacity:1;fill-rule:nonzero;stroke:none"
          d="m 16204.7,8354.32 c -29.5,0 -59.2,5.1 -88.2,14.79 v 0 c 29,-9.69 58.7,-14.79 88.2,-14.79 v 0 m 69.6,10.03 c 6.3,1.84 12.7,4.01 18.9,6.44 0.3,0.16 0.6,0.25 0.9,0.33 -0.3,-0.08 -0.6,-0.17 -0.9,-0.33 -6.2,-2.43 -12.6,-4.6 -18.9,-6.44 m 20.1,6.94 c 0.2,0.08 0.3,0.08 0.5,0.17 -0.2,-0.09 -0.3,-0.09 -0.5,-0.17 m 0.8,0.33 c 0.2,0.09 0.4,0.17 0.5,0.17 -0.1,0 -0.3,-0.08 -0.5,-0.17 m 0.9,0.34 c 0.1,0.08 0.3,0.08 0.4,0.16 -0.1,-0.08 -0.3,-0.08 -0.4,-0.16 m 2.1,0.92 c 0.1,0 0.2,0 0.3,0.08 -0.1,-0.08 -0.2,-0.08 -0.3,-0.08 m 0.8,0.33 c 0.1,0 0.2,0 0.2,0.08 0,-0.08 -0.1,-0.08 -0.2,-0.08 m 0.8,0.33 c 0.1,0 0.1,0 0.2,0 -0.1,0 -0.1,0 -0.2,0" />
      </g>
      <g transform="scale(1.20882)" id="g220">
        <path id="path222" style="fill:#2976b4;fill-opacity:1;fill-rule:nonzero;stroke:none"
          d="m 16041.3,8270.12 c -29.2,0 -58.6,5.05 -87.3,14.64 -101,33.92 -194.4,124.25 -243.2,249.25 -5.3,13.57 -9.9,27.13 -13.9,40.7 -24.5,83.72 -24.4,167.52 -3.6,239.24 -4.8,-16.63 -8.4,-33.92 -10.9,-51.7 14.7,25.73 32.7,48.64 54,67.75 4.3,-15.96 9.6,-31.93 15.8,-47.81 62.6,-160.57 198.8,-263.9 330.5,-263.9 29.7,0 59.2,5.22 87.7,16.38 27.4,10.67 51.8,26.14 73.1,45.33 17,-61.87 20.7,-123.67 12.7,-180.42 23.9,42.02 39,91.58 43.8,145.02 -10.2,-116.39 -68.9,-214.84 -164.3,-255.46 -0.1,0 -0.1,0 -0.2,0 -0.1,-0.08 -0.3,-0.16 -0.5,-0.24 -0.1,-0.09 -0.2,-0.09 -0.3,-0.09 -0.2,-0.08 -0.3,-0.16 -0.5,-0.25 -0.1,-0.08 -0.1,-0.08 -0.2,-0.08 -0.6,-0.25 -1.2,-0.49 -1.8,-0.74 0,-0.08 -0.2,-0.08 -0.4,-0.17 -0.1,-0.08 -0.2,-0.08 -0.3,-0.16 -0.2,0 -0.3,-0.08 -0.5,-0.17 -0.1,-0.08 -0.3,-0.08 -0.3,-0.16 -0.2,-0.09 -0.4,-0.09 -0.5,-0.17 -0.2,-0.08 -0.3,-0.08 -0.4,-0.17 -0.2,-0.08 -0.5,-0.16 -0.8,-0.33 -6.2,-2.4 -12.5,-4.55 -18.8,-6.37 -22.6,-6.7 -45.6,-9.92 -68.9,-9.92" />
      </g>
      <g transform="scale(1.20713)" id="g224">
        <path id="path226" style="fill:#ffffff;fill-opacity:1;fill-rule:nonzero;stroke:none"
          d="m 16300,8741.65 c 0,0 0,0.09 -0.1,0.17 0,-0.08 0.1,-0.17 0.1,-0.17 m -0.4,1.25 c -0.3,0.91 -0.7,1.82 -0.9,2.65 0.2,-0.83 0.6,-1.74 0.9,-2.65 m -0.9,2.73 c -2.2,6.13 -4.4,12.34 -6.8,18.47 -62.8,160.88 -199.1,264.35 -331.1,264.35 -12.2,0 -24.4,-0.91 -36.6,-2.74 v 0 c 12.2,1.83 24.4,2.74 36.6,2.74 132,0 268.3,-103.47 331.1,-264.35 2.4,-6.13 4.6,-12.34 6.8,-18.47" />
      </g>
      <g transform="scale(1.1793)" id="g228">
        <path id="path230" style="fill:#afa3b5;fill-opacity:1;fill-rule:nonzero;stroke:none"
          d="m 16238.7,9221.06 c 0.1,0 0.1,0 0.2,0 -0.1,0 -0.1,0 -0.2,0 m 1,0.42 c 0.1,0 0.2,0.09 0.3,0.09 -0.1,0 -0.2,-0.09 -0.3,-0.09 m 1,0.43 c 0.1,0 0.2,0.08 0.4,0.08 -0.2,0 -0.3,-0.08 -0.4,-0.08 m 1.1,0.42 c 0.1,0.08 0.2,0.08 0.3,0.17 -0.1,-0.09 -0.2,-0.09 -0.3,-0.17 m 1.3,0.59 c 0.1,0 0.3,0.09 0.3,0.09 0,0 -0.2,-0.09 -0.3,-0.09 m 1,0.34 c 0.1,0.09 0.3,0.17 0.4,0.26 -0.1,-0.09 -0.3,-0.17 -0.4,-0.26 m 1,0.43 c 0.2,0.08 0.3,0.17 0.5,0.17 -0.2,0 -0.3,-0.09 -0.5,-0.17 m 1.1,0.42 c 0.1,0.09 0.3,0.17 0.4,0.17 -0.1,0 -0.3,-0.08 -0.4,-0.17 m 1.4,0.6 c 17.1,6.69 34.7,11.27 52.4,13.99 v 0 c -17.7,-2.72 -35.3,-7.3 -52.4,-13.99" />
      </g>
      <g transform="scale(1.20921)" id="g232">
        <path id="path234" style="fill:#a7dcf9;fill-opacity:1;fill-rule:nonzero;stroke:none"
          d="m 16294.7,8541.82 c 2.9,32.92 1.9,67.16 -3.1,102.06 -14.7,-25.31 -32.5,-47.81 -53.4,-66.66 -4.4,15.96 -9.7,31.84 -15.8,47.72 -62.7,160.51 -198.7,263.89 -330.4,263.89 -29.7,0 -59.2,-5.29 -87.7,-16.37 -27.4,-10.67 -51.8,-26.14 -73,-45.33 -5.3,19.19 -9.3,38.38 -12.1,57.4 -13,-22.5 -23.3,-47.14 -31,-73.44 23.8,82.86 75.2,149.68 148.8,181.85 0.1,0 0.1,0 0.1,0 0.3,0.17 0.5,0.25 0.9,0.42 0,0 0.1,0.08 0.3,0.08 0.2,0.08 0.4,0.25 0.7,0.33 0,0 0.1,0.08 0.3,0.08 0.2,0.17 0.5,0.25 0.7,0.34 0.1,0.08 0.2,0.08 0.3,0.16 0.3,0.09 0.6,0.25 1,0.41 0.1,0 0.2,0.09 0.3,0.09 0.3,0.08 0.4,0.16 0.7,0.24 0,0.09 0.2,0.17 0.4,0.25 0.1,0.09 0.4,0.09 0.6,0.17 0.1,0.08 0.2,0.16 0.4,0.16 0.2,0.09 0.4,0.17 0.6,0.25 0.1,0.09 0.3,0.17 0.4,0.17 0.3,0.16 0.6,0.24 1,0.41 v 0 c 16.7,6.53 33.8,11 51.1,13.64 12.1,1.83 24.3,2.73 36.5,2.73 131.8,0 267.8,-103.28 330.5,-263.89 2.4,-6.12 4.6,-12.32 6.8,-18.44 v -0.08 c 0.2,-0.83 0.5,-1.74 0.9,-2.65 0.1,-0.33 0.2,-0.74 0.3,-1.07 0.1,-0.08 0.1,-0.17 0.1,-0.17 21.1,-62.77 28.1,-126.03 22.8,-184.75" />
      </g>
      <g transform="scale(1.20904)" id="g236">
        <path id="path238" style="fill:#a9c8e1;fill-opacity:1;fill-rule:nonzero;stroke:none"
          d="m 16253.3,8398.09 c 8,56.74 4.4,118.52 -12.7,180.39 20.9,18.86 38.7,41.36 53.4,66.67 5,-34.91 6,-69.15 3.1,-102.07 -4.8,-53.43 -19.8,-102.97 -43.8,-144.99 m -573.7,362.6 c 2.5,17.79 6.1,35.07 10.9,51.7 7.7,26.3 18,50.95 31,73.44 2.8,-19.02 6.8,-38.21 12.1,-57.4 -21.3,-19.1 -39.3,-42.01 -54,-67.74" />
      </g>
      <g transform="scale(1.21442)" id="g240">
        <path id="path242" style="fill:#371a45;fill-opacity:1;fill-rule:nonzero;stroke:none"
          d="m 15865.9,8912.67 c -22.4,0 -44.5,-3.95 -65.6,-12.27 -121.5,-47.35 -168.3,-219.28 -104.4,-383.23 64,-163.94 214.9,-258.72 336.3,-211.38 56.2,21.91 98.6,71.97 119.3,140.9 22.3,74.27 17.1,160.4 -15,242.33 -52.8,135.38 -164.8,223.65 -270.6,223.65 z m 102.5,-742.25 c -156.2,0 -315.7,117.84 -387.5,301.87 -88.7,227.36 -10.5,471.09 174.5,543.23 184.9,72.13 407.5,-54.18 496.2,-281.62 42,-107.54 48.4,-222.16 18.2,-322.79 -32,-106.14 -100.4,-184.36 -192.7,-220.35 -35.2,-13.75 -71.9,-20.34 -108.7,-20.34" />
      </g>
      <g transform="scale(1.26104)" id="g244">
        <path id="path246" style="fill:#371a45;fill-opacity:1;fill-rule:nonzero;stroke:none"
          d="m 16188,7448.44 c -40.3,0 -78.2,24.82 -92.9,64.79 l -241.5,652.95 c -25,67.96 -14.5,143.37 28.3,201.74 l 170.9,233.53 c 3.4,4.68 4.2,10.79 2.1,16.1 l -338.7,862.14 c -20,50.99 5.1,108.49 56.1,128.55 50.9,19.9 108.4,-5.08 128.5,-56.06 l 338.6,-862.15 c 27.1,-68.99 17.1,-145.83 -26.6,-205.62 l -171,-233.62 c -3.3,-4.6 -4.1,-10.55 -2.1,-15.86 l 241.3,-652.95 c 19,-51.31 -7.2,-108.32 -58.6,-127.36 -11.3,-4.12 -23,-6.18 -34.4,-6.18" />
      </g>
      <g transform="scale(1.13018)" id="g248">
        <path id="path250" style="fill:#ffffff;fill-opacity:1;fill-rule:nonzero;stroke:none"
          d="m 13910.1,8770.48 c 0,0 -148.4,-210.94 -89,-461.17 68.7,-289.42 271.2,-361.18 271.2,-361.18 0,0 857.2,-207.05 1983,372.86 0,0 224.7,560.8 -240.6,722.72 0,0 -1215.4,-512.84 -1924.6,-273.23" />
      </g>
      <g transform="scale(1.11517)" id="g252">
        <path id="path254" style="fill:#8c7b94;fill-opacity:1;fill-rule:nonzero;stroke:none"
          d="m 16291.8,8433.1 c 0.4,1.16 3.5,9.24 8.2,23.04 -4.9,-14.79 -8.2,-22.95 -8.2,-22.95 v 0" />
      </g>
      <g transform="scale(1.11936)" id="g256">
        <path id="path258" style="fill:#b9afbe;fill-opacity:1;fill-rule:nonzero;stroke:none"
          d="m 14636.5,7988.79 c -257.7,0 -408,36.36 -408,36.36 0,0 -204.4,72.46 -273.6,364.32 -36,151.33 3.7,288.56 40.8,374.41 0.5,-4.91 1.7,-9.74 2.9,-14.65 0.7,-2.86 1.4,-5.81 2.1,-8.67 52.3,-209.04 233.6,-361.19 448.1,-381.47 62.5,-5.89 140.3,-10.45 231.7,-10.45 360.5,0 931.2,71.2 1594,412.74 0,0 2.5,5.72 5.7,16.26 19.8,-149.82 -22.5,-297.76 -41.2,-353.15 -4.7,-13.76 -7.8,-21.8 -8.2,-22.96 -663.1,-341.54 -1233.9,-412.74 -1594.3,-412.74" />
      </g>
      <g transform="scale(1.13253)" id="g260">
        <path id="path262" style="fill:#371a45;fill-opacity:1;fill-rule:nonzero;stroke:none"
          d="m 14104.7,8062.32 c 93.5,-18.45 852.1,-146.48 1825.7,337.92 24.8,86.44 50.8,239.46 -0.8,351.6 -25.2,54.75 -67.2,96.25 -128,125.74 -236,-93.16 -1182.1,-439.46 -1850.4,-286.53 -26.2,-65.87 -50.6,-163.62 -25.9,-267.46 43.5,-183.39 151.5,-247.5 179.4,-261.27 z m 363.5,-303.74 c -262.9,0 -421.9,36.73 -437.2,40.44 l -13.5,3.97 c -101.1,35.85 -290.2,172.53 -357.9,457.56 -72.6,306.04 102.4,559.63 110,570.32 l 58.6,83.44 96.7,-32.67 c 650.1,-219.51 1812.3,264.19 1823.9,269.04 l 48.3,20.4 49.6,-17.22 c 155.4,-54.04 270.1,-154.26 331.7,-289.71 121.6,-266.92 4.1,-576.76 -9.8,-611.2 l -19,-47.23 -45.2,-23.4 C 15426,7832.92 14842,7758.58 14468.2,7758.58" />
      </g>
      <g transform="scale(1.32416)" id="g264">
        <path id="path266" style="fill:#371a45;fill-opacity:1;fill-rule:nonzero;stroke:none"
          d="m 15316,4640.38 c -245.3,0 -520.2,62.83 -801.7,244.91 -35,22.73 -45,69.48 -22.4,104.44 22.7,35.04 69.6,45.01 104.5,22.43 813.9,-526.52 1564.2,52.34 1571.7,58.23 32.7,25.82 80.2,20.31 106.1,-12.46 25.8,-32.71 20.2,-80.21 -12.5,-106.03 -5.8,-4.53 -403.6,-311.52 -945.7,-311.52" />
      </g>
      <g transform="scale(1.1699)" id="g268">
        <path id="path270" style="fill:#371a45;fill-opacity:1;fill-rule:nonzero;stroke:none"
          d="m 15110.4,5274.12 c -300.9,0 -633.4,71.97 -960.5,283.61 -39.7,25.64 -51,78.55 -25.4,118.13 25.7,39.66 78.6,50.95 118.2,25.39 925.7,-598.85 1903,35.38 1912.7,41.88 39.3,26.07 92.4,15.3 118.5,-24.02 26.1,-39.32 15.3,-92.4 -24,-118.47 -7.3,-4.79 -503.1,-326.52 -1139.5,-326.52" />
      </g>
      <path id="path272" style="fill:#371a45;fill-opacity:1;fill-rule:nonzero;stroke:none"
        d="m 15492.8,8919.5 c -11.1,0 -22.3,1.9 -33.4,5.8 -10.9,3.8 -1095,381.5 -1575.3,14.7 -44,-33.5 -106.7,-25 -140.2,18.8 -33.5,43.9 -25.1,106.7 18.8,140.2 566.4,432.3 1714.9,32 1763.6,14.8 52,-18.5 79.2,-75.6 60.8,-127.7 -14.6,-41 -53.2,-66.6 -94.3,-66.6" />
      <g transform="scale(1.3311)" id="g274">
        <path id="path276" style="fill:#371a45;fill-opacity:1;fill-rule:nonzero;stroke:none"
          d="m 16145.2,11731.5 c -1070.9,0 -1254.3,990.9 -1256,1001.2 -7,40.8 20.4,79.7 61.2,86.7 41.4,7.4 79.8,-20.3 86.9,-61.1 6.7,-38.5 174.1,-919.9 1182.4,-874.9 1.1,0 2.2,0 3.4,0 39.9,0 73.1,-31.4 75,-71.7 1.9,-41.5 -30.3,-76.6 -71.6,-78.4 -27.6,-1.2 -54.8,-1.8 -81.3,-1.8" />
      </g>
      <g transform="scale(1.21289)" id="g278">
        <path id="path280" style="fill:#b9afbe;fill-opacity:1;fill-rule:nonzero;stroke:none"
          d="m 12987.4,9470.11 v 0 l -74.3,522.39 c 524.8,45.2 1044.1,191 1527.6,439.2 69.8,36 139.4,74.3 207.1,113.9 188.9,111.4 369.1,238 535.4,376.3 142.1,118 276.7,246 399.6,380 142.3,154.4 274,321.7 392.4,498.2 l 65.9,55.8 c 76.6,-81.5 166.6,-174 258.9,-274.2 -304.1,-552.4 -809.9,-1168.1 -1648.9,-1621.19 -591.6,-318.99 -1159.8,-454.95 -1663.7,-490.4" />
      </g>
      <path id="path282" style="fill:#b9afbe;fill-opacity:1;fill-rule:nonzero;stroke:none"
        d="m 15410.2,11474.3 c -144.2,0 -282.9,6.6 -415.4,17.8 -271.2,22.7 -536.3,79.5 -790.4,166.4 44.9,134.2 100.4,262.6 169.9,383 27,39.9 52.5,80.9 79.5,120.7 257.6,-40.5 518,-60.8 778.7,-60.8 143.3,0 286.7,6.1 429.7,18.4 l 90.1,-633.6 v 0 c -71.1,-5 -140.9,-8.2 -209.7,-10 -44.7,-1.2 -88.8,-1.9 -132.4,-1.9" />
      <path id="path284" style="fill:#371a45;fill-opacity:1;fill-rule:nonzero;stroke:none"
        d="m 14204.4,11658.5 c -49.4,17 -98.4,35 -147,54.2 62.6,186.7 140.5,344.9 227.6,479.1 56.1,-10.8 112.4,-20.7 168.8,-29.6 -27,-39.8 -52.5,-80.8 -79.5,-120.7 -69.5,-120.4 -125,-248.8 -169.9,-383" />
      <g transform="scale(1.34582)" id="g286">
        <path id="path288" style="fill:#ffffff;fill-opacity:1;fill-rule:nonzero;stroke:none"
          d="m 14903.9,13003 c 51.3,-599.4 -46.8,-1214.2 -306.2,-1786.1 -53,-116.6 -112.3,-231.1 -178.5,-343.3 -32,-54.8 -66.2,-109.1 -101.6,-163.1 -107.5,-162.2 -225.8,-312.6 -353.7,-451.4 -109.9,-119.8 -227,-230.7 -349.6,-332.56 -148.1,-123.04 -304.9,-232.72 -468.3,-329.09 -59.7,-34.93 -120.1,-68.14 -181.3,-99.72 -1120.9,-575.19 -2511,-544.57 -3635.71,201.07 -1657.06,1098.1 -2109.85,3331.6 -1011.95,4988.5 211.61,318.9 465.29,593.9 749.06,820.9 32.92,26.8 66.8,52.8 101.13,78.1 91.32,68.1 185.38,131.5 281.91,190.1 223.28,135.4 459.65,245 703.96,328.2 244.1,83.3 496.8,140.3 752.7,169.8 81.3,9.4 162.9,16.2 245.1,20 123.1,5.6 246.3,5.3 370.2,-1.9 616.6,-34 1232.6,-227.5 1784.5,-593.5 953.3,-631.6 1507.8,-1638.9 1598.3,-2696" />
      </g>
      <g transform="scale(1.34673)" id="g290">
        <path id="path292" style="fill:#371a45;fill-opacity:1;fill-rule:nonzero;stroke:none"
          d="m 11312,16276.2 c -55.7,0 -111.8,-1.2 -168.2,-3.7 -80.3,-3.8 -162.5,-10.5 -244.1,-20 -255,-29.4 -507.3,-86.3 -750,-169.2 -245.19,-83.4 -481.1,-193.5 -701.34,-326.9 -95.86,-58.2 -190.38,-121.9 -280.9,-189.4 -35.64,-26.2 -69.5,-52.4 -100.61,-77.8 -287.88,-230.2 -539.01,-505.4 -746.4,-817.9 C 7228.3,13023 7680.53,10793.5 9328.67,9701.27 c 1080.03,-716.02 2467.93,-792.73 3622.23,-200.26 60.9,31.49 121.7,64.9 180.7,99.43 164.5,96.97 321.4,207.32 466.4,327.83 124,102.83 241.1,214.33 348.4,331.23 128.3,139.2 246.9,290.5 352.4,449.8 38.8,59.2 71.9,112.3 101.2,162.4 64.7,109.6 124.5,224.7 177.8,342.1 251.7,555 357.3,1170.3 305.1,1779.4 -94,1098.9 -674.4,2077.9 -1592.3,2686 -530.8,352 -1145.6,556.4 -1777.9,591.3 -65.8,3.9 -132.8,5.7 -200.7,5.7 m -1.2,-7193.01 c -698.1,0 -1393.45,201.6 -1994.16,599.89 C 7658.48,10782 7203.47,13025.1 8302.26,14683.3 c 208.65,314.4 461.26,591.3 750.85,822.9 31.41,25.6 65.49,51.9 101.43,78.3 90.96,67.9 186.08,132 282.54,190.5 221.57,134.3 458.89,245 705.52,329 244.2,83.4 498,140.6 754.5,170.2 82.2,9.5 164.9,16.2 245.7,20 125.8,5.8 250.6,5.1 371.2,-1.8 636.1,-35.2 1254.6,-240.9 1788.6,-595 923.5,-611.8 1507.4,-1596.8 1602.1,-2702.3 52.4,-612.9 -53.8,-1231.9 -307,-1790.3 -53.7,-118.1 -113.8,-233.9 -178.9,-344.2 -29.4,-50.3 -62.8,-103.7 -101.8,-163.4 -106.2,-160.2 -225.5,-312.5 -354.5,-452.5 -107.9,-117.6 -225.8,-229.7 -350.6,-333.21 -145.8,-121.26 -303.7,-232.27 -469.3,-329.91 -59.3,-34.75 -120.4,-68.32 -181.7,-99.95 -519.2,-266.5 -1085.6,-398.44 -1650.1,-398.44" />
      </g>
      <g transform="scale(1.20784)" id="g294">
        <path id="path296" style="fill:#b9afbe;fill-opacity:1;fill-rule:nonzero;stroke:none"
          d="m 12611.3,10260.6 c -630.2,0 -1258.4,152.5 -1826.4,454.3 102.5,89.9 184.3,203.6 242.6,337.6 464.2,-314.4 987.7,-513.9 1553.5,-588.2 158.8,-20.9 319.1,-31.1 479.7,-31.1 392.6,0 787.6,61.3 1170.7,180 -515.4,-235.8 -1068.5,-352.6 -1620.1,-352.6 m 449.9,382 c -151.7,0 -303.1,9.7 -452.8,29.4 -552.9,72.6 -1063.2,272.4 -1513.1,588.8 17.6,77 28.2,156.6 32.1,238 107.8,-35 216.4,-65.1 325.8,-90.4 505.3,-306.7 1065.5,-452.2 1628.7,-452.2 406.2,0 814.1,75.6 1204,221.3 804.1,300 1532.2,897.1 2014.1,1739.6 -41.9,-125.2 -90.2,-248.3 -144.9,-368.8 -57.8,-127.5 -122.7,-252.3 -193.1,-371.6 -31.7,-54.2 -67.7,-111.9 -109.6,-175.9 -114.5,-172.8 -243.1,-336.9 -382.3,-488 -20.1,-21.9 -40.5,-43.6 -61.1,-65 -698,-522.7 -1529.4,-805.3 -2347.8,-805.2 m -4205.56,2497.6 c -33.78,126 -61.27,253.5 -82.3,382.1 52.08,-104.6 108.96,-207.1 170.47,-307.3 -31.04,-22.9 -60.44,-47.9 -88.17,-74.8" />
      </g>
      <g transform="scale(1.35277)" id="g298">
        <path id="path300" style="fill:#371a45;fill-opacity:1;fill-rule:nonzero;stroke:none"
          d="m 11261.5,16130.9 c -54.3,0 -109.1,-1.3 -164.1,-3.8 -78.3,-3.6 -158.3,-10.2 -238,-19.4 -248.8,-28.7 -494.9,-84.2 -731.5,-165 -239.13,-81.4 -469.25,-188.7 -684,-318.9 -93.36,-56.7 -185.54,-118.8 -273.81,-184.6 -34.89,-25.8 -67.64,-51 -97.72,-75.5 -281.28,-224.9 -526.11,-493.4 -728.43,-798.1 -1065.05,-1607.4 -623.98,-3781.8 983.31,-4846.93 1053.15,-698.27 2406.85,-773.15 3532.65,-195.3 59.4,30.6 118.8,63.28 176.3,96.99 160.2,94.47 313.3,202.1 454.7,319.56 120.8,100.28 235.1,209.08 339.6,322.98 125.3,135.9 240.9,283.4 343.9,438.8 37.7,57.6 70,109.5 98.5,158.2 63.2,107.2 121.6,219.5 173.6,334 245.5,541.1 348.4,1141.1 297.5,1735.2 -91.7,1071.5 -657.8,2026.4 -1553,2619.5 -517.6,343.2 -1117.1,542.6 -1733.7,576.6 -64.2,3.8 -129.6,5.7 -195.8,5.7 m -1.2,-7160.99 c -709.1,0 -1415.29,204.77 -2025.45,609.35 C 7550.67,10695.3 7088.49,12973.7 8204.52,14658 c 211.93,319.3 468.52,600.5 762.8,835.8 31.57,25.8 66.53,52.8 103.2,79.8 92.11,68.6 188.65,133.8 286.67,193.3 225.1,136.4 466.23,248.8 716.71,334.1 247.9,84.6 505.7,142.8 766.3,172.8 83.4,9.7 167.4,16.6 249.5,20.4 127.8,5.8 254.6,5.1 377.1,-1.9 646,-35.7 1274.3,-244.6 1816.7,-604.2 937.9,-621.6 1531,-1622 1627.2,-2744.8 53.3,-622.6 -54.6,-1251.3 -311.9,-1818.5 -54.5,-120 -115.6,-237.6 -181.7,-349.6 -29.8,-51 -63.6,-105.1 -103,-165.5 -108.2,-163.2 -229.3,-317.8 -360.4,-460 -109.6,-119.4 -229.3,-233.28 -356,-338.48 -148.2,-123.15 -308.6,-235.96 -476.7,-335.09 -60.4,-35.33 -122.4,-69.48 -184.6,-101.49 -527.4,-270.71 -1102.7,-404.73 -1676.1,-404.73" />
      </g>
      <g transform="scale(1.35478)" id="g302">
        <path id="path304" style="fill:#371a45;fill-opacity:1;fill-rule:nonzero;stroke:none"
          d="m 11244.8,16082.7 c -53.9,0 -108.2,-1.3 -162.8,-3.8 -77.5,-3.6 -157,-10 -236,-19.2 -246.6,-28.5 -490.7,-83.4 -725.3,-163.7 -237.17,-80.7 -465.33,-187 -678.2,-316.1 -92.71,-56.2 -184.02,-117.8 -271.56,-183.1 -34.69,-25.5 -67.02,-50.5 -96.69,-74.7 -279.09,-223.2 -521.93,-489.4 -722.48,-791.6 -1056.12,-1593.9 -618.78,-3749.8 974.99,-4806.04 1044.34,-692.44 2386.54,-766.62 3502.94,-193.68 58.9,30.34 117.8,62.74 174.9,96.18 158.8,93.66 310.6,200.32 450.7,316.8 119.9,99.54 233.2,207.24 336.9,320.34 124.2,134.7 238.8,281 340.9,435.1 37.3,57.1 69.4,108.5 97.7,156.8 62.7,106.4 120.6,217.7 172.1,331.3 243.5,536.5 345.5,1131.5 295.1,1720.5 -91,1062.6 -652.2,2009.4 -1539.9,2597.5 -513.3,340.4 -1107.8,538.1 -1719.1,571.9 -63.7,3.6 -128.7,5.5 -194.2,5.5 m -1.3,-7150.32 c -712.6,0 -1422.56,205.86 -2035.8,612.42 -1692.75,1121.9 -2157.33,3411.9 -1035.52,5104.8 212.95,321 470.93,603.6 766.69,840.2 31.67,25.8 66.88,53 103.86,80.2 92.41,68.9 189.48,134.3 288.02,194.1 226.23,137.2 468.63,250.2 720.45,335.9 249.1,85.1 508.2,143.6 770,173.7 84,9.8 168.3,16.7 250.9,20.5 128.5,5.8 255.9,5.2 379.1,-1.9 649.2,-35.8 1280.8,-245.9 1825.9,-607.4 942.8,-624.7 1539,-1630.1 1635.6,-2758.7 53.5,-625.7 -54.9,-1257.9 -313.5,-1828 -54.8,-120.5 -116.2,-238.7 -182.6,-351.4 -30,-51.1 -63.9,-105.5 -103.6,-166.2 -108.8,-164 -230.5,-319.4 -362.2,-462.3 -110.1,-120.06 -230.6,-234.62 -357.8,-340.25 -148.9,-123.86 -310.2,-237.16 -479.3,-336.88 -60.7,-35.5 -122.9,-69.75 -185.4,-102.01 -530.2,-272.15 -1108.4,-406.78 -1684.8,-406.78" />
      </g>
      <g transform="scale(1.34471)" id="g306">
        <path id="path308" style="fill:#371a45;fill-opacity:1;fill-rule:nonzero;stroke:none"
          d="m 14876.3,12091.5 c -952.7,-2391.8 -3928.9,-3090.98 -5454.28,-1047.6 -1037.77,1390.2 -477.87,3479.6 921.18,4390.9 1018.2,663.2 2302.4,865.2 3763.8,-433.7 0,0 558.1,-675 679.4,-1288.9 121.4,-613.9 135.8,-1231.5 135.8,-1231.5 l -45.9,-389.2" />
      </g>
      <g transform="scale(1.22803)" id="g310">
        <path id="path312" style="fill:#220f2d;fill-opacity:1;fill-rule:nonzero;stroke:none"
          d="m 10317.3,12093.3 c 1670.3,-2237.52 4929.3,-1471.8 5972.6,1147 l 10.1,86.4 c -1875,-1776.5 -4828.5,-1897 -6559.28,333.9 41.77,-555 225.97,-1097.5 576.58,-1567.3" />
      </g>
      <g transform="scale(1.35299)" id="g314">
        <path id="path316" style="fill:#371a45;fill-opacity:1;fill-rule:nonzero;stroke:none"
          d="m 11464.6,16112.1 c -438.2,-68.6 -883,-248.5 -1322.1,-534.4 -785.47,-511.7 -1357.54,-1396.3 -1530.12,-2366.3 -157.65,-886 28.83,-1740 525.06,-2404.7 542.35,-726.4 1274.76,-1168.89 2118.26,-1279.61 882.9,-115.96 1819.5,156.03 2570.4,746.41 122.8,133.8 236.3,279 337.6,431.9 37.6,57.4 69.8,109.1 98.3,157.7 63,106.8 121.2,218.8 173.1,333 244.7,539.4 347.3,1137.7 296.6,1730 -91.5,1068.3 -655.8,2020.3 -1548.3,2611.7 -513.4,340.4 -1107.5,538.8 -1718.8,574.3 m 194.9,-6798.24 c -143.3,0 -286.4,9.17 -428.2,27.79 -894.6,117.45 -1670.43,585.45 -2243.68,1353.25 -527.49,706.5 -726.16,1611.8 -559.35,2549.2 181.52,1020 784.19,1950.9 1612.23,2490.3 464.8,302.7 937.7,492.5 1405.4,564.1 l 9.6,1.5 9.7,-0.6 c 647.9,-35.8 1277.7,-245.2 1821.6,-605.8 940.2,-623 1534.8,-1626 1631.2,-2751.6 53.5,-624.1 -54.7,-1254.6 -312.6,-1823.2 -54.6,-120.2 -116,-238.2 -182.2,-350.5 -29.9,-51 -63.7,-105.3 -103.3,-165.8 -108.5,-163.6 -229.9,-318.6 -361.3,-461.2 l -10.8,-10 c -671.2,-529.93 -1485.7,-817.44 -2288.3,-817.44" />
      </g>
      <path id="path318" style="fill:#ffffff;fill-opacity:1;fill-rule:nonzero;stroke:none"
        d="m 10758,13848.4 c 475.3,-828.9 1363.2,-1243 1983.2,-925 619.9,318.1 737.2,1247.9 261.9,2076.8 -475.3,828.9 -1363.2,1243.1 -1983.2,925 -619.9,-318 -737.2,-1247.8 -261.9,-2076.8" />
      <g transform="scale(1.0066)" id="g320">
        <path id="path322" style="fill:#371a45;fill-opacity:1;fill-rule:nonzero;stroke:none"
          d="m 10813.2,13829.7 c 433.5,-755.9 1231.3,-1142.8 1778.2,-862 201.7,103.5 346.9,288.3 419.9,534.4 115.5,390.2 33.6,886.5 -219.2,1327.6 -433.6,756 -1231.3,1142.7 -1778.2,862.1 -201.8,-103.5 -346.9,-288.3 -419.8,-534.5 -115.7,-390.2 -33.7,-886.5 219.1,-1327.6 m 1393.7,-1240.8 c -594.6,0 -1255,416.1 -1645.2,1096.6 -296,516.1 -385.5,1082.6 -245.7,1554.3 96,324 291.5,569.4 565.5,710 682.8,350.2 1652.7,-87.4 2162.1,-975.8 295.9,-516 385.4,-1082.6 245.8,-1554.3 -96.1,-324 -291.7,-569.5 -565.6,-710 -159.7,-82 -335.3,-120.8 -516.9,-120.8" />
      </g>
      <path id="path324" style="fill:#ffffff;fill-opacity:1;fill-rule:nonzero;stroke:none"
        d="m 11030.6,13201.8 c 552.4,-498.7 1255.2,-502.1 1569.9,-7.5 314.7,494.5 122.1,1299.7 -430.3,1798.4 -552.3,498.7 -1255.2,502 -1569.9,7.5 -314.6,-494.5 -122,-1299.7 430.3,-1798.4" />
      <path id="path326" style="fill:#371a45;fill-opacity:1;fill-rule:nonzero;stroke:none"
        d="m 11293.3,15353.8 c -42,0 -83.6,-2.8 -124.6,-8.3 -236.7,-32.1 -428.8,-154.4 -555.5,-353.5 -310.4,-487.7 -118.5,-1285.8 427.6,-1778.9 305.1,-275.5 666.1,-408.2 991.4,-364.1 236.7,32.1 428.7,154.3 555.4,353.4 310.4,487.8 118.6,1285.8 -427.5,1778.9 -266.7,240.8 -576.2,372.5 -866.8,372.5 m 614.5,-2543.6 c -298.3,0 -615.1,134.4 -887.4,380.3 -556.7,502.6 -751,1318.1 -433,1817.9 131.7,206.9 331.3,334 577.2,367.3 333.8,45 704.1,-90.2 1015.9,-371.7 556.7,-502.7 750.9,-1318.2 432.9,-1818 -131.7,-206.9 -331.3,-333.9 -577.1,-367.3 -42.4,-5.7 -85.3,-8.5 -128.5,-8.5" />
      <path id="path328" style="fill:#b9afbe;fill-opacity:1;fill-rule:nonzero;stroke:none"
        d="m 11987.1,12925.1 c -2.2,0 -4.4,0 -6.5,0 -594.4,3.8 -1222,524.5 -1402,1162.9 -10.6,38 -19.8,75.8 -26.7,112.7 277.8,-294.6 651.2,-487.8 1012.4,-489.9 2.1,0 4.2,0 6.3,0 555,0 882.5,453.4 770.2,1036.5 75.9,-80.5 144.7,-168.4 204.1,-262.1 230.6,-437.7 262.2,-937.8 42.7,-1282.8 -18.5,-29.1 -38.5,-56.7 -59.8,-82.5 -135.3,-123.1 -320,-194.8 -540.7,-194.8" />
      <path id="path330" style="fill:#b9afbe;fill-opacity:1;fill-rule:nonzero;stroke:none"
        d="m 12690.7,13337.5 c 89.3,223.5 97.6,488.5 34.9,753.9 1.7,-5.8 3.3,-11.6 5,-17.4 79.1,-280.6 58.5,-537.2 -39.9,-736.5" />
      <path id="path332" style="fill:#371a45;fill-opacity:1;fill-rule:nonzero;stroke:none"
        d="m 12527.8,13119.9 c 21.3,25.8 41.3,53.4 59.8,82.5 219.5,345 187.9,845.1 -42.7,1282.8 77.9,-122.8 139.8,-255.4 180.7,-393.8 62.7,-265.4 54.4,-530.4 -34.9,-753.9 -41.2,-83.4 -96,-156.7 -162.9,-217.6" />
      <path id="path334" style="fill:#371a45;fill-opacity:1;fill-rule:nonzero;stroke:none"
        d="m 11197.8,15294.8 c -95.8,0 -186.9,-19.8 -269.4,-61.3 -138.7,-69.7 -239.2,-198 -290.9,-371 -93.5,-313.1 -19.1,-725 198.8,-1101.7 356.5,-616.2 980.4,-949.6 1391.3,-743.1 138.6,69.8 239.2,198 290.9,371 93.5,313.2 19.1,725.1 -198.8,1101.8 -285,492.5 -740.8,804.3 -1121.9,804.3 z m 760.6,-2591.3 c -473.2,-0.1 -1006.5,352.3 -1341.1,930.6 -252.2,435.9 -335.3,922.1 -222.2,1300.8 72,241.4 217.1,422.9 419.6,524.7 537,270.2 1294.3,-99.8 1724,-842.4 252.2,-435.9 335.2,-922.2 222.2,-1300.9 -72.1,-241.4 -217.2,-422.8 -419.6,-524.6 -118.8,-59.8 -248.5,-88.2 -382.9,-88.2" />
      <g transform="scale(1.27796)" id="g336">
        <path id="path338" style="fill:#9b8da2;fill-opacity:1;fill-rule:nonzero;stroke:none"
          d="m 14844.9,13619.6 c 0,0 -61.6,337 -422.6,912 -118.8,189 -261.8,398.2 -522.1,646.5 -196.8,187.6 -439.9,320.7 -704.6,383.1 -1.3,0.4 -2.7,0.7 -3.9,1 -196.5,46.2 -396.7,65.6 -594.9,65.6 -1070.9,0 -2079.6,-569 -2079.6,-569 -85.1,30.4 629,1080.6 1979.1,1231.1 61,6.8 121.2,10.1 180.7,10.1 643.3,0 1187,-379.7 1544.5,-719.1 129.6,-122.9 234.6,-240.6 311.1,-333 l 0.5,-0.5 c 8.3,-10.8 16.4,-21.7 24.3,-32.8 34.3,-48 66.3,-95.9 95.6,-143.3 295.9,-481.9 328.2,-942.6 191.9,-1451.7" />
      </g>
      <g transform="scale(1.06583)" id="g340">
        <path id="path342" style="fill:#9b8da2;fill-opacity:1;fill-rule:nonzero;stroke:none"
          d="m 12462,14900.1 c -272.1,0 -536.6,207.3 -633.4,520.9 -115.2,373.6 51.3,756.6 371.9,855.5 51.5,15.9 103.8,23.5 155.9,23.5 272,0 536.5,-207.3 633.2,-520.8 115.3,-373.6 -51.1,-756.7 -371.8,-855.6 -51.4,-15.8 -103.8,-23.5 -155.8,-23.5" />
      </g>
      <path id="path344" style="fill:#9b8da2;fill-opacity:1;fill-rule:nonzero;stroke:none"
        d="m 13886.7,15203.5 c -168.6,80 -334.8,170.4 -496.9,271.1 34,74.2 95.6,129.8 174,146.9 16.5,3.6 33,5.3 49.4,5.3 127,0 245.7,-103.9 278.2,-252.8 12.9,-59.4 10.4,-118.1 -4.7,-170.5" />
      <path id="path346" style="fill:#918796;fill-opacity:1;fill-rule:nonzero;stroke:none"
        d="m 13647.1,15007.3 c -127,0 -245.7,103.9 -278.2,252.8 -16.7,76.7 -7.6,152.2 20.9,214.5 162.1,-100.7 328.3,-191.1 496.9,-271.1 -27.5,-95.7 -96.9,-170.5 -190.2,-190.8 -16.5,-3.6 -33,-5.4 -49.4,-5.4" />
      <g transform="scale(1.83112)" id="g348">
        <path id="path350" style="fill:#ffb200;fill-opacity:1;fill-rule:nonzero;stroke:none"
          d="m 15232.3,16300 c -13.2,-143.8 -35.1,-286.3 -65.8,-426.7 -42.8,-197.3 -102.5,-390.5 -178.2,-577.3 -327.9,-810.2 -955.9,-1500.5 -1815.3,-1889.2 -861.2,-389.5 -1796.5,-404.4 -2622.9,-113.8 -181.5,63.9 -357.7,142.5 -526.6,235.1 -132.52,72.5 -260.42,153.6 -383.13,242.9 865.03,217.5 1864.63,568.4 2899.23,1036.3 1034.5,467.9 1958.1,986.9 2692.7,1492.7" />
      </g>
      <g transform="scale(1.83112)" id="g352">
        <path id="path354" style="fill:#d66b09;fill-opacity:1;fill-rule:nonzero;stroke:none"
          d="m 12539.6,14807.3 c 1034.5,467.9 1958.1,986.9 2692.7,1492.7 -13.2,-143.8 -35.1,-286.3 -65.8,-426.7 -565.3,-410.7 -1468.5,-917.7 -2520.2,-1393.3 -1007.4,-455.7 -1946.4,-789.9 -2622.8,-951.9 -132.52,72.5 -260.42,153.6 -383.13,242.9 865.03,217.5 1864.63,568.4 2899.23,1036.3" />
      </g>
      <g transform="scale(2.27577)" id="g356">
        <path id="path358" style="fill:#ffb200;fill-opacity:1;fill-rule:nonzero;stroke:none"
          d="m 12141.1,14211 c -461.6,-373.3 -1373.3,-895.8 -2462.34,-1388.4 -1088.95,-492.5 -2083.52,-832.1 -2668.64,-932.1 -60.9,99.5 -116.14,203.8 -165.39,312.8 -2.29,5.2 -4.62,10.2 -6.9,15.4 -21.49,48.1 -41.44,96.4 -59.94,145.2 -43.5,113.8 -79.14,229 -107.08,344.7 -1.23,4.8 -2.33,9.4 -3.39,14.1 -40.64,172.2 -64.68,345.7 -72.54,518.4 -15.25,328.8 27.55,654.9 122.64,964.3 70.87,230.4 170.66,451.4 297.48,657.4 286.54,465.2 710.31,853 1245.73,1095.1 53.22,24.1 106.69,46.4 160.56,66.9 721.39,275.2 1493.78,235.9 2157.11,-57.5 4.2,-1.9 8.4,-3.7 12.6,-5.7 287.7,-128.7 554.7,-305.7 787.8,-525.4 113.9,-107.7 220,-225.6 316,-353.3 10.5,-13.8 20.8,-27.8 31,-41.9 8.5,-11.4 16.8,-23.1 25,-34.8 68.5,-97.5 131.4,-200.4 188.1,-308.2 21.2,-39.9 41.5,-80.7 60.8,-122 5.3,-11.4 10.5,-22.7 15.6,-34.2 49.3,-108.8 91.2,-219.4 125.8,-330.8" />
      </g>
      <g transform="scale(2.03505)" id="g360">
        <path id="path362" style="fill:#d66b09;fill-opacity:1;fill-rule:nonzero;stroke:none"
          d="m 13419,16300 c 6,-12.6 11.8,-25.3 17.6,-38.1 55.1,-121.8 101.9,-245.4 140.5,-370 -516.1,-417.4 -1535.6,-1001.7 -2753.5,-1552.5 -1217.8,-550.8 -2330.01,-930.6 -2984.24,-1042.4 -68.06,111.2 -129.93,228 -185.06,349.8 -2.6,5.7 -5.11,11.4 -7.62,17.2 620.38,68.5 1752.54,435.9 2994.02,997.4 1290.5,583.7 2345.7,1217.1 2778.3,1638.6" />
      </g>
      <g transform="scale(2.16055)" id="g364">
        <path id="path366" style="fill:#d66b09;fill-opacity:1;fill-rule:nonzero;stroke:none"
          d="m 6986.52,13869.3 c -15.32,0 -29.94,0.4 -43.97,1.1 l 7.96,153.8 c 410.5,-21.3 1480.69,318.1 2602.03,825.2 1338.26,605.2 2204.06,1187.9 2367.66,1450.6 l 130.7,-81.4 C 11842.6,15884 10841.3,15263.2 9616,14709 8493.5,14201.4 7450.76,13869.3 6986.52,13869.3" />
      </g>
      <g transform="scale(2.23693)" id="g368">
        <path id="path370" style="fill:#d66b09;fill-opacity:1;fill-rule:nonzero;stroke:none"
          d="m 6845.05,14378.5 -21.86,147.1 c 444.45,66 1214.03,330.2 2008.42,689.5 832.44,376.5 1553.19,792.2 1880.89,1084.9 l 99.1,-111 c -338.2,-302 -1073.43,-727.1 -1918.7,-1109.4 -806.06,-364.6 -1590.75,-633.2 -2047.85,-701.1" />
      </g>
      <g transform="scale(2.10602)" id="g372">
        <path id="path374" style="fill:#d66b09;fill-opacity:1;fill-rule:nonzero;stroke:none"
          d="m 7209.42,13669.2 c -1.71,0 -3.32,0 -4.98,0 l 0.76,158 c 1.52,0 3.08,0 4.65,0 485.28,0 1615.46,363.8 2816.05,906.8 1263.7,571.5 2325.2,1215.5 2581.2,1566 l 127.6,-93.2 C 12459.9,15830.6 11397.5,15180.9 10091,14590 8871.85,14038.6 7715.4,13669.2 7209.42,13669.2" />
      </g>
      <g transform="scale(1.722)" id="g376">
        <path id="path378" style="fill:#d66b09;fill-opacity:1;fill-rule:nonzero;stroke:none"
          d="m 11222.1,14087.2 -3.4,47.9 -18.1,45 6.9,2.8 7.7,0.6 c 508.9,36.7 1477.8,349.9 2468.5,798 996.1,450.5 1847.1,955.7 2220.8,1318.5 l 67.3,-69.3 c -381.1,-370.1 -1242.6,-882.5 -2248.3,-1337.3 -1015.5,-459.3 -1974,-768.3 -2501.4,-806.2" />
      </g>
      <g transform="scale(1.85297)" id="g380">
        <path id="path382" style="fill:#371a45;fill-opacity:1;fill-rule:nonzero;stroke:none"
          d="m 9751.33,13569.5 c 962.07,-615.4 2180.27,-708.3 3227.47,-234.7 1047.4,473.7 1782.1,1449.8 1955,2578.6 -722.6,-480.6 -1583.4,-950.8 -2503.1,-1366.7 -919.8,-416 -1841.3,-751.9 -2679.37,-977.2 m 1832.37,-723.8 c -747.2,0 -1489.6,232.8 -2112.57,686.6 l -162.98,118.8 195.58,49.1 c 879.87,221.4 1865.07,573.6 2849.17,1018.6 983.9,445 1898.9,952.2 2646.3,1466.9 l 166,114.3 -18.4,-200.8 c -117.7,-1281.5 -918.6,-2406.7 -2090.1,-2936.5 -470,-212.5 -972.6,-317 -1473,-317" />
      </g>
      <g transform="scale(2.08199)" id="g384">
        <path id="path386" style="fill:#d66b09;fill-opacity:1;fill-rule:nonzero;stroke:none"
          d="m 13313.6,16300 c 2.9,-6.4 5.1,-13 6.7,-20 l -6.7,20" />
      </g>
      <g transform="scale(2.12538)" id="g388">
        <path id="path390" style="fill:#ffcc4d;fill-opacity:1;fill-rule:nonzero;stroke:none"
          d="m 14613.5,15888.9 c 183.5,-405.5 -421.2,-1109.5 -1490.1,-1845.6 -632.9,-435.8 -1428.6,-883 -2319.9,-1286.1 -891.34,-403.1 -1752.6,-705.4 -2497.83,-892.8 -1258.65,-316.5 -2186.48,-305.6 -2369.88,99.9 -166.61,368.3 316.65,982.5 1206.98,1643.6 30.02,-124 68.13,-247.3 114.76,-369.2 -246.17,-201.3 -367.37,-361 -325.26,-454.1 42.86,-94.8 249.69,-108.1 573.92,-52.8 626.43,107.2 1691.37,470.8 2857.41,998.2 1166.2,527.4 2142.4,1086.9 2636.5,1486.6 255.6,206.8 382.2,370.9 339.3,465.7 -42.1,93 -242.1,107.6 -555.7,55.7 -60.7,115.5 -128.2,225.5 -201.4,329.9 1084.3,232.1 1864.7,189.3 2031.2,-179" />
      </g>
      <g transform="scale(2.08931)" id="g392">
        <path id="path394" style="fill:#ffec90;fill-opacity:1;fill-rule:nonzero;stroke:none"
          d="m 7197.58,12621.2 c -237.78,0 -419.08,49.4 -478.81,181.5 -85.44,188.8 109.41,473.4 579.09,846 l 74.18,-93.6 c -589,-467.2 -565.64,-656.4 -544.43,-703.2 73.56,-162.7 650.74,-174.6 1774.26,165.1 618.05,187.1 1316.85,454.3 2020.83,772.7 704,318.3 1366.1,666.7 1914.6,1007.2 997.2,619.4 1369.4,1060.7 1295.9,1223.3 -21.2,46.9 -147.8,189.4 -887.6,55.5 l -21.3,117.6 c 589.9,106.7 932.2,65 1017.7,-123.9 166.1,-367.2 -769.3,-1018.5 -1341.7,-1374 -552.9,-343.2 -1219.7,-694 -1928.4,-1014.6 -708.62,-320.5 -1412.49,-589.6 -2035.47,-778.1 -412.96,-124.9 -1015.41,-281.5 -1438.85,-281.5" />
      </g>
      <g transform="scale(2.11687)" id="g396">
        <path id="path398" style="fill:#ffec90;fill-opacity:1;fill-rule:nonzero;stroke:none"
          d="m 6933.44,12045.5 c -331.71,0 -603.34,67.3 -692.01,263.3 -164.2,363.1 411.55,902.1 923.54,1290.4 l 71.23,-94 c -655.78,-497.3 -987.49,-926.4 -887.35,-1147.8 59.39,-131.3 282.36,-200.2 629.66,-194.5 360.44,6.1 848.94,91.2 1412.7,246.2 694.7,190.9 1476,479.1 2259.49,833.4 783.4,354.3 1515.7,750.7 2117.8,1146.3 488.7,321 875.3,631.7 1117.9,898.3 233.3,256.5 329.2,470 269.8,601.3 -100.2,221.4 -641.4,255.6 -1448,91.7 l -23.4,115.5 c 629.6,128 1414.6,204.4 1578.8,-158.7 222.5,-491.9 -926.2,-1315.4 -1430.4,-1646.6 -607.1,-398.9 -1345,-798.4 -2133.9,-1155.2 -789.01,-356.8 -1576.3,-647.2 -2276.82,-839.7 -349.99,-96.2 -987.92,-249.8 -1489.04,-249.9" />
      </g>
      <g transform="scale(2.14654)" id="g400">
        <path id="path402" style="fill:#371a45;fill-opacity:1;fill-rule:nonzero;stroke:none"
          d="m 7024.45,13335.5 c -795.97,-609.4 -1205.51,-1162.4 -1072.93,-1455.6 155.27,-343.3 1018.33,-363.8 2252.41,-53.4 759.55,191 1610.03,495.1 2459.47,879.3 849.3,384.1 1639.3,821.9 2284.4,1266.2 1048,721.7 1602.7,1383.4 1447.3,1726.7 -132.5,293.1 -818.2,350.8 -1801.5,155.5 38.2,-59.4 74.5,-120.2 108.5,-182 338.8,49.5 523.6,13.8 580.1,-110.9 60.4,-133.7 -53.6,-311 -359,-558.2 -516.6,-417.8 -1499.1,-972.1 -2628.2,-1482.8 -1129.1,-510.6 -2194.16,-882.3 -2849.08,-994.4 -387.37,-66.1 -595.84,-34.7 -656.31,99 -56.41,124.9 38.95,287.2 299.83,509 -23.9,66.3 -45.61,133.7 -64.99,201.6 M 6754.2,11445.8 c -510.26,0 -840.97,123.1 -951.24,367 -241.6,534.1 661.15,1310.9 1220.8,1726.4 l 98.85,73.3 28.98,-119.6 c 29.16,-120.3 66.34,-240 110.5,-355.6 l 21.01,-55 -45.56,-37.2 c -320.65,-262.3 -299.74,-352.2 -299.36,-353 0.37,-0.8 55.71,-77.9 480.26,-5.4 632.41,108.1 1708.88,484.5 2809.36,982.2 1100.5,497.7 2094,1057.5 2592.9,1461 334.6,270.8 313.3,363.4 312.9,364.2 -0.4,0.8 -54.1,75.8 -462.6,8.3 l -58,-9.6 -27.5,52 c -57.6,109.7 -123,216.6 -194,317.9 l -70.8,100.8 120.5,25.7 c 681.5,145.9 1861,310.8 2102.5,-223.3 195.7,-432.7 -352.3,-1135.5 -1503.4,-1928.2 -653,-449.7 -1451.7,-892.4 -2309.7,-1280.5 -858.13,-388.1 -1718.11,-695.5 -2486.93,-888.8 -591.51,-148.8 -1094.32,-222.6 -1489.47,-222.6" />
      </g>
      <g transform="scale(2.25249)" id="g404">
        <path id="path406" style="fill:#ffd269;fill-opacity:1;fill-rule:nonzero;stroke:none"
          d="m 11938,14564.4 c -6.6,12.8 -13.2,25.6 -19.9,38.2 -57.3,109 -121,212.9 -190.1,311.4 -7.3,10.6 -14.9,21 -22.4,31.4 51.6,44.5 96.2,86.9 133.5,126.9 56,-83.2 107.8,-170 154.5,-258.7 0.2,-0.3 0.3,-0.5 0.4,-0.8 l 3,-5.6 c 23.3,-44.4 45.7,-90.2 66.9,-136.5 -38,-34.1 -80.1,-69.6 -125.9,-106.3 m -321.8,498.1 c -79.6,99.1 -165.2,191.9 -256,278.2 57.4,50.1 105.2,97.2 142.6,140.7 88.4,-88.7 171.5,-184.2 248.5,-286.2 -35.4,-40.9 -80.8,-85.3 -135.1,-132.7 m -4117.97,361.9 c 243.73,258.7 539.93,473.9 879.91,627.7 370.61,167.6 761.69,247.9 1148.24,247.9 349.21,0 694.62,-65.6 1017.82,-191.7 -58.1,-46.1 -124.1,-94.5 -197.4,-144.8 -307.7,109.9 -634.36,167.5 -965.46,167.5 -394.94,0 -796.23,-82 -1179.49,-255.4 -261.98,-118.5 -497.5,-271.5 -703.62,-451.2 m 3751.87,15.6 c -213.7,183.1 -452.2,332.7 -706.6,445 -10.6,4.7 -21.4,9.4 -32.1,13.9 69.9,50.3 132.3,98.5 186.3,144.2 251.9,-116.1 487.8,-270.3 698.1,-459.9 -35,-42 -83.7,-90 -145.7,-143.2" />
      </g>
      <g transform="scale(2.02735)" id="g408">
        <path id="path410" style="fill:#e7a86e;fill-opacity:1;fill-rule:nonzero;stroke:none"
          d="m 13377,15933.4 c -15.7,38.7 -32.2,77.3 -49.5,115.7 -5.9,12.8 -11.8,25.5 -17.7,38.1 -14.9,32 -30.2,63.5 -46.1,94.7 51,40.7 97.7,80.1 140,118.1 1.8,-3.9 3.5,-7.9 5.4,-11.8 v 0 c 39.7,-87.8 75.4,-177.7 106.7,-268.1 -44.9,-28.5 -91.2,-57.5 -138.8,-86.7" />
      </g>
      <g transform="scale(2.15343)" id="g412">
        <path id="path414" style="fill:#e7a86e;fill-opacity:1;fill-rule:nonzero;stroke:none"
          d="m 11882.7,16046.3 c -2.8,2.7 -5.7,5.4 -8.5,8.1 -34.8,32.9 -70.4,64.8 -106.6,95.8 64.8,55.7 115.8,105.9 152.4,149.8 38.2,-34.4 75.4,-69.9 111.9,-106.5 -39.1,-45.4 -89.1,-94.7 -149.2,-147.2" />
      </g>
      <g transform="scale(2.226)" id="g416">
        <path id="path418" style="fill:#e7a86e;fill-opacity:1;fill-rule:nonzero;stroke:none"
          d="m 10636.5,16088.1 c -54.8,23.5 -110.4,45.3 -166.6,65.4 74.2,50.9 141,99.9 199.8,146.5 52.3,-20.4 104.1,-42.4 155.3,-66 -54.7,-46.2 -117.8,-95 -188.5,-145.9" />
      </g>
      <g transform="scale(2.09982)" id="g420">
        <path id="path422" style="fill:#e7a86e;fill-opacity:1;fill-rule:nonzero;stroke:none"
          d="m 12556.6,16032 c -0.9,1.4 -2,2.8 -2.9,4.1 -30.1,41.5 -61,82 -92.9,121.6 58.3,50.8 106.9,98.4 144.9,142.3 21,-27.7 41.5,-55.8 61.5,-84.3 2.8,-4.1 5.7,-8.1 8.5,-12.2 2.7,-3.9 5.4,-7.9 8.2,-11.8 5.3,-7.8 10.7,-15.7 16,-23.6 -40,-42.8 -87.9,-88.3 -143.3,-136.1" />
      </g>
      <g transform="scale(2.08739)" id="g424">
        <path id="path426" style="fill:#897892;fill-opacity:1;fill-rule:nonzero;stroke:none"
          d="m 12945.9,15978.4 -3.2,6.1 c 1.1,-2.1 2.1,-4.1 3.2,-6.1 m -186.5,309.7 c -2.7,4 -5.5,8 -8.2,11.9 2.7,-3.9 5.5,-7.9 8.2,-11.9" />
      </g>
      <g transform="scale(2.31827)" id="g428">
        <path id="path430" style="fill:#371a45;fill-opacity:1;fill-rule:nonzero;stroke:none"
          d="m 9256.07,15837.5 c -375.58,0 -755.57,-78.1 -1115.66,-240.9 -1185.11,-536 -1823.73,-1841.1 -1518.59,-3103.3 27.01,-111.4 61.43,-222.1 102.32,-329.2 19.5,-51.3 40.98,-102.9 63.84,-153.4 39.43,-87.3 83.64,-172.7 131.65,-254.7 591.3,110.8 1560.43,452.6 2550.52,900.4 990.15,447.7 1886.75,949.8 2360.55,1320.7 -29.9,90.1 -64.9,179.7 -104.4,267 v 0 c -22.9,50.6 -47.4,100.8 -73,149.1 -53.5,101.7 -113.9,200.7 -179.7,294.4 -519.5,739.8 -1356.9,1149.9 -2217.53,1149.9 m -2412.14,-4248.1 -26.7,43.7 c -61.51,100.6 -117.68,206.7 -166.81,315.4 -24.11,53.3 -46.8,107.8 -67.33,161.8 -43.18,112.9 -79.5,229.9 -108.01,347.5 -322.18,1332.6 352.02,2710.5 1603.13,3276.3 1251.1,565.9 2730.99,162.2 3518.89,-959.7 69.5,-99 133.3,-203.6 189.8,-310.8 26.8,-50.9 52.8,-103.8 77,-157.3 v 0 c 49.2,-108.8 91.8,-221 126.7,-333.5 l 15.1,-48.9 -39.8,-32.1 c -478.3,-386.9 -1388.1,-900.2 -2433.51,-1373 -1045.47,-472.8 -2031.64,-817 -2638.04,-920.7 l -50.42,-8.7" />
      </g>
      <g transform="scale(1.74513)" id="g432">
        <path id="path434" style="fill:#cd9f4b;fill-opacity:1;fill-rule:nonzero;stroke:none"
          d="m 8290.91,14277.2 c -525.58,0 -869.51,112.3 -970.42,335.4 -100.39,221.9 51.86,565 412.23,970.8 -167.66,-235.9 -247.14,-463.8 -161.76,-652.6 107.56,-237.7 437.04,-319.4 839.42,-319.4 607.86,0.1 1381.68,186.5 1806.22,303.1 530.2,145.8 1101.5,337.7 1688.7,566.6 130.4,-21 277.9,-31.5 440.4,-31.5 127.2,0 263.7,6.4 408.5,19 -923,-397.3 -1836.9,-713.9 -2663.2,-921.8 -716.16,-180.1 -1330.62,-269.6 -1800.09,-269.6 m 126.35,476.2 c -393.9,0 -646.72,83.2 -716,236.3 -115.92,256.3 245.26,742.1 969.9,1310.3 1.04,-3.3 2.12,-6.6 3.16,-10 -516.76,-421.3 -728.83,-744.8 -630.44,-962.3 71.51,-158.2 288.57,-217.2 573.25,-217.2 506.95,0 1228.22,187.4 1722.67,337 309.6,93.6 635.7,203.9 972.1,328.3 71,-103.7 189.1,-181.9 348.1,-235.7 -514.4,-194.5 -1014,-359.3 -1481.3,-487.6 -683.87,-188 -1276.43,-291.3 -1713.65,-298.7 -16.16,-0.2 -32.09,-0.4 -47.79,-0.4 m 193.05,501.2 c -254.88,0 -399.05,50 -436.13,132 -20.8,46 -43.26,206.3 337.11,570.4 -160.33,-175.3 -211.33,-314.4 -159.93,-428.1 49.34,-109.1 178.96,-162.9 399.86,-162.9 95.86,0 208.92,10.2 340.09,30.3 l 0.34,-0.6 66.99,11.5 c 519.96,88.9 1250.26,310.9 2076.16,626.2 0,-44.5 5.5,-87 16.7,-127.5 -329.8,-121.7 -649.6,-229.8 -953.1,-321.6 -778.47,-235.3 -1337.86,-329.7 -1688.09,-329.7" />
      </g>
      <g transform="scale(1.74406)" id="g436">
        <path id="path438" style="fill:#cdb77d;fill-opacity:1;fill-rule:nonzero;stroke:none"
          d="m 8622.43,15119.8 c -284.85,0 -502.04,59.1 -573.6,217.3 -98.45,217.6 113.76,541.4 630.83,962.9 1.83,-5.7 3.67,-11.4 5.5,-17.1 v 0 c 0.34,-1.1 0.69,-2.2 1.09,-3.3 0.17,-0.6 0.4,-1.2 0.57,-1.9 0.18,-0.5 0.35,-0.9 0.46,-1.4 12.22,-37.4 24.94,-74.5 38.25,-111.4 -83.26,-70.8 -152.81,-136.7 -209,-198.1 -380.61,-364.3 -358.13,-524.7 -337.32,-570.7 37.1,-82.1 181.36,-132.1 436.4,-132.1 350.45,0 910.18,94.4 1689.09,329.9 303.7,91.9 623.7,200 953.7,321.8 6,-21.8 13.7,-43 23,-63.6 10.4,-23.2 23,-45.4 37.4,-66.6 -336.5,-124.5 -662.9,-234.8 -972.7,-328.5 -494.69,-149.7 -1216.4,-337.2 -1723.67,-337.2" />
      </g>
      <g transform="scale(1.75615)" id="g440">
        <path id="path442" style="fill:#cdb77d;fill-opacity:1;fill-rule:nonzero;stroke:none"
          d="m 8357.58,14519.7 c -399.85,0 -727.27,81.1 -834.15,317.3 -84.84,187.7 -5.86,414.2 160.75,648.6 223.61,251.9 527.8,528 901.8,814.4 9.79,-34.2 19.99,-68.4 30.75,-102.3 -720.1,-564.6 -1079,-1047.4 -963.81,-1302.1 68.84,-152.1 320.07,-234.8 711.5,-234.8 15.6,0 31.43,0.2 47.49,0.4 434.47,7.3 1023.31,109.9 1702.89,296.8 464.3,127.5 960.8,291.2 1472,484.5 72.8,-24.7 154.3,-44.1 243.7,-58.6 -583.4,-227.4 -1151.1,-418.2 -1678,-563 -421.91,-115.9 -1190.87,-301.2 -1794.92,-301.2" />
      </g>
      <g transform="scale(1.76736)" id="g444">
        <path id="path446" style="fill:#371a45;fill-opacity:1;fill-rule:nonzero;stroke:none"
          d="m 8195.63,14000.4 c -560.33,0 -938.74,125 -1057.51,387.6 -194.7,431 350.07,1141.6 1365.6,1912 19.8,-77.8 42.15,-155.3 66.94,-231.8 -1.81,5.6 -3.63,11.3 -5.44,16.9 -1.01,3.3 -2.09,6.6 -3.11,9.9 -10.69,33.7 -20.82,67.7 -30.55,101.7 -371.63,-284.6 -673.89,-559 -896.09,-809.2 -355.84,-400.8 -506.18,-739.5 -407.05,-958.7 99.65,-220.3 439.25,-331.1 958.22,-331.1 463.57,0 1070.3,88.4 1777.45,266.2 815.91,205.2 1718.31,517.8 2629.71,910.2 106.4,9.2 217.3,21.8 332.3,37.8 -554.3,-248.5 -1098.3,-464.4 -1617.7,-645.2 -463,-161.2 -906.5,-294.7 -1320.2,-398.8 -698.5,-175.7 -1312.36,-267.5 -1792.57,-267.5 m 445.53,1172.4 c -218.13,0 -346.11,53.1 -394.83,160.8 -50.75,112.3 -0.4,249.6 157.92,422.7 55.45,60.6 124.08,125.6 206.24,195.4 8.03,-22.2 16.24,-44.3 24.67,-66.4 4.07,-10.7 8.26,-21.5 12.45,-32.3 -241.89,-210.2 -356.98,-377.1 -311.09,-478.5 31.57,-69.8 136.76,-102.9 302.71,-102.9 80.24,0 174.67,7.8 281.84,22.8 7.01,-11.7 14.09,-23.4 21.21,-35.1 l 34.69,-56.6 c -129.52,-19.9 -241.15,-29.9 -335.81,-29.9 m -68.41,888.9 c -0.11,0.5 -0.28,0.9 -0.45,1.4 0.17,-0.5 0.34,-0.9 0.45,-1.4 m -1.02,3.3 c -0.39,1 -0.73,2.1 -1.07,3.2 0.34,-1.1 0.68,-2.2 1.07,-3.2" />
      </g>
      <g transform="scale(1.77435)" id="g448">
        <path id="path450" style="fill:#371a45;fill-opacity:1;fill-rule:nonzero;stroke:none"
          d="m 8941.93,15142.2 -0.34,0.5 -34.55,56.5 c -7.1,11.6 -14.15,23.2 -21.14,34.9 33.82,4.8 68.88,10.3 105.17,16.5 v 0 c 0.05,0 0.05,-0.1 0.05,-0.1 497.93,85.1 1226.98,305.5 2069.08,628.7 -7,-37.8 -10.5,-74.5 -10.5,-109.9 -812.3,-310 -1530.49,-528.4 -2041.89,-615.9 l -65.88,-11.2 m -328.41,648.3 c -4.17,10.8 -8.34,21.5 -12.4,32.2 -8.39,22 -16.57,44 -24.57,66.2 -13.07,36.3 -25.58,72.8 -37.59,109.5 -0.11,0.5 -0.28,0.9 -0.45,1.4 -0.17,0.7 -0.39,1.3 -0.56,1.9 -0.4,1 -0.74,2.1 -1.07,3.2 v 0 c -24.69,76.2 -46.95,153.4 -66.68,230.9 28.18,21.3 56.7,42.7 85.61,64.2 12.01,-49.4 25.03,-98.6 39.17,-147.7 28.29,-98.8 61.04,-197 98.29,-294.5 0,0 0.06,0 0.06,-0.1 -27.96,-22.8 -54.56,-45.3 -79.81,-67.2" />
      </g>
      <g transform="scale(2.10586)" id="g452">
        <path id="path454" style="fill:#33234a;fill-opacity:1;fill-rule:nonzero;stroke:none"
          d="m 7740.73,16296.2 c 0.95,1.3 1.85,2.5 2.8,3.8 -0.95,-1.3 -1.85,-2.5 -2.8,-3.8" />
      </g>
      <g transform="scale(2.1269)" id="g456">
        <path id="path458" style="fill:#33234a;fill-opacity:1;fill-rule:nonzero;stroke:none"
          d="m 7725.66,16214.1 c 23.28,29.1 47.16,57.7 71.75,85.9 -24.5,-28.2 -48.38,-56.8 -71.75,-85.9" />
      </g>
      <g transform="scale(2.15254)" id="g460">
        <path id="path462" style="fill:#33234a;fill-opacity:1;fill-rule:nonzero;stroke:none"
          d="m 7805.39,16216.3 c 27.17,28.5 55.05,56.4 83.48,83.7 -23.32,-22.5 -46.27,-45.3 -68.81,-68.5 -0.32,-0.3 -0.69,-0.7 -1.02,-1 -0.23,-0.3 -0.46,-0.5 -0.69,-0.7 -4.32,-4.5 -8.65,-9 -12.96,-13.5" />
      </g>
      <g transform="scale(2.16964)" id="g464">
        <path id="path466" style="fill:#33234a;fill-opacity:1;fill-rule:nonzero;stroke:none"
          d="m 7873.15,16215.3 c 31.3,28.9 63.33,57.2 96.06,84.7 -32.73,-27.6 -64.76,-55.9 -96.06,-84.7" />
      </g>
      <g transform="scale(1.77381)" id="g468">
        <path id="path470" style="fill:#cd8c11;fill-opacity:1;fill-rule:nonzero;stroke:none"
          d="m 12100.6,13616.2 c -293.5,0 -586.5,36.4 -871.4,108.3 532.8,107.4 1295,372.8 2093.5,733.9 792.3,358.4 1492.6,753.6 1926.1,1081.8 -360.7,-701.4 -951,-1275.8 -1690.8,-1610.3 -465,-210.3 -962.2,-313.7 -1457.4,-313.7 m -1079.6,167.6 c -181.3,57.7 -358.8,130.2 -530.2,217.2 684.6,178.1 1593.6,507.9 2564.1,946.8 1013.3,458.3 1892.9,944.8 2480.2,1352.2 -48.8,-194.7 -113.8,-383.9 -193.8,-565.6 -400.8,-342.9 -1169.7,-789.1 -2057.2,-1190.5 -881.2,-398.5 -1744.6,-687.2 -2263.1,-760.1" />
      </g>
      <g transform="scale(1.80901)" id="g472">
        <path id="path474" style="fill:#ae5718;fill-opacity:1;fill-rule:nonzero;stroke:none"
          d="m 10286.7,13728.6 c -101.8,51.7 -201.4,108.6 -298.43,170.6 127.43,34.3 256.63,71 387.53,110.2 0.1,0 0.1,0 0.3,0 1.4,0.5 3,1 4.5,1.4 0.3,0.1 0.6,0.2 1,0.3 1.2,0.4 2.5,0.7 3.7,1.1 0.8,0.3 1.5,0.5 2.2,0.7 1,0.3 1.9,0.5 2.9,0.8 1,0.4 2,0.6 3.1,1 0.6,0.1 1.3,0.4 2,0.6 1.6,0.4 3.2,0.9 4.8,1.4 0,0 0.1,0.1 0.2,0.1 738.3,222.1 1526.7,519.9 2314.2,875.3 0.1,0 0.1,0 0.2,0 1.9,0.8 3.8,1.7 5.7,2.6 0.1,0 0.2,0.1 0.3,0.1 3.9,1.8 7.9,3.6 11.9,5.4 v 0 0 c 596.4,269.7 1168.7,561.8 1696.2,864.7 0.4,0.2 0.8,0.4 1.2,0.7 1.2,0.6 2.5,1.4 3.7,2.1 0.7,0.4 1.4,0.8 2.1,1.2 0.9,0.5 1.8,1 2.7,1.6 1,0.5 1.9,1 2.9,1.6 0.6,0.4 1.3,0.8 2,1.1 1,0.7 2.1,1.3 3.2,1.9 0.5,0.3 1,0.6 1.4,0.8 1.4,0.8 2.8,1.6 4.2,2.4 0,0 0.1,0.1 0.1,0.1 297,171.2 579.6,345.7 844.2,521.6 -16.4,-107.2 -37.8,-212.9 -63.9,-317.2 -575.8,-399.5 -1438.4,-876.5 -2431.9,-1325.8 -951.7,-430.5 -1843,-753.8 -2514.2,-928.4" />
      </g>
      <g transform="scale(1.71226)" id="g476">
        <path id="path478" style="fill:#ae5718;fill-opacity:1;fill-rule:nonzero;stroke:none"
          d="m 11632.8,14217.8 c -72.4,18.3 -144.2,38.8 -215.6,61.5 537.1,75.5 1431.6,374.6 2344.4,787.4 919.5,415.8 1716,878.1 2131.2,1233.3 -29.9,-68 -61.9,-135.1 -95.8,-201.1 -449.1,-340.1 -1174.6,-749.5 -1995.4,-1120.7 -827.2,-374.1 -1616.8,-649 -2168.8,-760.4" />
      </g>
      <g transform="scale(1.81706)" id="g480">
        <path id="path482" style="fill:#371a45;fill-opacity:1;fill-rule:nonzero;stroke:none"
          d="m 11812.4,13193.9 c -404.6,0 -803.9,69.4 -1180.7,202 -182.9,64.4 -360.4,143.5 -530.6,236.9 -96.6,52.8 -190.7,110.2 -282.17,171.9 41.5,10.7 83.21,21.7 125.09,33 96.68,-61.8 195.78,-118.5 297.08,-169.9 167.3,-85 340.5,-155.8 517.6,-212.1 67.2,-21.4 134.9,-40.7 203.2,-57.9 278.2,-70.2 564.1,-105.7 850.6,-105.7 483.5,0 968.9,100.9 1422.8,306.2 722.1,326.6 1298.4,887.3 1650.5,1572 32,62.2 62.1,125.4 90.4,189.6 78,177.4 141.5,362.1 189.1,552.1 26,103.8 47.3,209.1 63.6,315.8 36.1,24 72,48.1 107.4,72.2 -13,-102.1 -30.5,-203.5 -52.4,-303.8 -43.1,-198.9 -103.3,-393.6 -179.6,-581.8 -330.5,-816.5 -963.3,-1512.2 -1829.4,-1903.8 -475.2,-215 -972.8,-316.7 -1462.5,-316.7 m -1482.6,753.4 c 0.1,0 0.2,0.1 0.3,0.1 -0.1,0 -0.2,0 -0.3,-0.1 m 4.8,1.4 c 0.3,0.1 0.6,0.2 1,0.3 -0.3,0 -0.7,-0.2 -1,-0.3 m 4.7,1.5 c 0.7,0.2 1.6,0.4 2.2,0.6 -0.7,-0.2 -1.4,-0.4 -2.2,-0.6 m 5,1.4 c 1.1,0.4 2.1,0.7 3.1,1 -1,-0.3 -2,-0.6 -3.1,-1 m 5.1,1.6 c 1.6,0.5 3.2,0.9 4.8,1.4 -1.6,-0.5 -3.2,-1 -4.8,-1.4 m 5,1.5 c 735,221.2 1520,517.7 2304,871.4 -784.1,-353.8 -1568.9,-650.2 -2304,-871.4 m 2304.2,871.4 c 1.9,0.9 3.8,1.7 5.6,2.6 -1.8,-0.9 -3.8,-1.7 -5.6,-2.6 m 5.9,2.7 c 4,1.8 7.9,3.6 11.8,5.4 -3.9,-1.8 -7.8,-3.6 -11.8,-5.4 m 11.8,5.4 c 593.9,268.5 1163.6,559.3 1688.8,860.9 -525.2,-301.6 -1094.9,-592.4 -1688.8,-860.9 m 1690,861.5 c 1.2,0.7 2.4,1.4 3.7,2.2 -1.3,-0.7 -2.5,-1.5 -3.7,-2.2 m 5.8,3.3 c 0.8,0.5 1.8,1.1 2.6,1.6 -0.8,-0.5 -1.8,-1 -2.6,-1.6 m 5.5,3.2 c 0.7,0.4 1.3,0.8 2,1.2 -0.7,-0.4 -1.3,-0.8 -2,-1.2 m 5.2,3 c 0.5,0.3 1,0.6 1.4,0.8 -0.4,-0.2 -0.9,-0.5 -1.4,-0.8 m 5.5,3.2 c 0.1,0 0.2,0.1 0.2,0.1 0,0 -0.1,-0.1 -0.2,-0.1" />
      </g>
      <g transform="scale(1.83112)" id="g484">
        <path id="path486" style="fill:#371a45;fill-opacity:1;fill-rule:nonzero;stroke:none"
          d="m 9743.53,13698.7 c -34.79,23.5 -69.14,47.6 -103.16,72.3 399.33,100.4 827.33,229.3 1274.23,384.9 501.3,174.6 1026.4,382.8 1561.4,622.7 v 0 c 21.1,9.5 42.4,19.1 63.6,28.7 1034.5,467.9 1958.1,986.9 2692.7,1492.7 -3.8,-41.8 -8.4,-83.6 -13.8,-125.2 -35.1,-23.8 -70.7,-47.8 -106.5,-71.6 -261.4,-173.8 -540.6,-346.2 -834,-515.3 0,0 -0.1,-0.1 -0.1,-0.1 -1.4,-0.8 -2.8,-1.6 -4.1,-2.4 -0.5,-0.2 -1,-0.5 -1.4,-0.8 -1.1,-0.6 -2.2,-1.2 -3.2,-1.8 -0.7,-0.4 -1.3,-0.8 -2,-1.2 -1,-0.5 -1.9,-1 -2.8,-1.5 -0.9,-0.6 -1.8,-1.1 -2.7,-1.6 -0.7,-0.4 -1.4,-0.8 -2.1,-1.2 -1.2,-0.7 -2.4,-1.4 -3.6,-2.1 -0.4,-0.2 -0.8,-0.4 -1.2,-0.7 -521.1,-299.2 -1086.5,-587.7 -1675.8,-854.2 v 0 0 c -3.9,-1.8 -7.8,-3.6 -11.7,-5.3 -0.1,-0.1 -0.2,-0.1 -0.3,-0.1 -1.9,-0.9 -3.7,-1.7 -5.6,-2.6 -0.1,-0.1 -0.1,-0.1 -0.2,-0.1 -778,-351 -1556.9,-645.2 -2286.3,-864.7 -0.1,0 -0.2,0 -0.2,0 -1.6,-0.5 -3.2,-1 -4.8,-1.5 -0.6,-0.2 -1.3,-0.4 -1.9,-0.6 -1.1,-0.3 -2.1,-0.6 -3.1,-0.9 -0.9,-0.3 -1.9,-0.5 -2.8,-0.8 -0.6,-0.2 -1.5,-0.4 -2.2,-0.7 -1.2,-0.3 -2.4,-0.7 -3.7,-1.1 -0.4,-0.1 -0.6,-0.2 -1,-0.3 -1.4,-0.4 -3,-0.9 -4.4,-1.3 -0.1,0 -0.3,-0.1 -0.3,-0.1 -129.3,-38.7 -256.96,-74.9 -382.84,-108.8 -41.56,-11.2 -82.95,-22.1 -124.13,-32.7" />
      </g>
      <g transform="scale(1.66021)" id="g488">
        <path id="path490" style="fill:#371a45;fill-opacity:1;fill-rule:nonzero;stroke:none"
          d="m 12038.2,15613.2 c 552.9,192.5 1132,422.3 1722.1,686.8 0,0 0,0 0,0 -590.1,-264.6 -1169.2,-494.3 -1722.1,-686.8" />
      </g>
      <g transform="scale(2.1277)" id="g492">
        <path id="path494" style="fill:#cd8c11;fill-opacity:1;fill-rule:nonzero;stroke:none"
          d="m 7398.97,13079.8 c -1.03,2.3 -2.02,4.5 -3,6.7 -23.69,52.3 -46.02,105.7 -66.41,158.9 l -3.15,8.2 c -16.5,43.1 -32.01,86.8 -46.49,130.9 -16.26,49.4 -31.25,99.3 -44.83,149.5 147.43,11.2 334.54,45.6 551.67,100 161.3,-174.9 386.1,-283.6 626.22,-300.5 -401.23,-128.5 -748.51,-215.4 -1014.01,-253.7 m -201.29,608.3 c -28.3,132.1 -47.19,264.4 -57.11,396.3 109.98,4.6 246.7,24.7 405.13,58.8 6.07,-29.8 12.65,-59.5 19.65,-89.2 1.13,-5 2.26,-10 3.57,-14.9 0.66,-2.6 1.37,-5.4 2.12,-8.4 24.63,-95.4 63.12,-183.3 112.75,-262.2 -192.75,-45.8 -357.48,-73.5 -486.11,-80.4 m -64.63,552.3 c -6.48,302.4 33.94,600.5 116.65,884.8 80.7,13.8 169.86,32.9 266.21,56.8 -27.36,-188.6 -37.13,-380.6 -28.2,-573.4 4.7,-103.8 14.85,-207.8 30.59,-311.7 -152.55,-33.2 -282.79,-52.6 -385.25,-56.5 m 171.5,1054 c 132.49,370.6 338.26,713.3 606.39,1005.6 -123.24,-207.8 -221.23,-429.6 -292.01,-660 -29.23,-95.1 -53.81,-191.6 -73.65,-289.3 -85.91,-22.5 -166.47,-41.4 -240.73,-56.3" />
      </g>
      <g transform="scale(1.98175)" id="g496">
        <path id="path498" style="fill:#ae5718;fill-opacity:1;fill-rule:nonzero;stroke:none"
          d="m 8094.67,13752.3 c -54.85,93.7 -105.46,191.2 -150.78,290.9 285.06,41 657.91,134.3 1088.69,272.2 23.51,-1.6 47.13,-2.5 70.85,-2.5 99.86,0 201.38,14.9 301.85,46.1 617.12,192.1 1373.92,482.4 2175.32,845 817.6,369.9 1548.3,754.3 2104.2,1096 6.9,-16.9 13.6,-33.9 20.2,-50.9 -570.9,-415 -1527.5,-943.6 -2579.2,-1422 -0.1,0 0,0 -0.1,0 -1.1,-0.5 -2.1,-1.1 -3.3,-1.6 h -0.1 c -1.1,-0.5 -2.1,-1 -3.2,-1.5 -0.1,0 -0.2,-0.1 -0.3,-0.1 -1,-0.5 -2.1,-0.9 -3.1,-1.4 -0.1,0 -0.2,-0.1 -0.3,-0.1 -1,-0.5 -2,-0.9 -3,-1.4 -0.2,-0.1 -0.4,-0.2 -0.7,-0.3 -2,-1 -4.1,-1.9 -6.2,-2.8 -0.2,-0.1 -0.3,-0.2 -0.5,-0.3 -1,-0.4 -1.9,-0.8 -2.9,-1.3 -0.1,0 -0.1,0 -0.1,0 -1.2,-0.5 -2.1,-1 -3.3,-1.5 -0.2,-0.1 -0.2,-0.1 -0.4,-0.2 -2.1,-1 -4.2,-1.9 -6.3,-2.9 -0.2,0 -0.5,-0.2 -0.7,-0.3 -2.1,-0.9 -4.1,-1.9 -6.1,-2.8 -0.3,-0.1 -0.6,-0.2 -0.8,-0.3 -2,-0.9 -4.1,-1.8 -6.1,-2.7 v 0 0 C 9920.08,14281.7 8786.38,13882 8094.67,13752.3" />
      </g>
      <g transform="scale(1.86623)" id="g500">
        <path id="path502" style="fill:#ae5718;fill-opacity:1;fill-rule:nonzero;stroke:none"
          d="m 8141.01,16057.7 c -4.45,59.4 -7.29,118.8 -8.57,177.9 116.81,4.4 265.29,26.5 439.22,64.4 8.84,-58.5 19.24,-116.9 31.24,-175.3 -180.63,-38.8 -336.5,-61.8 -461.89,-67" />
      </g>
      <g transform="scale(2.00378)" id="g504">
        <path id="path506" style="fill:#ae5718;fill-opacity:1;fill-rule:nonzero;stroke:none"
          d="m 7698.04,16060.5 c 17.61,60.5 37.08,120.5 58.24,179.7 78.85,15.8 164.39,35.9 255.61,59.8 -12.07,-59.3 -22.45,-119.1 -31.19,-179.1 -102.3,-25.4 -196.98,-45.7 -282.66,-60.4" />
      </g>
      <g transform="scale(1.79725)" id="g508">
        <path id="path510" style="fill:#ae5718;fill-opacity:1;fill-rule:nonzero;stroke:none"
          d="m 8565.36,16022.4 c -8.4,30.8 -16.36,61.8 -23.87,92.8 -7.18,29.8 -14.02,59.7 -20.42,89.6 152.28,8.2 347.3,41 575.49,95.2 35.94,-57.1 76.84,-110.4 121.91,-159.2 -257.06,-64.4 -478.57,-105.1 -653.11,-118.4" />
      </g>
      <g transform="scale(1.80267)" id="g512">
        <path id="path514" style="fill:#371a45;fill-opacity:1;fill-rule:nonzero;stroke:none"
          d="m 8651.09,15633.5 c -1.22,3.3 -2.5,6.5 -3.72,9.8 -19.47,50.9 -37.77,102.4 -54.86,154.4 17.09,-52 35.39,-103.5 54.86,-154.4 l 3.72,-9.8 m 3534.31,645.8 c 0.3,0.1 0.7,0.3 0.9,0.4 -0.3,-0.1 -0.5,-0.2 -0.9,-0.4 m 7.7,3.4 c 0.2,0.2 0.6,0.3 0.7,0.4 -0.3,-0.1 -0.5,-0.2 -0.7,-0.4 m 7.7,3.5 c 0.2,0.2 0.2,0.2 0.5,0.3 -0.2,-0.1 -0.4,-0.2 -0.5,-0.3 m 4,1.9 c 0.1,0 0.1,0 0.1,0 h -0.1 m 3.3,1.5 c 0.3,0.1 0.4,0.2 0.6,0.2 -0.2,0 -0.3,-0.1 -0.6,-0.2 m 7.4,3.4 c 0.3,0.1 0.6,0.2 0.8,0.3 -0.2,-0.1 -0.6,-0.2 -0.8,-0.3 m 4.1,1.8 c 0.1,0 0.2,0.1 0.3,0.2 -0.1,-0.1 -0.2,-0.2 -0.3,-0.2 m 3.7,1.7 c 0.1,0 0.3,0.1 0.3,0.1 0,0 -0.2,-0.1 -0.3,-0.1 m 3.9,1.7 0.1,0.1 -0.1,-0.1 m 3.7,1.7 c 0.1,0 0,0 0.1,0.1 l -0.1,-0.1" />
      </g>
      <g transform="scale(1.99253)" id="g516">
        <path id="path518" style="fill:#bb8464;fill-opacity:1;fill-rule:nonzero;stroke:none"
          d="m 13630.8,16161.2 c -6.5,16.9 -13.2,33.7 -20,50.6 48.3,29.7 95.4,59.2 141.1,88.2 4.4,-12.6 8.6,-25.3 12.8,-38 -22.1,-17.3 -45.1,-34.9 -68.8,-52.7 -0.1,-0.1 -0.2,-0.2 -0.4,-0.3 -0.4,-0.3 -0.8,-0.6 -1.3,-1 -0.2,-0.1 -0.5,-0.3 -0.7,-0.5 -0.3,-0.3 -0.7,-0.5 -1,-0.7 -0.3,-0.3 -0.6,-0.5 -0.9,-0.7 -0.3,-0.2 -0.5,-0.4 -0.8,-0.6 -0.4,-0.3 -0.9,-0.7 -1.3,-1 -0.1,-0.1 -0.2,-0.2 -0.3,-0.3 -0.5,-0.3 -1,-0.7 -1.5,-1 -0.1,-0.1 -0.2,-0.2 -0.3,-0.3 -0.5,-0.3 -1,-0.7 -1.5,-1.1 -0.1,0 -0.2,-0.1 -0.3,-0.2 -0.4,-0.3 -0.9,-0.7 -1.4,-1.1 -0.1,0 -0.2,-0.1 -0.3,-0.2 -17.3,-12.9 -35,-26 -53.1,-39.1" />
      </g>
      <g transform="scale(1.98789)" id="g520">
        <path id="path522" style="fill:#74607f;fill-opacity:1;fill-rule:nonzero;stroke:none"
          d="m 13715.8,16238.1 c 0.2,0.1 0.2,0.2 0.3,0.2 -0.1,0 -0.2,-0.1 -0.3,-0.2 m 1.8,1.3 c 0.1,0.1 0.2,0.2 0.3,0.2 -0.1,0 -0.2,-0.1 -0.3,-0.2 m 1.7,1.3 c 0.1,0.1 0.2,0.2 0.3,0.3 -0.1,-0.1 -0.2,-0.2 -0.3,-0.3 m 1.8,1.4 c 0.1,0 0.2,0.1 0.3,0.2 -0.1,-0.1 -0.2,-0.2 -0.3,-0.2 m 1.7,1.2 c 0.2,0.2 0.5,0.4 0.7,0.6 -0.3,-0.2 -0.4,-0.4 -0.7,-0.6 m 1.7,1.3 c 0.3,0.2 0.6,0.5 0.9,0.7 -0.3,-0.3 -0.6,-0.5 -0.9,-0.7 m 1.7,1.3 c 0.4,0.3 0.8,0.6 1.3,0.9 -0.5,-0.3 -0.9,-0.6 -1.3,-0.9 m 1.7,1.2 c 23.7,17.9 46.8,35.5 69,52.9 v 0 c -22.3,-17.4 -45.3,-35 -69,-52.9" />
      </g>
      <g transform="scale(2.17106)" id="g524">
        <path id="path526" style="fill:#371a45;fill-opacity:1;fill-rule:nonzero;stroke:none"
          d="m 7348.16,12463.9 c -63.79,104.2 -121.69,213.7 -173.23,328 -2.44,5.4 -4.84,10.6 -7.23,16.1 -22.66,50.3 -43.58,101.1 -62.88,152.1 v 0 c -30.44,79.7 -57.2,160 -80.37,240.7 -11.56,40.2 -22.16,80.5 -31.92,120.8 -1.29,5 -2.4,9.6 -3.5,14.7 -42.7,180.5 -67.94,362.3 -76.09,543.4 -15.94,344.7 28.92,686.5 128.6,1010.8 74.2,241.6 178.85,473.3 311.87,689.1 47.95,77.9 99.63,153.8 154.86,227.2 -1.25,-1.6 -2.49,-3.3 -3.73,-4.9 -4.66,-6.3 -9.31,-12.6 -13.91,-18.9 4.6,6.3 9.25,12.6 13.91,18.9 6.72,9 13.58,17.9 20.49,26.8 -4.74,-6 -9.44,-12.1 -14.04,-18.2 18.79,24.9 37.95,49.5 57.53,73.8 -1.07,-1.3 -2.12,-2.6 -3.14,-3.9 26.3,32.8 53.34,65.1 81.11,96.8 -2.57,-2.9 -5.15,-5.8 -7.69,-8.8 32.34,37.3 65.68,73.9 100,109.6 -0.83,-0.9 -1.61,-1.7 -2.44,-2.6 5.07,5.4 10.18,10.6 15.29,15.9 0.23,0.2 0.46,0.5 0.69,0.7 0.32,0.4 0.69,0.7 1.02,1.1 70.47,72.4 144.99,141.5 223.44,206.9 -71.81,-90.7 -138.05,-185.4 -198.34,-283.3 -8.61,-14 -17.14,-28.1 -25.52,-42.2 -262.77,-286.5 -464.43,-622.3 -594.27,-985.5 -19.53,-54.7 -37.49,-110.1 -53.75,-165.9 -81.07,-278.6 -120.68,-570.7 -114.33,-867.1 1.11,-50.8 3.55,-101.8 7.37,-152.9 9.72,-129.3 28.24,-258.9 55.97,-388.4 5.29,-24.7 10.96,-49.5 16.9,-74.2 6.22,-25.7 12.81,-51.3 19.76,-76.8 13.31,-49.2 28.01,-98.1 43.94,-146.5 14.19,-43.2 29.39,-86 45.56,-128.3 1.01,-2.7 2.07,-5.4 3.08,-8.1 19.99,-52.1 41.87,-104.4 65.09,-155.7 0.96,-2.1 1.93,-4.3 2.94,-6.5 41.37,-90.9 87.57,-179.9 137.63,-265.5 631.4,118.4 1666.24,483.3 2723.47,961.4 v 0 0 c 1.8,0.9 3.7,1.7 5.5,2.5 0.3,0.2 0.5,0.3 0.8,0.4 1.8,0.8 3.7,1.7 5.6,2.5 0.2,0.1 0.3,0.2 0.6,0.3 1.9,0.8 3.8,1.7 5.7,2.6 0.1,0 0.3,0.1 0.5,0.2 1,0.4 1.8,0.9 2.9,1.3 l 0.1,0.1 c 0.9,0.4 1.7,0.7 2.7,1.2 0.1,0.1 0.3,0.1 0.5,0.2 1.9,0.9 3.7,1.7 5.6,2.6 0.2,0.1 0.4,0.2 0.6,0.2 1,0.5 1.9,0.9 2.8,1.3 0,0 0.2,0.1 0.2,0.1 1,0.4 1.9,0.9 2.8,1.3 0.1,0 0.3,0.1 0.3,0.1 1.1,0.5 1.9,0.9 3,1.3 l 0.1,0.1 c 1,0.5 1.9,0.9 2.9,1.4 h 0.1 c 960,436.7 1833.2,919.2 2354.3,1298.1 16.6,12 32.9,24 48.8,35.9 0,0 0.1,0.1 0.2,0.2 0.5,0.3 1,0.6 1.4,1 0.1,0 0.2,0.1 0.2,0.2 0.5,0.3 0.9,0.6 1.4,0.9 0.1,0.1 0.2,0.2 0.3,0.3 0.4,0.3 0.9,0.6 1.3,1 0.1,0 0.2,0.1 0.3,0.2 0.3,0.3 0.8,0.6 1.2,0.9 0.3,0.2 0.4,0.3 0.7,0.5 0.3,0.2 0.6,0.5 0.9,0.7 0.3,0.2 0.5,0.4 0.9,0.6 0.2,0.2 0.4,0.4 0.6,0.5 0.5,0.3 0.8,0.6 1.2,0.9 0.2,0.1 0.3,0.2 0.4,0.3 21.8,16.4 42.8,32.5 63.2,48.4 v 0 c -3.9,11.6 -7.8,23.2 -11.8,34.8 23.6,15.1 46.8,30 69.6,44.8 12.8,-36 24.7,-72 36,-108.2 -483.9,-391.1 -1439.6,-938.8 -2581.2,-1455.1 -384.14,-173.8 -757.14,-329.4 -1106.28,-463.4 0,0 0.05,0.1 0.05,0.1 -688.46,-264.1 -1284.26,-444.3 -1691.11,-513.9" />
      </g>
      <g transform="scale(1.75827)" id="g528">
        <path id="path530" style="fill:#371a45;fill-opacity:1;fill-rule:nonzero;stroke:none"
          d="m 9073.35,15390 c 0,0 0,0.1 -0.06,0.1 502.37,85.9 1238.01,308.3 2088.11,634.5 0,0 0,-0.1 0,-0.2 -849.9,-326.1 -1585.57,-548.5 -2088.05,-634.4 m -300.52,612.7 c 0,0.1 -0.06,0.1 -0.06,0.1 -37.59,98.4 -70.64,197.6 -99.19,297.2 28.61,-99.7 61.66,-198.9 99.25,-297.3 v 0" />
      </g>
      <g transform="scale(2.10829)" id="g532">
        <path id="path534" style="fill:#342149;fill-opacity:1;fill-rule:nonzero;stroke:none"
          d="m 7713.65,16252.9 c 4.74,6.5 9.53,13 14.32,19.5 -4.79,-6.5 -9.58,-13 -14.32,-19.5 m 14.32,19.5 c 1.28,1.7 2.56,3.4 3.84,5.1 0.95,1.2 1.85,2.5 2.8,3.7 4.74,6.3 9.58,12.6 14.47,18.8 -7.12,-9.2 -14.18,-18.4 -21.11,-27.6" />
      </g>
      <g transform="scale(2.12807)" id="g536">
        <path id="path538" style="fill:#342149;fill-opacity:1;fill-rule:nonzero;stroke:none"
          d="m 7718.23,16201.2 c 1.03,1.4 2.11,2.7 3.2,4 23.35,29.1 47.22,57.7 71.7,85.9 2.59,2.9 5.22,5.9 7.85,8.9 -28.33,-32.3 -55.92,-65.3 -82.75,-98.8" />
      </g>
      <g transform="scale(2.1435)" id="g540">
        <path id="path542" style="fill:#342149;fill-opacity:1;fill-rule:nonzero;stroke:none"
          d="m 7835.83,16282.1 c 0.84,0.9 1.64,1.8 2.48,2.6 4.33,4.5 8.67,9 13.01,13.5 -5.18,-5.3 -10.36,-10.7 -15.49,-16.1 m 16.19,16.8 c 0.33,0.4 0.7,0.7 1.03,1.1 -0.33,-0.4 -0.7,-0.7 -1.03,-1.1" />
      </g>
    </g>
  </g>
</svg>