<?xml version="1.0" encoding="UTF-8" standalone="no"?>
<svg xmlnsDc="http://purl.org/dc/elements/1.1/" xmlnsCc="http://creativecommons.org/ns#"
  xmlnsRdf="http://www.w3.org/1999/02/22-rdf-syntax-ns#" xmlnsSvg="http://www.w3.org/2000/svg"
  xmlns="http://www.w3.org/2000/svg" viewBox="0 0 5333.3335 5333.3335" height="5333.3335" width="5333.3335"
  xmlSpace="preserve" id="svg2" version="1.1">
  <defs id="defs6" />
  <g transform="matrix(1.3333333,0,0,-1.3333333,0,5333.3333)" id="g10">
    <g transform="scale(0.1)" id="g12">
      <g transform="scale(1.75234)" id="g18">
        <path id="path20" style="fill:#ffb200;fill-opacity:1;fill-rule:nonzero;stroke:none"
          d="m 16128.5,8945.22 c 69.8,-190.2 126.9,-382.06 171.5,-574.49 -825.8,-573.8 -2430.6,-1344.2 -4331.5,-2042.12 -1900.6,-697.87 -3622.88,-1149.09 -4623.77,-1245.99 -90.5,175.59 -171.14,358.84 -240.93,548.98 -3.31,8.96 -6.51,17.75 -9.64,26.77 -30.42,83.94 -58.15,168.17 -83.44,252.63 -59.46,197.79 -105.4,396.72 -138.5,595.77 -1.36,8.05 -2.74,16.15 -3.93,24.26 -47.54,295.88 -66.6,591.89 -58.72,884.87 14.95,557.36 127.31,1103.09 326.13,1614.06 482.78,1240.64 1475.57,2275.84 2823.65,2770.84 1336.95,490.9 2751.65,350.5 3916.95,-270 478.5,-254.5 914.9,-590.2 1286.8,-996.2 198.9,-217 379.2,-454.4 537.6,-710.21 13,-20.55 25.6,-41.21 38,-62.09 103.6,-173.2 197.3,-354.61 279.9,-543.85 30.8,-70.19 59.9,-141.46 87.5,-213.77 7.6,-19.68 15.1,-39.49 22.4,-59.46" />
      </g>
      <g transform="scale(1.75874)" id="g22">
        <path id="path24" style="fill:#ffb200;fill-opacity:1;fill-rule:nonzero;stroke:none"
          d="m 16300,6481.53 c -32.1,-193.49 -75.9,-384.31 -131.3,-571.49 -77.4,-263.09 -177.5,-518.78 -298.4,-764.36 -524.4,-1065.08 -1443.2,-1938.04 -2645.7,-2379.55 -1205,-442.47 -2473.5,-370.26 -3564.03,105.08 -239.54,104.51 -470.45,228.4 -690.1,370.49 -172.33,111.28 -337.57,233.92 -494.95,366.97 1193.13,209.13 2581.88,585.59 4029.58,1117.11 1447.5,531.46 2749.9,1143.15 3794.9,1755.75" />
      </g>
      <g transform="scale(1.75874)" id="g26">
        <path id="path28" style="fill:#d66b09;fill-opacity:1;fill-rule:nonzero;stroke:none"
          d="m 12505.1,4725.78 c 1447.5,531.46 2749.9,1143.15 3794.9,1755.75 -32.1,-193.49 -75.9,-384.31 -131.3,-571.49 C 15362.3,5409.68 14088.9,4812.15 12617.2,4271.82 11207.6,3754.29 9902.68,3394.37 8970.47,3241.7 c -172.33,111.28 -337.57,233.92 -494.95,366.97 1193.13,209.13 2581.88,585.59 4029.58,1117.11" />
      </g>
      <g transform="scale(1.75234)" id="g30">
        <path id="path32" style="fill:#d66b09;fill-opacity:1;fill-rule:nonzero;stroke:none"
          d="m 16106.1,9004.68 c 7.6,-19.68 15.1,-39.49 22.4,-59.46 69.8,-190.2 126.9,-382.06 171.5,-574.49 -825.8,-573.8 -2430.6,-1344.2 -4331.5,-2042.12 -1900.6,-697.87 -3622.88,-1149.09 -4623.77,-1245.99 -90.5,175.59 -171.14,358.84 -240.93,548.98 -3.31,8.96 -6.51,17.75 -9.64,26.77 944.9,35.15 2695.93,465.43 4633.64,1176.88 2014.1,739.58 3678.2,1580.28 4378.3,2169.43" />
      </g>
      <g transform="scale(1.6442)" id="g34">
        <path id="path36" style="fill:#d66b09;fill-opacity:1;fill-rule:nonzero;stroke:none"
          d="m 7236,7732.35 42.94,342.66 c 693.65,-86.91 2557.35,358.78 4532.16,1083.87 2355.9,865.02 3901,1746.62 4209.7,2170.32 l 279.2,-203.4 C 15891.5,10565.2 14135.4,9644.41 11930.1,8834.71 9876.86,8080.85 7990.47,7637.77 7236,7732.35" />
      </g>
      <g transform="scale(1.50241)" id="g38">
        <path id="path40" style="fill:#d66b09;fill-opacity:1;fill-rule:nonzero;stroke:none"
          d="m 8336.87,10343.7 -28.16,376.9 c 866.34,64.7 2389.79,466.7 3975.79,1049 1661.7,610.2 3112.1,1311.1 3784.9,1829.1 l 230.6,-299.4 c -701.1,-539.9 -2189.9,-1262 -3885.2,-1884.4 -1616.6,-593.6 -3179.18,-1004 -4077.93,-1071.2" />
      </g>
      <g transform="scale(1.70121)" id="g42">
        <path id="path44" style="fill:#d66b09;fill-opacity:1;fill-rule:nonzero;stroke:none"
          d="m 7061.74,6560.92 25.99,332.83 c 772.09,-60.14 2633.83,392.6 4632.87,1126.55 2096.8,769.92 3875.3,1677.63 4324.9,2207.4 l 254.5,-216 C 15809.1,9433.47 14015,8507.19 11835.6,7706.99 9763.88,6946.3 7890.04,6496.44 7061.74,6560.92" />
      </g>
      <g transform="scale(1.71796)" id="g46">
        <path id="path48" style="fill:#d66b09;fill-opacity:1;fill-rule:nonzero;stroke:none"
          d="m 9889.73,2856.76 0.06,82.36 -33.06,75.96 15.78,6.87 17.4,0.06 c 664.89,-0.64 1955.59,315.08 3288.29,804.38 1340,492.04 2495.5,1068.59 3015.6,1504.75 l 106.2,-126.6 c -533.8,-447.63 -1708.2,-1035.07 -3064.9,-1533.27 -1370.2,-503.1 -2652,-815.21 -3345.37,-814.51" />
      </g>
      <g transform="scale(1.77513)" id="g50">
        <path id="path52" style="fill:#371a45;fill-opacity:1;fill-rule:nonzero;stroke:none"
          d="m 8660.1,3508.82 c 1253.04,-952.16 2917.9,-1207.97 4403.6,-662.49 1485.7,545.54 2589.4,1817.9 2928.4,3354.57 C 14957.2,5613.9 13730.9,5054.62 12428.5,4576.4 11125.9,4098.12 9829.03,3730.94 8660.1,3508.82 m 2811,-1170.57 c -1134.6,0 -2255.15,396.37 -3146.63,1151.07 l -183.6,155.43 236.94,41.58 c 1217.89,213.5 2591.69,594.43 3972.99,1101.55 1381.2,507.17 2675.1,1105.72 3741.7,1731.03 l 207.5,121.62 -39.4,-237.28 C 15974.7,4680.28 14779.5,3236.27 13141.4,2634.8 12598.7,2435.6 12033,2338.25 11471.1,2338.25" />
      </g>
      <g transform="scale(2.06046)" id="g54">
        <path id="path56" style="fill:#ffc536;fill-opacity:1;fill-rule:nonzero;stroke:none"
          d="M 16093.6,7863.29 C 16300,7301.14 15419.6,6415.56 13913.1,5532.41 13021.1,5009.51 11909.5,4487.4 10673.9,4033.76 9438.23,3580.07 8252.82,3258.74 7234.4,3080.23 5514.35,2778.65 4270.25,2884.16 4063.83,3446.37 c -187.47,510.56 521.15,1287.47 1780.74,2087.39 28.15,-169.28 67.22,-338.46 117.79,-506.68 -350.02,-246.01 -528.33,-448.44 -480.96,-577.54 48.29,-131.43 324.54,-169.52 765.02,-126.96 851.22,82.41 2315.94,466.16 3932.38,1059.67 1616.6,593.55 2981.5,1248.75 3683.7,1736.74 363.3,252.57 549.3,460.34 501,591.81 -47.3,128.91 -314.3,168.02 -740.3,129.15 -70.2,160.93 -149.9,315.22 -238,462.52 1477.9,205.19 2521,71.39 2708.4,-439.18" />
      </g>
      <path id="path58" style="fill:#ff9100;fill-opacity:1;fill-rule:nonzero;stroke:none"
        d="m 12052.6,10923.4 64.5,-95.2 c -646.3,-425.9 -1150,-812.6 -1532.6,-1157.4 294,370.1 782.4,785.9 1468.1,1252.6" />
      <path id="path60" style="fill:#ff9100;fill-opacity:1;fill-rule:nonzero;stroke:none"
        d="m 12181.8,10733.7 -64.7,94.5 c 10.9,8 23.5,15.7 36,23.4 l 28.7,-117.9" />
      <g transform="scale(1.90613)" id="g62">
        <path id="path64" style="fill:#ffec90;fill-opacity:1;fill-rule:nonzero;stroke:none"
          d="m 16102.4,8474.53 c -56.1,151.93 -207.7,252.87 -459.4,303.02 -243.7,48.22 -581.1,48.85 -1015.7,2.31 l 6.5,-59.81 19.1,-180.26 c 829.3,88.77 1175.4,-18.41 1223.3,-148.57 79.8,-217.56 -498.8,-800.83 -1958.7,-1566.21 -816,-427.72 -1795.1,-854.97 -2830.7,-1235.53 C 10477.4,5365.78 9872.28,5167 9294.41,5000.96 8890.08,4883.81 8499.08,4782.82 8129.17,4699.72 6520.94,4338.36 5702.43,4408.5 5622.37,4626.59 c -46.9,127.27 140.23,424.94 801.15,881.1 11.39,8.03 23.24,16 35.05,23.98 l -67.73,99.46 -33.94,49.58 -33.84,49.89 c -359.74,-244.79 -615.96,-462.92 -770.2,-657.09 -161.69,-201.87 -212.63,-377.46 -156.7,-530.23 54.77,-148.63 203.23,-241.01 414.76,-291.48 551.75,-131.63 1530.69,23.71 2370.87,212.63 380.4,85.35 782.53,189.7 1198.5,310.15 577.66,166.94 1181.41,365.61 1789.41,588.79 1045.5,383.81 2034.3,815.63 2860,1247.97 1054.4,553.05 2270.3,1325.3 2072.7,1863.19" />
      </g>
      <g transform="scale(2.00045)" id="g66">
        <path id="path68" style="fill:#ffec90;fill-opacity:1;fill-rule:nonzero;stroke:none"
          d="m 16043.7,8129.98 c -197.2,536.93 -1301.9,513.38 -2193.4,398.71 l 29.1,-227.85 c 21.7,2.65 43.3,5.35 64.5,8.1 385.5,47.04 703.4,62.49 961.6,54.79 586.7,-17.85 864.5,-155.27 922.7,-313.08 104.3,-284.89 -368.5,-949.44 -2046.3,-1884.23 -867.1,-483.29 -1913.3,-954.69 -3025.8,-1363 C 10247.2,4616.77 9740.37,4448.95 9247.53,4303.74 8661.61,4130.53 8095.29,3989.26 7566.86,3884.58 5682.93,3511.46 4892.51,3711.97 4787.74,3996.91 c -58.08,158.21 65.49,443.4 503.32,837.41 191.26,172.36 443.06,365.67 766.13,578.57 5.45,4.05 11.75,7.85 18,11.74 11.75,7.85 23.89,15.65 36.14,23.85 l -62.28,95.88 -62.84,96.88 C 5232.28,5151.5 4374.66,4454.95 4572.3,3917.92 c 76.28,-207.8 285.38,-332.97 569.45,-400.76 668.65,-159.11 1750.01,-0.45 2469.64,142.07 631.56,124.92 1316.21,301.73 2022.1,521.18 395.81,122.73 798.01,258.75 1201.51,407.16 1123.8,412.61 2181.4,889.1 3058.6,1378.19 913.2,508.94 2406.4,1466.38 2150.1,2164.22" />
      </g>
      <g transform="scale(2.07368)" id="g70">
        <path id="path72" style="fill:#371a45;fill-opacity:1;fill-rule:nonzero;stroke:none"
          d="M 5738.54,5339.54 C 4573.37,4579.3 3973.3,3880.2 4128.46,3457.62 c 177.78,-484.21 1343.89,-599.95 3043.18,-302.02 1042.55,182.76 2218.57,508.85 3400.96,942.96 1182.4,434.15 2290,946.53 3203,1481.81 1488.5,872.5 2302.6,1715.35 2124.9,2199.56 -155.2,422.58 -1065.1,567.26 -2445.4,392.88 50.6,-91.82 97.9,-185.8 141.4,-281.09 460.2,34.47 704.2,-28.6 765.9,-196.85 65.9,-179.2 -103.6,-401.75 -533.2,-700.45 -735.9,-511.31 -2112.4,-1160.69 -3682,-1737.05 -1569.75,-576.32 -3039.36,-972 -3931.3,-1058.36 -520.95,-50.25 -794.19,9.74 -859.96,188.94 -61.78,168.3 83.52,374.31 456.67,645.76 -28.5,100.83 -53.24,203.11 -74.07,305.83 M 5545.36,2799.27 c -893.13,0 -1454.47,201 -1597.98,591.85 -199.76,544.06 442.4,1321.42 1808.23,2188.77 l 122.97,78.12 23.87,-143.71 c 27.44,-165.31 65.92,-330.67 114.29,-491.49 l 20.01,-66.65 -56.95,-40.02 c -481.12,-338.19 -443.22,-460.49 -442.79,-461.69 0.44,-1.26 52.13,-122.2 660.33,-63.42 863.39,83.62 2351.42,484.99 3883.36,1047.42 1531.9,562.52 2926.1,1219.37 3638.4,1714.34 501.6,348.75 462.7,474.37 462.3,475.58 -0.4,1.2 -50.7,118.96 -636.3,65.53 l -69.3,-6.31 -27.8,63.75 c -67.2,153.83 -144.8,304.77 -230.9,448.67 l -74.8,125.04 144.3,20.01 c 1602.6,222.56 2595.2,45.43 2794.9,-498.63 C 16300,7251.36 15495.1,6364.77 13873.2,5413.95 12950.4,4872.98 11832.1,4355.54 10639.1,3917.53 9446.1,3479.47 8258.6,3150.29 7204.97,2965.6 6569.43,2854.15 6012.06,2799.27 5545.36,2799.27" />
      </g>
      <g transform="scale(1.72147)" id="g74">
        <path id="path76" style="fill:#ffd269;fill-opacity:1;fill-rule:nonzero;stroke:none"
          d="m 16053.3,8909.56 c -7.7,18.23 -15.6,36.36 -23.5,54.48 -84.1,192.63 -179.7,377.41 -284.9,553.72 -7,11.67 -14.1,23.29 -21.3,34.91 101.3,74.76 189,146.44 261.9,214.35 63,-111.94 121.6,-226.9 175.3,-343.6 13.2,-28.64 26.1,-57.33 38.6,-86.15 l 7.9,-17.95 c 32.6,-75.22 63.7,-152.43 92.7,-230.09 -74.1,-57.92 -156.5,-117.87 -246.7,-179.67 m -510,917.41 c -109.8,155.39 -227.9,303.13 -353.6,442.73 112.4,84.8 206.1,165.3 279.2,240.5 121.5,-143.3 235.3,-295 340.6,-454.7 -68.1,-70.58 -157.6,-147.15 -266.2,-228.53 m -583.9,682.13 c -48.5,47 -97.9,93 -148.1,137.9 67.1,74.7 151.6,181 225.3,310.5 71.9,-65.2 142,-132.8 210.2,-202.8 -66.6,-71.9 -162.9,-154.4 -287.4,-245.6 m -6574.86,224.8 c 102,105.9 209.24,207.5 321.23,304.1 6.63,-13.5 13.42,-26.7 20.34,-39.8 -118.27,-83.4 -232.19,-171.6 -341.57,-264.3" />
      </g>
      <g transform="scale(1.73764)" id="g78">
        <path id="path80" style="fill:#e7a86e;fill-opacity:1;fill-rule:nonzero;stroke:none"
          d="m 16058.4,8409.75 c -20.9,65.32 -43.3,130.46 -67,195.38 -7.5,20.08 -15.1,39.94 -22.7,59.79 -20.6,54.56 -42.3,108.48 -64.8,161.72 89.4,61.23 171,120.62 244.4,178 2.9,-7.77 5.8,-15.6 8.6,-23.42 55.5,-150.9 103.4,-305.19 143.1,-459.88 -70.4,-33.03 -151.4,-70.5 -241.6,-111.59" />
      </g>
      <g transform="scale(1.63369)" id="g82">
        <path id="path84" style="fill:#e7a86e;fill-opacity:1;fill-rule:nonzero;stroke:none"
          d="m 16005.8,10821.5 c -10.8,12.1 -21.8,24 -32.7,36 -68,74.3 -138.1,146.3 -210,216.2 131.2,96.1 232.7,183.1 302.8,258.8 80.7,-82.8 158.8,-168.7 234.1,-257.6 -77,-79.3 -175.7,-164 -294.2,-253.4" />
      </g>
      <g transform="scale(1.68825)" id="g86">
        <path id="path88" style="fill:#e7a86e;fill-opacity:1;fill-rule:nonzero;stroke:none"
          d="m 16033,9740.61 c -5.9,9.54 -11.9,19.13 -17.8,28.67 -53,85.71 -108.4,169.41 -166.1,251.02 110.8,83 202,161.1 271.5,233 39.1,-59.3 77.2,-119.7 113.9,-181.2 22.3,-37.3 44.2,-74.95 65.5,-112.92 -74.3,-69.24 -163.8,-142.34 -267,-218.57" />
      </g>
      <g transform="scale(1.71167)" id="g90">
        <path id="path92" style="fill:#897892;fill-opacity:1;fill-rule:nonzero;stroke:none"
          d="m 16300,9372.63 -7.9,18.06 c -12.6,28.97 -25.6,57.83 -38.8,86.64 13.3,-28.81 26.3,-57.78 38.9,-86.82 2.6,-5.96 5.2,-11.92 7.8,-17.88" />
      </g>
      <g transform="scale(1.76618)" id="g94">
        <path id="path96" style="fill:#371a45;fill-opacity:1;fill-rule:nonzero;stroke:none"
          d="m 11523.8,11887.6 c -535.3,0 -1077.3,-92.4 -1603.45,-285.5 C 7822.6,10831.8 6565.02,8675.29 6930.11,6474.38 c 32.21,-194.1 77.39,-388.24 134.18,-577.07 26.95,-90.2 57.25,-181.24 90.14,-270.81 57.98,-157.91 124.68,-313.33 198.68,-462.98 1023.68,113.69 2728.69,577.8 4482.69,1221.79 1753.9,644.05 3354.2,1393.52 4208.2,1969.23 -40.4,161.98 -90.1,323.58 -148.2,481.55 -32.7,89.45 -68.6,178.46 -106.3,264.63 -79,180.79 -170.2,358.01 -271.2,526.96 -858.6,1434.22 -2395.5,2259.92 -3994.5,2259.92 m -4302.05,-6964.88 -35.16,68.17 c -92.23,178.92 -174.61,366.5 -244.76,557.59 -34.49,93.87 -66.25,189.33 -94.5,283.77 -59.51,197.89 -106.84,401.49 -140.65,604.98 -382.86,2308.21 935.87,4569.67 3135.65,5377.37 2199.67,807.7 4668.57,-63.1 5870.27,-2070.62 106,-177.22 201.7,-363.1 284.3,-552.44 39.6,-90.25 77.1,-183.61 111.6,-277.38 70.1,-191.09 128.8,-387.39 174.2,-583.46 l 17.3,-74.8 -63,-43.76 C 15373,7611.86 13756.8,6849.42 11913.9,6172.71 10070.8,5496.05 8345.36,5031.49 7298.13,4930.08 l -76.38,-7.36" />
      </g>
      <g transform="scale(1.31102)" id="g98">
        <path id="path100" style="fill:#c3913b;fill-opacity:1;fill-rule:nonzero;stroke:none"
          d="m 8757.81,4733.32 c -869.78,0 -1523.88,122.35 -1900.16,360.86 -40.71,56.91 -73.07,117.54 -96.75,182 -101,275.13 -36.39,599.45 171.89,957.49 -0.61,-87.25 13.42,-172.61 43.92,-255.44 116.41,-317.09 435.46,-508.08 868.91,-611.51 302.59,-72.01 660.55,-101.37 1043.08,-101.37 907.38,0 1952.8,165.21 2725.3,318.15 818.7,161.93 1695.9,381 2601.8,648.57 164.9,-29.82 363.6,-46.45 601.4,-46.45 384,0 870.8,43.48 1482.8,144.77 -1726.7,-610.74 -3431.8,-1071.83 -4956.4,-1339.1 -987.8,-173.15 -1861.63,-257.97 -2585.79,-257.97 m 148.74,882.98 c -1017.15,0 -1503.59,217.23 -1601.1,482.44 -88.63,241.42 99.93,676.57 768.01,1277.78 -235.09,-293.51 -309.15,-548.81 -227.84,-770.92 79.63,-216.09 295.49,-350.41 603.04,-423.79 207.7,-49.58 457.12,-71.09 733.85,-71.17 791.98,0 1807.99,176.81 2713.19,380.31 505.3,113.43 1037.1,249.81 1586.4,406.1 -8.4,-165.21 42.1,-326.54 200.1,-453.62 C 12940.4,6234.82 12222.8,6061.37 11546,5927.35 10424.7,5705.23 9557.03,5616.37 8906.55,5616.3 m 252.39,847.65 c -601.36,0 -926.37,104.65 -984.42,262.77 -45.91,124.64 62.55,361.71 431.8,705.79 -144.47,-186.12 -187.64,-347.82 -134.7,-491.98 80.55,-219.45 357.73,-325.86 861.16,-325.86 119.14,0 250.95,5.95 395.79,17.78 l 0.39,-0.69 102.89,9.92 c 957.05,92.67 2334.45,410.44 3896.55,889.83 -44.8,-68.19 -92.9,-149.19 -134.6,-237.29 -26.9,-7.78 -53.6,-15.48 -80.4,-23.19 -587.9,-170.32 -1156.3,-317.16 -1694.2,-437.98 -1172.1,-263.38 -2055.77,-369.1 -2660.26,-369.1" />
      </g>
      <g transform="scale(1.09336)" id="g102">
        <path id="path104" style="fill:#c3ad79;fill-opacity:1;fill-rule:nonzero;stroke:none"
          d="m 11010.5,7327.13 c -331.8,0.09 -630.9,25.88 -879.9,85.33 -368.78,87.99 -627.62,249.05 -723.1,508.16 -97.5,266.33 -8.69,572.45 273.19,924.39 v 0 c 323.91,291.95 742.81,616.81 1272.31,972.51 22.1,-90.73 45.9,-180.91 71.3,-270.54 -324.5,-235.97 -558.1,-445.88 -704.7,-634.84 -442.72,-412.57 -572.78,-696.84 -517.72,-846.29 69.6,-189.59 459.32,-315.08 1180.42,-315.08 724.8,0 1784.4,126.77 3189.9,442.58 644.9,144.88 1326.5,320.94 2031.4,525.17 32.1,9.24 64.2,18.48 96.4,27.81 -70.4,-148.72 -125.8,-313.99 -134,-476.24 -658.6,-187.4 -1296.3,-350.94 -1902.1,-486.94 -1085.5,-244.02 -2303.7,-456.02 -3253.4,-456.02" />
      </g>
      <g transform="scale(1.14339)" id="g106">
        <path id="path108" style="fill:#c3ad79;fill-opacity:1;fill-rule:nonzero;stroke:none"
          d="m 10191.9,6037.33 c -438.59,0 -849.04,33.67 -1195.99,116.23 -497,118.6 -862.83,337.59 -996.3,701.17 -34.98,94.98 -51.06,192.84 -50.36,292.9 403.81,694.34 1278.78,1499.4 2503.25,2329.74 6.9,-29.82 14,-59.64 21.3,-89.38 -506.3,-340.13 -906.87,-650.79 -1216.65,-929.96 v 0 c -766.03,-689.35 -982.23,-1188.31 -880.61,-1465.12 111.81,-304.09 669.57,-553.18 1835.86,-553.18 745.8,0.09 1740.7,101.98 3026.4,356.66 776.1,153.67 1598.9,352.55 2449.4,591.75 131.7,-105.91 328.4,-191.1 611.8,-242.35 -1038.7,-306.81 -2044.5,-557.99 -2983.2,-743.67 -885.7,-175.35 -2084.5,-364.79 -3124.9,-364.79" />
      </g>
      <g transform="scale(1.35499)" id="g110">
        <path id="path112" style="fill:#371a45;fill-opacity:1;fill-rule:nonzero;stroke:none"
          d="m 8485.13,4433.08 c -568.41,0 -1051.66,53.36 -1429.5,161.77 -183.88,90.34 -325.62,201.55 -420.51,334.03 364.07,-230.78 996.95,-349.15 1838.5,-349.15 700.67,0 1546.08,82.06 2501.88,249.59 1475.1,258.6 3124.9,704.73 4795.6,1295.65 166.5,27.53 342.6,59.56 528.9,96.24 -37.9,-14.02 -75.9,-28.05 -114,-42.07 -1729.5,-635.06 -3393.8,-1098.97 -4855.3,-1380.59 19.8,-14.32 39.8,-28.64 59.8,-42.81 -131.6,-25.39 -261.4,-49.37 -389.6,-71.81 C 10053.7,4517.8 9201.74,4433.08 8485.13,4433.08 M 7056.5,4594.41 c -24.65,7.01 -48.63,14.47 -72.38,21.99 23.41,-7.45 47.23,-14.61 71.51,-21.55 0.29,-0.14 0.59,-0.29 0.87,-0.44 m 1973.43,1805.62 c -487.09,0 -755.28,102.95 -833.21,315.28 -51.22,139.48 -9.45,295.94 130.33,476.01 118.3,152.48 306.79,321.85 568.56,512.26 9.6,-33.95 19.49,-67.75 29.6,-101.48 4.87,-16.31 9.81,-32.69 14.91,-49.08 -448.2,-332.84 -670.93,-606.79 -604.88,-786.86 54.47,-148.2 299.41,-218.31 695.58,-218.31 94.54,0 197.71,3.99 308.93,11.89 9.15,-18.16 18.37,-36.32 27.67,-54.32 l 45.46,-88.19 c -140.14,-11.44 -267.67,-17.2 -382.95,-17.2" />
      </g>
      <g transform="scale(1.11667)" id="g114">
        <path id="path116" style="fill:#371a45;fill-opacity:1;fill-rule:nonzero;stroke:none"
          d="m 11422.3,7786.01 -0.5,0.81 -55.1,107.02 c -11.3,21.84 -22.5,43.88 -33.6,65.91 62.2,4.38 126.4,9.84 192.7,16.2 864.5,83.74 2072.1,336 3480.4,728.42 415,115.61 847.6,243.49 1293.8,382.66 v 0 c 0,0 -84.6,-96.27 -182.2,-244.66 -1834,-562.83 -3451.1,-935.91 -4574.7,-1044.71 l -120.8,-11.65 m -574.1,1379.02 c -6.2,19.88 -12.2,39.76 -18.1,59.55 -12.3,40.92 -24.3,81.94 -35.9,123.13 -24.8,87.76 -48.1,176.06 -69.8,264.9 -7.4,30.45 -14.8,60.98 -21.9,91.52 52.8,35.82 106.1,71.55 160.1,107.38 39.7,-178.93 85.6,-357.59 139,-535.62 -53.3,-37.52 -104.5,-74.42 -153.4,-110.86 m 14.4,646.48 c 0,0.17 0,0.26 -0.1,0.35 l 0.1,-0.35 v 0" />
      </g>
      <g transform="scale(1.0984)" id="g118">
        <path id="path120" style="fill:#c38415;fill-opacity:1;fill-rule:nonzero;stroke:none"
          d="m 16251,10350.6 c -94.7,0 -189.3,3.3 -283.5,9.7 -1.2,0.3 -2.4,0.5 -3.7,0.7 96.8,-6.7 193.9,-10.3 291.2,-10.3 15,0 30,0 45,0.2 -16.3,-0.2 -32.7,-0.3 -49,-0.3" />
      </g>
      <g transform="scale(1.75234)" id="g122">
        <path id="path124" style="fill:#371a45;fill-opacity:1;fill-rule:nonzero;stroke:none"
          d="m 16295.3,8367.48 c 1.5,1.08 3.2,2.23 4.7,3.31 -1.6,-1.14 -3.1,-2.23 -4.7,-3.31" />
      </g>
      <g transform="scale(1.15608)" id="g126">
        <path id="path128" style="fill:#c38415;fill-opacity:1;fill-rule:nonzero;stroke:none"
          d="m 11148.7,8603.64 c -35,100.78 -67.8,201.72 -97.8,302.92 -74.4,247.22 -134.8,495.82 -182,744.85 726.2,34.77 1757.4,227.32 2965.4,546.89 400.7,-204.27 862.9,-322.42 1336.6,-354.86 226.9,-41.26 460.2,-62.19 694,-62.19 17.5,0 35,0.17 52.4,0.34 68.2,0.95 138.7,3.72 211.3,8.13 -2019.8,-657.05 -3798,-1074.14 -4979.9,-1186.08 m -354.5,1535.56 c -33.6,281.4 -50.4,562.5 -51,841.9 509.1,15.5 1199.1,121.9 2009.3,305 127.3,-280.7 311.5,-520.6 536.4,-719.7 -1024.3,-254.5 -1891.1,-405.5 -2494.7,-427.2 m -35.2,1332.2 c 45.9,689.7 189.7,1365.2 422.5,2006.7 391.2,49.9 851.4,137.1 1360.4,256.3 -20.4,-190.9 -33.3,-383.2 -38.5,-576.4 -12.2,-443.9 16.8,-892.6 88.9,-1340.8 2,-12.7 4,-24.9 6.1,-37.1 1.2,-7.6 2.7,-15.9 4.5,-25.1 -748.3,-168.3 -1382.8,-267.7 -1843.9,-283.6 m 637.2,2533.3 c 389.4,857.9 944.2,1639.9 1640.2,2295.3 50.6,-87.3 104.3,-167.3 157.2,-238.8 -70.4,-149.8 -135.7,-302.1 -195.7,-456.4 -169.4,-434.9 -297.3,-886.4 -381,-1348.3 -447.8,-109.4 -859.4,-194.5 -1220.7,-251.8" />
      </g>
      <g transform="scale(1.64631)" id="g130">
        <path id="path132" style="fill:#a6531b;fill-opacity:1;fill-rule:nonzero;stroke:none"
          d="m 8026.33,5556.26 c -60.74,130.1 -116.75,263.68 -167.29,400.83 -3.52,9.6 -6.74,18.83 -10.26,28.43 -6.74,18.71 -13.36,37.42 -19.86,56.19 829.98,78.6 2078.65,371.49 3496.98,832.89 1271.4,78.48 3485.7,918.36 4974.1,1549.04 -715.4,-382.12 -1619.6,-795.84 -2607.7,-1191.69 h -0.1 c -3.5,-1.46 -6.9,-2.8 -10.4,-4.26 h -0.1 c -3.6,-1.45 -7,-2.79 -10.6,-4.19 0,-0.06 0,0 0,-0.06 -1.8,-0.73 -3.4,-1.33 -5.2,-2.06 l -0.2,-0.06 c -1.6,-0.67 -3.2,-1.28 -4.8,-1.95 -0.3,-0.06 -0.6,-0.24 -0.8,-0.3 -1.6,-0.61 -3,-1.22 -4.6,-1.82 -0.2,-0.13 -0.4,-0.19 -0.7,-0.31 -1.4,-0.54 -2.7,-1.09 -4.2,-1.64 -0.7,-0.3 -1.2,-0.48 -1.9,-0.79 -1.1,-0.42 -2.4,-0.97 -3.5,-1.39 -0.5,-0.19 -1,-0.43 -1.6,-0.61 -1.2,-0.49 -2.5,-1.03 -3.7,-1.52 -0.5,-0.18 -1.1,-0.43 -1.6,-0.61 -1.3,-0.54 -2.6,-1.03 -3.9,-1.58 -0.4,-0.12 -0.7,-0.3 -1.1,-0.42 -1.3,-0.55 -2.7,-1.09 -4,-1.58 -0.7,-0.3 -1.4,-0.61 -2.1,-0.85 -1,-0.43 -2.2,-0.91 -3.2,-1.28 -0.7,-0.3 -1.4,-0.55 -2.1,-0.79 -1,-0.48 -2.2,-0.91 -3.3,-1.33 -0.8,-0.37 -1.5,-0.67 -2.4,-0.98 -0.8,-0.36 -1.8,-0.79 -2.8,-1.09 -1,-0.42 -2,-0.85 -3.1,-1.27 -0.6,-0.25 -1.5,-0.55 -2.1,-0.85 -1.4,-0.55 -2.7,-1.04 -4.1,-1.58 -0.4,-0.19 -0.8,-0.37 -1.2,-0.55 -1.2,-0.43 -2.6,-0.97 -3.7,-1.46 -0.7,-0.24 -1.1,-0.42 -1.8,-0.67 -1.3,-0.54 -2.7,-1.09 -3.9,-1.58 -0.5,-0.18 -1,-0.36 -1.4,-0.54 -275.9,-109.58 -557.6,-217.46 -843.6,-322.97 0,0 0,0 -0.1,-0.06 -1.9,-0.67 -3.7,-1.33 -5.6,-2.06 v 0 c -3.8,-1.4 -7.6,-2.74 -11.3,-4.13 v 0 c -11.3,-4.2 -22.6,-8.33 -33.9,-12.52 -1.9,-0.67 -3.8,-1.33 -5.7,-2.06 -3.6,-1.28 -6.9,-2.49 -10.5,-3.83 0,-0.06 -0.3,-0.12 -0.4,-0.18 -1.6,-0.55 -3.2,-1.15 -4.7,-1.7 -0.4,-0.19 -0.5,-0.19 -0.8,-0.31 -1.7,-0.6 -3.1,-1.09 -4.7,-1.7 -0.2,-0.06 -0.7,-0.24 -0.9,-0.36 -3.7,-1.34 -7.1,-2.55 -10.8,-3.89 l -0.2,-0.12 C 10867.5,6180.62 9127.95,5701.31 8026.33,5556.26" />
      </g>
      <path id="path134" style="fill:#a6531b;fill-opacity:1;fill-rule:nonzero;stroke:none"
        d="m 12420,12695 c -0.1,79.8 0.8,159.4 2.9,238.9 3,109.6 8.2,218.9 15.4,327.9 533,18.4 1266.6,133.3 2131.6,327.9 2.4,-12.1 5.1,-25.4 8.2,-39.9 38.3,-178.4 93.9,-345.7 164.8,-502.2 C 13806.3,12836 13008.5,12713 12420,12695" />
      <g transform="scale(1.01114)" id="g136">
        <path id="path138" style="fill:#a6531b;fill-opacity:1;fill-rule:nonzero;stroke:none"
          d="m 12784.3,15410.1 c 21.7,59.8 44.1,119.5 67.1,178.8 55.6,142.7 115,283.9 178.3,423.3 413.1,65.5 883.7,162.8 1395.8,287.8 -35.8,-197.4 -64.5,-396.5 -85.9,-596.9 -581.9,-136.2 -1108,-236 -1555.3,-293" />
      </g>
      <path id="path140" style="fill:#a6531b;fill-opacity:1;fill-rule:nonzero;stroke:none"
        d="m 12565.3,11157.8 c -11.5,61 -22.4,122 -32.6,183.1 -2.3,14.1 -4.7,28.2 -6.5,42.3 -18.1,112.9 -33.9,225.7 -47.3,338.5 697.9,25.1 1700,199.7 2884.1,493.9 187.9,-166.4 400.5,-308.3 630.6,-425.6 -1396.6,-369.4 -2588.7,-592 -3428.3,-632.2" />
      <g transform="scale(1.38293)" id="g142">
        <path id="path144" style="fill:#371a45;fill-opacity:1;fill-rule:nonzero;stroke:none"
          d="m 15069.9,8138.03 0.2,0.15 -0.2,-0.15 m 13,4.78 c 0.3,0.14 0.8,0.36 1.1,0.43 -0.3,-0.07 -0.8,-0.29 -1.1,-0.43 m 6.6,2.45 c 0.5,0.15 0.5,0.15 1,0.37 -0.3,-0.15 -0.8,-0.29 -1,-0.37 m 6.6,2.39 c 0.1,0.07 0.4,0.15 0.5,0.22 -0.1,-0.07 -0.4,-0.15 -0.5,-0.22 m 13,4.77 c 2.3,0.87 4.5,1.67 6.7,2.46 13.5,4.99 26.9,9.91 40.4,14.9 -13.4,-4.99 -27,-9.98 -40.4,-14.9 -2.2,-0.79 -4.5,-1.66 -6.7,-2.46 m 47.1,17.36 c 4.5,1.66 9,3.25 13.4,4.91 -4.5,-1.66 -8.9,-3.25 -13.4,-4.91 m 13.5,4.91 c 2.3,0.87 4.4,1.67 6.6,2.46 -2.2,-0.79 -4.4,-1.59 -6.6,-2.46 m 6.8,2.54 c 340.5,125.6 675.8,254.02 1004.2,384.47 -328.2,-130.37 -663.8,-258.94 -1004.2,-384.47 m 1005.9,385.12 c 1.5,0.58 3.1,1.23 4.7,1.88 -1.6,-0.65 -3.2,-1.23 -4.7,-1.88 m 6.8,2.68 c 1.3,0.58 3,1.23 4.4,1.73 -1.5,-0.58 -3,-1.15 -4.4,-1.73 m 5.9,2.38 c 1.6,0.65 3.2,1.23 4.8,1.88 -1.6,-0.57 -3.2,-1.23 -4.8,-1.88 m 7.4,2.9 c 1.2,0.5 2.4,1.01 3.6,1.51 -1.3,-0.57 -2.3,-0.94 -3.6,-1.51 m 7,2.81 c 1,0.37 1.8,0.73 2.8,1.16 -1,-0.36 -1.9,-0.79 -2.8,-1.16 m 6.8,2.75 c 0.8,0.29 1.6,0.58 2.4,0.94 -0.9,-0.36 -1.5,-0.58 -2.4,-0.94 m 6.2,2.46 c 0.9,0.29 1.7,0.65 2.5,1.01 -0.9,-0.43 -1.6,-0.65 -2.5,-1.01 m 7.3,2.89 c 0.4,0.15 0.9,0.36 1.3,0.51 -0.4,-0.15 -0.9,-0.36 -1.3,-0.51 m 5.9,2.39 c 0.6,0.22 1.4,0.51 2,0.72 -0.7,-0.21 -1.3,-0.5 -2,-0.72 m 6.4,2.53 c 0.6,0.22 1.2,0.51 1.9,0.72 -0.7,-0.21 -1.3,-0.5 -1.9,-0.72 m 6.1,2.39 c 0.8,0.36 1.4,0.58 2.2,0.94 -0.8,-0.36 -1.5,-0.65 -2.2,-0.94 m 7.2,2.89 c 0.3,0.14 0.6,0.22 0.9,0.36 -0.3,-0.14 -0.6,-0.22 -0.9,-0.36 m 6.3,2.53 c 0.2,0.07 0.6,0.29 0.9,0.36 -0.3,-0.07 -0.7,-0.29 -0.9,-0.36 m 6.7,2.68 0.2,0.07 -0.2,-0.07 m 6.4,2.53 c 0,0.07 0,0 0,0.07 v -0.07 m 12.5,5.06 h 0.2 -0.2 m 12.6,5.06 h 0.1 -0.1" />
      </g>
      <g transform="scale(1.75183)" id="g146">
        <path id="path148" style="fill:#371a45;fill-opacity:1;fill-rule:nonzero;stroke:none"
          d="m 7475.13,5098.08 c 39.05,4.68 78.89,9.82 119.71,15.36 -17.75,35.73 -35.05,71.81 -52,108.12 1035.25,136.31 2669.96,586.75 4353.56,1202.73 l 0.2,0.12 c 3.4,1.25 6.6,2.4 10.1,3.65 0.2,0.12 0.6,0.29 0.9,0.34 1.5,0.57 2.8,1.03 4.3,1.6 0.2,0.06 0.5,0.17 0.8,0.29 1.4,0.51 2.9,1.08 4.4,1.6 0.1,0.05 0.4,0.11 0.4,0.17 3.4,1.25 6.5,2.4 9.9,3.59 1.7,0.63 3.5,1.32 5.3,1.95 10.6,3.88 21.3,7.82 31.8,11.76 v 0 c 3.6,1.31 7.1,2.56 10.7,3.88 v 0 c 1.7,0.68 3.4,1.31 5.2,1.94 0.1,0.05 0.1,0.05 0.2,0.05 268.7,99.1 533.6,200.59 792.7,303.51 0.4,0.17 0.9,0.35 1.3,0.52 1.3,0.51 2.5,0.97 3.7,1.48 0.6,0.23 1,0.4 1.7,0.63 1.1,0.46 2.3,0.91 3.5,1.37 0.4,0.17 0.8,0.34 1.2,0.51 1.2,0.52 2.5,1.03 3.7,1.49 0.7,0.28 1.5,0.57 2.1,0.8 1,0.45 1.9,0.74 2.9,1.19 0.8,0.29 1.8,0.69 2.6,1.03 0.8,0.29 1.5,0.63 2.2,0.92 1.1,0.4 2.2,0.8 3.2,1.25 0.7,0.29 1.2,0.46 1.9,0.74 0.9,0.35 2.1,0.8 3,1.2 0.7,0.29 1.2,0.46 2,0.8 1.2,0.46 2.6,0.97 3.8,1.49 0.3,0.11 0.6,0.28 1,0.4 1.2,0.51 2.4,0.97 3.6,1.48 0.6,0.17 1.1,0.4 1.6,0.57 1.1,0.46 2.3,0.97 3.5,1.43 0.5,0.17 0.9,0.4 1.4,0.57 1.1,0.4 2.3,0.91 3.4,1.31 0.5,0.23 1.1,0.46 1.7,0.74 1.4,0.52 2.6,1.03 4,1.54 0.2,0.12 0.4,0.18 0.6,0.29 1.5,0.57 2.8,1.14 4.3,1.71 0.2,0.06 0.5,0.23 0.8,0.29 1.5,0.62 3,1.2 4.5,1.82 l 0.2,0.06 c 1.7,0.69 3.2,1.26 4.9,1.94 v 0.06 c 3.3,1.31 6.6,2.57 9.9,3.94 h 0.1 c 3.3,1.37 6.5,2.62 9.8,3.99 h 0.1 c 928.6,372.01 1778.3,760.81 2450.6,1119.92 344,145.79 646.6,279.59 884.8,387.99 33.3,22.15 65.9,44.07 97.1,65.7 -827.2,-573.51 -2430.2,-1342.71 -4327.9,-2039.46 -546.4,-200.59 -1078,-380.8 -1582,-538.12 l -0.1,0.06 c -284.4,-88.77 -560.07,-170.28 -824.6,-243.98 -830.16,-231.3 -1550.71,-386.05 -2090.27,-450.33" />
      </g>
      <g transform="scale(1.11667)" id="g150">
        <path id="path152" style="fill:#371a45;fill-opacity:1;fill-rule:nonzero;stroke:none"
          d="m 15006.2,8704.37 c 415,115.61 847.5,243.49 1293.7,382.75 l 0.1,-0.09 c -446.2,-139.17 -878.8,-267.05 -1293.8,-382.66" />
      </g>
      <g transform="scale(1.09885)" id="g154">
        <path id="path156" style="fill:#c38415;fill-opacity:1;fill-rule:nonzero;stroke:none"
          d="m 16293.4,10346.7 c 2.2,0.1 4.3,0.1 6.6,0.1 -2.2,0 -4.5,0 -6.6,-0.1" />
      </g>
      <g transform="scale(1.18477)" id="g158">
        <path id="path160" style="fill:#996423;fill-opacity:1;fill-rule:nonzero;stroke:none"
          d="m 15480.8,9544.41 c -228.2,0 -455.8,20.43 -677.2,60.69 87.3,-5.91 175,-8.95 262.8,-8.95 15.1,0 30.3,0.08 45.4,0.25 2.1,0.09 4.2,0.09 6.2,0.09 v 0 c 341.2,4.55 742.1,56.21 1182,143.23 -189.1,-64.31 -376.7,-126.77 -562,-187.04 -70.8,-4.3 -139.6,-7.01 -206.1,-7.93 -17,-0.17 -34.1,-0.34 -51.1,-0.34" />
      </g>
      <g transform="scale(1.71406)" id="g162">
        <path id="path164" style="fill:#844228;fill-opacity:1;fill-rule:nonzero;stroke:none"
          d="m 10878.2,6602.86 c 128.1,41.65 257.7,84.82 388.4,129.28 1598.4,316.09 3945.9,1307.42 5012.6,1793.29 7.1,-22.12 14,-44.23 20.8,-66.4 -190.2,-117.79 -406.5,-241.29 -644.3,-368.36 -1429.6,-605.76 -3556.4,-1412.44 -4777.5,-1487.81" />
      </g>
      <g transform="scale(1.73844)" id="g166">
        <path id="path168" style="fill:#8d5f59;fill-opacity:1;fill-rule:nonzero;stroke:none"
          d="m 16071.4,8340.4 c -6.7,21.86 -13.5,43.66 -20.5,65.46 90.3,41.07 171.2,78.52 241.6,111.54 2.5,-9.84 5,-19.73 7.5,-29.57 -71.3,-48.03 -147.5,-97.16 -228.6,-147.43" />
      </g>
      <g transform="scale(1.75637)" id="g170">
        <path id="path172" style="fill:#371a45;fill-opacity:1;fill-rule:nonzero;stroke:none"
          d="m 15278.6,7895.78 c 232,124.01 443.1,244.54 628.8,359.49 80.2,49.77 155.7,98.39 226.2,145.93 -2.4,9.74 -4.9,19.53 -7.4,29.26 63.3,29.72 118.1,55.86 163.2,77.84 7.6,-23.4 10.5,-39.23 10.5,-50.16 0.1,-41.74 -43.2,-13.16 -43.2,-64.74 0,-10.36 1.8,-23.86 6,-41.79 v 0 c -1.6,-1.08 -3.2,-2.22 -4.8,-3.3 -31.1,-21.58 -63.6,-43.45 -96.8,-65.54 -237.6,-108.12 -539.4,-241.57 -882.5,-386.99" />
      </g>
      <g transform="scale(1.725)" id="g174">
        <path id="path176" style="fill:#c38415;fill-opacity:1;fill-rule:nonzero;stroke:none"
          d="m 11764.9,2839.42 c -346.6,0.06 -689.5,37.22 -1023.4,109.04 680.1,130.32 1540.9,377.86 2439.7,707.83 987.4,362.61 1877.9,772.7 2493.2,1141.16 -546.7,-731.94 -1305,-1319.01 -2226.7,-1657.45 -555.4,-203.88 -1123.8,-300.58 -1682.8,-300.58 m -1416.6,210.84 c -181.9,55.31 -360.36,121.1 -534.39,196.93 -92.81,40.52 -184.4,83.88 -274.61,130.03 908.3,182.66 2076.2,519.77 3324.7,978.14 1392.3,511.25 2610.8,1072.7 3436,1558.61 -47.1,-117.91 -98.8,-233.97 -154.9,-347.82 -70.8,-143.95 -148.8,-284.53 -233.6,-421.05 -584.3,-408.46 -1614.8,-903.88 -2787.1,-1334.32 -1046.3,-384.11 -2066.5,-660.87 -2776.1,-760.52" />
      </g>
      <g transform="scale(1.7416)" id="g178">
        <path id="path180" style="fill:#a6531b;fill-opacity:1;fill-rule:nonzero;stroke:none"
          d="m 9448.37,3345.02 c -145.55,74.53 -287.38,156.41 -424.83,245.35 -9.59,6.2 -19.18,12.46 -28.71,18.72 1084.17,216.41 2269.37,551.39 3464.77,979.9 0.1,0 0.3,0.06 0.4,0.12 2.6,0.92 5.1,1.84 7.7,2.76 0.3,0.11 0.7,0.28 1.1,0.4 2.4,0.86 4.7,1.66 7.1,2.58 0.4,0.12 0.7,0.23 1.1,0.35 2.3,0.86 4.7,1.72 7.1,2.58 0.4,0.11 0.8,0.29 1.3,0.46 2.2,0.8 4.5,1.61 6.8,2.41 0.5,0.17 1,0.4 1.5,0.58 2.2,0.74 4.3,1.55 6.4,2.29 0.8,0.23 1.4,0.46 2.1,0.75 2,0.75 4.3,1.55 6.4,2.3 0.5,0.17 1,0.4 1.5,0.57 2.2,0.8 4.5,1.61 6.7,2.41 0.5,0.17 1.1,0.4 1.6,0.58 2.4,0.86 4.7,1.72 7.1,2.52 0.3,0.12 0.6,0.23 1,0.4 2.4,0.87 5,1.78 7.4,2.65 0.3,0.11 0.5,0.23 0.8,0.28 10.9,3.96 21.9,7.93 32.8,11.89 0.7,0.29 1.3,0.46 2.1,0.75 2,0.74 4.1,1.49 6.1,2.23 0.7,0.29 1.4,0.52 2.1,0.81 1.9,0.69 3.8,1.37 5.8,2.06 0.9,0.35 1.9,0.69 2.8,1.04 1.9,0.69 3.6,1.26 5.4,1.95 1,0.35 1.8,0.69 2.8,1.03 1.7,0.58 3.5,1.27 5.1,1.84 1.1,0.4 2.1,0.8 3.2,1.15 1.7,0.63 3.4,1.26 5.1,1.89 1,0.35 1.9,0.69 3,1.09 1.6,0.64 3.3,1.15 4.9,1.79 1.1,0.4 2.3,0.8 3.3,1.2 1.6,0.58 3.3,1.21 4.9,1.78 1.1,0.4 2,0.75 3.2,1.21 1.5,0.51 3.2,1.15 4.8,1.72 1.1,0.4 2.2,0.8 3.3,1.2 1.7,0.64 3.3,1.21 5,1.84 1.1,0.4 2,0.75 3.1,1.15 1.7,0.63 3.4,1.26 5.1,1.9 1,0.34 2,0.68 3,1.03 2,0.8 3.9,1.49 6.1,2.24 0.7,0.28 1.2,0.46 1.9,0.74 2.7,0.98 5.5,1.96 8.1,2.99 v 0 0 c 2.7,0.98 5.3,1.95 8,2.93 1.3,0.4 2.6,0.92 3.8,1.38 1.4,0.51 2.8,1.03 4.2,1.55 1.5,0.51 3,1.09 4.5,1.66 1.2,0.4 2.3,0.81 3.5,1.27 1.6,0.57 3.2,1.14 4.8,1.78 1.1,0.4 1.9,0.68 3,1.09 1.8,0.68 3.5,1.32 5.3,1.95 0.8,0.29 1.8,0.69 2.6,0.98 1.8,0.68 3.7,1.37 5.6,2.01 0.6,0.28 1.4,0.57 2.2,0.86 1.9,0.74 4,1.49 6,2.18 0.5,0.23 1.2,0.46 1.7,0.69 2.1,0.74 4.1,1.49 6.2,2.24 0.5,0.23 1.1,0.46 1.6,0.63 2.2,0.8 4.4,1.6 6.7,2.47 0.2,0.05 0.4,0.17 0.7,0.23 2.4,0.92 4.8,1.78 7.2,2.69 0.1,0 0.3,0.12 0.3,0.12 894.7,331.42 1752.8,700.05 2538.2,1089.11 0.5,0.23 0.9,0.41 1.4,0.69 1.8,0.86 3.6,1.78 5.4,2.64 0.5,0.29 1,0.52 1.5,0.75 1.8,0.92 3.5,1.78 5.3,2.64 0.6,0.29 1.2,0.58 1.7,0.86 1.8,0.86 3.4,1.67 5.1,2.53 0.7,0.34 1.3,0.63 1.9,0.92 1.6,0.8 3.4,1.66 5,2.47 0.7,0.4 1.4,0.74 2.2,1.09 1.6,0.8 3,1.55 4.6,2.35 0.8,0.35 1.6,0.8 2.4,1.15 1.5,0.8 3,1.49 4.4,2.24 1,0.46 1.9,0.92 2.8,1.38 1.4,0.69 2.8,1.38 4.3,2.12 0.8,0.4 1.7,0.86 2.6,1.26 1.4,0.75 2.9,1.44 4.3,2.19 1,0.46 2,0.97 2.9,1.43 1.4,0.69 2.7,1.38 4,2.01 1,0.46 2.1,1.03 3,1.49 1.4,0.69 2.7,1.32 4.1,2.01 1.2,0.64 2.4,1.27 3.7,1.9 1.7,0.8 3.2,1.55 4.9,2.41 1.7,0.86 3.5,1.72 5.2,2.64 0.9,0.4 1.8,0.86 2.6,1.26 1.5,0.75 3,1.5 4.5,2.24 0.9,0.46 1.7,0.87 2.6,1.33 1.5,0.74 2.9,1.49 4.4,2.23 0.9,0.46 1.8,0.86 2.7,1.32 1.5,0.75 2.9,1.5 4.4,2.25 0.8,0.39 1.7,0.85 2.5,1.26 1.5,0.74 3,1.49 4.5,2.24 0.9,0.46 1.9,0.97 2.9,1.43 1.3,0.69 2.8,1.38 4.1,2.13 1,0.46 1.8,0.86 2.7,1.32 1.5,0.74 3,1.49 4.5,2.29 0.9,0.41 1.6,0.81 2.5,1.21 1.6,0.8 3.1,1.61 4.8,2.41 0.6,0.35 1.3,0.69 2,1.04 1.7,0.85 3.4,1.66 5.1,2.52 0.7,0.4 1.4,0.69 2.1,1.09 1.8,0.92 3.7,1.84 5.5,2.76 0.5,0.23 0.8,0.4 1.2,0.63 2,1.03 4.2,2.07 6.2,3.1 0.3,0.17 0.6,0.35 0.9,0.46 298.7,150.9 586.4,304.66 860.8,460.27 -3.2,-14.36 -6.4,-28.54 -9.7,-42.84 -42.1,-142.22 -90.7,-282.32 -145.7,-419.84 C 15327.3,5376.32 14120.5,4820.22 12741.4,4313.85 11504.8,3859.84 10348,3525.95 9448.37,3345.02" />
      </g>
      <g transform="scale(1.68389)" id="g182">
        <path id="path184" style="fill:#a6531b;fill-opacity:1;fill-rule:nonzero;stroke:none"
          d="m 11003.7,3020.45 c -135.8,29.22 -270.2,64.07 -402.7,104.28 726.8,102.09 1772,385.59 2843.8,779.09 1200.9,440.94 2256.6,948.46 2855.2,1366.89 -75.7,-121.97 -156.7,-240.75 -242.9,-356.14 -630.4,-377.46 -1542.5,-797.55 -2554.1,-1169.02 -920.8,-338.02 -1802.5,-591.6 -2499.3,-725.1" />
      </g>
      <g transform="scale(1.74196)" id="g186">
        <path id="path188" style="fill:#371a45;fill-opacity:1;fill-rule:nonzero;stroke:none"
          d="m 8992.96,3608.34 v 0 c 1083.94,216.37 2269.04,551.28 3464.04,979.7 -1195.1,-428.42 -2380.1,-763.33 -3464.04,-979.7 m 3464.44,979.82 c 2.6,0.92 5.1,1.83 7.7,2.75 -2.6,-0.92 -5.1,-1.83 -7.7,-2.75 m 8.8,3.16 c 2.3,0.8 4.8,1.72 7.1,2.58 -2.4,-0.92 -4.7,-1.73 -7.1,-2.58 m 8.2,2.92 c 2.4,0.86 4.7,1.67 7.1,2.59 -2.4,-0.87 -4.8,-1.73 -7.1,-2.59 m 8.4,3.04 c 2.3,0.81 4.5,1.61 6.8,2.42 -2.3,-0.81 -4.5,-1.61 -6.8,-2.42 m 8.3,2.99 c 2.1,0.75 4.3,1.55 6.4,2.3 -2.1,-0.75 -4.2,-1.55 -6.4,-2.3 m 8.5,3.04 c 2.1,0.75 4.2,1.55 6.4,2.3 -2.1,-0.75 -4.4,-1.55 -6.4,-2.3 m 7.9,2.87 c 2.3,0.81 4.4,1.61 6.7,2.41 -2.2,-0.8 -4.5,-1.6 -6.7,-2.41 m 8.3,2.99 c 2.4,0.86 4.7,1.72 7.1,2.52 -2.4,-0.8 -4.7,-1.66 -7.1,-2.52 m 8.1,2.93 c 2.4,0.86 5,1.77 7.4,2.64 -2.4,-0.87 -5,-1.78 -7.4,-2.64 m 8.2,2.92 c 10.9,3.96 21.8,7.93 32.7,11.89 -10.8,-3.96 -21.8,-7.93 -32.7,-11.89 m 34.9,12.63 c 1.9,0.75 4.1,1.55 6.1,2.24 -2.1,-0.74 -4.1,-1.49 -6.1,-2.24 m 8.2,3.04 c 2,0.69 3.8,1.38 5.8,2.07 -2,-0.69 -3.9,-1.38 -5.8,-2.07 m 8.6,3.1 c 1.8,0.69 3.6,1.32 5.4,1.96 -1.9,-0.69 -3.5,-1.27 -5.4,-1.96 m 8.1,2.99 c 1.8,0.63 3.5,1.21 5.2,1.84 -1.7,-0.58 -3.4,-1.26 -5.2,-1.84 m 8.4,2.99 c 1.6,0.63 3.4,1.26 5.1,1.89 -1.7,-0.63 -3.5,-1.26 -5.1,-1.89 m 8.1,2.98 c 1.6,0.57 3.2,1.21 4.9,1.78 -1.7,-0.63 -3.3,-1.15 -4.9,-1.78 m 8.2,2.99 c 1.6,0.57 3.2,1.2 4.9,1.78 -1.7,-0.58 -3.3,-1.21 -4.9,-1.78 m 8.1,2.98 c 1.5,0.57 3.2,1.15 4.7,1.72 -1.5,-0.57 -3.2,-1.2 -4.7,-1.72 m 8.1,2.93 c 1.6,0.63 3.3,1.26 5,1.84 -1.7,-0.64 -3.3,-1.21 -5,-1.84 m 8.1,2.99 c 1.7,0.63 3.4,1.26 5.1,1.89 -1.7,-0.63 -3.4,-1.26 -5.1,-1.89 m 8,2.92 c 2,0.75 4.1,1.5 6.1,2.24 -2.1,-0.74 -4,-1.44 -6.1,-2.24 m 8.1,2.99 c 2.6,0.97 5.4,1.95 8.1,2.98 -2.7,-1.03 -5.5,-2.01 -8.1,-2.98 m 8.1,2.98 c 2.7,0.98 5.3,1.9 8,2.93 -2.7,-0.98 -5.3,-1.95 -8,-2.93 m 11.8,4.31 c 1.4,0.51 2.8,1.03 4.1,1.55 -1.3,-0.52 -2.7,-1.04 -4.1,-1.55 m 8.7,3.21 c 1.1,0.4 2.3,0.81 3.4,1.26 -1.1,-0.45 -2.3,-0.86 -3.4,-1.26 m 8.3,3.05 c 0.9,0.34 2,0.74 3,1.09 -1.1,-0.41 -2,-0.69 -3,-1.09 m 8.3,3.04 c 0.8,0.34 1.7,0.63 2.5,0.97 -0.8,-0.28 -1.7,-0.68 -2.5,-0.97 m 8.1,2.98 c 0.8,0.29 1.5,0.58 2.3,0.86 -0.8,-0.28 -1.6,-0.57 -2.3,-0.86 m 8.2,3.05 c 0.5,0.22 1.2,0.46 1.7,0.68 -0.5,-0.22 -1.1,-0.46 -1.7,-0.68 m 7.9,2.92 c 0.6,0.23 1.1,0.41 1.7,0.63 -0.5,-0.17 -1.1,-0.4 -1.7,-0.63 m 8.3,3.1 c 0.3,0.06 0.5,0.18 0.8,0.23 -0.3,-0.05 -0.6,-0.17 -0.8,-0.23 m 7.9,2.93 c 0.2,0 0.3,0.06 0.4,0.12 -0.1,0 -0.2,-0.12 -0.4,-0.12 m 2538,1089 c 0.5,0.23 1,0.46 1.4,0.69 -0.4,-0.29 -0.9,-0.46 -1.4,-0.69 m 6.8,3.33 c 0.5,0.23 1.1,0.52 1.6,0.75 -0.6,-0.23 -1.1,-0.46 -1.6,-0.75 m 6.8,3.39 c 0.6,0.28 1.2,0.57 1.8,0.86 -0.6,-0.29 -1.2,-0.58 -1.8,-0.86 m 6.9,3.39 c 0.6,0.34 1.2,0.63 1.8,0.91 -0.6,-0.28 -1.1,-0.57 -1.8,-0.91 m 6.8,3.38 c 0.7,0.4 1.4,0.75 2.2,1.09 -0.8,-0.34 -1.5,-0.69 -2.2,-1.09 m 6.8,3.45 c 0.8,0.34 1.7,0.8 2.4,1.14 -0.8,-0.34 -1.6,-0.8 -2.4,-1.14 m 6.9,3.38 c 0.9,0.46 1.8,0.92 2.7,1.38 -0.9,-0.46 -1.8,-0.92 -2.7,-1.38 m 7,3.5 c 0.8,0.41 1.7,0.87 2.6,1.27 -0.9,-0.4 -1.8,-0.86 -2.6,-1.27 m 6.9,3.45 c 1,0.46 2,0.97 2.9,1.43 -0.9,-0.46 -1.9,-0.97 -2.9,-1.43 m 7,3.44 c 1,0.52 1.9,0.98 2.9,1.5 -0.9,-0.46 -2,-1.04 -2.9,-1.5 m 7,3.51 c 1.2,0.63 2.5,1.26 3.7,1.89 -1.3,-0.63 -2.5,-1.26 -3.7,-1.89 m 8.6,4.3 c 1.7,0.86 3.5,1.78 5.2,2.64 -1.7,-0.92 -3.5,-1.78 -5.2,-2.64 m 7.8,3.9 c 1.5,0.75 3,1.5 4.5,2.24 -1.5,-0.74 -3,-1.49 -4.5,-2.24 m 7.1,3.56 c 1.4,0.75 3,1.5 4.4,2.24 -1.5,-0.74 -2.9,-1.49 -4.4,-2.24 m 7.1,3.56 c 1.5,0.75 2.9,1.49 4.4,2.24 -1.5,-0.75 -2.9,-1.49 -4.4,-2.24 m 6.9,3.51 c 1.6,0.74 3,1.49 4.5,2.23 -1.5,-0.74 -3,-1.49 -4.5,-2.23 m 7.4,3.67 c 1.4,0.69 2.7,1.38 4.1,2.12 -1.3,-0.74 -2.8,-1.43 -4.1,-2.12 m 6.8,3.44 c 1.5,0.75 3,1.5 4.5,2.3 -1.5,-0.8 -3,-1.55 -4.5,-2.3 m 7,3.5 c 1.5,0.81 3.2,1.61 4.8,2.42 -1.7,-0.81 -3.2,-1.61 -4.8,-2.42 m 6.8,3.45 c 1.7,0.86 3.4,1.72 5.1,2.53 -1.7,-0.87 -3.4,-1.67 -5.1,-2.53 m 7.2,3.62 c 1.8,0.91 3.7,1.83 5.5,2.75 -1.8,-0.92 -3.7,-1.84 -5.5,-2.75 m 6.7,3.38 c 2,1.04 4.1,2.07 6.2,3.1 -2.1,-1.03 -4.2,-2.06 -6.2,-3.1 m 7.1,3.56 c 299.9,151.5 588.6,305.86 864,462.12 -3.6,-12.45 -7.2,-24.85 -10.8,-37.25 -0.8,-2.53 -1.5,-5 -2.3,-7.52 3.3,14.29 6.5,28.47 9.7,42.82 -274.3,-155.57 -561.9,-309.3 -860.6,-460.17" />
      </g>
      <g transform="scale(1.7481)" id="g190">
        <path id="path192" style="fill:#371a45;fill-opacity:1;fill-rule:nonzero;stroke:none"
          d="m 8961.37,3595.67 c -44.68,29.4 -88.73,59.66 -132.38,90.61 1130.08,218.52 2416.21,577.71 3752.21,1068.24 112.9,41.47 224.6,83.58 335.6,125.97 -97.3,-20.94 -191.3,-40.33 -282.3,-58.3 1391.9,516.34 2646.6,1105.43 3665.5,1696.87 -17.4,-73.91 -36.4,-147.41 -57.3,-220.35 -274.4,-155.71 -562.1,-309.54 -861,-460.5 -0.2,-0.11 -0.5,-0.29 -0.9,-0.46 -2,-1.03 -4.1,-2.06 -6.1,-3.09 -0.4,-0.23 -0.7,-0.4 -1.2,-0.63 -1.8,-0.91 -3.7,-1.83 -5.5,-2.74 -0.7,-0.4 -1.4,-0.69 -2.1,-1.09 -1.7,-0.8 -3.4,-1.66 -5,-2.51 -0.7,-0.35 -1.4,-0.69 -2.1,-1.03 -1.5,-0.81 -3.2,-1.61 -4.7,-2.41 -0.9,-0.4 -1.6,-0.8 -2.5,-1.2 -1.5,-0.8 -3,-1.54 -4.5,-2.29 -0.9,-0.46 -1.7,-0.86 -2.6,-1.31 -1.5,-0.75 -2.8,-1.43 -4.2,-2.12 -0.9,-0.46 -2,-0.97 -2.9,-1.43 -1.5,-0.74 -2.9,-1.49 -4.4,-2.23 -0.8,-0.4 -1.7,-0.86 -2.5,-1.26 -1.5,-0.74 -2.9,-1.49 -4.5,-2.23 -0.8,-0.46 -1.7,-0.86 -2.6,-1.32 -1.4,-0.74 -3,-1.48 -4.4,-2.23 -0.9,-0.45 -1.7,-0.85 -2.6,-1.31 -1.5,-0.75 -3,-1.49 -4.5,-2.23 -0.8,-0.4 -1.7,-0.86 -2.6,-1.26 -1.7,-0.86 -3.5,-1.77 -5.2,-2.63 -1.6,-0.86 -3.2,-1.61 -4.8,-2.41 -1.2,-0.63 -2.6,-1.25 -3.8,-1.88 -1.3,-0.69 -2.6,-1.32 -4,-2.01 -1,-0.51 -1.9,-0.97 -2.9,-1.48 -1.4,-0.63 -2.7,-1.32 -4,-2.01 -1,-0.45 -2,-0.97 -3,-1.43 -1.4,-0.74 -2.8,-1.43 -4.3,-2.17 -0.8,-0.4 -1.7,-0.86 -2.6,-1.26 -1.4,-0.74 -2.8,-1.43 -4.2,-2.11 -0.9,-0.46 -1.8,-0.92 -2.8,-1.38 -1.4,-0.74 -2.9,-1.43 -4.4,-2.23 -0.7,-0.34 -1.6,-0.8 -2.4,-1.14 -1.6,-0.8 -3,-1.55 -4.6,-2.35 -0.7,-0.34 -1.4,-0.69 -2.2,-1.09 -1.6,-0.8 -3.3,-1.65 -5,-2.46 -0.5,-0.28 -1.2,-0.57 -1.8,-0.91 -1.7,-0.86 -3.4,-1.66 -5.1,-2.52 -0.5,-0.28 -1.1,-0.57 -1.7,-0.86 -1.8,-0.85 -3.5,-1.71 -5.3,-2.63 -0.4,-0.23 -1,-0.51 -1.5,-0.74 -1.8,-0.86 -3.5,-1.77 -5.4,-2.63 -0.4,-0.23 -0.9,-0.46 -1.3,-0.69 -782.6,-387.62 -1637.5,-754.87 -2528.8,-1085.06 0,-0.06 -0.2,-0.11 -0.3,-0.11 -2.4,-0.92 -4.8,-1.78 -7.2,-2.69 -0.3,-0.06 -0.4,-0.17 -0.7,-0.23 -2.3,-0.86 -4.4,-1.66 -6.7,-2.46 -0.5,-0.23 -1,-0.4 -1.6,-0.63 -2,-0.74 -4,-1.49 -6.1,-2.23 -0.6,-0.23 -1.2,-0.46 -1.8,-0.69 -2,-0.68 -4,-1.43 -5.9,-2.17 -0.8,-0.29 -1.5,-0.57 -2.2,-0.86 -1.9,-0.63 -3.8,-1.31 -5.6,-2 -0.8,-0.34 -1.7,-0.63 -2.6,-0.97 -1.7,-0.63 -3.4,-1.26 -5.2,-1.95 -1,-0.34 -2.1,-0.74 -3,-1.09 -1.7,-0.63 -3.3,-1.2 -4.9,-1.77 -1.1,-0.46 -2.2,-0.86 -3.4,-1.26 -1.5,-0.57 -3,-1.14 -4.5,-1.66 -1.4,-0.51 -2.8,-1.03 -4.1,-1.54 -1.2,-0.46 -2.6,-0.97 -3.9,-1.37 -2.6,-1.03 -5.2,-1.95 -7.9,-2.92 v 0 0 c -2.6,-1.03 -5.4,-2 -8.1,-2.98 -0.7,-0.28 -1.2,-0.45 -1.9,-0.74 -2,-0.74 -4.1,-1.49 -6.1,-2.23 -1,-0.34 -1.9,-0.69 -2.9,-1.03 -1.7,-0.63 -3.4,-1.26 -5.2,-1.89 -1,-0.4 -2,-0.74 -3,-1.14 -1.6,-0.58 -3.4,-1.2 -5,-1.83 -1.1,-0.4 -2.2,-0.8 -3.3,-1.2 -1.6,-0.58 -3.2,-1.15 -4.8,-1.72 -1.1,-0.46 -2,-0.8 -3.2,-1.2 -1.6,-0.57 -3.2,-1.2 -4.9,-1.78 -1,-0.4 -2.2,-0.8 -3.2,-1.2 -1.7,-0.57 -3.3,-1.2 -4.9,-1.77 -1.1,-0.4 -2,-0.74 -3,-1.09 -1.7,-0.63 -3.5,-1.25 -5.1,-1.88 -1.1,-0.35 -2.1,-0.75 -3.1,-1.15 -1.8,-0.63 -3.5,-1.2 -5.2,-1.83 -1,-0.34 -1.8,-0.68 -2.7,-1.03 -1.8,-0.63 -3.6,-1.26 -5.4,-1.94 -0.9,-0.35 -2,-0.69 -2.8,-1.03 -2,-0.69 -3.8,-1.38 -5.8,-2.06 -0.7,-0.29 -1.4,-0.52 -2.1,-0.8 -2,-0.69 -4.1,-1.49 -6.1,-2.23 -0.8,-0.29 -1.4,-0.46 -2.1,-0.75 -10.9,-3.95 -21.7,-7.89 -32.6,-11.84 -0.3,-0.06 -0.6,-0.17 -0.9,-0.28 -2.4,-0.86 -4.9,-1.78 -7.3,-2.64 -0.4,-0.17 -0.7,-0.28 -1,-0.4 -2.4,-0.8 -4.7,-1.66 -7,-2.51 -0.6,-0.17 -1.1,-0.4 -1.6,-0.58 -2.3,-0.8 -4.5,-1.6 -6.7,-2.4 -0.6,-0.17 -1,-0.4 -1.5,-0.57 -2.2,-0.75 -4.3,-1.55 -6.4,-2.29 -0.7,-0.29 -1.4,-0.51 -2.1,-0.74 -2.1,-0.75 -4.3,-1.55 -6.3,-2.29 -0.6,-0.17 -1.1,-0.4 -1.6,-0.57 -2.3,-0.8 -4.5,-1.61 -6.7,-2.41 -0.5,-0.17 -0.9,-0.34 -1.4,-0.45 -2.4,-0.92 -4.6,-1.72 -7,-2.58 -0.4,-0.11 -0.7,-0.23 -1.1,-0.34 -2.3,-0.86 -4.8,-1.77 -7.1,-2.57 -0.4,-0.12 -0.8,-0.29 -1.1,-0.41 -2.6,-0.91 -5,-1.83 -7.6,-2.74 -0.1,-0.06 -0.4,-0.12 -0.4,-0.12 -1190.9,-426.91 -2371.8,-760.65 -3451.93,-976.25" />
      </g>
      <g transform="scale(1.38528)" id="g194">
        <path id="path196" style="fill:#371a45;fill-opacity:1;fill-rule:nonzero;stroke:none"
          d="m 11141.5,4651.78 c -19.6,13.86 -39.1,27.87 -58.5,41.87 1429.6,275.47 3057.4,729.24 4749.1,1350.42 37.3,13.71 74.5,27.43 111.6,41.14 114.8,22.67 233.5,47.14 356.3,73.56 -140.2,-53.49 -281.1,-106.62 -423.6,-158.96 C 14190.5,5380.8 12567.5,4927.54 11141.5,4651.78" />
      </g>
      <g transform="scale(1.74187)" id="g198">
        <path id="path200" style="fill:#ffffff;fill-opacity:1;fill-rule:nonzero;stroke:none"
          d="m 10250.8,11996.9 h 2806.8 c 491.2,0 893,401.8 893,893 V 15407 c 0,491.2 -401.8,893 -893,893 h -2806.8 c -491.15,0 -893.01,-401.8 -893.01,-893 v -2517.1 c 0,-491.2 401.86,-893 893.01,-893" />
      </g>
      <g transform="scale(1.74186)" id="g202">
        <path id="path204" style="fill:#ffffff;fill-opacity:1;fill-rule:nonzero;stroke:none"
          d="M 13950.5,15421.9 V 12875 c 0,-482.8 -408.5,-878.1 -908,-878.1 h -2776.7 c -499.28,0 -907.98,395.3 -907.98,878.1 v 2546.9 c 0,139.1 33.87,271.1 94.27,388.3 44.49,86.8 103.68,165.6 174.06,233.5 154.26,148.4 363.18,243.9 593.75,255.2 15.3,0.7 30.6,1.1 45.9,1.1 h 2776.7 0.4 c 365.5,-0.2 681.9,-211.7 825.6,-514.5 16.1,-33.9 30,-68.8 41.6,-105 26.3,-81.8 40.4,-168.7 40.4,-258.6" />
      </g>
      <g transform="scale(1.76152)" id="g206">
        <path id="path208" style="fill:#371a45;fill-opacity:1;fill-rule:nonzero;stroke:none"
          d="m 12911.9,16300 h -2775.5 c -587.21,0 -1064.87,-477.7 -1064.87,-1064.9 V 12746 c 0,-587.1 477.66,-1064.8 1064.87,-1064.8 h 2775.5 c 587.2,0 1064.9,477.7 1064.9,1064.8 v 2489.1 c 0,587.2 -477.7,1064.9 -1064.9,1064.9 m 0,-181.9 c 485.7,0 883,-397.3 883,-883 V 12746 c 0,-485.6 -397.3,-883 -883,-883 h -2775.5 c -485.65,0 -883.04,397.4 -883.04,883 v 2489.1 c 0,485.7 397.39,883 883.04,883 h 2775.5" />
      </g>
      <g transform="scale(1.92587)" id="g210">
        <path id="path212" style="fill:#ffffff;fill-opacity:1;fill-rule:nonzero;stroke:none"
          d="m 9401.07,14599.3 -67.92,-178.4 -57.63,-151.3 -50.11,-131.7 -295.3,-775.2 c -47.82,-13.3 -96.73,-25.4 -146.99,-35.4 -630.89,-129.7 -1464.18,7.3 -2601.38,1282.5 -177.89,199.4 -607.16,320.3 -420.02,773.7 191.4,463.8 460.73,405.9 460.73,405.9 0,0 -70.57,229.8 81.57,346.2 214.71,164.4 469.3,-79.1 716.56,-252.8 17.92,-12.6 22.64,68 53.8,148.7 29.9,77.3 84.22,154.6 197.93,149.7 332.27,-14.3 314.51,-772.8 314.51,-772.8 0,0 448.22,-492.2 1144.11,-709 176.49,-55 369.13,-92.2 574.45,-99.2 31.46,-0.9 63.6,-1.4 95.69,-0.9" />
      </g>
      <g transform="scale(1.85028)" id="g214">
        <path id="path216" style="fill:#b9afbe;fill-opacity:1;fill-rule:nonzero;stroke:none"
          d="m 8759.22,13916.8 c -550.3,0 -1294.56,262.4 -2261.39,1346.5 -52.32,58.6 -121.06,109.8 -187.59,159.5 -190.52,141.9 -355.09,264.5 -234.51,556.6 73.61,178.4 155.76,271.9 225,320.6 -10.22,-21.1 -21.3,-42.9 -33.89,-65.2 -209.54,-369.1 301.14,-728.2 518.46,-728.2 19.03,0 35.78,2.7 49.61,8.5 105.5,43.7 142.63,86 203.54,287.7 61.07,202 154.03,304.2 174.52,304.2 1.24,0 2.26,-0.3 2.92,-1.2 54.04,-60.5 55.28,-807.5 179.37,-1070.2 303.69,-643.1 1100.92,-972.3 1711.15,-972.4 2.97,0 5.95,0.1 8.86,0.1 -10.32,-38.3 -19.78,-76.9 -27.45,-115.7 -100.74,-18.7 -210.19,-30.8 -328.6,-30.8" />
      </g>
      <g transform="scale(1.93513)" id="g218">
        <path id="path220" style="fill:#371a45;fill-opacity:1;fill-rule:nonzero;stroke:none"
          d="m 8370.96,13142.6 c -562.8,-0.1 -1316.71,263.4 -2279.59,1343 -39.01,43.8 -95.39,85.8 -155.13,130.3 -186.08,138.7 -440.95,328.7 -277.45,725 138.03,334.4 321.53,426.9 438.06,449.6 -7.96,95.9 5.12,239 127.43,332.5 231.31,177 482.09,-8.7 703.37,-172.4 6.92,-5.2 13.8,-10.3 20.72,-15.4 31.21,102.7 102.84,258.6 292.64,249.9 365.56,-15.8 391.09,-646.9 391.29,-818 127.7,-128.4 810.08,-768.6 1722.78,-756.3 h 1.09 c 44.44,0 80.77,-35.8 81.34,-80.4 0.62,-44.9 -35.4,-81.8 -80.36,-82.4 -1084.17,-13.6 -1835.33,797.2 -1866.8,831.8 -14.06,15.5 -21.65,35.8 -21.19,56.6 4.96,220.4 -46.04,677.9 -235.18,686.1 -80.92,3.3 -112.6,-61.2 -142.52,-181.9 -12.45,-50.1 -23.2,-93.4 -70.74,-111.2 -26.72,-9.9 -56.79,-6 -80.52,10.7 -36.37,25.5 -72.86,52.6 -109.39,79.6 -232.49,172.1 -382.66,269.7 -507.57,174 -103.92,-79.5 -53.27,-254.7 -52.76,-256.5 8.17,-27.5 1.29,-57.5 -18.24,-78.6 -19.58,-21.2 -48.73,-30.6 -76.84,-24.5 -6.67,1 -207.12,29.8 -366.07,-355.3 -115.29,-279.3 42.06,-396.6 224.22,-532.3 63.61,-47.4 129.34,-96.4 179.37,-152.5 1251.8,-1403.6 2113.39,-1366.7 2652.58,-1216.8 43.36,12 88.21,-13.3 100.25,-56.6 12.04,-43.4 -13.28,-88.3 -56.63,-100.3 -154.72,-43 -333.88,-77.7 -538.16,-77.7" />
      </g>
      <g transform="scale(1.88985)" id="g222">
        <path id="path224" style="fill:#371a45;fill-opacity:1;fill-rule:nonzero;stroke:none"
          d="m 7256.02,16203.7 -18.73,-264.5 c -1.16,-16.3 -6.56,-31.1 -15.13,-43.7 l -2.28,-3.3 v 0 c -4.07,-4.1 -11.69,-13.8 -17.41,-21.7 -6.14,-8.5 -12.12,-17.2 -17.67,-26.4 -11.48,-18 -21.43,-37.1 -30.53,-56.6 -17.78,-39 -29.79,-80.3 -34.87,-122.3 -3.49,-21.1 -2.33,-42.1 -2.6,-63.5 3.18,-20.9 3.76,-42.7 10.54,-63.3 8.89,-42.5 30.21,-82.1 53.07,-121.4 l 2.17,-3.7 c 11.53,-19.9 4.81,-45.3 -15.03,-56.8 -18.04,-10.5 -40.69,-5.9 -53.34,9.9 -33.33,41.6 -66.04,86.4 -85.67,138.9 -12.06,25.4 -17.62,53 -25.24,80.3 -4.12,27.9 -9.15,56.1 -8.83,84.4 -1.33,56.6 6.82,113.3 22.59,167.1 8.1,26.8 17.46,53.4 29,79.1 5.61,12.9 11.8,25.6 18.46,38.3 7.15,13.2 13.02,24.2 23.66,39.9 v 0 l -17.41,-46.9 19.26,272 c 3.28,45.9 43.13,80.5 89.06,77.2 45.87,-3.2 80.48,-43.1 77.2,-89 l -0.27,-4" />
      </g>
      <g transform="scale(1.77274)" id="g226">
        <path id="path228" style="fill:#371a45;fill-opacity:1;fill-rule:nonzero;stroke:none"
          d="m 8331.19,14534 c -18.56,0 -37.06,7.2 -50.88,21.6 -27.02,28.1 -26.06,72.7 2.03,99.7 477.68,458.5 550.73,1565.1 551.41,1576.2 2.36,38.9 35.87,68.5 74.68,66.1 38.87,-2.4 68.43,-35.8 66.06,-74.7 -2.88,-47.6 -77,-1172.7 -594.51,-1669.3 -13.65,-13.1 -31.25,-19.6 -48.79,-19.6" />
      </g>
      <g transform="scale(1.73671)" id="g230">
        <path id="path232" style="fill:#ffffff;fill-opacity:1;fill-rule:nonzero;stroke:none"
          d="m 14801.2,12470.6 c -38.8,-857.2 -301,-1205 -624.5,-1314.8 -66.9,-22.7 -145.9,-36.2 -216.4,-33.8 -229,8 -395.2,104.6 -395.2,104.6 0,0 -84.4,-35.4 -161.7,-27.9 -598.5,58.1 -461.9,413.2 -340.4,982.1 34.9,163.7 68.7,345.2 83.2,542.2 69.2,930.9 -191.2,1811 -191.2,1811 l 100.3,835.2 111.6,930.8 c 0,0 58.5,-53 153.5,-154 83.2,-88.2 194.3,-212.7 318.4,-370.3 506.1,-641.7 1229.5,-1828.1 1162.4,-3305.1" />
      </g>
      <g transform="scale(1.74745)" id="g234">
        <path id="path236" style="fill:#371a45;fill-opacity:1;fill-rule:nonzero;stroke:none"
          d="m 13890.3,10963.2 c -6.4,0 -12.7,0.1 -19,0.4 -183.5,6.3 -329.9,64.7 -396.4,96.1 -39.5,-11.8 -101.2,-25.5 -162.7,-19.5 -224.3,21.7 -366.8,84.3 -448.5,196.8 -127.6,176.1 -71.3,428.6 -0.1,748.3 43.8,196.3 93.4,418.7 111.8,666.2 66.7,896.8 -183.9,1759 -186.4,1767.6 -14.1,47.7 13.2,97.8 61,112 47.7,14.1 97.8,-13.2 111.9,-60.9 10.7,-36.4 262.5,-901.3 193.3,-1832 -19.4,-260.6 -70.5,-489.9 -115.5,-692.1 -61.5,-275.4 -110,-492.9 -30,-603.2 48.4,-66.8 153.1,-107.1 319.9,-123.3 43.8,-4.3 99.7,13.9 117.7,21.2 l 41,16.8 38.7,-22.2 c 1.3,-0.7 150.3,-84.8 350.5,-91.6 56.5,-2 123.1,8.5 182.9,28.8 339.8,115.3 528.1,527.6 559.7,1225.4 51.3,1131.2 -383.6,2085 -757.5,2686 -407.4,654.7 -833.1,1045.2 -837.4,1049.1 -36.8,33.4 -39.5,90.4 -6,127.3 33.4,36.9 90.4,39.6 127.3,6.1 18,-16.3 445.6,-407.9 866.1,-1082.4 388.8,-623.6 841.1,-1614.6 787.7,-2794.2 -35.8,-790.5 -258.9,-1244.5 -682,-1388 -73.2,-24.8 -155.2,-38.7 -228,-38.7" />
      </g>
      <g transform="scale(1.5736)" id="g238">
        <path id="path240" style="fill:#371a45;fill-opacity:1;fill-rule:nonzero;stroke:none"
          d="m 14489.9,14919.2 c -32.4,0 -62.9,20 -74.6,52.4 -15,41.2 6.3,86.7 47.5,101.7 54.4,19.7 1336.1,477.8 1801.9,59 32.6,-29.4 35.3,-79.6 5.9,-112.2 -29.3,-32.6 -79.5,-35.3 -112.1,-5.9 -328.1,294.9 -1296.2,34.8 -1641.5,-90.2 -8.9,-3.3 -18.1,-4.8 -27.1,-4.8" />
      </g>
      <g transform="scale(1.82045)" id="g242">
        <path id="path244" style="fill:#ffffff;fill-opacity:1;fill-rule:nonzero;stroke:none"
          d="M 13152.8,11620.5 H 9127.89 c -10.6,326.4 -7.97,640.7 4.34,941.2 11.48,278.2 31.58,544.5 58.01,797.4 24,231.3 53.39,451.3 86.29,659.4 4.34,27.5 9.51,54.3 15.16,80.5 81.52,368.8 300.7,624.3 451.27,871.4 25.48,42 49.1,83.5 69.65,125.5 23.78,48.4 43.45,97.1 57.73,147.1 1.32,4.3 2.42,8.6 3.24,12.9 10.38,53.9 -4.72,120.3 -29.39,189.8 -54.1,152.5 -153.58,320.1 -125.68,403 46.31,136.5 86.52,243.8 116.4,319.5 33.95,86.5 54.27,131.8 54.27,131.8 h 2502.32 c 0,0 20.8,-44.6 55.6,-130.5 36.2,-88.9 87.2,-221.9 145.6,-396.5 36.1,-107.7 75.1,-231.3 114.9,-369.8 29.2,-101.2 59.1,-210.4 88.7,-327.2 14,-55.6 28.1,-113 41.8,-171.8 65.3,-275.6 127.8,-588 180.1,-934.6 29.7,-194.2 55.8,-398.9 77.3,-613.9 25.7,-254 44.7,-522 55.3,-802.8 11.3,-296.7 12.8,-608.2 2,-932.4" />
      </g>
      <g transform="scale(1.64531)" id="g246">
        <path id="path248" style="fill:#371a45;fill-opacity:1;fill-rule:nonzero;stroke:none"
          d="m 10468.2,16282.9 c 3.9,-75.2 -0.4,-147.7 -4.1,-220.1 -2.9,-72.6 -10.6,-143.7 -17,-215.1 -6.7,-71.3 -17.2,-141.7 -26.9,-212.4 -11,-70.3 -25.5,-140.1 -38,-210.3 l -19,-105.4 c -5.7,-35.2 -10.5,-70.6 -15.4,-106 -9.8,-70.6 -18.8,-141.5 -26.7,-212.6 -8.7,-70.9 -16.4,-141.9 -23.3,-213.2 -7.6,-71 -14.2,-142.3 -20.2,-213.6 -26.1,-285.1 -33.7,-571.8 -44.1,-858.3 -6.5,-143.2 -12.7,-286.5 -23.3,-429.7 -8.1,-143.4 -16.4,-286.6 -95.8,-429.1 -4.4,-7.9 -14.5,-10.9 -22.5,-6.4 -3.1,1.6 -5.4,4.1 -6.9,7 -73.6,145.4 -75.4,290.1 -74.7,434.5 -1.6,144.5 2.2,288.9 9,433.3 15.6,288.8 43.4,576.9 67.6,865.5 6,72 12.7,144.2 20.4,216.2 7,72.1 14.8,144.2 23.6,216.1 8,72.1 17.2,144 27.1,215.9 l 27.2,216.1 c 8.1,72.3 18.6,144.3 32,215.8 13.5,71.4 32.4,142 52.7,212.1 42.2,139.8 95.3,277.3 169.9,407 4.1,7.3 13.4,9.8 20.7,5.6 4.7,-2.6 7.3,-7.3 7.6,-12.3 l 0.1,-0.6" />
      </g>
      <g transform="scale(1.61139)" id="g250">
        <path id="path252" style="fill:#371a45;fill-opacity:1;fill-rule:nonzero;stroke:none"
          d="m 14844.2,13127.7 c -80.6,131.3 -88.5,263.6 -95.3,395.9 -9.6,132.1 -14.7,264.2 -19.7,396 -8,263.7 -14.6,527 -42.5,788.7 -13,130.9 -29,261.4 -47.1,391.7 -18.4,130.3 -36.5,260.8 -64.6,389.6 -12.9,64.6 -27.1,129 -38.1,194 -10.1,65.1 -18.1,130.7 -24.5,196.8 -6.6,65.9 -9.4,132.7 -11.5,199.9 -1.5,67.3 -1.4,135 6.1,204.5 v 0.4 c 0.9,8.6 8.6,14.8 17.3,13.9 5.1,-0.6 9.5,-3.7 11.9,-7.8 68.4,-121.1 117.3,-247 157.1,-375.1 40.6,-127.9 66.3,-259.3 82.2,-392.2 17.2,-132.7 39.9,-264.5 57.8,-397.1 18.4,-132.6 34.7,-265.5 47.9,-398.8 26.2,-266.4 53.4,-533 66.7,-799.7 5.4,-133.4 8.1,-266.7 5.1,-399.9 -0.7,-133.1 -3.1,-266.1 -78.8,-400.2 -4.8,-8.3 -15.4,-11.3 -23.7,-6.6 -2.7,1.5 -4.8,3.7 -6.3,6" />
      </g>
      <g transform="scale(1.49977)" id="g254">
        <path id="path256" style="fill:#b9afbe;fill-opacity:1;fill-rule:nonzero;stroke:none"
          d="m 14554.3,14517.5 h -1807.5 c 0,0 -309.7,180.5 -755.7,244.8 -11.8,37.9 -18.2,78.1 -18.2,119.7 v 128.9 c -122.7,-18.7 -253.9,-26 -384.4,-26 -124.8,0 -248.9,6.7 -364,16.6 0.7,15.2 1.4,30.2 2,45.4 2.8,77.4 5.5,154.9 8.3,232.3 18.6,-4.7 37.6,-8.2 56.9,-10.6 150.7,-18.2 326.6,-32.8 503.8,-32.8 80.4,0 161.1,3 239.8,10 1.5,-256.7 210.8,-465.1 467.8,-465.1 h 1982 c 257.9,0 467.8,210 467.8,467.9 v 15.2 c 122.1,-20.1 253,-28 383.2,-28 167.7,0 334.3,13.1 479.4,29.9 3.4,-90.1 6,-180.2 8.8,-270.4 -91.5,-6.4 -187.2,-10.4 -283.4,-10.4 -188.4,0 -378.6,15.4 -542.2,58.2 V 14882 c 0,-73.7 -20,-143.1 -54.8,-202.9 -240.3,-74.7 -389.6,-161.6 -389.6,-161.6 m -2574.1,1643.6 c 9.7,50.2 28.7,97.1 55.1,138.9 v -136 c -18,-1.1 -36.4,-2 -55.1,-2.9 m 3008.9,10.7 c -12.2,1.1 -24.3,2.3 -36.2,3.5 v 95.4 c 16.2,-30.8 28.5,-64 36.2,-98.9" />
      </g>
      <g transform="scale(1.41088)" id="g258">
        <path id="path260" style="fill:#371a45;fill-opacity:1;fill-rule:nonzero;stroke:none"
          d="m 11931.7,15946.7 c -51.4,4.4 -101,9.4 -148.3,14.8 5.9,114.8 13.6,227.7 22.9,338.5 41.9,-26.3 87.7,-45.9 136.3,-58.2 -2.9,-82.3 -5.8,-164.6 -8.7,-246.9 -0.8,-16.1 -1.5,-32.1 -2.2,-48.2" />
      </g>
      <g transform="scale(1.46875)" id="g262">
        <path id="path264" style="fill:#371a45;fill-opacity:1;fill-rule:nonzero;stroke:none"
          d="m 16158.4,15312 c -2.7,92.1 -5.5,184.1 -8.9,276.1 8.3,1 16.7,2 25,3 37.2,4.5 73.2,13.3 107.5,26.2 7.2,-96.1 13.3,-194 18,-293.4 -45.7,-4.5 -93,-8.5 -141.6,-11.9" />
      </g>
      <g transform="scale(1.48164)" id="g266">
        <path id="path268" style="fill:#ffffff;fill-opacity:1;fill-rule:nonzero;stroke:none"
          d="m 12553.1,15620.3 c -308.3,-124.7 -785.2,-98.7 -1110.4,-59.3 -195.1,23.6 -332,203.6 -303.3,397.9 26.2,177.4 182.3,306.3 361.5,298 304.1,-14.3 760.3,-20.9 1049.3,43.1 l 2.9,-679.7" />
      </g>
      <g transform="scale(1.45186)" id="g270">
        <path id="path272" style="fill:#b9afbe;fill-opacity:1;fill-rule:nonzero;stroke:none"
          d="m 12183.2,15955.7 c -149.2,0 -314.8,10.7 -492.8,32.2 -66.8,8.1 -126.1,42 -167,95.5 -40.9,53.7 -58,120.1 -48.2,187 1.5,10.1 3.6,20 6.2,29.6 52.6,-47.6 120,-80 196,-89.3 148.3,-17.9 327.8,-33.2 508.8,-33.2 82.7,0 165.6,3.1 246.2,10.7 V 15967 c -76.7,-7.5 -160.1,-11.3 -249.2,-11.3" />
      </g>
      <g transform="scale(1.49279)" id="g274">
        <path id="path276" style="fill:#371a45;fill-opacity:1;fill-rule:nonzero;stroke:none"
          d="m 11398.4,16030.2 c -119,0 -220.1,-86.7 -237.8,-206 -9.6,-65 7,-129.6 46.9,-181.8 39.7,-52.1 97.4,-85 162.3,-92.9 457.6,-55.4 830.4,-37 1049.9,51.9 46.6,18.9 65.2,97.1 71.1,129.8 23.7,132.7 -10.9,285.4 -42.2,337.6 -293.3,-58.3 -723.9,-53.6 -1038.6,-38.8 -3.9,0.2 -7.7,0.2 -11.6,0.2 m 1060.9,-526.6 h 0.3 -0.3 m -608.7,-196.6 c -178,0 -354.8,14.6 -506.1,33 -122,14.7 -230.2,76.7 -304.8,174.4 -74.7,97.9 -105.9,218.9 -87.9,340.7 34.1,230.8 235.4,396.5 468.1,385.7 442.6,-20.7 802.5,-6.4 1013.7,40.4 38.4,8.6 169.6,18.8 240.2,-208.4 66.4,-213.5 56.7,-573.2 -174.9,-667 -182.7,-74 -416.6,-98.8 -648.3,-98.8" />
      </g>
      <g transform="scale(1.48645)" id="g278">
        <path id="path280" style="fill:#ffffff;fill-opacity:1;fill-rule:nonzero;stroke:none"
          d="m 14862.3,15569.7 c 307.2,-124.3 782.6,-98.3 1106.8,-59.1 194.4,23.5 330.9,203 302.2,396.7 -26.1,176.7 -181.7,305.3 -360.2,297 -303.2,-14.3 -757.9,-20.9 -1045.9,43 l -2.9,-677.6" />
      </g>
      <g transform="scale(1.47515)" id="g282">
        <path id="path284" style="fill:#b9afbe;fill-opacity:1;fill-rule:nonzero;stroke:none"
          d="m 15593.6,15703.7 c -148,0 -279.6,10.7 -391.2,31.7 v 219.5 c 122.4,-21.6 255.7,-29.9 388,-29.9 178.3,0 354.9,15 500.9,32.7 74.5,9 140.6,40.7 192.2,87.3 2.9,-10.2 5.2,-20.8 6.8,-31.5 9.7,-65.9 -7.1,-131.2 -47.4,-184.1 -40.2,-52.7 -98.6,-86 -164.4,-94 -175.1,-21.2 -338,-31.7 -484.9,-31.7" />
      </g>
      <g transform="scale(1.49505)" id="g286">
        <path id="path288" style="fill:#371a45;fill-opacity:1;fill-rule:nonzero;stroke:none"
          d="m 14816.3,15577.8 c 219.2,-88.7 591.4,-107.1 1048.3,-51.8 64.8,7.9 122.4,40.8 162.1,92.8 39.8,52.1 56.4,116.6 46.8,181.6 -18.2,122.8 -125,211 -249,205.4 -314.3,-14.8 -744.2,-19.5 -1037,38.7 -31.3,-52 -65.8,-204.6 -42.2,-337.1 5.9,-32.6 24.5,-110.7 71,-129.6 m 568.2,-294 c -231.4,0 -464.9,24.9 -647.3,98.7 -231.3,93.6 -241,452.8 -174.7,666.1 70.6,226.8 201.6,216.6 240,208.1 210.7,-46.8 570.1,-61.1 1012.2,-40.4 232,11.1 433.2,-154.7 467.3,-385.1 18,-121.7 -13.2,-242.5 -87.8,-340.3 -74.5,-97.5 -182.5,-159.4 -304.3,-174.1 -151.1,-18.3 -327.7,-33 -505.4,-33" />
      </g>
      <g transform="scale(1.53544)" id="g290">
        <path id="path292" style="fill:#ffffff;fill-opacity:1;fill-rule:nonzero;stroke:none"
          d="m 14503,15945.6 v -1051.1 c 0,-195 -159.6,-354.6 -354.6,-354.6 h -1935.8 c -194.8,0 -354.4,159.6 -354.4,354.6 v 1051.1 c 0,195 159.6,354.4 354.4,354.4 h 1935.8 c 114.8,0 217.2,-55.3 282.3,-140.5 45.3,-59.5 72.3,-133.7 72.3,-213.9" />
      </g>
      <g transform="scale(1.50672)" id="g294">
        <path id="path296" style="fill:#b9afbe;fill-opacity:1;fill-rule:nonzero;stroke:none"
          d="m 14418.2,14921.6 h -1972.7 c -141.5,0 -256.7,115.2 -256.7,256.7 v 307.7 c 315.9,-247.5 831.5,-398.9 1308.7,-401.5 0.5,0 1.1,0 1.7,0 170.9,0 308.6,135.5 320.7,306.2 0.1,1.7 0.3,3.4 0.5,5.1 4.6,53.1 22.9,102.5 51.5,144.8 55.9,-83.3 150.9,-138.2 258.8,-138.2 108.1,0 203.2,55 259.1,138.5 27.5,-41 45.5,-89.1 50.9,-140.9 203.3,251 199.9,647.9 229.2,900 3.3,-16.3 5,-33.1 5,-50.4 v -1071.3 c 0,-141.5 -115.2,-256.7 -256.7,-256.7" />
      </g>
      <g transform="scale(1.54511)" id="g298">
        <path id="path300" style="fill:#371a45;fill-opacity:1;fill-rule:nonzero;stroke:none"
          d="m 12136.2,16096.1 c -138,0 -250.3,-112.3 -250.3,-250.2 v -1044.8 c 0,-137.9 112.3,-250.2 250.3,-250.2 H 14060 c 138,0 250.2,112.3 250.2,250.2 v 1044.8 c 0,137.9 -112.2,250.2 -250.2,250.2 H 12136.2 M 14060,14346.9 h -1923.8 c -250.4,0 -454.1,203.8 -454.1,454.2 v 1044.8 c 0,250.4 203.7,454.1 454.1,454.1 H 14060 c 250.4,0 454.1,-203.7 454.1,-454.1 v -1044.8 c 0,-250.4 -203.7,-454.2 -454.1,-454.2" />
      </g>
      <g transform="scale(1.48134)" id="g302">
        <path id="path304" style="fill:#22a7f0;fill-opacity:1;fill-rule:nonzero;stroke:none"
          d="m 14689.6,15983.1 c 0,-174.9 -141.9,-316.8 -316.8,-316.8 -175,0 -316.9,141.9 -316.9,316.8 0,175 141.9,316.9 316.9,316.9 174.9,0 316.8,-141.9 316.8,-316.9" />
      </g>
      <g transform="scale(1.475)" id="g306">
        <path id="path308" style="fill:#ffffff;fill-opacity:1;fill-rule:nonzero;stroke:none"
          d="m 14746.6,15988.3 c 0,0.1 -0.1,0.2 -0.1,0.4 3.5,17.4 5.6,35.3 6.1,53.6 -0.5,-18.4 -2.5,-36.4 -6,-54 m -624.2,0 c -4,20.6 -6.1,41.7 -6.1,63.6 0,100.4 46.5,189.9 119.1,248.1 -72.6,-58.3 -119.1,-147.8 -119.1,-248.1 0,-21.6 2.2,-42.7 6.3,-63 0,-0.2 -0.1,-0.4 -0.2,-0.6" />
      </g>
      <g transform="scale(1.48133)" id="g310">
        <path id="path312" style="fill:#bce4fa;fill-opacity:1;fill-rule:nonzero;stroke:none"
          d="m 14683.5,15920.3 c 0,0.1 -0.1,0.2 -0.1,0.2 4.1,20.4 6.2,41.4 6.2,62.8 0,40.5 -7.6,79.1 -21.7,114.7 -8.6,-22.3 -19.7,-43.4 -32.9,-62.9 -57,83.8 -153.2,138.8 -262,138.8 -109.1,0 -205.3,-55 -262.3,-138.8 -13.2,19.5 -24.3,40.6 -33,62.9 -14.1,-35.6 -21.6,-74.2 -21.6,-114.7 0,-21.4 2.1,-42.4 6.1,-62.7 v -0.1 c -4,20.3 -6.2,41.3 -6.2,62.8 0,99.9 46.2,189 118.5,247 54.3,43.6 123.4,69.7 198.5,69.7 174.8,0 316.7,-141.7 316.7,-316.7 0,-3.2 0,-6.4 -0.1,-9.6 -0.5,-18.2 -2.6,-36 -6.1,-53.4" />
      </g>
      <g transform="scale(1.45726)" id="g314">
        <path id="path316" style="fill:#2976b4;fill-opacity:1;fill-rule:nonzero;stroke:none"
          d="m 14610.3,15925.3 c -156.1,0 -286.2,111 -315.8,258.3 8.7,42.4 25.7,81.9 49.3,116.4 57.7,-85.3 155.6,-141.3 266.5,-141.3 110.9,0 208.8,56 266.5,141.3 23.5,-34.6 40.5,-74 49.2,-116.5 -29.6,-147.2 -159.7,-258.2 -315.7,-258.2" />
      </g>
      <g transform="scale(1.46297)" id="g318">
        <path id="path320" style="fill:#8e9dbb;fill-opacity:1;fill-rule:nonzero;stroke:none"
          d="m 14867.7,16120.4 c -8.6,42.3 -25.6,81.5 -49,116 13.4,19.7 24.6,41 33.3,63.6 14.3,-36 22,-75.1 22,-116.1 0,-21.7 -2.2,-43 -6.3,-63.5 m -629,0 c -4.1,20.5 -6.2,41.8 -6.2,63.5 0,41 7.6,80.1 21.9,116.1 8.8,-22.6 20,-43.9 33.4,-63.6 -23.5,-34.4 -40.4,-73.7 -49.1,-116" />
      </g>
      <g transform="scale(1.48859)" id="g322">
        <path id="path324" style="fill:#371a45;fill-opacity:1;fill-rule:nonzero;stroke:none"
          d="m 14302.8,16141.3 c -130.1,0 -235.9,-105.9 -235.9,-236 0,-130.1 105.8,-235.9 235.9,-235.9 130.1,0 235.9,105.8 235.9,235.9 0,130.1 -105.8,236 -235.9,236 z m 0,-630.6 c -217.6,0 -394.7,177 -394.7,394.6 0,217.6 177.1,394.7 394.7,394.7 217.6,0 394.7,-177.1 394.7,-394.7 0,-217.6 -177.1,-394.6 -394.7,-394.6" />
      </g>
      <g transform="scale(1.54269)" id="g326">
        <path id="path328" style="fill:#371a45;fill-opacity:1;fill-rule:nonzero;stroke:none"
          d="m 12939,14395 c -42.3,0 -76.6,34.2 -76.6,76.6 v 555.8 c 0,95.1 -45.4,186.1 -121.4,243.4 l -81.5,61.3 c -114.2,86 -182.4,222.7 -182.4,365.8 v 525.5 c 0,42.4 34.3,76.6 76.5,76.6 42.4,0 76.7,-34.2 76.7,-76.6 v -525.5 c 0,-95.2 45.3,-186.2 121.4,-243.4 l 81.4,-61.4 c 114.3,-86 182.5,-222.7 182.5,-365.7 v -555.8 c 0,-42.4 -34.3,-76.6 -76.6,-76.6" />
      </g>
      <g transform="scale(1.73106)" id="g330">
        <path id="path332" style="fill:#b9afbe;fill-opacity:1;fill-rule:nonzero;stroke:none"
          d="m 10155.8,15603.1 c -12.2,9.8 -24.4,19.6 -36.4,29.6 -6.4,4.8 -12.7,10.2 -18.7,15.5 -222.91,186.7 -414.64,406.8 -568.94,651.8 98.67,-30.8 201.61,-56.8 308.37,-76.7 137.43,-145.2 290.27,-276.8 456.47,-392.1 -15.7,-29.2 -32.6,-58.3 -50.5,-87.7 -28.2,-46.3 -58.7,-92.9 -90.3,-140.4" />
      </g>
      <g transform="scale(1.67873)" id="g334">
        <path id="path336" style="fill:#b9afbe;fill-opacity:1;fill-rule:nonzero;stroke:none"
          d="m 13953.8,16024.1 c -10.6,47 -21.2,93.1 -31.9,138.4 -5.7,24.4 -11.4,48.7 -17.2,72.7 34.2,21 67.8,42.5 101.2,64.8 36.6,-45.5 74.4,-94.1 113,-145.3 -38.6,-32.9 -78,-64.7 -118.3,-95.4 -15.5,-11.9 -31.1,-23.7 -46.8,-35.2" />
      </g>
      <g transform="scale(1.68502)" id="g338">
        <path id="path340" style="fill:#371a45;fill-opacity:1;fill-rule:nonzero;stroke:none"
          d="m 14066.1,16094.4 c -38.4,51 -76.1,99.4 -112.5,144.7 29.5,19.8 58.8,40.1 87.6,60.9 34.4,-41.5 70.2,-85.6 107.1,-132.5 -26.8,-24.9 -54.3,-49.3 -82.2,-73.1" />
      </g>
      <g transform="scale(1.68127)" id="g342">
        <path id="path344" style="fill:#b9afbe;fill-opacity:1;fill-rule:nonzero;stroke:none"
          d="m 12241.6,15443.7 c -134,0 -269.6,9.4 -406.1,28.9 -523.2,74.3 -993.3,285.5 -1378.9,592.6 32.4,48.9 63.8,96.8 92.9,144.5 18.4,30.2 35.8,60.2 52,90.3 316.9,-219.7 681.2,-381.6 1081.2,-467.2 211.4,-45.3 422.4,-67 630.4,-67 564.3,0 1106,160.1 1570.6,444.9 5.7,-24 11.5,-48.2 17.2,-72.7 10.6,-45.1 21.3,-91.2 31.8,-138.1 -125.3,-92.2 -257.9,-173.9 -396.6,-244.8 -392.5,-200.1 -833.9,-311.4 -1294.5,-311.4" />
      </g>
      <g transform="scale(1.98967)" id="g346">
        <path id="path348" style="fill:#ffffff;fill-opacity:1;fill-rule:nonzero;stroke:none"
          d="m 12652,14769.6 c -27.4,3.9 -46.4,29.2 -42.6,56.6 l 201,1427.4 c 3.8,27.3 29.2,46.4 56.5,42.5 v 0 c 287.1,-40.4 487.1,-305.9 446.7,-593 l -68.5,-486.8 c -40.4,-287.1 -306,-487.1 -593.1,-446.7" />
      </g>
      <g transform="scale(1.99135)" id="g350">
        <path id="path352" style="fill:#371a45;fill-opacity:1;fill-rule:nonzero;stroke:none"
          d="m 12849,16267.4 c -7.4,0 -14.7,-2.4 -20.7,-6.9 -7.4,-5.6 -12.2,-13.7 -13.5,-22.8 L 12614,14811.5 c -1.3,-9.2 1.1,-18.3 6.6,-25.6 5.6,-7.4 13.7,-12.2 22.8,-13.5 277.9,-39.3 536,155.2 575.2,433.2 l 68.5,486.3 c 39.1,278 -155.2,536 -433.2,575.2 -1.6,0.2 -3.3,0.3 -4.9,0.3 m -134.2,-1530.8 c -25,0 -50.3,1.7 -75.7,5.3 -17.3,2.4 -32.6,11.5 -43.1,25.4 -10.5,14 -15,31.2 -12.5,48.5 l 200.8,1426.2 c 2.4,17.3 11.5,32.6 25.4,43.1 14,10.5 31.3,14.9 48.5,12.5 142.8,-20.1 269.2,-94.6 356,-209.8 86.8,-115.2 123.5,-257.4 103.4,-400.2 l -68.5,-486.3 c -37.9,-269.4 -269.7,-464.7 -534.3,-464.7" />
      </g>
      <g transform="scale(1.86797)" id="g354">
        <path id="path356" style="fill:#b9afbe;fill-opacity:1;fill-rule:nonzero;stroke:none"
          d="m 13565.2,15818 c 46.3,106.4 86.2,217 118.9,331 131.1,9 252.2,64 344.6,151 l -11.2,-79.6 c -32.4,-229.7 -227.5,-397.4 -452.3,-402.4" />
      </g>
      <g transform="scale(2.0002)" id="g358">
        <path id="path360" style="fill:#371a45;fill-opacity:1;fill-rule:nonzero;stroke:none"
          d="m 12632.7,14772.9 c 224.6,-13.4 426.1,148.6 458.1,375.2 l 68.1,484.2 c 32,226.6 -117,437.8 -336.5,487.1 l -189.7,-1346.5 m 25.9,-171.6 c -28.1,0 -56.5,2 -85.2,6 -35.7,5.1 -67.4,23.7 -89.1,52.6 -21.7,28.8 -30.9,64.4 -25.8,100.2 l 199.9,1419.8 c 5,35.8 23.7,67.4 52.5,89.1 28.9,21.8 64.4,31 100.2,25.9 160.7,-22.6 303,-106.5 400.6,-236.1 97.7,-129.7 139,-289.6 116.4,-450.3 l -68.2,-484.2 c -42.7,-303.1 -303.5,-522.9 -601.3,-523" />
      </g>
      <g transform="scale(2.07512)" id="g362">
        <path id="path364" style="fill:#ffffff;fill-opacity:1;fill-rule:nonzero;stroke:none"
          d="m 7819.66,16261.2 c 26.27,-3.7 44.53,-27.9 40.82,-54.2 l -192.71,-1368.6 c -3.66,-26.2 -27.95,-44.5 -54.17,-40.8 h -0.05 c -275.26,38.8 -467.01,293.4 -428.26,568.7 l 65.73,466.7 c 38.74,275.3 293.38,467 568.64,428.2" />
      </g>
      <g transform="scale(2.0745)" id="g366">
        <path id="path368" style="fill:#371a45;fill-opacity:1;fill-rule:nonzero;stroke:none"
          d="m 7750.75,16256.3 c -105.32,0 -207.33,-33.9 -292.99,-98.4 -104.26,-78.6 -171.75,-193 -189.92,-322.3 l -65.75,-466.8 c -18.18,-129.3 15.04,-257.9 93.56,-362.2 78.53,-104.3 193.01,-171.7 322.25,-189.9 18.27,-2.6 34.99,10.1 37.5,28.2 l 192.77,1369 c 1.26,8.8 -1.01,17.6 -6.31,24.6 -5.35,7.1 -13.11,11.7 -21.89,12.9 -23.14,3.3 -46.27,4.9 -69.22,4.9 m -128.17,-1469.5 c -2.9,0 -5.84,0.2 -8.78,0.6 -137.09,19.3 -258.47,90.8 -341.77,201.4 -83.3,110.6 -118.53,247 -99.2,384.1 l 65.7,466.9 c 19.33,137.1 90.87,258.4 201.45,341.7 110.58,83.3 247,118.5 384.09,99.2 16.63,-2.3 31.33,-11 41.41,-24.4 10.07,-13.4 14.36,-29.9 12,-46.5 l -192.77,-1369 c -4.39,-31.3 -31.33,-54 -62.13,-54" />
      </g>
      <g transform="scale(1.96385)" id="g370">
        <path id="path372" style="fill:#b9afbe;fill-opacity:1;fill-rule:nonzero;stroke:none"
          d="m 7986.95,15737.7 c -88.7,27.4 -166.35,81.7 -223.28,157.3 -71.49,94.9 -101.74,212 -85.14,329.7 l 10.59,75.3 c 64.52,-97 160.55,-172.6 275.84,-210.7 -0.82,-118.5 6.67,-236 21.99,-351.6" />
      </g>
      <g transform="scale(2.08334)" id="g374">
        <path id="path376" style="fill:#371a45;fill-opacity:1;fill-rule:nonzero;stroke:none"
          d="m 7777.38,16115.9 v 0 0 m -59.38,4.1 c -90.38,0 -177.93,-29.1 -251.42,-84.4 -89.47,-67.4 -147.36,-165.6 -163.01,-276.6 l -65.42,-464.8 c -15.65,-110.9 12.86,-221.3 80.25,-310.8 60.53,-80.3 145.83,-135.2 242.88,-156.9 l 182.07,1292.8 c -8.45,0.5 -16.9,0.7 -25.35,0.7 m -127.73,-1463.3 c -6,0 -12.04,0.5 -18.19,1.3 -154.27,21.7 -290.88,102.3 -384.62,226.7 -93.74,124.5 -133.44,278 -111.7,432.4 l 65.48,464.8 c 21.69,154.3 102.23,290.9 226.7,384.7 124.46,93.7 277.97,133.4 432.33,111.6 h -0.04 c 34.36,-4.8 64.75,-22.7 85.58,-50.4 20.88,-27.7 29.66,-61.8 24.86,-96.2 l -191.95,-1363.2 c -9.12,-64.7 -64.85,-111.7 -128.45,-111.7" />
      </g>
      <g transform="scale(2.26438)" id="g378">
        <path id="path380" style="fill:#ffffff;fill-opacity:1;fill-rule:nonzero;stroke:none"
          d="m 11252.4,13488.1 c -249.5,-1165.6 -1396.71,-1908.2 -2562.33,-1658.7 -1165.66,249.5 -1908.29,1396.7 -1658.78,2562.3 249.52,1165.6 1396.72,1908.3 2562.34,1658.8 1165.57,-249.5 1908.27,-1396.7 1658.77,-2562.4" />
      </g>
      <g transform="scale(2.26638)" id="g382">
        <path id="path384" style="fill:#371a45;fill-opacity:1;fill-rule:nonzero;stroke:none"
          d="m 9133.32,16070.7 c -988.76,0 -1879.87,-689.6 -2095.02,-1694.6 -247.31,-1155.4 491.49,-2296.6 1646.9,-2543.9 1155.37,-247.4 2296.7,491.4 2544,1646.8 247.3,1155.5 -491.5,2296.7 -1646.89,2544 -150.5,32.2 -300.96,47.7 -448.99,47.7 m 0.88,-4313.3 c -149.97,0 -302.2,15.6 -454.69,48.3 -1170.02,250.4 -1918.12,1406.1 -1667.68,2576.1 250.44,1170 1406.03,1918.2 2576.18,1667.7 1169.99,-250.5 1918.09,-1406.1 1667.69,-2576.1 -217.9,-1017.6 -1120.3,-1716 -2121.5,-1716" />
      </g>
      <g transform="scale(1.77269)" id="g386">
        <path id="path388" style="fill:#b9afbe;fill-opacity:1;fill-rule:nonzero;stroke:none"
          d="m 11678,15145.4 c -183.9,0 -370.6,19.3 -557.5,59.3 -691.4,148 -1262.73,553.9 -1634.71,1095.3 165.06,-155.4 380.95,-320.6 633.71,-467.8 309.8,-180.5 675,-333.7 1069.9,-408.3 239.4,-45.2 473.6,-64.6 697,-64.6 114.1,0 225.2,5.1 332.7,14.3 0.3,0.1 0.4,0.1 0.7,0.1 0.5,0 0.9,0.1 1.4,0.1 337.9,29.3 639.5,100.2 879.3,185.9 -418.2,-264.9 -909.8,-414.3 -1422.5,-414.3" />
      </g>
      <g transform="scale(2.27578)" id="g390">
        <path id="path392" style="fill:#371a45;fill-opacity:1;fill-rule:nonzero;stroke:none"
          d="m 11196,13420.6 h 0.3 -0.3 m -2100.38,2522.2 c -956.24,0 -1818.1,-667 -2026.17,-1638.9 -239.17,-1117.4 475.31,-2221.2 1592.78,-2460.4 1117.38,-239.2 2221.17,475.3 2460.47,1592.8 239.1,1117.5 -475.4,2221.2 -1592.81,2460.4 -145.58,31.2 -291.07,46.1 -434.27,46.1 m 0.92,-4295.6 c -153.66,0 -309.56,16.1 -465.73,49.6 -1198.4,256.5 -1964.65,1440.1 -1708.12,2638.5 256.53,1198.4 1440.26,1964.7 2638.62,1708.2 C 10759.7,15786.9 11526,14603.3 11269.4,13404.9 11046.3,12362.6 10122,11647.2 9096.54,11647.2" />
      </g>
      <g transform="scale(2.17184)" id="g394">
        <path id="path396" style="fill:#371a45;fill-opacity:1;fill-rule:nonzero;stroke:none"
          d="m 11712.7,14007.8 c -85.7,-432 -305.4,-805.1 -611,-1089.4 -229.1,-213.1 -1054.5,-501.9 -1968.72,-329.1 -847.67,160.2 -1528.06,764.1 -1658.5,1048.4 -174,379.4 -234.69,808.2 -149.05,1240.2 226.68,1143 1302.72,1422.1 2514.27,1181.8 1211.6,-240.2 2099.6,-908.9 1873,-2051.9" />
      </g>
      <g transform="scale(1.95731)" id="g398">
        <path id="path400" style="fill:#9b8da2;fill-opacity:1;fill-rule:nonzero;stroke:none"
          d="m 12165.8,15444.6 c -30.1,0 -59.7,5.4 -88.1,16.5 -164.6,64.8 -225.5,301.4 -136.1,528.5 74,187.9 227.6,310.4 371.7,310.4 30.1,0 59.7,-5.3 88.1,-16.5 133,-52.4 198.3,-217 171.2,-398 -39.4,-102.4 -84.5,-201.6 -134.9,-297.5 -77.8,-90.1 -177,-143.4 -271.9,-143.4" />
      </g>
      <g transform="scale(1.83559)" id="g402">
        <path id="path404" style="fill:#9b8da2;fill-opacity:1;fill-rule:nonzero;stroke:none"
          d="m 12434,15881.3 c -28,0 -55.7,6.8 -80.9,21 -89.3,50.3 -114.1,175.5 -55.4,279.5 42.1,74.7 115.8,118.2 187,118.2 28,0 55.7,-6.8 80.9,-21 89.3,-50.3 114.1,-175.5 55.4,-279.5 -42.1,-74.7 -115.7,-118.2 -187,-118.2" />
      </g>
      <g transform="scale(1.72182)" id="g406">
        <path id="path408" style="fill:#7e7b8a;fill-opacity:1;fill-rule:nonzero;stroke:none"
          d="m 12237.6,15813.1 c -230,0 -471.2,20 -717.7,66.5 -406.5,76.8 -782.4,234.5 -1101.5,420.4 319.1,-185.7 695.1,-343.5 1101.6,-420.3 246.6,-46.6 487.9,-66.6 717.9,-66.6 117.3,0 231.7,5.2 342.2,14.7 -110.6,-9.5 -225,-14.7 -342.5,-14.7 m 343.3,14.8 c 0.4,0 0.9,0.1 1.4,0.2 -0.5,-0.1 -1,-0.2 -1.4,-0.2" />
      </g>
      <g transform="scale(2.01978)" id="g410">
        <path id="path412" style="fill:#acafb4;fill-opacity:1;fill-rule:nonzero;stroke:none"
          d="m 12571.7,15869.6 c -45.8,155.9 -116.4,299.2 -208.6,430.2 0,0.1 0,0.1 0,0.2 92.2,-131.1 162.8,-274.4 208.6,-430.3 v -0.1" />
      </g>
      <g transform="scale(1.96646)" id="g414">
        <path id="path416" style="fill:#2a1a3b;fill-opacity:1;fill-rule:nonzero;stroke:none"
          d="m 11828.1,14033.2 c 0,0 0.1,0 0.1,0 0,0 -0.1,0 -0.1,0 m 0.4,0.1 c 200.4,73.5 350.9,158.3 432.6,234.3 55.6,51.8 108.7,106.1 158.9,163 -50.2,-56.9 -103.2,-111.3 -158.8,-163 -81.8,-76 -232.3,-160.8 -432.7,-234.3 m 1095.7,2225.3 c -3.7,13.9 -7.5,27.7 -11.6,41.4 v 0 c 4,-13.7 7.9,-27.5 11.6,-41.4" />
      </g>
      <g transform="scale(2.01976)" id="g418">
        <path id="path420" style="fill:#2a1a3b;fill-opacity:1;fill-rule:nonzero;stroke:none"
          d="m 10432.7,13480.5 c -196.1,0 -401.8,17 -612.03,56.7 -346.58,65.5 -667.11,200 -939.08,358.4 -0.39,0.2 -0.79,0.4 -1.23,0.6 236.96,-39.5 469.01,-56.7 691.17,-56.7 915.17,0 1663.77,292.3 1909.57,521.1 230,213.8 424.4,464.7 572,745.5 38.9,45.1 72.3,99.8 96.8,161.8 16.5,42.2 27.8,84.8 34,126.4 55.8,144.8 99.9,296 131,452.9 31.3,157.5 46.8,308.4 48.3,452.8 92.2,-131 162.9,-274.3 208.7,-430.2 3.9,-13.3 7.7,-26.7 11.2,-40.2 60.2,-229.2 67.5,-484.6 11.5,-767 -76.9,-388 -254.5,-731.8 -502.3,-1012.8 -48.9,-55.4 -100.6,-108.3 -154.7,-158.7 -79.6,-74 -226.2,-156.6 -421.2,-228.1 -0.1,0 -0.2,0 -0.3,-0.1 0,0 -0.1,0 -0.1,0 -213.3,-78.2 -484.6,-143.2 -789.8,-169.7 -0.4,0 -0.8,-0.1 -1.2,-0.1 -0.2,0 -0.5,0 -0.6,-0.1 -94.2,-8.1 -191.7,-12.5 -291.7,-12.5" />
      </g>
      <g transform="scale(1.90753)" id="g422">
        <path id="path424" style="fill:#6b6577;fill-opacity:1;fill-rule:nonzero;stroke:none"
          d="m 12762.2,15994.8 c 51.8,98.3 98.1,200.2 138.5,305.2 -6.5,-44.1 -18.5,-89.1 -36,-133.8 -25.9,-65.7 -61.3,-123.6 -102.5,-171.4" />
      </g>
      <g transform="scale(2.2044)" id="g426">
        <path id="path428" style="fill:#371a45;fill-opacity:1;fill-rule:nonzero;stroke:none"
          d="m 11549.7,14756.5 c -19.8,0 -39.4,8.5 -53,24.8 l -6,7 -4.1,9 c -262.8,582.7 -908.9,1015.1 -1772.83,1186.4 -868.68,172.3 -1632.06,9.6 -2094.54,-446.4 l -5.31,-4.7 c -28.85,-23.3 -71.36,-19.7 -95.68,8.7 -24.22,28.3 -21.54,70.5 5.58,95.5 495.65,487.5 1303.49,663.2 2216.76,482.1 906.52,-179.8 1587.82,-639.5 1870.12,-1261.5 15.2,-28.9 8.1,-65.3 -18.5,-86.2 -12.6,-9.9 -27.5,-14.7 -42.5,-14.7" />
      </g>
      <g transform="scale(2.10812)" id="g430">
        <path id="path432" style="fill:#9b8da2;fill-opacity:1;fill-rule:nonzero;stroke:none"
          d="m 7915.5,14526.4 c 0,0 -134.34,1234 583.55,1572.8 326.64,154.2 691.09,200.8 988.23,200.8 355.91,0 615.22,-66.9 597.52,-96.1 0,0 -1045.08,-43.7 -1591.58,-754.6 -421.42,-548.3 -577.72,-922.9 -577.72,-922.9" />
      </g>
      <g transform="scale(1.49548)" id="g434">
        <path id="path436" style="fill:#371a45;fill-opacity:1;fill-rule:nonzero;stroke:none"
          d="m 16300,10513.1 c 0,-44.7 -36.2,-80.9 -80.8,-80.9 -44.6,0 -80.8,36.2 -80.8,80.9 0,44.6 36.2,80.8 80.8,80.8 44.6,0 80.8,-36.2 80.8,-80.8" />
      </g>
      <g transform="scale(1.43404)" id="g438">
        <path id="path440" style="fill:#c38415;fill-opacity:1;fill-rule:nonzero;stroke:none"
          d="m 16300,11040.3 c -92.4,5.7 -182.3,24.9 -267.9,56.1 31.7,14.6 63.1,29.2 94.4,43.9 55.5,-38.1 113.4,-71.5 173.5,-100 m -4047.7,0 c 349.2,165.6 628.4,499.7 754.6,918.9 87.5,32.1 174.5,64.5 260.8,97.1 -97.5,-563.5 -519.1,-985.7 -1015.4,-1016 m 3386.4,312.1 c -257.3,259.9 -410.9,657.3 -368.3,1098.8 22.7,234.7 55.1,382.8 85.9,490.7 60.9,29.3 120.8,58.3 179.8,87.4 -7.1,-36 -14.1,-74.9 -20.8,-117 -12.6,-78.9 -24.3,-169.2 -34.4,-273.8 -1.9,-20.1 -3.5,-40.2 -4.9,-60.2 -11.8,-184.5 4.7,-362.1 44.7,-527.9 0.1,-0.6 0.2,-1.2 0.5,-1.7 0,-0.3 0,-0.5 0.1,-0.7 49.6,-204.4 134.8,-390.8 247,-550.5 15.5,-22 31.4,-43.4 47.8,-64.3 -58.3,-26.8 -117.4,-53.8 -177.4,-80.8 m -2559.5,1056 c 2.3,75.3 -0.2,152.2 -7.8,230.1 -32.8,340.4 -82.7,530.6 -125.8,666.7 -61.3,193.2 -109.3,277.8 -76.9,528.3 1.3,10.4 2.7,21 4.3,31.8 23.3,157.9 141.1,278.9 294.2,371 232.3,27.8 464.1,41.5 694.8,41.5 588.3,0 1167.9,-89.1 1720.4,-258.8 0.6,-125.2 26.1,-234.2 92.7,-326.1 6,-8.2 12.2,-16.3 18.7,-24 -1.1,-46.1 -6.3,-86.2 -14.3,-124.5 -77.7,-40.4 -157.8,-81.1 -239.9,-122.1 -1.6,13.3 -3.4,27 -5.5,41.5 -63.7,432 -984.7,529.3 -984.7,529.3 h -346.5 c 0,0 -921,-97.3 -984.7,-529.3 -55.4,-375.6 91.7,-318.8 160.4,-979.8 -66,-25.2 -132.6,-50.6 -199.4,-75.6" />
      </g>
      <g transform="scale(1.41878)" id="g442">
        <path id="path444" style="fill:#a6531b;fill-opacity:1;fill-rule:nonzero;stroke:none"
          d="m 16204.6,11215.8 c -147.6,53.7 -282.8,142.7 -397.7,258.7 60.7,27.4 120.4,54.6 179.3,81.7 91.1,-116.1 197,-216.1 313.8,-296.1 -31.6,-14.8 -63.4,-29.5 -95.4,-44.3" />
      </g>
      <g transform="scale(1.37945)" id="g446">
        <path id="path448" style="fill:#a6531b;fill-opacity:1;fill-rule:nonzero;stroke:none"
          d="m 13521.7,12432.5 c 44.1,146.7 70.3,303.4 75.1,466.9 69.4,26.1 138.7,52.4 207.3,78.6 1.1,-11.1 2.3,-22.5 3.4,-34.1 13.7,-142.2 7.9,-280 -14.7,-410.5 -89.8,-33.9 -180.2,-67.5 -271.1,-100.9 m 2442.3,1021.6 c 59.4,207.9 113.2,272.3 86.6,499.4 85.3,42.5 168.6,84.9 249.4,126.9 -28.7,-137.5 -93.5,-254.3 -149.1,-535.5 -61.3,-30.2 -123.5,-60.4 -186.9,-90.8" />
      </g>
      <g transform="scale(1.37101)" id="g450">
        <path id="path452" style="fill:#c39a5e;fill-opacity:1;fill-rule:nonzero;stroke:none"
          d="m 16298.8,14663.5 c -577.9,177.5 -1184.1,270.7 -1799.5,270.7 -241.3,0 -483.8,-14.3 -726.8,-43.4 76.2,45.7 160.9,84.6 247.1,117.6 h 1825.6 c 178.7,-68.2 349.9,-162 454.8,-289.2 -0.9,-18.9 -1.3,-37.4 -1.2,-55.7" />
      </g>
      <g transform="scale(1.33276)" id="g454">
        <path id="path456" style="fill:#371a45;fill-opacity:1;fill-rule:nonzero;stroke:none"
          d="m 16300,15439.2 h -1878 c 343.4,131 713.1,170 713.1,170 h 451.6 c 0,0 369.9,-39 713.3,-170" />
      </g>
      <g transform="scale(1.38075)" id="g458">
        <path id="path460" style="fill:#371a45;fill-opacity:1;fill-rule:nonzero;stroke:none"
          d="m 16299.5,14196.4 c -6.7,8.1 -13.3,16.4 -19.4,25 -69.3,95.4 -95.7,208.6 -96.3,338.7 -0.1,18.1 0.3,36.5 1.2,55.2 29.7,-36 54,-74.7 71.6,-116.3 13.3,-31.1 22.7,-63.9 27.8,-98.4 11,-74.4 15.6,-135.4 15.3,-188.4 0,-5.4 -0.1,-10.6 -0.2,-15.8" />
      </g>
      <g transform="scale(1.6626)" id="g462">
        <path id="path464" style="fill:#ffffff;fill-opacity:1;fill-rule:nonzero;stroke:none"
          d="m 13128.8,13095.6 c 0,0 1225.5,714.4 2239.4,-316 931.8,-946.9 -157.3,-1881.3 -157.3,-1881.3 0,0 335.6,-1290.34 -535.8,-1455.87 -739.5,-140.44 -1407.8,574.37 -1322.3,1458.67 70.2,727.2 229.8,659.5 171,1058.3 -66.6,451.5 -1029.2,553.2 -1029.2,553.2 h -362 c 0,0 -962.6,-101.7 -1029.2,-553.2 -58.8,-398.8 100.8,-331.1 171,-1058.3 85.5,-884.3 -582.8,-1599.11 -1322.28,-1458.67 -871.41,165.53 -535.79,1455.87 -535.79,1455.87 0,0 -1089.08,934.4 -157.35,1881.3 1013.92,1030.4 2239.42,316 2239.42,316 h 1630.4" />
      </g>
      <g transform="scale(1.54485)" id="g466">
        <path id="path468" style="fill:#b97d18;fill-opacity:1;fill-rule:nonzero;stroke:none"
          d="m 15592.8,10143 c -162.3,0 -318.5,37.5 -462,105.4 h 0.1 c 143.4,-67.9 299.6,-105.3 461.8,-105.3 12.5,0 24.8,0.2 37.3,0.7 v -0.1 c -12.4,-0.5 -24.8,-0.7 -37.2,-0.7 m 184.1,16 c 0,0.1 0.1,0.1 0.1,0.1 5.5,1 11,2 16.7,3 226.1,43 376.7,156.4 475.1,303.7 3.4,0.6 6.9,1.2 10.4,1.7 6.9,1.2 13.9,2.6 20.8,3.9 -96.6,-145.1 -254.8,-261.7 -506.3,-309.3 -5.5,-1.1 -11.2,-2.1 -16.8,-3.1" />
      </g>
      <g transform="scale(1.49528)" id="g470">
        <path id="path472" style="fill:#371a45;fill-opacity:1;fill-rule:nonzero;stroke:none"
          d="m 16148.2,10480 v 0 c 50.1,1.8 100.8,7.1 151.8,15.9 0,0 -0.1,0 -0.1,-0.1 -50.9,-8.8 -101.6,-14 -151.7,-15.8" />
      </g>
      <g transform="scale(1.43405)" id="g474">
        <path id="path476" style="fill:#925f26;fill-opacity:1;fill-rule:nonzero;stroke:none"
          d="m 16300,11040.3 h -0.1 c -60.1,28.4 -118,61.8 -173.5,99.9 v 0 c 55.6,-38.1 113.5,-71.5 173.6,-99.9 m -484,392.9 c -16.4,20.9 -32.3,42.3 -47.8,64.2 15.4,-21.9 31.4,-43.3 47.8,-64.2 v 0" />
      </g>
      <g transform="scale(1.41878)" id="g478">
        <path id="path480" style="fill:#7f3f2a;fill-opacity:1;fill-rule:nonzero;stroke:none"
          d="m 16300,11260.1 c -116.8,80 -222.7,180 -313.8,296.1 v 0 c 91.1,-116.1 197,-216.1 313.8,-296.1 v 0" />
      </g>
      <g transform="scale(1.07793)" id="g482">
        <path id="path484" style="fill:#b97d18;fill-opacity:1;fill-rule:nonzero;stroke:none"
          d="m 15638,14536.6 c -94.8,0 -190.9,8.9 -288,27.3 -360.4,68.3 -587,235.4 -725.5,443.3 9.9,-1.9 19.8,-3.8 29.8,-5.5 5,-0.9 9.9,-1.7 14.8,-2.5 141,-211.1 356.9,-373.6 681,-435.2 97,-18.4 193.1,-27.3 287.9,-27.3 232.5,0 456.2,53.5 661.8,151 0.1,0 0.1,0 0.2,0 -205.6,-97.5 -429.4,-151.1 -662,-151.1" />
      </g>
      <g transform="scale(1.17057)" id="g486">
        <path id="path488" style="fill:#925f26;fill-opacity:1;fill-rule:nonzero;stroke:none"
          d="m 15009.9,13525.3 c 427.9,202.7 769.9,612 924.6,1125.7 v 0 c -154.6,-513.6 -496.6,-922.9 -924.5,-1125.7 -0.1,0 -0.1,0 -0.1,0 m 1013.1,1676 c 2.8,92.3 -0.3,186.4 -9.5,281.9 -40.3,417 -101.3,650 -154.1,816.8 52.8,-166.8 113.9,-399.8 154.2,-816.8 9.2,-95.5 12.3,-189.6 9.5,-281.9 -0.1,-0.1 0.1,0 -0.1,0" />
      </g>
      <g transform="scale(1.15069)" id="g490">
        <path id="path492" style="fill:#7f3f2a;fill-opacity:1;fill-rule:nonzero;stroke:none"
          d="m 16209.7,14904.1 c 53,175.9 84.3,363.7 90.1,559.8 0.2,0 -0.1,-0.1 0.1,0 -5.8,-196.1 -37.2,-383.9 -90.1,-559.8 h -0.1" />
      </g>
      <g transform="scale(1.38071)" id="g494">
        <path id="path496" style="fill:#925f26;fill-opacity:1;fill-rule:nonzero;stroke:none"
          d="m 16120.8,12513.3 c -0.1,0.3 -0.1,0.5 -0.1,0.8 0,-0.3 0,-0.5 0.1,-0.8 m -0.6,2.6 c -41.5,172.2 -58.6,356.6 -46.4,548.2 -12.2,-191.6 4.9,-376 46.4,-548.2 m -5.6,895.2 c 6.9,43.7 14.2,84 21.6,121.5 v 0 c -7.4,-37.5 -14.7,-77.8 -21.6,-121.5 m 170.6,656.4 c 8.3,39.9 13.6,81.5 14.8,129.4 v 0 c -1.2,-47.9 -6.4,-89.5 -14.8,-129.4 v 0" />
      </g>
      <g transform="scale(1.37946)" id="g498">
        <path id="path500" style="fill:#7f3f2a;fill-opacity:1;fill-rule:nonzero;stroke:none"
          d="m 16150.8,13544.9 c 55.6,281.2 120.4,397.9 149.1,535.4 h 0.1 c -28.8,-137.5 -93.5,-254.2 -149.2,-535.4 v 0" />
      </g>
      <g transform="scale(1.38073)" id="g502">
        <path id="path504" style="fill:#371a45;fill-opacity:1;fill-rule:nonzero;stroke:none"
          d="m 16299.8,14196.7 v 0 c 0.1,5.1 0.2,10.3 0.2,15.7 0,-5.3 -0.1,-10.6 -0.2,-15.7" />
      </g>
      <g transform="scale(1.25248)" id="g506">
        <path id="path508" style="fill:#925f26;fill-opacity:1;fill-rule:nonzero;stroke:none"
          d="m 14734.1,15838.9 c 1.6,11.9 3.2,24 5.1,36.6 26.6,180.7 161.3,319.1 336.6,424.4 l 0.1,0.1 c -175.2,-105.4 -310.1,-243.9 -336.7,-424.7 -1.9,-12.4 -3.5,-24.6 -5.1,-36.4" />
      </g>
      <g transform="scale(1.37101)" id="g510">
        <path id="path512" style="fill:#926d55;fill-opacity:1;fill-rule:nonzero;stroke:none"
          d="m 16300,14719.2 c -104.9,127.2 -276.1,221 -454.8,289.2 h 0.3 c 178.6,-68.2 349.7,-161.9 454.5,-289.1 0,-0.1 0,-0.1 0,-0.1 m -2527.6,171.5 c 76.1,45.8 160.7,84.7 247,117.7 h 0.2 c -86.2,-33 -170.9,-71.9 -247.1,-117.6 l -0.1,-0.1" />
      </g>
      <g transform="scale(1.33279)" id="g514">
        <path id="path516" style="fill:#371a45;fill-opacity:1;fill-rule:nonzero;stroke:none"
          d="m 16300,15438.9 h -0.3 c -343.4,131 -713.2,170 -713.2,170 h -451.7 c 0,0 -369.7,-39 -713,-170 h -0.3 c 343.4,131.1 713.4,170.1 713.4,170.1 h 451.7 c 0,0 370,-39 713.4,-170.1" />
      </g>
      <g transform="scale(1.37708)" id="g518">
        <path id="path520" style="fill:#371a45;fill-opacity:1;fill-rule:nonzero;stroke:none"
          d="m 16300,14537.7 c -17.6,41.7 -42,80.6 -71.8,116.6 0,0 0,0 0,0.1 29.8,-36.1 54.2,-75 71.8,-116.7" />
      </g>
      <g transform="scale(1.5419)" id="g522">
        <path id="path524" style="fill:#b9afbe;fill-opacity:1;fill-rule:nonzero;stroke:none"
          d="m 15622.7,10162.6 c -162.6,0 -319.1,37.4 -462.8,105.5 -55.9,26.4 -109.7,57.5 -161.4,92.9 -107.5,73.6 -205,165.7 -288.8,272.5 -15.2,19.4 -30,39.3 -44.4,59.8 -104.3,148.5 -183.6,321.9 -229.7,511.9 -0.1,0.3 -0.1,0.4 -0.1,0.7 -0.2,0.5 -0.3,1.1 -0.5,1.6 -37.1,154.2 -52.4,319.4 -41.5,491 1.2,18.6 2.7,37.2 4.6,56 9.4,97.2 20.2,181.2 31.9,254.6 6.3,39.2 12.7,75.3 19.4,108.8 49.8,251.6 107.7,356 133.4,479.1 7.5,35.7 12.2,72.9 13.3,115.8 0.1,4.6 0.2,9.3 0.2,14.1 0.2,47.4 -3.9,102 -13.7,168.6 -4.6,30.9 -13.1,60.3 -24.9,88.3 -15.8,37.2 -37.6,71.9 -64.2,104.2 -93.2,113.1 -245.3,196.4 -404.1,257.1 -296.8,113.3 -616.6,147.1 -616.6,147.1 h -390.5 c 0,0 -319.8,-33.8 -616.6,-147.1 -76.7,-29.3 -152,-64 -219.7,-104.7 -142.3,-85.6 -251.7,-198 -273.4,-344.8 -1.5,-10.2 -2.9,-20 -4.1,-29.7 -30.1,-232.9 14.5,-311.7 71.5,-491.3 40.2,-126.7 86.5,-303.6 117,-620.1 7.1,-72.5 9.4,-144 7.3,-214 -4.3,-146.3 -27.7,-286.6 -67.2,-417.8 -117.4,-390 -377.1,-700.7 -702,-854.6 -143.7,-68.1 -300.1,-105.5 -462.6,-105.5 -66.3,0 -133.5,6.2 -201.3,19 -226.6,43.1 -377.5,156.7 -476.1,304.3 78.9,-13.1 157.3,-19.4 234.3,-19.4 846.9,0 1553.9,760.2 1453.8,1703.4 -90.5,849.1 -295.5,769.9 -219.8,1235.9 85.5,527.2 1321.6,645.9 1321.6,645.9 h 465.1 c 0,0 1236.2,-118.7 1321.6,-645.9 75.5,-466 -129.5,-386.8 -219.7,-1235.9 -100.1,-943.1 606.9,-1703.3 1453.7,-1703.4 77.2,0 155.3,6.3 234.3,19.4 -98.6,-147.6 -249.5,-261.2 -476,-304.3 -5.7,-1 -11.2,-2.1 -16.8,-3 -49.4,-8.6 -98.6,-13.6 -147.2,-15.4 -12.5,-0.4 -24.9,-0.6 -37.3,-0.6" />
      </g>
      <g transform="scale(1.61613)" id="g526">
        <path id="path528" style="fill:#371a45;fill-opacity:1;fill-rule:nonzero;stroke:none"
          d="m 13490,13500.3 c 168.3,115.6 355.5,193.9 552,247.6 98.1,27.2 199.1,44.8 301,56.8 102.2,10.1 205.5,12 308.8,6.3 103.4,-5.7 206,-23.5 307.3,-46.6 101.6,-23 199.4,-59.7 295.6,-99.3 190,-85.1 364.1,-202.3 517.8,-338.9 152.4,-135.5 290.2,-298 389.1,-485.9 47.8,-95 86.2,-195.7 109.5,-301 22,-105.4 28.9,-214 20.9,-320.7 -15.6,-214.4 -89.2,-417.7 -192.2,-597.2 -51.4,-90.2 -110.4,-175.3 -174.5,-255.7 -32.4,-40 -65.6,-79.3 -100.9,-116.8 -17.6,-19 -35.4,-37.5 -53.9,-55.9 -18.8,-18.6 -36.2,-35.5 -58.8,-55.2 l 30.9,98.5 c 17.9,-72.8 29.8,-140 40.5,-210.4 10.4,-69.8 18,-139.9 22.6,-210.5 9.5,-141.2 7,-284.5 -14.7,-428.2 -11.6,-71.7 -27.5,-143.6 -51.2,-214.3 -24.3,-70.5 -55.7,-139.7 -96.1,-205.25 -41.8,-64.79 -93,-124.56 -152.2,-175.98 -60.2,-50.49 -128.3,-90.28 -199.3,-121.03 -71.5,-27.84 -145.8,-48.88 -219.2,-59.03 -36.6,-6.68 -73.9,-8.42 -111,-11.82 -37.1,-0.43 -74.5,-2.6 -111.6,0.43 -74.5,2.97 -148.6,14.85 -220.6,33.42 -72.3,17.76 -142.2,43.99 -209,75.8 -268.4,127.59 -479.8,351.06 -612.7,608.56 -133,258.5 -190.7,552.3 -173.1,839.7 4,73.1 13.1,140.2 20.9,209.7 l 14.9,103.8 18.3,103.7 c 14.3,69.2 29.7,138.6 50.1,206.7 19.4,68 43.8,135.1 62.1,195 18.3,60 27.2,112.8 26.6,172.4 0.6,14.5 -0.7,29.9 -1.7,45.1 -0.9,15.3 -1.6,30.4 -4,46.3 l -5.7,47 c -3,12.5 -4.6,24.1 -8.1,35.9 -27.8,93.3 -117.4,175.8 -224.8,235.8 -107.6,61.1 -230.5,105.4 -355.9,140.3 -125.2,34.4 -257.6,60.7 -384,76.1 l 10.2,-0.5 h -372.5 l 10.3,0.5 c -126.4,-15.4 -258.9,-41.7 -384,-76.1 -125.5,-34.9 -248.3,-79.2 -355.9,-140.3 -107.4,-60 -197,-142.5 -224.7,-235.8 -3.6,-11.8 -5.2,-23.4 -8.2,-35.9 l -5.8,-47 c -2.3,-15.9 -3,-31 -3.9,-46.3 -1.1,-15.2 -2.3,-30.6 -1.7,-45.1 -0.6,-59.6 8.3,-112.4 26.7,-172.4 18.2,-59.9 42.5,-127 62,-195 20.4,-68.1 35.8,-137.5 50.1,-206.7 l 18.4,-103.7 14.8,-103.8 c 7.7,-69.5 16.8,-136.6 20.9,-209.7 17.6,-287.4 -40.1,-581.2 -173.1,-839.7 -132.9,-257.5 -344.3,-480.97 -612.8,-608.56 -66.8,-31.81 -136.6,-58.04 -208.9,-75.8 -72,-18.57 -146.1,-30.45 -220.6,-33.42 -37.2,-3.03 -74.5,-0.86 -111.7,-0.43 -37.1,3.4 -74.4,5.14 -110.9,11.82 -73.4,10.15 -147.7,31.19 -219.3,59.03 -70.94,30.75 -139,70.54 -199.27,121.03 -59.22,51.42 -110.39,111.19 -152.21,175.98 -40.29,65.55 -71.72,134.75 -96.1,205.25 -23.57,70.7 -39.47,142.6 -51.17,214.3 -21.72,143.7 -24.19,287 -14.73,428.2 4.65,70.6 12.25,140.7 22.59,210.5 10.7,70.4 22.64,137.6 40.53,210.4 l 30.87,-98.5 c -22.52,19.7 -39.84,36.6 -58.78,55.2 -18.44,18.4 -36.32,36.9 -53.89,55.9 -35.27,37.5 -68.5,76.8 -100.86,116.8 -64.17,80.4 -123.01,165.5 -174.55,255.7 -102.78,179.6 -176.85,382.8 -191.82,597.2 -7.61,106.8 -0.37,215.2 21.97,320.4 23.63,105 62.24,205.5 110.38,300.1 100.06,186.8 238.41,347.9 391.43,481.9 153.21,136.2 325.53,254.6 515.11,339.9 188.5,86.6 393,142.5 600.3,157.2 103.6,7.7 207.4,5 310.2,-3.9 102.5,-10.5 203.8,-29 302.7,-54.9 98.6,-27.3 194.8,-61.6 287,-104.2 92.3,-43 180.4,-91.6 262.5,-154.8 14.4,-11.1 17.1,-31.6 6,-45.9 -8.7,-11.5 -23.7,-15.5 -36.6,-11 l -2.1,0.7 c -181.4,63.4 -368.9,110.4 -554.5,141.3 -93.1,15.5 -186.6,24 -279.7,30 -46.7,0.6 -93.3,3.4 -139.6,1.3 -23.2,-0.6 -46.5,-0.6 -69.6,-1.8 l -69.3,-5 c -184.3,-15.9 -365.8,-58.6 -535.8,-132.1 -85,-36.7 -167.06,-80.7 -244.84,-131.9 -77.9,-50.9 -152.77,-107.2 -222.08,-170.4 -142.19,-124.4 -262.54,-267.2 -348.3,-426.7 -40.84,-80.4 -73.01,-164.4 -92.69,-251.2 -18.31,-87 -24.31,-176.2 -18.07,-265.2 12.38,-178.3 74.87,-354 166.7,-514.4 45.91,-80.4 99.13,-157.3 157.35,-230.4 29.39,-36.3 59.65,-72.1 91.58,-106 15.84,-17.1 31.99,-33.9 48.39,-50.1 15.96,-15.9 33.96,-33.1 48.38,-45.8 l 45.3,-39.7 -14.42,-58.8 c -14.48,-59.2 -26.8,-126 -36.32,-189.9 -9.59,-64.8 -16.65,-129.8 -20.92,-194.9 -8.78,-130 -6.12,-260 12.81,-385.3 10.21,-62.4 23.82,-123.6 43.31,-182 20.11,-57.9 45.36,-112.8 76.17,-163.3 32.18,-49.5 70.23,-93.45 113.48,-131.44 44.17,-36.88 94.37,-66.08 147.97,-89.72 55.2,-20.92 112.3,-37.87 173.7,-46.29 30.3,-5.75 61.1,-6.8 91.7,-9.83 30.7,-0.13 61.4,-2.29 92,0.43 61.4,2.29 122.4,12.19 181.9,27.53 59.8,14.55 117.8,36.45 173.7,63 224.3,106.36 407.4,297.42 523.2,522.02 115.9,225.4 167.4,483.8 151.7,738.9 -3.3,62.7 -12.3,130.5 -19.7,196 l -14,98.1 -17.1,97 c -13.3,63.9 -27.3,127.3 -46,189.5 -17.8,62.8 -40.1,123.5 -61.6,193.6 -21.9,69.8 -36.2,152.4 -34.9,228.9 -0.5,19.5 0.8,38 2.1,56.7 1.1,18.7 2.1,37.5 4.7,55.3 l 6.7,54.1 c 4.1,20.7 8,42.9 14.2,63.5 25.5,84 75,155.8 131,212.1 56.4,56.9 119.5,100.4 183.9,137.2 129.3,73.1 264.6,120.9 400.7,158.9 137,37.4 271.9,64.6 415.4,82 l 4.4,0.6 h 5.8 372.5 5.8 l 4.5,-0.6 c 143.5,-17.4 278.3,-44.6 415.4,-82 136,-38 271.4,-85.8 400.7,-158.9 64.3,-36.8 127.5,-80.3 183.9,-137.2 56,-56.3 105.5,-128.1 130.9,-212.1 6.3,-20.6 10.2,-42.8 14.2,-63.5 l 6.7,-54.1 c 2.6,-17.8 3.6,-36.6 4.8,-55.3 1.2,-18.7 2.6,-37.2 2,-56.7 1.4,-76.5 -12.9,-159.1 -34.8,-228.9 -21.5,-70.1 -43.8,-130.8 -61.6,-193.6 -18.7,-62.2 -32.7,-125.6 -46,-189.5 l -17.1,-97 -14,-98.1 c -7.4,-65.5 -16.4,-133.3 -19.7,-196 -15.7,-255.1 35.8,-513.5 151.6,-738.9 115.9,-224.6 299,-415.66 523.3,-522.02 55.8,-26.55 113.9,-48.45 173.7,-63 59.5,-15.34 120.4,-25.24 181.8,-27.53 30.6,-2.72 61.4,-0.56 92.1,-0.43 30.6,3.03 61.4,4.08 91.7,9.83 61.4,8.42 118.5,25.37 173.6,46.29 53.7,23.64 103.8,52.84 148,89.72 43.3,37.99 81.4,81.94 113.5,131.44 30.9,50.5 56.1,105.4 76.2,163.3 19.5,58.4 33.1,119.6 43.3,182 18.9,125.3 21.6,255.3 12.9,385.3 -4.4,65.1 -11.4,130.1 -21,194.9 -9.6,63.9 -21.8,130.7 -36.3,189.9 l -14.5,58.8 45.3,39.7 c 14.5,12.7 32.5,29.9 48.4,45.8 16.4,16.2 32.6,33 48.5,50.1 31.8,33.9 62.1,69.7 91.5,106 58.2,73.1 111.4,150 157.3,230.4 91.7,160.4 154.7,336.1 166.4,514.4 5.9,89 -0.4,178.1 -19.1,264.9 -20,86.5 -52.5,170.2 -93.6,250.3 -86.7,158.6 -208.2,299.4 -350.2,423.1 -139.9,124.1 -296.5,226.5 -464.2,303.6 -168.7,74.9 -348.7,124.6 -533.8,142.2 -185,19.2 -374,10.3 -561.1,-20.1 -186.7,-30.8 -374.6,-81.4 -552.2,-152.3 l -2.2,-0.9 c -16.7,-6.6 -35.6,1.5 -42.2,18.2 -5.8,14.4 -0.5,30.4 11.7,38.9" />
      </g>
      <g transform="scale(1.56368)" id="g530">
        <path id="path532" style="fill:#371a45;fill-opacity:1;fill-rule:nonzero;stroke:none"
          d="m 16211.4,11494.2 -69.3,-22.1 c -25.6,-7.2 -51.3,-13.9 -77.3,-18.8 -51.8,-10.4 -103.7,-16.1 -155.2,-17.7 -102.9,-3.3 -203.3,8.7 -300.1,29.3 -96.3,23 -189.4,52.9 -278.5,90.7 -44.9,17.7 -87.7,40.4 -131.3,60.3 -42.6,22.2 -84.4,45.6 -126.4,68.2 45.5,-15 90.5,-30.6 135.7,-44.8 46.1,-11.8 91.1,-26.4 137.4,-35.7 91.9,-21.1 184.8,-33.4 276.6,-38.8 91.9,-3.2 182.8,2.5 269.1,20.9 43.1,9 84.8,21.5 124.5,37.1 19.9,7.6 39.1,16.5 58.2,25.8 l 62.3,32.9 c 49.5,26 110.8,7 136.9,-42.5 26,-49.5 7,-110.8 -42.5,-136.8 -5.2,-2.7 -10.5,-5 -15.9,-6.8 l -4.2,-1.2" />
      </g>
      <g transform="scale(1.12291)" id="g534">
        <path id="path536" style="fill:#371a45;fill-opacity:1;fill-rule:nonzero;stroke:none"
          d="m 14006.3,16266.8 86.9,-45.8 c 26.5,-12.9 53.3,-25.3 81,-35.9 55.3,-21.8 113.3,-39.2 173.4,-51.7 120,-25.6 246.6,-33.5 374.6,-29.1 127.9,7.5 257.3,24.6 385.3,54.1 64.4,12.9 127.1,33.2 191.3,49.6 62.9,19.8 125.5,41.6 188.8,62.4 -58.4,-31.4 -116.5,-64.1 -175.9,-95 -60.7,-27.6 -120.3,-59.2 -182.9,-83.9 -124,-52.6 -253.7,-94.3 -387.8,-126.3 -134.7,-28.7 -274.5,-45.5 -417.9,-40.8 -71.6,2.2 -144,10.1 -216.2,24.6 -36,6.9 -71.9,16.2 -107.5,26.2 l -96.5,30.7 -5.1,1.6 c -74.2,23.6 -115.3,102.9 -91.7,177.2 23.6,74.2 103,115.3 177.2,91.7 7.8,-2.5 16,-6 23,-9.6" />
      </g>
      <g transform="scale(1.61325)" id="g538">
        <path id="path540" style="fill:#371a45;fill-opacity:1;fill-rule:nonzero;stroke:none"
          d="m 16183.1,11942.9 c -5.1,0 -10.2,0.5 -15.4,1.7 -39.5,8.4 -64.8,47.3 -56.3,86.9 33.8,157.5 9.2,269.2 -75.1,341.4 -349.5,299.9 -1605.4,-83.1 -2059.8,-256.1 -37.8,-14.4 -80.1,4.6 -94.5,42.4 -14.4,37.8 4.6,80.1 42.4,94.5 175.6,66.8 1729,640.8 2207.2,230.5 127.1,-109 168.4,-271.6 123,-483.4 -7.3,-34.4 -37.7,-57.9 -71.5,-57.9" />
      </g>
      <g transform="scale(1.2762)" id="g542">
        <path id="path544" style="fill:#371a45;fill-opacity:1;fill-rule:nonzero;stroke:none"
          d="m 11663.9,15097.1 c -42.7,0 -81.1,29.7 -90.4,73.1 -57.4,267.8 -5.1,473.3 155.4,611.1 604.6,518.7 2568.4,-206.9 2790.3,-291.4 47.8,-18.1 71.7,-71.6 53.6,-119.4 -18.2,-47.7 -71.7,-71.7 -119.5,-53.6 -574.6,218.6 -2162.3,702.7 -2603.8,323.8 -106.6,-91.4 -137.6,-232.6 -95,-431.7 10.7,-50 -21.1,-99.2 -71.1,-109.8 -6.6,-1.4 -13.1,-2.1 -19.5,-2.1" />
      </g>
    </g>
  </g>
</svg>